<?xml version="1.0" encoding="UTF-8"?>
<svg xmlns="http://www.w3.org/2000/svg" xmlns:xlink="http://www.w3.org/1999/xlink" width="1024pt" height="883pt" viewBox="0 0 1024 883" version="1.1">
<g id="surface1">
<path style="fill-rule:evenodd;fill:rgb(49.803162%,49.803162%,49.803162%);fill-opacity:0.5;stroke-width:1;stroke-linecap:butt;stroke-linejoin:miter;stroke:rgb(0%,0%,0%);stroke-opacity:1;stroke-miterlimit:10;" d="M 353.128906 0.964844 L 353.492188 0 L 925.171875 146.152344 L 1024 883 L 188.285156 865.824219 L 53.503906 772.496094 L 53.664063 772.214844 L 53.753906 772.0625 L 53.949219 771.765625 L 54.054688 771.621094 L 54.167969 771.480469 L 54.398438 771.199219 L 54.636719 770.929688 L 55.007813 770.527344 L 55.378906 770.132813 L 56.25 769.230469 L 56.488281 768.96875 L 56.605469 768.835938 L 56.71875 768.699219 L 56.824219 768.5625 L 56.917969 768.417969 L 57.003906 768.269531 L 57.074219 768.105469 L 57.132813 767.9375 L 57.179688 767.761719 L 57.21875 767.585938 L 57.289063 767.222656 L 57.378906 766.671875 L 57.457031 766.121094 L 57.5 765.75 L 57.515625 765.566406 L 57.527344 765.378906 L 57.539063 765.007813 L 57.539063 764.636719 L 57.535156 764.261719 L 57.523438 763.890625 L 57.507813 763.707031 L 57.492188 763.519531 L 57.46875 763.347656 L 57.441406 763.171875 L 57.382813 762.828125 L 57.25 762.136719 L 57.222656 761.964844 L 57.195313 761.796875 L 57.179688 761.625 L 57.167969 761.457031 L 57.171875 761.292969 L 57.195313 761.132813 L 57.238281 760.96875 L 57.300781 760.808594 L 57.375 760.648438 L 57.457031 760.492188 L 57.550781 760.339844 L 57.746094 760.035156 L 57.949219 759.730469 L 58.164063 759.429688 L 58.382813 759.136719 L 58.496094 758.992188 L 58.613281 758.851563 L 58.734375 758.71875 L 58.859375 758.597656 L 58.988281 758.476563 L 59.121094 758.363281 L 59.519531 758.019531 L 59.648438 757.902344 L 59.773438 757.777344 L 59.886719 757.652344 L 59.996094 757.511719 L 60.097656 757.367188 L 60.285156 757.0625 L 60.371094 756.90625 L 60.539063 756.585938 L 60.699219 756.265625 L 60.773438 756.101563 L 60.84375 755.941406 L 60.910156 755.777344 L 60.96875 755.609375 L 61.015625 755.445313 L 61.046875 755.273438 L 61.0625 755.101563 L 61.0625 754.925781 L 61.054688 754.75 L 61.039063 754.574219 L 61.015625 754.394531 L 60.960938 754.035156 L 60.839844 753.320313 L 60.792969 752.960938 L 60.777344 752.785156 L 60.765625 752.609375 L 60.769531 752.433594 L 60.785156 752.261719 L 60.816406 752.09375 L 60.859375 751.929688 L 60.914063 751.769531 L 60.976563 751.605469 L 61.117188 751.285156 L 61.488281 750.484375 L 61.558594 750.320313 L 61.625 750.160156 L 61.683594 749.996094 L 61.738281 749.832031 L 61.777344 749.664063 L 61.808594 749.492188 L 61.824219 749.320313 L 61.835938 749.144531 L 61.839844 748.972656 L 61.835938 748.617188 L 61.8125 747.90625 L 61.773438 747.195313 L 61.746094 746.839844 L 61.730469 746.664063 L 61.707031 746.484375 L 61.679688 746.3125 L 61.644531 746.140625 L 61.601563 745.96875 L 61.554688 745.800781 L 61.453125 745.464844 L 61.339844 745.132813 L 61.28125 744.972656 L 61.21875 744.808594 L 61.152344 744.652344 L 61.078125 744.5 L 61 744.351563 L 60.910156 744.214844 L 60.808594 744.089844 L 60.683594 743.976563 L 60.546875 743.875 L 60.402344 743.78125 L 60.246094 743.699219 L 60.085938 743.617188 L 59.757813 743.464844 L 59.253906 743.246094 L 58.917969 743.109375 L 58.75 743.046875 L 58.585938 742.984375 L 58.421875 742.933594 L 58.261719 742.890625 L 58.101563 742.863281 L 57.953125 742.855469 L 57.804688 742.875 L 57.671875 742.929688 L 57.542969 743.007813 L 57.417969 743.109375 L 57.296875 743.222656 L 57.179688 743.34375 L 56.820313 743.734375 L 56.695313 743.863281 L 56.566406 743.988281 L 56.429688 744.113281 L 56.140625 744.339844 L 55.988281 744.449219 L 55.839844 744.554688 L 55.53125 744.757813 L 55.375 744.855469 L 55.21875 744.945313 L 55.058594 745.035156 L 54.898438 745.113281 L 54.734375 745.183594 L 54.566406 745.238281 L 54.390625 745.277344 L 54.214844 745.304688 L 54.035156 745.320313 L 53.851563 745.328125 L 53.667969 745.328125 L 53.300781 745.324219 L 52.929688 745.300781 L 52.746094 745.285156 L 52.558594 745.265625 L 52.378906 745.238281 L 52.199219 745.207031 L 51.835938 745.136719 L 51.480469 745.050781 L 51.304688 745.007813 L 51.132813 744.957031 L 50.960938 744.902344 L 50.792969 744.839844 L 50.632813 744.769531 L 50.476563 744.6875 L 50.335938 744.589844 L 50.199219 744.476563 L 50.070313 744.359375 L 49.941406 744.230469 L 49.699219 743.964844 L 49.460938 743.691406 L 48.867188 742.992188 L 48.628906 742.71875 L 48.378906 742.453125 L 48.25 742.324219 L 48.121094 742.199219 L 47.980469 742.082031 L 47.839844 741.96875 L 47.691406 741.855469 L 47.394531 741.644531 L 47.089844 741.433594 L 46.175781 740.816406 L 45.722656 740.5 L 45.574219 740.390625 L 45.429688 740.28125 L 45.289063 740.164063 L 45.15625 740.042969 L 45.03125 739.917969 L 44.910156 739.785156 L 44.792969 739.652344 L 44.570313 739.371094 L 44.355469 739.085938 L 44.25 738.941406 L 44.050781 738.644531 L 43.953125 738.496094 L 43.863281 738.34375 L 43.78125 738.1875 L 43.707031 738.019531 L 43.636719 737.851563 L 43.578125 737.679688 L 43.464844 737.328125 L 42.996094 735.738281 L 42.777344 735.035156 L 42.230469 733.292969 L 42.125 732.941406 L 42.03125 732.589844 L 41.988281 732.414063 L 41.949219 732.238281 L 41.921875 732.0625 L 41.898438 731.886719 L 41.863281 731.535156 L 41.808594 730.832031 L 41.777344 730.480469 L 41.757813 730.304688 L 41.738281 730.132813 L 41.707031 729.960938 L 41.671875 729.792969 L 41.621094 729.628906 L 41.601563 729.570313 L 41.5625 729.472656 L 41.492188 729.316406 L 41.414063 729.167969 L 41.332031 729.019531 L 41.246094 728.871094 L 40.792969 728.136719 L 40.707031 727.984375 L 40.625 727.835938 L 40.542969 727.675781 L 40.386719 727.347656 L 40.175781 726.851563 L 39.972656 726.347656 L 39.847656 726.011719 L 39.789063 725.839844 L 39.730469 725.671875 L 39.679688 725.496094 L 39.636719 725.320313 L 39.597656 725.144531 L 39.535156 724.789063 L 39.453125 724.25 L 39.417969 723.894531 L 39.40625 723.71875 L 39.398438 723.542969 L 39.40625 723.375 L 39.425781 723.207031 L 39.464844 723.046875 L 39.527344 722.894531 L 39.613281 722.746094 L 39.710938 722.605469 L 39.820313 722.464844 L 39.9375 722.328125 L 40.183594 722.0625 L 40.3125 721.929688 L 40.570313 721.671875 L 40.839844 721.417969 L 40.976563 721.296875 L 41.121094 721.183594 L 41.265625 721.074219 L 41.410156 720.980469 L 41.558594 720.890625 L 41.710938 720.808594 L 42.023438 720.652344 L 42.648438 720.34375 L 42.957031 720.179688 L 43.109375 720.089844 L 43.261719 719.996094 L 43.5625 719.804688 L 43.855469 719.605469 L 44.425781 719.21875 L 44.742188 719.007813 L 45.1875 718.714844 L 45.339844 718.625 L 45.496094 718.535156 L 45.652344 718.453125 L 45.96875 718.292969 L 46.605469 717.988281 L 46.917969 717.832031 L 47.066406 717.746094 L 47.207031 717.65625 L 47.339844 717.554688 L 47.460938 717.441406 L 47.570313 717.316406 L 47.664063 717.179688 L 47.746094 717.03125 L 47.828125 716.878906 L 47.902344 716.71875 L 47.972656 716.558594 L 48.109375 716.230469 L 48.371094 715.5625 L 48.558594 715.0625 L 48.617188 714.894531 L 48.667969 714.726563 L 48.714844 714.5625 L 48.753906 714.394531 L 48.78125 714.230469 L 48.789063 714.0625 L 48.773438 713.894531 L 48.742188 713.722656 L 48.699219 713.554688 L 48.644531 713.382813 L 48.519531 713.046875 L 48.449219 712.878906 L 48.300781 712.546875 L 48.222656 712.382813 L 48.140625 712.21875 L 48.054688 712.058594 L 47.964844 711.902344 L 47.863281 711.753906 L 47.753906 711.617188 L 47.640625 711.484375 L 47.519531 711.355469 L 47.265625 711.105469 L 47.003906 710.863281 L 46.214844 710.140625 L 46.039063 709.972656 L 45.832031 709.765625 L 45.710938 709.636719 L 45.59375 709.503906 L 45.480469 709.359375 L 45.371094 709.210938 L 45.269531 709.058594 L 45.066406 708.75 L 44.777344 708.273438 L 44.597656 707.953125 L 44.507813 707.789063 L 44.351563 707.460938 L 44.289063 707.289063 L 44.238281 707.125 L 44.195313 706.957031 L 44.164063 706.789063 L 44.132813 706.617188 L 44.109375 706.449219 L 44.078125 706.105469 L 44.070313 705.933594 L 44.070313 705.761719 L 44.082031 705.59375 L 44.105469 705.429688 L 44.148438 705.257813 L 44.203125 705.085938 L 44.269531 704.917969 L 44.34375 704.753906 L 44.425781 704.585938 L 44.59375 704.261719 L 44.773438 703.9375 L 44.960938 703.625 L 45.0625 703.472656 L 45.167969 703.332031 L 45.28125 703.195313 L 45.402344 703.070313 L 45.535156 702.96875 L 45.671875 702.878906 L 45.820313 702.792969 L 45.972656 702.71875 L 46.128906 702.644531 L 46.285156 702.574219 L 46.671875 702.410156 L 46.929688 702.296875 L 47.089844 702.226563 L 47.402344 702.078125 L 47.558594 701.992188 L 47.714844 701.898438 L 47.867188 701.796875 L 48.019531 701.691406 L 48.3125 701.46875 L 48.597656 701.238281 L 48.738281 701.117188 L 48.871094 700.996094 L 49 700.871094 L 49.121094 700.742188 L 49.230469 700.605469 L 49.324219 700.460938 L 49.394531 700.3125 L 49.453125 700.152344 L 49.496094 699.988281 L 49.535156 699.816406 L 49.566406 699.644531 L 49.621094 699.292969 L 49.691406 698.757813 L 49.753906 698.222656 L 49.792969 697.867188 L 49.820313 697.511719 L 49.832031 697.332031 L 49.839844 697.152344 L 49.839844 696.972656 L 49.835938 696.789063 L 49.816406 696.425781 L 49.765625 695.699219 L 49.742188 695.335938 L 49.730469 694.972656 L 49.730469 694.792969 L 49.742188 694.613281 L 49.757813 694.433594 L 49.78125 694.253906 L 49.894531 693.542969 L 49.921875 693.367188 L 49.941406 693.1875 L 49.953125 693.011719 L 49.957031 692.835938 L 49.953125 692.660156 L 49.945313 692.488281 L 49.933594 692.3125 L 49.898438 691.960938 L 49.8125 691.257813 L 49.679688 690.203125 L 49.605469 689.671875 L 49.523438 689.140625 L 49.457031 688.789063 L 49.417969 688.617188 L 49.375 688.449219 L 49.320313 688.28125 L 49.253906 688.121094 L 49.171875 687.96875 L 49.078125 687.816406 L 48.976563 687.671875 L 48.867188 687.53125 L 48.753906 687.390625 L 48.515625 687.117188 L 48.269531 686.851563 L 48.144531 686.722656 L 48.015625 686.597656 L 47.992188 686.574219 L 47.886719 686.476563 L 47.75 686.363281 L 47.609375 686.261719 L 47.460938 686.171875 L 47.300781 686.097656 L 47.132813 686.035156 L 46.960938 685.984375 L 46.257813 685.8125 L 46.085938 685.765625 L 45.917969 685.707031 L 45.761719 685.640625 L 45.617188 685.554688 L 45.492188 685.449219 L 45.375 685.328125 L 45.269531 685.191406 L 45.167969 685.046875 L 45.070313 684.898438 L 44.980469 684.742188 L 44.796875 684.425781 L 44.351563 683.621094 L 44.261719 683.460938 L 43.886719 682.851563 L 43.597656 682.398438 L 43.402344 682.097656 L 43.203125 681.800781 L 43.101563 681.65625 L 42.996094 681.511719 L 42.886719 681.375 L 42.773438 681.242188 L 42.652344 681.117188 L 42.519531 681 L 42.382813 680.890625 L 42.238281 680.789063 L 42.09375 680.691406 L 41.941406 680.597656 L 41.789063 680.507813 L 41.632813 680.421875 L 41.476563 680.34375 L 41.316406 680.273438 L 41.152344 680.210938 L 40.980469 680.15625 L 40.804688 680.113281 L 40.628906 680.074219 L 40.273438 680.015625 L 39.914063 679.960938 L 39.191406 679.867188 L 38.648438 679.804688 L 38.289063 679.773438 L 37.925781 679.75 L 37.019531 679.730469 L 36.660156 679.710938 L 36.480469 679.699219 L 36.304688 679.675781 L 36.128906 679.644531 L 35.957031 679.597656 L 35.785156 679.542969 L 35.617188 679.480469 L 35.449219 679.414063 L 35.28125 679.339844 L 34.949219 679.191406 L 34.117188 678.804688 L 33.78125 678.660156 L 33.609375 678.589844 L 33.4375 678.523438 L 33.097656 678.40625 L 32.414063 678.1875 L 32.082031 678.074219 L 31.921875 678.015625 L 31.769531 677.945313 L 31.625 677.871094 L 31.492188 677.785156 L 31.378906 677.679688 L 31.289063 677.558594 L 31.21875 677.421875 L 31.160156 677.273438 L 31.113281 677.113281 L 31.070313 676.953125 L 31.035156 676.785156 L 30.972656 676.441406 L 30.921875 676.09375 L 30.898438 675.917969 L 30.882813 675.742188 L 30.871094 675.566406 L 30.867188 675.390625 L 30.875 675.210938 L 30.886719 675.035156 L 30.902344 674.859375 L 30.949219 674.503906 L 31.027344 673.972656 L 31.171875 673.089844 L 31.265625 672.5625 L 31.335938 672.207031 L 31.457031 671.671875 L 31.667969 670.785156 L 32.207031 668.636719 L 32.386719 667.917969 L 32.507813 667.386719 L 32.777344 666.148438 L 32.859375 665.792969 L 32.945313 665.445313 L 32.996094 665.273438 L 33.050781 665.101563 L 33.113281 664.933594 L 33.183594 664.769531 L 33.261719 664.605469 L 33.347656 664.445313 L 33.4375 664.285156 L 33.714844 663.8125 L 34.191406 663.027344 L 34.378906 662.710938 L 34.5625 662.394531 L 34.734375 662.074219 L 34.972656 661.601563 L 35.589844 660.320313 L 35.75 660.003906 L 35.917969 659.691406 L 36.007813 659.539063 L 36.101563 659.390625 L 36.199219 659.246094 L 36.402344 658.964844 L 36.609375 658.683594 L 36.824219 658.40625 L 37.042969 658.136719 L 37.15625 658.003906 L 37.269531 657.875 L 37.386719 657.746094 L 37.511719 657.628906 L 37.640625 657.515625 L 37.777344 657.414063 L 37.921875 657.316406 L 38.070313 657.226563 L 38.222656 657.140625 L 38.53125 656.980469 L 39.007813 656.746094 L 39.328125 656.601563 L 39.648438 656.464844 L 39.8125 656.402344 L 39.976563 656.34375 L 40.144531 656.296875 L 40.316406 656.257813 L 40.492188 656.226563 L 40.671875 656.203125 L 40.847656 656.183594 L 41.207031 656.152344 L 41.929688 656.105469 L 42.289063 656.074219 L 42.648438 656.039063 L 42.828125 656.015625 L 43.003906 655.988281 L 43.179688 655.953125 L 43.242188 655.9375 L 43.355469 655.90625 L 43.53125 655.855469 L 43.703125 655.796875 L 44.382813 655.5625 L 44.550781 655.511719 L 44.71875 655.46875 L 44.882813 655.433594 L 45.046875 655.417969 L 45.207031 655.425781 L 45.367188 655.460938 L 45.519531 655.519531 L 45.675781 655.59375 L 45.828125 655.679688 L 45.980469 655.777344 L 46.128906 655.875 L 46.730469 656.300781 L 46.882813 656.402344 L 47.035156 656.5 L 47.1875 656.59375 L 47.34375 656.675781 L 47.503906 656.742188 L 47.664063 656.792969 L 47.828125 656.816406 L 47.996094 656.824219 L 48.164063 656.816406 L 48.335938 656.800781 L 48.511719 656.78125 L 48.683594 656.753906 L 49.035156 656.6875 L 49.390625 656.621094 L 50.09375 656.476563 L 50.445313 656.398438 L 50.789063 656.3125 L 50.960938 656.261719 L 51.125 656.203125 L 51.289063 656.136719 L 51.441406 656.058594 L 51.59375 655.972656 L 51.882813 655.777344 L 52.027344 655.671875 L 52.167969 655.566406 L 52.445313 655.347656 L 52.710938 655.121094 L 52.839844 655 L 52.960938 654.878906 L 53.074219 654.75 L 53.175781 654.617188 L 53.265625 654.472656 L 53.34375 654.324219 L 53.417969 654.171875 L 53.480469 654.015625 L 53.542969 653.855469 L 53.660156 653.53125 L 53.824219 653.035156 L 54.148438 652.050781 L 54.304688 651.5625 L 54.40625 651.234375 L 54.496094 650.90625 L 54.535156 650.734375 L 54.609375 650.390625 L 54.703125 649.867188 L 54.789063 649.34375 L 54.863281 648.820313 L 54.902344 648.46875 L 54.914063 648.300781 L 54.929688 647.964844 L 54.960938 647.121094 L 54.980469 646.78125 L 55 646.605469 L 55.042969 646.253906 L 55.203125 645.195313 L 55.25 644.847656 L 55.265625 644.675781 L 55.28125 644.5 L 55.285156 644.332031 L 55.277344 644.160156 L 55.253906 643.996094 L 55.214844 643.828125 L 55.15625 643.664063 L 55.085938 643.503906 L 55.011719 643.34375 L 54.925781 643.1875 L 54.75 642.871094 L 54.292969 642.085938 L 54.113281 641.765625 L 54.027344 641.605469 L 53.945313 641.445313 L 53.785156 641.117188 L 53.328125 640.132813 L 53.171875 639.804688 L 53.089844 639.644531 L 53.003906 639.488281 L 52.914063 639.335938 L 52.820313 639.1875 L 52.714844 639.046875 L 52.59375 638.914063 L 52.460938 638.789063 L 52.324219 638.667969 L 52.035156 638.441406 L 51.734375 638.222656 L 50.664063 637.472656 L 50.367188 637.25 L 50.222656 637.136719 L 50.082031 637.019531 L 49.949219 636.898438 L 49.828125 636.769531 L 49.71875 636.632813 L 49.625 636.484375 L 49.546875 636.328125 L 49.476563 636.164063 L 49.414063 635.992188 L 49.355469 635.820313 L 49.25 635.46875 L 48.953125 634.398438 L 48.789063 633.871094 L 48.726563 633.699219 L 48.660156 633.53125 L 48.582031 633.367188 L 48.5 633.207031 L 48.40625 633.050781 L 48.308594 632.898438 L 48.207031 632.75 L 47.996094 632.453125 L 47.5625 631.863281 L 47.355469 631.566406 L 47.253906 631.414063 L 47.160156 631.261719 L 47.070313 631.101563 L 46.992188 630.949219 L 46.921875 630.792969 L 46.859375 630.632813 L 46.734375 630.304688 L 46.625 629.976563 L 46.515625 629.644531 L 46.417969 629.308594 L 46.371094 629.132813 L 46.28125 628.773438 L 45.949219 627.335938 L 45.859375 626.976563 L 45.808594 626.800781 L 45.753906 626.628906 L 45.691406 626.457031 L 45.621094 626.292969 L 45.539063 626.132813 L 45.445313 625.972656 L 45.347656 625.820313 L 45.242188 625.667969 L 45.023438 625.367188 L 44.796875 625.074219 L 44.566406 624.78125 L 44.214844 624.347656 L 43.964844 624.074219 L 43.835938 623.941406 L 43.703125 623.820313 L 43.566406 623.703125 L 43.285156 623.476563 L 42.710938 623.035156 L 42.429688 622.808594 L 42.296875 622.6875 L 42.164063 622.558594 L 42.035156 622.429688 L 41.90625 622.292969 L 41.78125 622.15625 L 41.539063 621.878906 L 41.179688 621.457031 L 40.945313 621.167969 L 40.714844 620.878906 L 40.601563 620.730469 L 40.496094 620.585938 L 40.292969 620.289063 L 40.09375 619.988281 L 39.3125 618.773438 L 39.015625 618.320313 L 38.808594 618.027344 L 38.703125 617.882813 L 38.589844 617.746094 L 38.472656 617.609375 L 38.351563 617.484375 L 38.226563 617.363281 L 37.960938 617.128906 L 37.421875 616.675781 L 37.292969 616.558594 L 37.167969 616.441406 L 37.046875 616.320313 L 36.9375 616.191406 L 36.835938 616.054688 L 36.75 615.90625 L 36.679688 615.746094 L 36.613281 615.585938 L 36.558594 615.417969 L 36.503906 615.246094 L 36.457031 615.074219 L 36.363281 614.726563 L 36.277344 614.371094 L 36.148438 613.84375 L 36.066406 613.488281 L 35.992188 613.136719 L 35.957031 612.957031 L 35.925781 612.78125 L 35.902344 612.597656 L 35.882813 612.417969 L 35.863281 612.234375 L 35.835938 611.871094 L 35.808594 611.503906 L 35.777344 610.953125 L 35.761719 610.585938 L 35.75 610.226563 L 35.742188 609.691406 L 35.738281 608.621094 L 35.742188 607.910156 L 35.75 607.554688 L 35.761719 607.199219 L 35.773438 607.019531 L 35.792969 606.835938 L 35.835938 606.472656 L 35.992188 605.378906 L 36.035156 605.011719 L 36.054688 604.828125 L 36.066406 604.648438 L 36.078125 604.285156 L 36.078125 603.746094 L 36.074219 603.386719 L 36.066406 603.210938 L 36.054688 603.035156 L 36.039063 602.863281 L 36.011719 602.699219 L 35.976563 602.539063 L 35.929688 602.386719 L 35.859375 602.25 L 35.761719 602.125 L 35.648438 602.015625 L 35.515625 601.914063 L 35.375 601.820313 L 35.226563 601.730469 L 35.070313 601.644531 L 34.753906 601.480469 L 34.425781 601.324219 L 34.09375 601.175781 L 33.925781 601.109375 L 33.757813 601.050781 L 33.585938 601 L 33.421875 600.957031 L 33.257813 600.925781 L 33.085938 600.898438 L 32.917969 600.878906 L 32.578125 600.84375 L 32.238281 600.820313 L 32.066406 600.8125 L 31.710938 600.804688 L 31.175781 600.800781 L 29.929688 600.804688 L 29.21875 600.816406 L 28.863281 600.824219 L 28.511719 600.84375 L 27.984375 600.882813 L 27.457031 600.929688 L 27.105469 600.964844 L 24.839844 600.613281 L 22.988281 600.003906 L 21.25 598.984375 L 20.617188 597.910156 L 20.507813 597.769531 L 20.277344 597.5 L 20.164063 597.371094 L 20.042969 597.246094 L 19.925781 597.128906 L 19.804688 597.023438 L 19.679688 596.933594 L 19.550781 596.863281 L 19.414063 596.820313 L 16.921875 594.730469 L 14.140625 592.894531 L 10.429688 590.871094 L 8.695313 589.953125 L 6.734375 589.066406 L 6.578125 588.980469 L 6.253906 588.816406 L 5.257813 588.335938 L 4.765625 588.089844 L 4.441406 587.914063 L 4.285156 587.824219 L 4.128906 587.726563 L 3.824219 587.523438 L 3.523438 587.3125 L 2.925781 586.882813 L 2.480469 586.558594 L 2.1875 586.335938 L 2.046875 586.226563 L 1.90625 586.109375 L 1.769531 585.988281 L 1.640625 585.867188 L 1.519531 585.734375 L 1.410156 585.589844 L 1.304688 585.441406 L 1.207031 585.289063 L 1.117188 585.128906 L 0.9375 584.804688 L 0.6875 584.308594 L 0.527344 583.972656 L 0.449219 583.804688 L 0.378906 583.636719 L 0.3125 583.464844 L 0.253906 583.289063 L 0.203125 583.117188 L 0.164063 582.941406 L 0.128906 582.761719 L 0.0976563 582.582031 L 0.0703125 582.402344 L 0.0273438 582.042969 L 0.0117188 581.859375 L 0.00390625 581.679688 L 0 581.5 L 0.0078125 581.320313 L 0.0234375 581.144531 L 0.046875 580.964844 L 0.117188 580.613281 L 0.199219 580.261719 L 0.289063 579.910156 L 0.425781 579.382813 L 0.519531 579.03125 L 0.621094 578.683594 L 0.671875 578.511719 L 0.730469 578.339844 L 0.851563 578.003906 L 0.921875 577.828125 L 1.046875 577.507813 L 1.664063 576.027344 L 1.867188 575.53125 L 1.996094 575.199219 L 2.058594 575.023438 L 2.425781 573.976563 L 2.554688 573.628906 L 2.621094 573.457031 L 2.695313 573.289063 L 2.773438 573.121094 L 2.859375 572.960938 L 2.949219 572.804688 L 3.144531 572.492188 L 3.449219 572.039063 L 4.078125 571.132813 L 4.28125 570.828125 L 4.378906 570.675781 L 4.472656 570.519531 L 4.5625 570.363281 L 4.640625 570.203125 L 4.710938 570.039063 L 4.769531 569.871094 L 4.820313 569.699219 L 4.859375 569.527344 L 4.894531 569.351563 L 4.925781 569.171875 L 4.980469 568.8125 L 5.109375 567.914063 L 5.164063 567.554688 L 5.226563 567.199219 L 5.261719 567.027344 L 5.378906 566.523438 L 5.511719 566.023438 L 5.609375 565.695313 L 5.71875 565.367188 L 5.78125 565.207031 L 5.851563 565.046875 L 5.925781 564.886719 L 6.089844 564.574219 L 6.257813 564.265625 L 6.960938 563.03125 L 7.214844 562.5625 L 7.386719 562.234375 L 7.554688 561.902344 L 7.714844 561.566406 L 7.792969 561.398438 L 7.867188 561.226563 L 7.9375 561.058594 L 8.003906 560.882813 L 8.0625 560.710938 L 8.117188 560.535156 L 8.164063 560.359375 L 8.390625 559.46875 L 8.441406 559.289063 L 8.492188 559.113281 L 8.546875 558.941406 L 8.605469 558.769531 L 8.675781 558.601563 L 8.757813 558.445313 L 8.84375 558.292969 L 8.9375 558.140625 L 9.136719 557.84375 L 9.453125 557.410156 L 9.671875 557.125 L 9.78125 556.984375 L 9.894531 556.847656 L 10.011719 556.710938 L 10.128906 556.582031 L 10.253906 556.460938 L 10.386719 556.34375 L 10.527344 556.242188 L 10.675781 556.148438 L 10.828125 556.0625 L 10.984375 555.980469 L 11.144531 555.902344 L 11.46875 555.753906 L 12.617188 555.242188 L 13.429688 554.867188 L 13.753906 554.722656 L 13.914063 554.65625 L 14.078125 554.59375 L 14.242188 554.535156 L 14.410156 554.492188 L 14.578125 554.457031 L 14.753906 554.4375 L 14.929688 554.433594 L 15.109375 554.4375 L 15.289063 554.449219 L 16.007813 554.511719 L 16.179688 554.519531 L 16.351563 554.519531 L 16.511719 554.507813 L 16.667969 554.476563 L 16.808594 554.425781 L 16.933594 554.34375 L 17.042969 554.238281 L 17.148438 554.113281 L 17.246094 553.980469 L 17.335938 553.835938 L 17.425781 553.683594 L 17.511719 553.527344 L 17.683594 553.210938 L 17.933594 552.726563 L 18.097656 552.402344 L 18.253906 552.078125 L 18.328125 551.914063 L 18.394531 551.75 L 18.453125 551.582031 L 18.503906 551.410156 L 18.539063 551.238281 L 18.5625 551.058594 L 19.753906 546.339844 L 21.046875 542.960938 L 22.214844 539.949219 L 23.667969 536.453125 L 23.757813 536.304688 L 23.839844 536.15625 L 23.90625 536.007813 L 25.726563 532.945313 L 27.761719 530.730469 L 29.738281 528.886719 L 31.066406 526.535156 L 31.148438 526.382813 L 31.226563 526.230469 L 31.296875 526.074219 L 31.367188 525.914063 L 31.433594 525.757813 L 31.496094 525.597656 L 31.546875 525.433594 L 31.59375 525.269531 L 31.628906 525.105469 L 31.648438 524.933594 L 31.660156 524.757813 L 31.660156 524.582031 L 31.65625 524.40625 L 31.644531 524.226563 L 31.617188 523.871094 L 31.558594 523.335938 L 31.511719 522.980469 L 31.484375 522.804688 L 31.453125 522.628906 L 31.417969 522.457031 L 31.339844 522.121094 L 31.175781 521.457031 L 31.136719 521.289063 L 31.105469 521.125 L 31.078125 520.957031 L 31.0625 520.792969 L 31.058594 520.625 L 31.066406 520.449219 L 31.089844 520.277344 L 31.125 520.101563 L 31.164063 519.925781 L 31.257813 519.578125 L 31.40625 519.054688 L 31.503906 518.707031 L 31.546875 518.53125 L 31.585938 518.351563 L 31.617188 518.175781 L 31.640625 517.992188 L 31.660156 517.8125 L 31.683594 517.441406 L 31.695313 517.074219 L 31.722656 516.148438 L 31.742188 515.777344 L 31.757813 515.59375 L 31.78125 515.410156 L 31.808594 515.238281 L 31.84375 515.0625 L 31.882813 514.890625 L 31.976563 514.546875 L 32.027344 514.378906 L 32.082031 514.210938 L 32.140625 514.042969 L 32.207031 513.882813 L 32.277344 513.722656 L 32.359375 513.570313 L 32.445313 513.421875 L 32.539063 513.277344 L 32.636719 513.132813 L 32.839844 512.851563 L 33.050781 512.574219 L 33.15625 512.441406 L 33.269531 512.308594 L 33.382813 512.183594 L 33.503906 512.0625 L 33.628906 511.945313 L 33.769531 511.835938 L 33.914063 511.734375 L 34.0625 511.636719 L 34.21875 511.546875 L 34.53125 511.371094 L 34.851563 511.203125 L 35.011719 511.121094 L 35.335938 510.96875 L 35.5 510.898438 L 35.667969 510.832031 L 35.839844 510.769531 L 36.015625 510.714844 L 36.191406 510.664063 L 36.542969 510.570313 L 37.613281 510.300781 L 37.96875 510.207031 L 39.023438 509.921875 L 39.195313 509.878906 L 39.367188 509.839844 L 39.539063 509.8125 L 39.707031 509.792969 L 39.875 509.789063 L 40.039063 509.804688 L 40.132813 509.828125 L 40.199219 509.84375 L 40.355469 509.90625 L 40.507813 509.984375 L 40.660156 510.070313 L 40.707031 510.097656 L 40.710938 510.101563 L 40.8125 510.164063 L 41.109375 510.371094 L 41.40625 510.582031 L 42.300781 511.238281 L 42.601563 511.449219 L 42.753906 511.554688 L 42.90625 511.65625 L 43.0625 511.753906 L 43.375 511.933594 L 43.695313 512.101563 L 44.019531 512.261719 L 44.339844 512.414063 L 44.5 512.484375 L 44.660156 512.550781 L 44.816406 512.609375 L 44.96875 512.65625 L 45.117188 512.683594 L 45.253906 512.695313 L 45.386719 512.671875 L 45.507813 512.613281 L 45.621094 512.523438 L 45.726563 512.410156 L 45.828125 512.28125 L 45.921875 512.140625 L 46.015625 511.992188 L 46.199219 511.683594 L 46.46875 511.199219 L 46.824219 510.554688 L 47 510.230469 L 47.160156 509.902344 L 47.238281 509.738281 L 47.308594 509.570313 L 47.375 509.402344 L 47.4375 509.234375 L 47.554688 508.894531 L 47.726563 508.378906 L 47.886719 507.863281 L 47.992188 507.519531 L 48.085938 507.171875 L 48.214844 506.644531 L 48.457031 505.582031 L 48.652344 504.699219 L 48.761719 504.164063 L 48.824219 503.808594 L 48.878906 503.453125 L 48.925781 503.097656 L 49.113281 501.664063 L 49.191406 501.128906 L 49.277344 500.605469 L 49.566406 499.035156 L 49.65625 498.511719 L 49.703125 498.164063 L 49.71875 497.988281 L 49.730469 497.8125 L 49.734375 497.636719 L 49.730469 497.457031 L 49.710938 497.105469 L 49.683594 496.75 L 49.625 496.21875 L 49.578125 495.863281 L 49.554688 495.6875 L 49.523438 495.511719 L 49.492188 495.339844 L 49.449219 495.160156 L 49.359375 494.804688 L 49.257813 494.453125 L 48.714844 492.699219 L 48.609375 492.347656 L 48.507813 491.996094 L 48.417969 491.640625 L 48.332031 491.28125 L 48.058594 490.027344 L 47.9375 489.492188 L 47.84375 489.140625 L 47.789063 488.964844 L 47.726563 488.796875 L 47.65625 488.632813 L 47.578125 488.472656 L 47.386719 487.578125 L 47.261719 486.175781 L 47.628906 484.605469 L 48.21875 482.910156 L 48.859375 481.65625 L 49.625 480.792969 L 50.664063 480.128906 L 51.699219 479.511719 L 53.773438 478.425781 L 54.289063 478.273438 L 54.800781 478.113281 L 55.140625 477.996094 L 55.304688 477.933594 L 55.46875 477.863281 L 55.625 477.792969 L 55.777344 477.71875 L 55.929688 477.636719 L 56.375 477.386719 L 57.273438 476.863281 L 57.910156 476.503906 L 58.230469 476.328125 L 58.550781 476.160156 L 58.871094 475.996094 L 59.035156 475.921875 L 59.203125 475.851563 L 59.371094 475.789063 L 59.542969 475.738281 L 59.71875 475.691406 L 59.898438 475.652344 L 60.617188 475.515625 L 60.976563 475.4375 L 61.160156 475.394531 L 61.519531 475.296875 L 61.699219 475.242188 L 62.058594 475.128906 L 62.410156 475.011719 L 62.582031 474.949219 L 62.75 474.878906 L 62.910156 474.804688 L 63.066406 474.722656 L 63.207031 474.632813 L 63.332031 474.519531 L 63.433594 474.394531 L 63.523438 474.253906 L 63.597656 474.097656 L 63.667969 473.9375 L 63.730469 473.769531 L 63.789063 473.597656 L 64.113281 472.542969 L 64.230469 472.195313 L 64.296875 472.023438 L 64.367188 471.855469 L 64.441406 471.703125 L 64.523438 471.554688 L 64.691406 471.257813 L 64.871094 470.964844 L 65.523438 469.929688 L 66.730469 467.984375 L 67.292969 467.097656 L 67.582031 466.660156 L 67.78125 466.375 L 67.882813 466.234375 L 67.988281 466.097656 L 68.105469 465.960938 L 68.339844 465.695313 L 68.824219 465.175781 L 68.941406 465.042969 L 69.050781 464.910156 L 69.152344 464.773438 L 69.242188 464.632813 L 70.445313 463.265625 L 72.542969 461.113281 L 74.332031 459.269531 L 76 457.546875 L 78.464844 455.148438 L 80.871094 452.503906 L 82.96875 450.042969 L 84.632813 447.585938 L 86.238281 444.574219 L 87.714844 442.300781 L 90.429688 438.242188 L 91.539063 436.707031 L 93.066406 433.757813 L 93.335938 433.3125 L 93.5 433.007813 L 93.582031 432.851563 L 93.722656 432.539063 L 93.785156 432.378906 L 93.835938 432.21875 L 93.875 432.042969 L 93.90625 431.863281 L 93.925781 431.683594 L 93.941406 431.5 L 93.960938 431.132813 L 93.996094 430.207031 L 94.011719 429.835938 L 94.039063 429.46875 L 94.0625 429.285156 L 94.089844 429.105469 L 94.121094 428.921875 L 94.195313 428.558594 L 94.320313 428.019531 L 94.414063 427.660156 L 94.464844 427.480469 L 94.515625 427.304688 L 94.625 426.96875 L 94.742188 426.632813 L 94.859375 426.300781 L 95.289063 425.136719 L 95.476563 424.640625 L 95.609375 424.3125 L 95.679688 424.152344 L 95.835938 423.824219 L 96.078125 423.339844 L 96.667969 422.214844 L 96.925781 421.742188 L 97.015625 421.585938 L 97.105469 421.433594 L 97.203125 421.289063 L 97.304688 421.148438 L 97.414063 421.019531 L 97.535156 420.902344 L 97.667969 420.804688 L 97.808594 420.722656 L 97.957031 420.648438 L 98.109375 420.578125 L 98.265625 420.515625 L 98.429688 420.457031 L 98.757813 420.347656 L 99.089844 420.246094 L 99.425781 420.152344 L 99.59375 420.113281 L 99.761719 420.078125 L 99.941406 420.042969 L 100.117188 420.019531 L 100.648438 419.945313 L 100.824219 419.921875 L 100.996094 419.890625 L 101.167969 419.851563 L 101.332031 419.804688 L 101.492188 419.742188 L 101.644531 419.664063 L 101.789063 419.570313 L 101.933594 419.46875 L 102.070313 419.355469 L 102.207031 419.238281 L 102.472656 418.996094 L 102.738281 418.746094 L 102.996094 418.492188 L 103.25 418.234375 L 103.371094 418.101563 L 103.488281 417.96875 L 103.59375 417.828125 L 103.695313 417.6875 L 103.777344 417.535156 L 103.847656 417.378906 L 104.53125 415.847656 L 106.9375 413.328125 L 108.914063 411.421875 L 111.070313 409.453125 L 112.921875 407.976563 L 116.011719 406.128906 L 118.664063 404.527344 L 121.011719 403.234375 L 123.417969 401.757813 L 126.253906 400.246094 L 126.398438 399.925781 L 126.46875 399.761719 L 126.535156 399.597656 L 126.667969 399.265625 L 127.035156 398.265625 L 127.210938 397.761719 L 127.316406 397.425781 L 127.367188 397.253906 L 127.410156 397.085938 L 127.449219 396.90625 L 127.484375 396.726563 L 127.539063 396.367188 L 127.609375 395.824219 L 127.722656 394.914063 L 127.789063 394.371094 L 127.84375 394.007813 L 127.902344 393.648438 L 127.9375 393.46875 L 127.976563 393.296875 L 128.023438 393.121094 L 128.117188 392.777344 L 128.363281 391.921875 L 128.453125 391.585938 L 128.492188 391.414063 L 128.523438 391.25 L 128.542969 391.082031 L 128.546875 390.921875 L 128.53125 390.761719 L 128.492188 390.601563 L 128.429688 390.449219 L 128.355469 390.296875 L 128.269531 390.144531 L 128.175781 389.996094 L 128.074219 389.847656 L 127.867188 389.550781 L 127.21875 388.671875 L 127.011719 388.375 L 126.914063 388.222656 L 126.820313 388.074219 L 126.738281 387.917969 L 126.664063 387.761719 L 126.609375 387.601563 L 126.570313 387.4375 L 126.550781 387.265625 L 126.539063 387.09375 L 126.539063 386.917969 L 126.542969 386.742188 L 126.550781 386.566406 L 126.574219 386.207031 L 126.609375 385.851563 L 126.652344 385.496094 L 126.675781 385.320313 L 126.707031 385.144531 L 126.746094 384.96875 L 126.792969 384.800781 L 126.84375 384.640625 L 126.90625 384.480469 L 126.972656 384.328125 L 127.179688 383.863281 L 127.246094 383.710938 L 127.304688 383.558594 L 127.359375 383.402344 L 127.398438 383.246094 L 127.425781 383.089844 L 127.429688 382.917969 L 127.417969 382.746094 L 127.394531 382.570313 L 127.316406 382.21875 L 127.214844 381.867188 L 127.050781 381.335938 L 126.933594 380.984375 L 126.808594 380.636719 L 126.738281 380.46875 L 126.664063 380.300781 L 126.585938 380.136719 L 126.421875 379.8125 L 126.164063 379.332031 L 124.945313 377.09375 L 124.425781 376.164063 L 124.078125 375.542969 L 123.902344 375.238281 L 123.71875 374.933594 L 123.625 374.785156 L 123.523438 374.636719 L 123.421875 374.496094 L 123.308594 374.351563 L 123.066406 374.078125 L 122.8125 373.808594 L 122.289063 373.285156 L 121.628906 372.632813 L 121.234375 372.257813 L 120.21875 371.304688 L 119.96875 371.066406 L 119.726563 370.816406 L 119.609375 370.6875 L 119.492188 370.550781 L 119.261719 370.269531 L 119.039063 369.980469 L 118.710938 369.539063 L 118.496094 369.242188 L 118.285156 368.945313 L 118.1875 368.796875 L 118.089844 368.644531 L 117.996094 368.488281 L 117.914063 368.332031 L 117.839844 368.167969 L 117.78125 368.007813 L 117.734375 367.847656 L 117.699219 367.679688 L 117.667969 367.511719 L 117.640625 367.339844 L 117.625 367.171875 L 117.613281 367 L 117.609375 366.828125 L 117.617188 366.65625 L 117.636719 366.484375 L 117.664063 366.3125 L 117.699219 366.140625 L 117.738281 365.96875 L 117.832031 365.625 L 117.933594 365.285156 L 117.988281 365.117188 L 118.101563 364.78125 L 118.164063 364.617188 L 118.230469 364.457031 L 118.304688 364.296875 L 118.386719 364.144531 L 118.476563 363.992188 L 118.574219 363.84375 L 118.773438 363.554688 L 118.980469 363.269531 L 119.308594 362.847656 L 119.539063 362.574219 L 120.128906 361.890625 L 120.605469 361.351563 L 120.847656 361.089844 L 120.96875 360.964844 L 121.09375 360.847656 L 121.21875 360.738281 L 121.347656 360.640625 L 121.484375 360.5625 L 121.625 360.507813 L 121.777344 360.484375 L 121.9375 360.484375 L 122.101563 360.503906 L 122.269531 360.535156 L 122.441406 360.574219 L 122.613281 360.621094 L 122.785156 360.675781 L 123.132813 360.789063 L 123.480469 360.914063 L 123.652344 360.980469 L 123.820313 361.046875 L 123.988281 361.125 L 124.148438 361.207031 L 124.304688 361.296875 L 124.453125 361.390625 L 124.601563 361.492188 L 124.75 361.597656 L 124.894531 361.703125 L 125.179688 361.925781 L 126.171875 362.710938 L 126.457031 362.925781 L 126.597656 363.027344 L 126.742188 363.121094 L 126.882813 363.203125 L 127.027344 363.273438 L 127.171875 363.320313 L 127.320313 363.34375 L 127.472656 363.332031 L 127.628906 363.292969 L 127.78125 363.234375 L 127.9375 363.15625 L 128.09375 363.070313 L 128.253906 362.976563 L 128.410156 362.878906 L 128.722656 362.675781 L 129.035156 362.460938 L 129.339844 362.234375 L 129.488281 362.121094 L 129.78125 361.878906 L 130.058594 361.632813 L 130.191406 361.507813 L 130.320313 361.378906 L 130.441406 361.246094 L 130.546875 361.113281 L 130.640625 360.96875 L 130.710938 360.820313 L 130.757813 360.660156 L 130.78125 360.492188 L 130.789063 360.316406 L 130.785156 360.136719 L 130.773438 359.957031 L 130.757813 359.773438 L 130.714844 359.402344 L 130.644531 358.84375 L 130.589844 358.46875 L 130.53125 358.101563 L 130.496094 357.921875 L 130.457031 357.746094 L 130.40625 357.574219 L 131.277344 352.226563 L 132.441406 346.023438 L 134.042969 341.355469 L 135.984375 338.167969 L 136.234375 338.003906 L 136.84375 337.59375 L 137.144531 337.382813 L 137.289063 337.273438 L 137.429688 337.164063 L 137.570313 337.046875 L 137.699219 336.925781 L 137.820313 336.796875 L 137.925781 336.65625 L 138.027344 336.507813 L 138.117188 336.355469 L 138.203125 336.199219 L 138.285156 336.035156 L 138.445313 335.707031 L 138.824219 334.875 L 138.972656 334.539063 L 139.117188 334.207031 L 139.316406 333.714844 L 139.445313 333.386719 L 139.5625 333.058594 L 139.613281 332.894531 L 139.65625 332.730469 L 139.691406 332.566406 L 139.714844 332.402344 L 139.71875 332.242188 L 139.699219 332.074219 L 139.660156 331.910156 L 139.609375 331.746094 L 139.546875 331.582031 L 139.476563 331.417969 L 139.320313 331.09375 L 139.15625 330.769531 L 139.070313 330.613281 L 138.984375 330.453125 L 138.894531 330.296875 L 138.699219 330 L 138.589844 329.859375 L 138.472656 329.730469 L 138.339844 329.609375 L 138.199219 329.5 L 138.046875 329.394531 L 137.894531 329.296875 L 137.253906 328.921875 L 137.101563 328.824219 L 136.949219 328.722656 L 136.808594 328.617188 L 136.675781 328.503906 L 136.558594 328.375 L 136.460938 328.238281 L 136.378906 328.089844 L 136.308594 327.933594 L 136.246094 327.773438 L 136.1875 327.605469 L 136.132813 327.4375 L 136.082031 327.265625 L 135.980469 326.917969 L 135.839844 326.394531 L 135.757813 326.042969 L 135.71875 325.871094 L 135.6875 325.699219 L 135.667969 325.523438 L 135.65625 325.355469 L 135.660156 325.183594 L 135.683594 325.015625 L 135.722656 324.851563 L 135.777344 324.683594 L 135.835938 324.519531 L 135.902344 324.355469 L 136.042969 324.03125 L 136.34375 323.375 L 136.488281 323.046875 L 136.554688 322.878906 L 136.617188 322.714844 L 136.675781 322.542969 L 136.730469 322.375 L 136.824219 322.03125 L 136.867188 321.859375 L 136.902344 321.6875 L 136.929688 321.515625 L 136.953125 321.339844 L 136.964844 321.167969 L 136.960938 320.992188 L 136.949219 320.816406 L 136.933594 320.636719 L 136.878906 320.285156 L 136.816406 319.933594 L 135.96875 315.710938 L 135.867188 315.183594 L 135.800781 314.832031 L 135.746094 314.480469 L 135.722656 314.304688 L 135.699219 314.117188 L 135.671875 313.75 L 135.652344 313.378906 L 135.648438 313.195313 L 135.644531 313.007813 L 135.652344 312.640625 L 135.667969 312.457031 L 135.691406 312.277344 L 135.722656 312.097656 L 135.765625 311.917969 L 135.816406 311.742188 L 135.929688 311.390625 L 136.101563 310.863281 L 136.15625 310.691406 L 136.207031 310.515625 L 136.25 310.34375 L 136.285156 310.167969 L 136.304688 309.996094 L 136.300781 309.828125 L 136.28125 309.667969 L 136.242188 309.511719 L 136.1875 309.355469 L 136.125 309.199219 L 136.054688 309.042969 L 135.980469 308.886719 L 135.667969 308.265625 L 135.519531 307.949219 L 135.449219 307.789063 L 135.386719 307.628906 L 135.332031 307.464844 L 135.289063 307.296875 L 135.257813 307.125 L 135.230469 306.953125 L 135.210938 306.777344 L 135.191406 306.605469 L 135.167969 306.253906 L 135.164063 306.078125 L 135.160156 305.90625 L 135.160156 305.734375 L 135.167969 305.5625 L 135.1875 305.394531 L 135.214844 305.230469 L 135.261719 305.074219 L 135.328125 304.917969 L 135.414063 304.769531 L 135.511719 304.625 L 135.617188 304.484375 L 135.730469 304.34375 L 135.96875 304.070313 L 136.460938 303.527344 L 136.835938 303.125 L 136.960938 302.996094 L 137.089844 302.871094 L 137.222656 302.753906 L 137.359375 302.644531 L 137.5 302.542969 L 137.648438 302.460938 L 137.800781 302.398438 L 137.957031 302.355469 L 138.121094 302.320313 L 138.289063 302.292969 L 138.460938 302.269531 L 138.808594 302.238281 L 138.984375 302.230469 L 139.335938 302.210938 L 139.6875 302.203125 L 140.039063 302.207031 L 140.210938 302.214844 L 140.5625 302.234375 L 141.085938 302.277344 L 141.4375 302.300781 L 141.609375 302.308594 L 141.785156 302.308594 L 141.96875 302.304688 L 142.148438 302.292969 L 142.332031 302.28125 L 142.695313 302.246094 L 143.972656 302.09375 L 144.519531 302.035156 L 144.871094 302.007813 L 145.222656 301.988281 L 145.578125 301.976563 L 145.929688 301.976563 L 146.101563 301.980469 L 146.277344 301.992188 L 146.453125 302.007813 L 146.628906 302.039063 L 146.800781 302.074219 L 146.976563 302.117188 L 147.324219 302.210938 L 148.015625 302.421875 L 148.359375 302.519531 L 148.527344 302.5625 L 148.695313 302.601563 L 148.855469 302.625 L 149.011719 302.640625 L 149.164063 302.632813 L 149.304688 302.597656 L 149.429688 302.53125 L 149.550781 302.4375 L 149.660156 302.324219 L 149.765625 302.199219 L 149.867188 302.0625 L 149.964844 301.917969 L 150.152344 301.613281 L 150.324219 301.300781 L 150.40625 301.140625 L 150.480469 300.976563 L 150.542969 300.8125 L 150.597656 300.644531 L 150.636719 300.46875 L 150.664063 300.289063 L 150.683594 300.109375 L 150.726563 299.566406 L 150.746094 299.390625 L 150.773438 299.214844 L 150.808594 299.046875 L 150.863281 298.882813 L 150.9375 298.734375 L 151.027344 298.589844 L 151.125 298.453125 L 151.234375 298.320313 L 151.351563 298.1875 L 151.59375 297.929688 L 151.847656 297.675781 L 152.105469 297.425781 L 152.367188 297.179688 L 152.632813 296.941406 L 152.769531 296.828125 L 152.914063 296.722656 L 153.058594 296.621094 L 153.210938 296.53125 L 153.371094 296.445313 L 153.53125 296.367188 L 154.183594 296.066406 L 154.339844 295.988281 L 154.496094 295.90625 L 154.640625 295.816406 L 154.773438 295.71875 L 154.894531 295.605469 L 154.992188 295.480469 L 155.074219 295.34375 L 155.148438 295.195313 L 155.210938 295.042969 L 155.273438 294.882813 L 155.382813 294.554688 L 155.640625 293.714844 L 155.753906 293.382813 L 155.8125 293.21875 L 155.878906 293.054688 L 155.949219 292.902344 L 156.023438 292.75 L 156.339844 292.152344 L 156.414063 292 L 156.484375 291.847656 L 156.550781 291.695313 L 156.609375 291.539063 L 156.660156 291.371094 L 156.703125 291.195313 L 159.601563 285.316406 L 162.128906 280.890625 L 164.289063 278.308594 L 165.253906 276.882813 L 165.324219 276.839844 L 165.363281 276.8125 L 166.035156 275.085938 L 166.382813 274.191406 L 167.800781 271.242188 L 169.09375 268.414063 L 170.449219 266.078125 L 171.0625 264.296875 L 171.492188 262.210938 L 173.03125 257.664063 L 174.199219 254.039063 L 174.910156 250.898438 L 174.933594 250.851563 L 175.457031 249.875 L 175.625 249.546875 L 175.707031 249.382813 L 175.785156 249.21875 L 175.863281 249.050781 L 175.929688 248.882813 L 176.058594 248.546875 L 176.234375 248.03125 L 176.34375 247.6875 L 176.394531 247.515625 L 176.441406 247.339844 L 176.484375 247.167969 L 176.523438 246.992188 L 176.554688 246.816406 L 176.574219 246.640625 L 176.585938 246.460938 L 176.59375 246.285156 L 176.597656 245.925781 L 176.59375 245.566406 L 176.582031 245.207031 L 176.566406 244.851563 L 176.550781 244.671875 L 176.535156 244.5 L 176.511719 244.328125 L 176.480469 244.160156 L 176.433594 244 L 176.371094 243.847656 L 176.289063 243.703125 L 176.191406 243.570313 L 176.078125 243.441406 L 175.957031 243.316406 L 175.832031 243.199219 L 175.699219 243.082031 L 175.5625 242.964844 L 175.285156 242.742188 L 175.140625 242.636719 L 174.996094 242.535156 L 174.847656 242.4375 L 174.699219 242.347656 L 174.542969 242.269531 L 174.375 242.203125 L 174.207031 242.148438 L 174.03125 242.101563 L 173.855469 242.058594 L 173.5 241.988281 L 172.597656 241.824219 L 172.421875 241.789063 L 172.25 241.753906 L 172.082031 241.707031 L 171.917969 241.65625 L 171.765625 241.597656 L 171.625 241.523438 L 171.503906 241.429688 L 171.402344 241.3125 L 171.316406 241.179688 L 171.246094 241.03125 L 171.183594 240.871094 L 171.128906 240.703125 L 170.917969 240.015625 L 170.859375 239.839844 L 170.796875 239.667969 L 170.730469 239.503906 L 170.582031 239.175781 L 170.34375 238.695313 L 170.195313 238.375 L 170.132813 238.214844 L 170.074219 238.054688 L 170.035156 237.894531 L 170.011719 237.730469 L 170.011719 237.570313 L 170.027344 237.40625 L 170.058594 237.242188 L 170.101563 237.078125 L 170.148438 236.914063 L 170.203125 236.75 L 170.316406 236.417969 L 170.554688 235.753906 L 170.667969 235.417969 L 170.71875 235.25 L 170.765625 235.082031 L 170.808594 234.910156 L 170.839844 234.734375 L 170.867188 234.554688 L 170.890625 234.375 L 170.921875 234.015625 L 170.949219 233.652344 L 171.015625 232.5625 L 171.054688 232.015625 L 171.085938 231.65625 L 171.125 231.292969 L 171.179688 230.945313 L 171.242188 230.59375 L 171.449219 229.550781 L 171.515625 229.203125 L 171.542969 229.027344 L 171.566406 228.855469 L 171.585938 228.683594 L 171.597656 228.511719 L 171.597656 228.339844 L 171.582031 228.175781 L 171.542969 228.003906 L 171.492188 227.839844 L 171.425781 227.675781 L 171.355469 227.515625 L 171.273438 227.355469 L 171.1875 227.203125 L 171.09375 227.054688 L 171 226.910156 L 170.898438 226.777344 L 170.789063 226.65625 L 170.671875 226.554688 L 170.542969 226.480469 L 170.398438 226.433594 L 170.238281 226.414063 L 170.070313 226.414063 L 169.898438 226.425781 L 169.71875 226.445313 L 169.539063 226.476563 L 169.171875 226.542969 L 168.246094 226.734375 L 167.878906 226.816406 L 167.699219 226.859375 L 167.523438 226.90625 L 167.347656 226.957031 L 167.179688 227.019531 L 167.019531 227.089844 L 166.867188 227.175781 L 166.730469 227.285156 L 166.601563 227.40625 L 166.484375 227.535156 L 166.371094 227.675781 L 166.152344 227.972656 L 165.945313 228.28125 L 165.742188 228.597656 L 165.644531 228.753906 L 165.457031 229.066406 L 164.996094 229.847656 L 164.804688 230.152344 L 164.707031 230.300781 L 164.601563 230.445313 L 164.492188 230.585938 L 164.375 230.714844 L 164.246094 230.839844 L 164.109375 230.953125 L 163.96875 231.0625 L 163.820313 231.167969 L 163.519531 231.371094 L 163.054688 231.664063 L 162.746094 231.851563 L 162.589844 231.941406 L 162.433594 232.027344 L 162.277344 232.109375 L 162.121094 232.179688 L 161.964844 232.238281 L 161.808594 232.28125 L 161.648438 232.296875 L 161.492188 232.285156 L 161.335938 232.25 L 161.175781 232.199219 L 161.019531 232.132813 L 160.859375 232.058594 L 160.542969 231.894531 L 160.226563 231.71875 L 159.910156 231.539063 L 159.59375 231.355469 L 159.285156 231.164063 L 159.132813 231.066406 L 158.984375 230.964844 L 158.84375 230.859375 L 158.707031 230.742188 L 158.582031 230.621094 L 158.460938 230.492188 L 158.347656 230.359375 L 158.238281 230.21875 L 158.027344 229.9375 L 157.714844 229.5 L 157.414063 229.058594 L 157.21875 228.761719 L 157.125 228.609375 L 157.03125 228.453125 L 156.851563 228.132813 L 156.59375 227.644531 L 156.429688 227.316406 L 156.351563 227.152344 L 156.277344 226.988281 L 156.207031 226.820313 L 156.144531 226.652344 L 156.089844 226.480469 L 156.050781 226.308594 L 156.019531 226.132813 L 155.996094 225.957031 L 155.960938 225.601563 L 155.933594 225.246094 L 155.914063 224.886719 L 155.890625 224.34375 L 155.875 223.984375 L 155.867188 223.625 L 155.867188 223.445313 L 155.871094 223.101563 L 155.894531 222.25 L 155.898438 221.90625 L 155.894531 221.734375 L 155.886719 221.554688 L 155.855469 221.1875 L 155.820313 220.824219 L 155.773438 220.460938 L 155.71875 220.101563 L 155.6875 219.925781 L 155.648438 219.753906 L 155.601563 219.585938 L 155.542969 219.425781 L 155.46875 219.273438 L 155.378906 219.132813 L 155.269531 219.003906 L 155.15625 218.882813 L 155.03125 218.761719 L 154.765625 218.535156 L 154.488281 218.3125 L 153.929688 217.871094 L 153.652344 217.644531 L 153.519531 217.527344 L 153.386719 217.40625 L 153.25 217.277344 L 153.117188 217.148438 L 152.988281 217.011719 L 152.734375 216.738281 L 152.230469 216.183594 L 151.855469 215.765625 L 151.613281 215.484375 L 151.496094 215.34375 L 151.382813 215.203125 L 151.28125 215.054688 L 151.1875 214.910156 L 151.105469 214.753906 L 151.046875 214.597656 L 151.015625 214.441406 L 151.003906 214.277344 L 151.003906 214.109375 L 151.015625 213.941406 L 151.03125 213.769531 L 151.054688 213.597656 L 151.113281 213.25 L 151.175781 212.898438 L 151.246094 212.550781 L 151.328125 212.203125 L 151.425781 211.84375 L 151.585938 211.308594 L 151.804688 210.597656 L 151.980469 210.070313 L 152.105469 209.722656 L 152.171875 209.550781 L 152.246094 209.382813 L 152.328125 209.222656 L 152.414063 209.070313 L 152.511719 208.921875 L 152.609375 208.777344 L 152.714844 208.636719 L 152.824219 208.496094 L 153.042969 208.21875 L 153.492188 207.667969 L 153.832031 207.257813 L 154.066406 206.988281 L 154.152344 206.890625 L 154.300781 206.726563 L 154.550781 206.476563 L 154.6875 206.359375 L 154.824219 206.25 L 154.964844 206.140625 L 155.25 205.929688 L 155.980469 205.414063 L 156.269531 205.207031 L 156.410156 205.101563 L 156.546875 204.988281 L 156.675781 204.875 L 156.800781 204.753906 L 156.914063 204.625 L 157.015625 204.480469 L 157.109375 204.324219 L 157.195313 204.164063 L 157.273438 204 L 157.347656 203.832031 L 157.488281 203.488281 L 157.6875 202.964844 L 157.8125 202.613281 L 157.871094 202.4375 L 157.921875 202.261719 L 157.964844 202.082031 L 158.003906 201.902344 L 158.027344 201.730469 L 158.042969 201.558594 L 158.050781 201.382813 L 158.054688 201.207031 L 158.070313 200.511719 L 158.078125 200.335938 L 158.089844 200.164063 L 158.113281 199.996094 L 158.144531 199.828125 L 158.191406 199.664063 L 158.25 199.503906 L 158.316406 199.34375 L 158.386719 199.183594 L 158.464844 199.027344 L 158.625 198.714844 L 159.121094 197.78125 L 159.28125 197.464844 L 159.359375 197.304688 L 159.5 196.988281 L 159.835938 196.1875 L 159.976563 195.871094 L 160.046875 195.714844 L 160.125 195.5625 L 160.207031 195.414063 L 160.296875 195.269531 L 160.398438 195.128906 L 160.503906 194.996094 L 160.613281 194.867188 L 161.066406 194.355469 L 161.175781 194.226563 L 161.277344 194.09375 L 161.371094 193.957031 L 161.453125 193.816406 L 161.527344 193.65625 L 161.585938 193.492188 L 161.632813 193.320313 L 161.675781 193.144531 L 161.710938 192.96875 L 161.804688 192.429688 L 161.96875 191.339844 L 162.03125 190.980469 L 162.066406 190.804688 L 162.105469 190.628906 L 162.152344 190.457031 L 162.210938 190.289063 L 162.28125 190.128906 L 162.367188 189.976563 L 162.464844 189.828125 L 162.519531 189.753906 L 162.570313 189.6875 L 162.683594 189.546875 L 162.925781 189.273438 L 163.417969 188.738281 L 163.539063 188.601563 L 163.65625 188.460938 L 163.765625 188.320313 L 163.867188 188.175781 L 163.960938 188.023438 L 164.035156 187.867188 L 164.101563 187.707031 L 164.160156 187.542969 L 164.214844 187.378906 L 164.308594 187.035156 L 164.4375 186.519531 L 164.960938 184.351563 L 165.097656 183.808594 L 165.195313 183.449219 L 165.25 183.273438 L 165.308594 183.097656 L 165.371094 182.921875 L 165.445313 182.753906 L 165.523438 182.585938 L 165.605469 182.417969 L 165.691406 182.253906 L 165.867188 181.925781 L 166.140625 181.4375 L 166.332031 181.121094 L 166.429688 180.96875 L 166.53125 180.816406 L 166.640625 180.671875 L 166.753906 180.539063 L 166.882813 180.414063 L 167.015625 180.308594 L 167.164063 180.214844 L 167.316406 180.128906 L 167.476563 180.046875 L 167.636719 179.972656 L 167.96875 179.828125 L 168.476563 179.621094 L 168.984375 179.421875 L 169.324219 179.289063 L 169.664063 179.167969 L 169.835938 179.109375 L 170.007813 179.058594 L 170.183594 179.011719 L 170.359375 178.976563 L 170.539063 178.953125 L 170.71875 178.941406 L 170.902344 178.933594 L 171.085938 178.929688 L 171.636719 178.925781 L 171.816406 178.917969 L 171.992188 178.90625 L 172.164063 178.882813 L 172.328125 178.847656 L 172.488281 178.792969 L 172.625 178.714844 L 172.757813 178.621094 L 172.882813 178.511719 L 173.003906 178.394531 L 173.121094 178.269531 L 173.234375 178.136719 L 173.5625 177.726563 L 173.664063 177.582031 L 173.761719 177.4375 L 173.855469 177.292969 L 173.941406 177.140625 L 174.015625 176.984375 L 174.078125 176.820313 L 174.128906 176.648438 L 174.171875 176.476563 L 174.207031 176.300781 L 174.242188 176.121094 L 174.300781 175.761719 L 174.457031 174.679688 L 174.511719 174.320313 L 174.574219 173.960938 L 174.609375 173.78125 L 174.648438 173.601563 L 174.738281 173.242188 L 174.832031 172.882813 L 175.085938 171.953125 L 177.050781 170.1875 L 177.261719 170.1875 L 177.632813 170.199219 L 177.820313 170.210938 L 178.007813 170.226563 L 178.1875 170.246094 L 178.546875 170.304688 L 179.085938 170.40625 L 179.566406 170.5 L 180.335938 170.65625 L 181.046875 170.808594 L 181.402344 170.890625 L 181.578125 170.9375 L 181.75 170.988281 L 181.914063 171.039063 L 182.242188 171.152344 L 182.734375 171.328125 L 183.058594 171.4375 L 183.226563 171.488281 L 183.390625 171.53125 L 183.5625 171.566406 L 183.734375 171.597656 L 183.910156 171.625 L 184.257813 171.664063 L 184.785156 171.714844 L 185.136719 171.742188 L 185.488281 171.757813 L 185.660156 171.757813 L 185.832031 171.753906 L 186.003906 171.742188 L 186.175781 171.71875 L 186.34375 171.683594 L 186.507813 171.636719 L 186.675781 171.582031 L 186.839844 171.519531 L 187.003906 171.453125 L 187.816406 171.105469 L 188.148438 170.964844 L 188.648438 170.761719 L 189.152344 170.566406 L 189.488281 170.449219 L 189.65625 170.398438 L 189.824219 170.355469 L 189.996094 170.320313 L 190.167969 170.296875 L 190.34375 170.289063 L 190.519531 170.296875 L 190.695313 170.3125 L 190.875 170.335938 L 191.054688 170.363281 L 191.410156 170.425781 L 192.3125 170.601563 L 192.671875 170.667969 L 193.035156 170.726563 L 193.574219 170.808594 L 193.929688 170.867188 L 194.101563 170.898438 L 194.269531 170.941406 L 194.429688 170.988281 L 194.582031 171.054688 L 194.722656 171.132813 L 194.847656 171.242188 L 194.957031 171.367188 L 195.058594 171.503906 L 195.15625 171.652344 L 195.246094 171.808594 L 195.417969 172.132813 L 195.75 172.796875 L 196.074219 173.46875 L 196.222656 173.804688 L 196.289063 173.976563 L 196.351563 174.144531 L 196.398438 174.316406 L 196.433594 174.492188 L 196.449219 174.664063 L 196.453125 174.84375 L 196.441406 175.019531 L 196.425781 175.199219 L 196.402344 175.378906 L 196.347656 175.742188 L 196.253906 176.285156 L 196.121094 177.007813 L 195.605469 179.546875 L 195.464844 180.277344 L 195.398438 180.644531 L 195.347656 181.011719 L 195.277344 181.566406 L 195.238281 181.9375 L 195.203125 182.296875 L 195.195313 182.472656 L 195.191406 182.644531 L 195.199219 182.804688 L 195.222656 182.949219 L 195.261719 183.082031 L 195.328125 183.1875 L 195.429688 183.261719 L 195.554688 183.3125 L 195.699219 183.347656 L 195.859375 183.367188 L 196.027344 183.378906 L 196.203125 183.386719 L 196.382813 183.390625 L 196.75 183.386719 L 197.121094 183.378906 L 197.492188 183.363281 L 197.675781 183.351563 L 197.855469 183.332031 L 198.03125 183.308594 L 198.199219 183.277344 L 198.363281 183.230469 L 198.515625 183.164063 L 198.65625 183.074219 L 198.789063 182.96875 L 198.914063 182.84375 L 199.035156 182.710938 L 199.148438 182.570313 L 199.371094 182.277344 L 200.023438 181.371094 L 200.246094 181.074219 L 200.359375 180.929688 L 200.476563 180.789063 L 200.597656 180.65625 L 200.726563 180.527344 L 200.863281 180.414063 L 201.003906 180.3125 L 201.15625 180.222656 L 201.3125 180.140625 L 201.476563 180.0625 L 201.640625 179.988281 L 202.472656 179.640625 L 202.640625 179.566406 L 202.800781 179.488281 L 202.960938 179.402344 L 203.113281 179.3125 L 203.257813 179.214844 L 203.398438 179.109375 L 203.535156 178.996094 L 203.667969 178.882813 L 203.933594 178.644531 L 204.316406 178.273438 L 204.566406 178.019531 L 204.691406 177.894531 L 204.925781 177.628906 L 205.035156 177.492188 L 205.136719 177.347656 L 205.226563 177.203125 L 205.3125 177.046875 L 205.394531 176.890625 L 205.691406 176.253906 L 205.769531 176.097656 L 205.851563 175.945313 L 205.9375 175.796875 L 206.03125 175.660156 L 206.136719 175.527344 L 206.261719 175.40625 L 206.398438 175.296875 L 206.542969 175.191406 L 206.691406 175.09375 L 206.847656 175 L 207.007813 174.910156 L 207.816406 174.464844 L 207.976563 174.371094 L 208.132813 174.277344 L 208.285156 174.175781 L 208.433594 174.070313 L 208.578125 173.960938 L 208.722656 173.847656 L 209.140625 173.5 L 209.96875 172.78125 L 210.375 172.417969 L 210.632813 172.167969 L 210.753906 172.039063 L 210.867188 171.90625 L 210.96875 171.769531 L 211.054688 171.625 L 211.121094 171.472656 L 211.175781 171.3125 L 211.21875 171.148438 L 211.28125 170.804688 L 211.304688 170.632813 L 211.394531 169.925781 L 211.441406 169.574219 L 211.46875 169.398438 L 211.5 169.226563 L 211.539063 169.042969 L 211.628906 168.683594 L 211.832031 167.972656 L 212.15625 166.910156 L 212.261719 166.554688 L 212.308594 166.375 L 212.355469 166.199219 L 212.394531 166.019531 L 212.429688 165.839844 L 212.453125 165.660156 L 212.464844 165.476563 L 212.472656 165.292969 L 212.46875 165.109375 L 212.460938 164.921875 L 212.453125 164.738281 L 212.425781 164.367188 L 212.332031 163.25 L 212.261719 162.507813 L 212.203125 161.949219 L 212.152344 161.585938 L 212.011719 160.707031 L 211.964844 160.351563 L 211.945313 160.175781 L 211.9375 160 L 211.9375 159.820313 L 211.941406 159.640625 L 211.953125 159.460938 L 211.984375 159.101563 L 212.050781 158.558594 L 212.148438 157.839844 L 212.238281 157.292969 L 212.335938 156.746094 L 212.570313 155.472656 L 212.679688 154.929688 L 212.757813 154.570313 L 212.800781 154.390625 L 212.851563 154.214844 L 212.90625 154.042969 L 212.960938 153.875 L 213.085938 153.539063 L 213.480469 152.542969 L 213.667969 152.039063 L 213.835938 151.53125 L 214.273438 150.171875 L 214.492188 149.507813 L 214.765625 148.734375 L 215.195313 147.546875 L 215.621094 146.371094 L 215.800781 145.855469 L 215.917969 145.511719 L 216.027344 145.167969 L 216.125 144.832031 L 216.457031 143.644531 L 216.550781 143.304688 L 216.652344 142.96875 L 216.769531 142.621094 L 216.953125 142.105469 L 217.085938 141.769531 L 217.15625 141.601563 L 217.230469 141.4375 L 217.308594 141.277344 L 217.398438 141.125 L 217.492188 140.976563 L 217.597656 140.839844 L 217.714844 140.710938 L 217.835938 140.585938 L 217.964844 140.464844 L 218.226563 140.230469 L 218.90625 139.65625 L 219.175781 139.425781 L 219.308594 139.308594 L 219.574219 139.058594 L 219.960938 138.675781 L 220.339844 138.285156 L 220.582031 138.019531 L 220.695313 137.882813 L 220.804688 137.742188 L 220.90625 137.597656 L 220.996094 137.449219 L 221.078125 137.289063 L 221.144531 137.121094 L 221.207031 136.949219 L 221.265625 136.773438 L 221.425781 136.246094 L 221.480469 136.070313 L 221.542969 135.902344 L 221.613281 135.734375 L 221.695313 135.574219 L 221.789063 135.429688 L 221.894531 135.289063 L 222.007813 135.152344 L 222.125 135.023438 L 222.25 134.890625 L 222.753906 134.382813 L 223.003906 134.125 L 223.125 133.992188 L 223.238281 133.855469 L 223.347656 133.714844 L 223.449219 133.566406 L 223.542969 133.414063 L 223.628906 133.261719 L 223.714844 133.101563 L 223.878906 132.785156 L 224.277344 131.976563 L 224.441406 131.65625 L 224.777344 131.023438 L 225.125 130.394531 L 225.308594 130.085938 L 225.402344 129.9375 L 225.5 129.789063 L 225.601563 129.644531 L 225.714844 129.511719 L 225.835938 129.382813 L 225.964844 129.261719 L 226.097656 129.144531 L 226.234375 129.03125 L 226.519531 128.8125 L 226.808594 128.601563 L 226.957031 128.5 L 227.257813 128.304688 L 227.410156 128.210938 L 227.566406 128.125 L 227.726563 128.042969 L 227.890625 127.96875 L 228.21875 127.828125 L 228.882813 127.558594 L 229.046875 127.488281 L 229.203125 127.414063 L 229.359375 127.332031 L 229.507813 127.246094 L 229.648438 127.144531 L 229.78125 127.03125 L 229.910156 126.902344 L 230.027344 126.765625 L 230.140625 126.625 L 230.25 126.480469 L 230.464844 126.179688 L 231.097656 125.261719 L 231.316406 124.964844 L 231.425781 124.820313 L 231.542969 124.679688 L 231.664063 124.542969 L 231.792969 124.417969 L 231.933594 124.300781 L 232.082031 124.191406 L 232.234375 124.089844 L 232.390625 123.992188 L 232.707031 123.800781 L 233.359375 123.433594 L 233.679688 123.246094 L 233.992188 123.054688 L 234.300781 122.863281 L 235.066406 122.371094 L 235.980469 121.777344 L 236.433594 121.472656 L 236.730469 121.257813 L 237.03125 121.039063 L 237.328125 120.816406 L 238.503906 119.914063 L 239.980469 118.773438 L 240.273438 118.542969 L 240.414063 118.425781 L 240.550781 118.304688 L 240.683594 118.179688 L 240.804688 118.054688 L 240.914063 117.917969 L 241.007813 117.773438 L 241.082031 117.621094 L 241.136719 117.460938 L 241.183594 117.292969 L 241.21875 117.117188 L 241.25 116.941406 L 241.300781 116.582031 L 241.34375 116.21875 L 241.421875 115.492188 L 241.457031 115.125 L 241.484375 114.761719 L 241.492188 114.582031 L 241.492188 114.402344 L 241.484375 114.226563 L 241.464844 114.050781 L 241.429688 113.875 L 241.382813 113.699219 L 241.328125 113.527344 L 241.265625 113.355469 L 241.199219 113.183594 L 241.128906 113.015625 L 240.980469 112.675781 L 240.820313 112.339844 L 240.738281 112.175781 L 240.570313 111.851563 L 240.394531 111.535156 L 239.585938 110.109375 L 239.320313 109.632813 L 239.0625 109.152344 L 238.984375 108.988281 L 238.910156 108.820313 L 238.84375 108.652344 L 238.777344 108.480469 L 238.660156 108.128906 L 238.441406 107.421875 L 238.332031 107.046875 L 238.234375 106.710938 L 238.136719 106.359375 L 238.097656 106.183594 L 238.0625 106.007813 L 238.035156 105.832031 L 238.023438 105.65625 L 238.027344 105.484375 L 238.054688 105.316406 L 238.097656 105.148438 L 238.15625 104.980469 L 238.222656 104.8125 L 238.296875 104.648438 L 238.453125 104.316406 L 238.621094 103.988281 L 238.878906 103.496094 L 239.054688 103.171875 L 239.238281 102.851563 L 239.332031 102.691406 L 239.53125 102.382813 L 239.835938 101.925781 L 240.042969 101.625 L 240.257813 101.332031 L 240.367188 101.1875 L 240.480469 101.050781 L 240.601563 100.917969 L 240.730469 100.792969 L 240.867188 100.675781 L 241.011719 100.566406 L 241.164063 100.464844 L 241.320313 100.367188 L 241.636719 100.179688 L 242.285156 99.820313 L 242.9375 99.46875 L 243.265625 99.300781 L 243.433594 99.222656 L 243.601563 99.152344 L 243.769531 99.085938 L 243.945313 99.03125 L 244.121094 98.984375 L 244.296875 98.941406 L 244.476563 98.902344 L 244.839844 98.832031 L 245.742188 98.671875 L 246.101563 98.597656 L 246.28125 98.558594 L 246.453125 98.511719 L 246.625 98.457031 L 246.792969 98.390625 L 246.953125 98.316406 L 247.109375 98.226563 L 247.261719 98.136719 L 247.558594 97.933594 L 247.851563 97.722656 L 248.433594 97.285156 L 248.871094 96.953125 L 249.15625 96.730469 L 249.292969 96.617188 L 249.429688 96.5 L 249.558594 96.378906 L 249.683594 96.25 L 249.796875 96.117188 L 249.894531 95.976563 L 249.984375 95.828125 L 250.066406 95.675781 L 250.144531 95.519531 L 250.285156 95.199219 L 250.417969 94.871094 L 250.535156 94.542969 L 250.585938 94.375 L 250.632813 94.207031 L 250.671875 94.039063 L 250.695313 93.871094 L 250.707031 93.695313 L 250.707031 93.519531 L 250.699219 93.339844 L 250.683594 93.160156 L 250.574219 92.261719 L 250.558594 92.082031 L 250.546875 91.902344 L 250.542969 91.726563 L 250.550781 91.546875 L 250.574219 91.367188 L 250.609375 91.1875 L 250.648438 91.007813 L 250.699219 90.828125 L 250.75 90.652344 L 250.863281 90.292969 L 250.984375 89.941406 L 251.046875 89.765625 L 251.109375 89.59375 L 251.175781 89.421875 L 251.21875 89.328125 L 251.25 89.257813 L 251.324219 89.101563 L 251.410156 88.957031 L 251.507813 88.824219 L 251.625 88.714844 L 251.753906 88.628906 L 251.898438 88.566406 L 252.054688 88.515625 L 252.21875 88.476563 L 252.390625 88.445313 L 252.449219 88.433594 L 252.5625 88.417969 L 253.453125 88.300781 L 253.632813 88.273438 L 253.808594 88.238281 L 253.980469 88.199219 L 254.148438 88.152344 L 254.308594 88.09375 L 254.46875 88.011719 L 254.625 87.921875 L 254.777344 87.820313 L 254.921875 87.714844 L 255.070313 87.601563 L 255.503906 87.253906 L 255.800781 87.027344 L 256.09375 86.824219 L 256.394531 86.628906 L 256.699219 86.4375 L 257.15625 86.152344 L 257.460938 85.964844 L 257.769531 85.785156 L 257.925781 85.703125 L 258.078125 85.621094 L 258.234375 85.546875 L 258.394531 85.484375 L 258.550781 85.433594 L 258.714844 85.398438 L 258.878906 85.390625 L 259.050781 85.398438 L 259.21875 85.417969 L 259.394531 85.453125 L 259.566406 85.488281 L 259.914063 85.582031 L 260.085938 85.632813 L 260.433594 85.738281 L 260.777344 85.855469 L 260.945313 85.921875 L 261.109375 85.992188 L 261.273438 86.070313 L 261.425781 86.152344 L 261.722656 86.339844 L 262.011719 86.546875 L 262.441406 86.859375 L 262.875 87.164063 L 263.023438 87.257813 L 263.183594 87.351563 L 263.507813 87.527344 L 263.835938 87.691406 L 264.332031 87.933594 L 265.667969 88.570313 L 265.996094 88.734375 L 266.324219 88.90625 L 266.484375 88.996094 L 266.636719 89.089844 L 266.941406 89.285156 L 267.390625 89.589844 L 268.285156 90.210938 L 268.585938 90.414063 L 268.738281 90.511719 L 268.894531 90.605469 L 269.050781 90.691406 L 269.210938 90.769531 L 269.375 90.835938 L 269.539063 90.898438 L 269.707031 90.953125 L 269.875 91 L 270.046875 91.042969 L 270.214844 91.085938 L 270.386719 91.121094 L 270.554688 91.152344 L 270.71875 91.175781 L 270.882813 91.191406 L 271.042969 91.191406 L 271.195313 91.175781 L 271.339844 91.136719 L 271.472656 91.066406 L 271.601563 90.972656 L 271.71875 90.863281 L 271.832031 90.738281 L 271.945313 90.601563 L 272.050781 90.460938 L 272.15625 90.316406 L 272.359375 90.019531 L 272.457031 89.867188 L 272.550781 89.710938 L 272.636719 89.558594 L 272.71875 89.398438 L 272.785156 89.238281 L 272.839844 89.074219 L 272.878906 88.902344 L 272.898438 88.722656 L 272.910156 88.542969 L 272.910156 88.363281 L 272.902344 87.992188 L 272.871094 87.253906 L 272.867188 87.070313 L 272.871094 86.886719 L 272.878906 86.703125 L 272.894531 86.523438 L 272.925781 86.347656 L 272.960938 86.175781 L 273.003906 86.007813 L 273.101563 85.667969 L 273.210938 85.328125 L 273.613281 84.148438 L 273.78125 83.640625 L 273.886719 83.296875 L 274.136719 82.425781 L 274.242188 82.082031 L 274.355469 81.738281 L 274.417969 81.570313 L 274.484375 81.40625 L 274.5625 81.246094 L 274.652344 81.089844 L 274.753906 80.933594 L 274.859375 80.785156 L 274.972656 80.636719 L 275.203125 80.34375 L 275.445313 80.058594 L 276.050781 79.34375 L 276.289063 79.054688 L 276.402344 78.910156 L 276.515625 78.761719 L 276.621094 78.613281 L 276.714844 78.460938 L 276.796875 78.304688 L 276.863281 78.144531 L 276.90625 77.984375 L 276.933594 77.816406 L 276.949219 77.648438 L 276.957031 77.476563 L 276.957031 77.300781 L 276.953125 77.125 L 276.941406 76.949219 L 276.929688 76.769531 L 276.890625 76.417969 L 276.863281 76.242188 L 276.828125 76.066406 L 276.785156 75.894531 L 276.738281 75.71875 L 276.625 75.375 L 276.449219 74.863281 L 276.394531 74.691406 L 276.34375 74.523438 L 276.300781 74.355469 L 276.261719 74.183594 L 276.242188 74.015625 L 276.234375 73.847656 L 276.253906 73.679688 L 276.289063 73.507813 L 276.335938 73.339844 L 276.394531 73.171875 L 276.460938 73.003906 L 276.605469 72.667969 L 277.132813 71.488281 L 277.347656 70.992188 L 277.628906 70.328125 L 277.761719 69.996094 L 277.890625 69.660156 L 277.949219 69.492188 L 278.003906 69.324219 L 278.054688 69.152344 L 278.054688 69.148438 L 278.09375 68.980469 L 278.121094 68.800781 L 278.140625 68.621094 L 278.152344 68.4375 L 278.164063 68.070313 L 278.164063 66.964844 L 278.167969 66.59375 L 278.183594 65.851563 L 278.203125 65.109375 L 278.21875 64.738281 L 278.242188 64.371094 L 278.257813 64.191406 L 278.277344 64.007813 L 278.308594 63.828125 L 278.34375 63.652344 L 278.394531 63.484375 L 278.453125 63.320313 L 278.519531 63.15625 L 278.589844 62.992188 L 278.664063 62.832031 L 278.824219 62.511719 L 279.394531 61.394531 L 279.632813 60.914063 L 279.777344 60.589844 L 279.847656 60.425781 L 279.910156 60.261719 L 279.960938 60.09375 L 280.003906 59.921875 L 280.039063 59.75 L 280.066406 59.574219 L 280.113281 59.21875 L 280.160156 58.679688 L 280.25 57.597656 L 280.296875 57.058594 L 280.335938 56.703125 L 280.402344 56.183594 L 280.476563 55.664063 L 280.535156 55.320313 L 280.570313 55.152344 L 280.609375 54.988281 L 280.65625 54.828125 L 280.714844 54.671875 L 280.789063 54.527344 L 280.878906 54.386719 L 280.980469 54.253906 L 281.097656 54.125 L 281.21875 54.003906 L 281.347656 53.882813 L 281.480469 53.769531 L 281.75 53.539063 L 282.03125 53.316406 L 282.3125 53.097656 L 282.460938 52.992188 L 282.609375 52.890625 L 282.910156 52.691406 L 283.824219 52.109375 L 284.121094 51.90625 L 284.261719 51.800781 L 284.394531 51.691406 L 284.523438 51.574219 L 284.636719 51.449219 L 284.738281 51.308594 L 284.824219 51.160156 L 284.90625 51.003906 L 284.980469 50.84375 L 285.046875 50.679688 L 285.113281 50.511719 L 285.234375 50.175781 L 285.339844 49.832031 L 285.386719 49.660156 L 285.429688 49.484375 L 285.460938 49.308594 L 285.488281 49.125 L 285.503906 48.941406 L 285.511719 48.757813 L 285.519531 48.386719 L 285.527344 47.644531 L 285.539063 47.277344 L 285.550781 47.09375 L 285.570313 46.910156 L 285.597656 46.730469 L 285.636719 46.554688 L 285.6875 46.378906 L 285.742188 46.207031 L 285.867188 45.863281 L 286 45.523438 L 286.488281 44.328125 L 286.617188 43.984375 L 286.742188 43.640625 L 286.855469 43.292969 L 286.964844 42.945313 L 287.441406 41.378906 L 287.554688 41.03125 L 287.613281 40.863281 L 287.675781 40.691406 L 287.746094 40.523438 L 287.820313 40.363281 L 287.90625 40.199219 L 288 40.039063 L 288.097656 39.882813 L 288.199219 39.726563 L 288.40625 39.417969 L 288.839844 38.808594 L 289.0625 38.511719 L 289.171875 38.363281 L 289.40625 38.082031 L 289.53125 37.949219 L 289.660156 37.828125 L 289.796875 37.71875 L 289.941406 37.628906 L 290.097656 37.554688 L 290.253906 37.484375 L 290.417969 37.421875 L 290.757813 37.3125 L 291.441406 37.097656 L 291.609375 37.039063 L 291.777344 36.976563 L 291.941406 36.90625 L 292.101563 36.832031 L 292.257813 36.75 L 292.414063 36.664063 L 293.03125 36.304688 L 293.1875 36.21875 L 293.347656 36.136719 L 293.507813 36.0625 L 293.671875 35.996094 L 293.839844 35.9375 L 294.011719 35.882813 L 294.355469 35.785156 L 294.703125 35.695313 L 295.226563 35.566406 L 295.75 35.441406 L 296.101563 35.363281 L 296.453125 35.296875 L 296.628906 35.269531 L 296.804688 35.25 L 296.984375 35.238281 L 297.164063 35.234375 L 297.34375 35.234375 L 297.703125 35.242188 L 298.066406 35.261719 L 299.691406 35.363281 L 300.054688 35.382813 L 300.417969 35.398438 L 300.597656 35.402344 L 300.820313 35.40625 L 300.964844 35.40625 L 301.695313 35.402344 L 302.058594 35.394531 L 302.417969 35.375 L 302.597656 35.363281 L 302.773438 35.34375 L 302.949219 35.316406 L 303.117188 35.277344 L 303.28125 35.222656 L 303.4375 35.148438 L 303.589844 35.058594 L 303.738281 34.957031 L 303.882813 34.847656 L 304.027344 34.730469 L 304.167969 34.613281 L 304.734375 34.125 L 305.019531 33.886719 L 305.167969 33.773438 L 305.316406 33.664063 L 305.617188 33.445313 L 306.375 32.914063 L 306.675781 32.695313 L 306.972656 32.472656 L 307.113281 32.359375 L 307.253906 32.238281 L 307.527344 31.984375 L 307.921875 31.59375 L 308.578125 30.933594 L 308.972656 30.542969 L 309.242188 30.285156 L 309.511719 30.042969 L 309.785156 29.808594 L 310.199219 29.460938 L 310.476563 29.230469 L 310.761719 29.003906 L 311.347656 28.558594 L 312.089844 28.015625 L 312.539063 27.695313 L 312.847656 27.488281 L 313 27.390625 L 313.304688 27.210938 L 313.617188 27.042969 L 314.089844 26.800781 L 314.722656 26.480469 L 315.039063 26.324219 L 315.355469 26.171875 L 315.519531 26.097656 L 315.679688 26.03125 L 315.84375 25.96875 L 316.007813 25.910156 L 316.179688 25.863281 L 316.351563 25.820313 L 316.523438 25.785156 L 316.875 25.722656 L 317.402344 25.632813 L 317.753906 25.5625 L 317.929688 25.523438 L 318.277344 25.4375 L 318.972656 25.253906 L 319.320313 25.164063 L 319.492188 25.125 L 319.667969 25.089844 L 319.839844 25.058594 L 320.011719 25.042969 L 320.183594 25.035156 L 320.351563 25.042969 L 320.515625 25.066406 L 320.683594 25.097656 L 320.851563 25.132813 L 321.183594 25.21875 L 322.015625 25.453125 L 322.351563 25.53125 L 322.53125 25.566406 L 322.890625 25.628906 L 323.25 25.679688 L 324.511719 25.835938 L 325.050781 25.910156 L 325.230469 25.9375 L 325.582031 26.007813 L 325.757813 26.054688 L 325.925781 26.105469 L 326.089844 26.171875 L 326.253906 26.246094 L 326.410156 26.328125 L 326.570313 26.414063 L 327.042969 26.679688 L 327.199219 26.761719 L 327.359375 26.84375 L 327.523438 26.914063 L 327.6875 26.976563 L 327.859375 27.03125 L 328.039063 27.070313 L 328.21875 27.101563 L 328.402344 27.128906 L 328.769531 27.171875 L 329.140625 27.207031 L 329.699219 27.25 L 330.070313 27.277344 L 330.441406 27.292969 L 330.628906 27.296875 L 330.8125 27.292969 L 330.988281 27.285156 L 331.164063 27.269531 L 331.507813 27.230469 L 331.679688 27.203125 L 331.851563 27.171875 L 332.019531 27.136719 L 332.1875 27.09375 L 332.351563 27.042969 L 332.511719 26.984375 L 332.671875 26.910156 L 332.828125 26.824219 L 332.980469 26.730469 L 333.132813 26.628906 L 333.28125 26.527344 L 333.726563 26.203125 L 334.457031 25.652344 L 334.890625 25.316406 L 335.03125 25.203125 L 335.167969 25.085938 L 335.296875 24.960938 L 335.417969 24.835938 L 335.53125 24.699219 L 335.632813 24.554688 L 335.726563 24.398438 L 335.808594 24.238281 L 335.886719 24.074219 L 335.960938 23.910156 L 336.179688 23.40625 L 336.328125 23.074219 L 336.410156 22.914063 L 336.496094 22.757813 L 336.589844 22.609375 L 336.699219 22.46875 L 336.808594 22.351563 L 336.929688 22.242188 L 337.058594 22.140625 L 337.1875 22.042969 L 337.59375 21.753906 L 337.730469 21.652344 L 337.855469 21.550781 L 337.980469 21.441406 L 338.09375 21.324219 L 338.199219 21.1875 L 338.300781 21.042969 L 338.390625 20.886719 L 338.472656 20.730469 L 338.632813 20.402344 L 338.9375 19.742188 L 339.015625 19.578125 L 339.101563 19.421875 L 339.191406 19.269531 L 339.292969 19.125 L 339.402344 18.992188 L 339.523438 18.878906 L 339.65625 18.773438 L 339.945313 18.585938 L 340.097656 18.5 L 340.410156 18.335938 L 341.203125 17.933594 L 341.519531 17.769531 L 341.824219 17.597656 L 341.976563 17.503906 L 342.121094 17.40625 L 342.265625 17.296875 L 342.402344 17.183594 L 342.539063 17.066406 L 342.804688 16.820313 L 343.195313 16.449219 L 343.460938 16.203125 L 343.597656 16.082031 L 343.875 15.847656 L 344.304688 15.511719 L 344.738281 15.183594 L 345.179688 14.863281 L 345.476563 14.65625 L 345.628906 14.558594 L 345.78125 14.464844 L 345.941406 14.375 L 346.105469 14.292969 L 346.273438 14.21875 L 346.441406 14.148438 L 347.296875 13.8125 L 347.460938 13.742188 L 347.621094 13.667969 L 347.777344 13.582031 L 347.917969 13.492188 L 348.050781 13.382813 L 348.164063 13.261719 L 348.261719 13.125 L 348.351563 12.976563 L 348.433594 12.820313 L 348.511719 12.664063 L 348.65625 12.332031 L 348.859375 11.828125 L 348.992188 11.488281 L 349.121094 11.144531 L 349.238281 10.8125 L 349.460938 10.160156 L 349.574219 9.839844 L 349.636719 9.683594 L 349.703125 9.527344 L 349.773438 9.378906 L 349.851563 9.230469 L 349.941406 9.09375 L 350.042969 8.960938 L 350.160156 8.835938 L 350.28125 8.714844 L 350.410156 8.601563 L 350.679688 8.375 L 351.238281 7.941406 L 351.507813 7.71875 L 351.640625 7.605469 L 351.765625 7.492188 L 351.886719 7.371094 L 351.992188 7.242188 L 352.085938 7.105469 L 352.167969 6.957031 L 352.234375 6.796875 L 352.285156 6.628906 L 352.332031 6.460938 L 352.375 6.285156 L 352.441406 5.929688 L 352.5 5.570313 L 352.523438 5.390625 L 352.542969 5.207031 L 352.558594 5.027344 L 352.582031 4.667969 L 352.640625 3.402344 L 352.671875 2.863281 L 352.6875 2.683594 L 352.707031 2.503906 L 352.730469 2.328125 L 352.761719 2.152344 L 352.800781 1.980469 L 352.847656 1.808594 L 352.898438 1.640625 L 352.953125 1.46875 Z M 47.777344 768.46875 L 47.832031 768.566406 L 45.210938 766.753906 L 45.28125 766.757813 L 45.644531 766.78125 L 45.824219 766.800781 L 46 766.828125 L 46.171875 766.863281 L 46.332031 766.910156 L 46.488281 766.976563 L 46.632813 767.0625 L 46.769531 767.171875 L 46.894531 767.292969 L 47.019531 767.425781 L 47.136719 767.5625 L 47.253906 767.707031 L 47.363281 767.851563 L 47.476563 768.003906 L 47.582031 768.15625 L 47.683594 768.308594 Z M 47.777344 768.46875 " transform="matrix(1,0,0,-1,0,883)"/>
</g>
</svg>
