<?xml version="1.0" encoding="UTF-8"?>
<svg xmlns="http://www.w3.org/2000/svg" xmlns:xlink="http://www.w3.org/1999/xlink" width="1024pt" height="601pt" viewBox="0 0 1024 601" version="1.1">
<g id="surface1">
<path style="fill-rule:evenodd;fill:rgb(49.803162%,49.803162%,49.803162%);fill-opacity:0.5;stroke-width:1;stroke-linecap:butt;stroke-linejoin:miter;stroke:rgb(0%,0%,0%);stroke-opacity:1;stroke-miterlimit:10;" d="M 16.292969 527.257813 L 16.40625 527.109375 L 130.15625 440.394531 L 44.539063 279.691406 L 45.070313 267.691406 L 182.878906 200.300781 L 127.875 0 L 985.207031 17.605469 L 1024 175.101563 L 846.851563 601 L 502.683594 364.550781 L 0 539.613281 L 0.121094 539.523438 L 0.207031 539.488281 L 0.34375 539.410156 L 0.464844 539.304688 L 0.558594 539.1875 L 14.761719 528.359375 L 15.039063 528.234375 L 15.203125 528.15625 L 15.363281 528.070313 L 15.519531 527.984375 L 15.671875 527.886719 L 15.8125 527.78125 L 15.945313 527.664063 L 16.066406 527.535156 L 16.183594 527.398438 Z M 16.292969 527.257813 " transform="matrix(1,0,0,-1,0,601)"/>
</g>
</svg>
