<?xml version="1.0" encoding="UTF-8"?>
<svg xmlns="http://www.w3.org/2000/svg" xmlns:xlink="http://www.w3.org/1999/xlink" width="676pt" height="1024pt" viewBox="0 0 676 1024" version="1.1">
<g id="surface1">
<path style="fill-rule:evenodd;fill:rgb(49.803162%,49.803162%,49.803162%);fill-opacity:0.5;stroke-width:1;stroke-linecap:butt;stroke-linejoin:miter;stroke:rgb(0%,0%,0%);stroke-opacity:1;stroke-miterlimit:10;" d="M 165.320313 15.769531 L 165.324219 15.761719 L 530.582031 269.058594 L 676 799.492188 L 312.085938 979.53125 L 310.179688 1009.765625 L 267.429688 1024 L 222.289063 1020.84375 L 220.980469 1018.007813 L 220.359375 1016.636719 L 219.96875 1015.71875 L 219.789063 1015.253906 L 219.621094 1014.785156 L 219.46875 1014.3125 L 219.34375 1013.832031 L 219.234375 1013.34375 L 219.140625 1012.851563 L 218.976563 1011.859375 L 218.765625 1010.363281 L 218.292969 1006.863281 L 218.078125 1005.367188 L 217.195313 999.855469 L 216.089844 992.457031 L 215.792969 990.628906 L 215.476563 988.804688 L 215.296875 987.894531 L 215.203125 987.441406 L 214.96875 986.472656 L 214.589844 985.027344 L 213.515625 981.1875 L 213.128906 979.746094 L 212.890625 978.78125 L 212.785156 978.296875 L 212.695313 977.8125 L 212.621094 977.324219 L 212.570313 976.847656 L 212.535156 976.367188 L 212.503906 975.402344 L 212.492188 972.980469 L 212.46875 972.011719 L 212.441406 971.53125 L 212.402344 971.050781 L 212.34375 970.578125 L 212.273438 970.109375 L 212.105469 969.175781 L 211.910156 968.242188 L 211.707031 967.308594 L 211.386719 965.914063 L 211.167969 964.988281 L 210.933594 964.0625 L 210.675781 963.148438 L 210.523438 962.671875 L 210.203125 961.726563 L 209.691406 960.320313 L 208.097656 956.113281 L 207.734375 955.183594 L 207.359375 954.257813 L 206.960938 953.328125 L 206.34375 951.9375 L 203.410156 945.488281 L 202.382813 943.175781 L 201.808594 941.832031 L 201.066406 940.035156 L 199.582031 936.4375 L 198.851563 934.632813 L 198.300781 933.21875 L 197.945313 932.273438 L 197.601563 931.324219 L 197.289063 930.363281 L 197.15625 929.910156 L 196.910156 929 L 196.230469 926.253906 L 195.996094 925.339844 L 195.730469 924.4375 L 195.582031 923.992188 L 195.410156 923.535156 L 195.226563 923.078125 L 195.03125 922.628906 L 194.625 921.730469 L 193.988281 920.394531 L 192.058594 916.398438 L 191.4375 915.054688 L 191.039063 914.144531 L 190.679688 913.269531 L 190.660156 913.222656 L 190.109375 911.828125 L 187.03125 903.914063 L 186.511719 902.507813 L 186.199219 901.566406 L 186.0625 901.085938 L 185.941406 900.613281 L 185.832031 900.132813 L 185.640625 899.167969 L 185.390625 897.710938 L 184.839844 894.300781 L 184.597656 892.839844 L 184.332031 891.386719 L 184.121094 890.421875 L 183.886719 889.464844 L 183.511719 888.035156 L 181.042969 878.996094 L 180.277344 876.140625 L 179.785156 874.226563 L 177.859375 866.566406 L 177.515625 865.125 L 177.304688 864.164063 L 177.210938 863.683594 L 177.128906 863.199219 L 177.0625 862.714844 L 177.019531 862.25 L 176.992188 861.785156 L 176.972656 861.316406 L 176.9375 859.574219 L 176.921875 858.972656 L 176.902344 858.507813 L 176.867188 858.039063 L 176.816406 857.578125 L 176.738281 857.089844 L 176.644531 856.605469 L 176.539063 856.125 L 176.0625 854.199219 L 175.949219 853.722656 L 175.847656 853.242188 L 175.761719 852.761719 L 175.699219 852.28125 L 175.667969 851.800781 L 175.675781 851.34375 L 175.714844 850.886719 L 175.773438 850.429688 L 175.851563 849.972656 L 176.035156 849.054688 L 176.449219 847.21875 L 176.640625 846.296875 L 176.726563 845.832031 L 176.804688 845.371094 L 176.867188 844.894531 L 176.964844 843.9375 L 177.035156 842.976563 L 177.300781 838.160156 L 177.367188 837.195313 L 177.453125 836.234375 L 177.507813 835.757813 L 177.644531 834.800781 L 177.808594 833.84375 L 178.15625 831.9375 L 178.3125 830.988281 L 178.382813 830.515625 L 178.4375 830.042969 L 178.472656 829.570313 L 178.488281 829.101563 L 178.464844 828.636719 L 178.402344 828.171875 L 178.304688 827.707031 L 178.183594 827.246094 L 178.046875 826.785156 L 177.898438 826.328125 L 177.261719 824.484375 L 177.113281 824.023438 L 176.972656 823.554688 L 176.84375 823.09375 L 176.730469 822.628906 L 176.519531 821.695313 L 175.949219 818.878906 L 175.75 817.949219 L 175.640625 817.488281 L 175.515625 817.035156 L 175.378906 816.585938 L 175.21875 816.152344 L 175.03125 815.730469 L 174.792969 815.316406 L 174.527344 814.914063 L 174.238281 814.523438 L 173.929688 814.140625 L 173.613281 813.765625 L 172.953125 813.027344 L 171.597656 811.574219 L 170.5625 810.496094 L 169.171875 809.113281 L 164.054688 801.945313 L 161.242188 798.003906 L 156.078125 787.816406 L 156.15625 787.410156 L 156.152344 787.015625 L 156.050781 786.65625 L 155.871094 786.308594 L 155.632813 785.972656 L 155.351563 785.640625 L 155.039063 785.316406 L 154.707031 784.992188 L 154 784.355469 L 153.269531 783.726563 L 152.925781 783.4375 L 150.164063 779.183594 L 144.285156 767.023438 L 138.910156 754.863281 L 136.550781 745.363281 L 137.546875 739.695313 L 139.410156 736.296875 L 141.121094 735.25 L 141.960938 734.710938 L 142.367188 734.429688 L 142.757813 734.140625 L 143.132813 733.832031 L 143.480469 733.503906 L 143.789063 733.148438 L 144.046875 732.773438 L 144.265625 732.371094 L 144.460938 731.945313 L 144.640625 731.507813 L 144.800781 731.058594 L 145.101563 730.144531 L 145.371094 729.214844 L 145.613281 728.285156 L 145.714844 727.820313 L 145.796875 727.359375 L 145.851563 726.902344 L 145.875 726.449219 L 145.84375 726 L 145.753906 725.558594 L 145.613281 725.121094 L 145.4375 724.6875 L 145.234375 724.257813 L 145.011719 723.832031 L 144.53125 722.980469 L 144.03125 722.132813 L 143.515625 721.292969 L 142.992188 720.464844 L 142.722656 720.058594 L 142.445313 719.664063 L 142.160156 719.285156 L 141.855469 718.925781 L 141.535156 718.597656 L 141.183594 718.308594 L 140.789063 718.0625 L 140.363281 717.859375 L 139.917969 717.6875 L 139.457031 717.539063 L 138.984375 717.40625 L 138.503906 717.285156 L 137.53125 717.074219 L 137.042969 716.984375 L 136.554688 716.90625 L 136.066406 716.84375 L 135.582031 716.800781 L 135.097656 716.789063 L 134.617188 716.816406 L 134.164063 716.890625 L 133.714844 716.996094 L 133.265625 717.132813 L 132.820313 717.285156 L 132.375 717.449219 L 131.046875 717.960938 L 130.605469 718.121094 L 130.160156 718.269531 L 129.714844 718.390625 L 129.269531 718.484375 L 128.824219 718.535156 L 128.359375 718.535156 L 127.894531 718.488281 L 127.429688 718.410156 L 126.964844 718.304688 L 126.496094 718.1875 L 126.027344 718.054688 L 125.089844 717.769531 L 123.691406 717.300781 L 122.773438 716.964844 L 122.324219 716.78125 L 121.886719 716.585938 L 121.457031 716.367188 L 121.046875 716.121094 L 120.667969 715.851563 L 120.304688 715.550781 L 119.953125 715.230469 L 119.609375 714.898438 L 118.945313 714.207031 L 117.308594 712.421875 L 116.644531 711.71875 L 115.949219 711.023438 L 115.589844 710.679688 L 114.855469 710.003906 L 112.996094 708.34375 L 111.121094 706.707031 L 110 705.753906 L 107.816406 703.941406 L 107.101563 703.324219 L 106.75 703.011719 L 106.410156 702.6875 L 106.078125 702.355469 L 105.75 701.996094 L 105.433594 701.632813 L 105.125 701.257813 L 104.820313 700.875 L 104.226563 700.105469 L 102.769531 698.148438 L 101.621094 696.570313 L 101.0625 695.773438 L 100.511719 694.960938 L 98.644531 692.085938 L 97.828125 690.863281 L 97.265625 690.070313 L 96.96875 689.683594 L 96.65625 689.3125 L 96.332031 688.949219 L 95.992188 688.601563 L 95.640625 688.261719 L 94.917969 687.601563 L 93.8125 686.628906 L 90.839844 684.058594 L 90.109375 683.40625 L 89.390625 682.734375 L 89.042969 682.390625 L 88.71875 682.046875 L 88.394531 681.699219 L 87.769531 680.988281 L 87.15625 680.265625 L 86.550781 679.53125 L 85.664063 678.421875 L 85.101563 677.664063 L 84.835938 677.273438 L 84.585938 676.875 L 84.347656 676.457031 L 84.125 676.027344 L 83.917969 675.589844 L 83.519531 674.707031 L 82.390625 672.011719 L 82.007813 671.117188 L 81.597656 670.242188 L 81.375 669.816406 L 81.140625 669.402344 L 80.882813 669 L 80.601563 668.621094 L 80.296875 668.257813 L 79.980469 667.902344 L 79.316406 667.210938 L 78.597656 666.492188 L 77.960938 665.847656 L 77.632813 665.5 L 77.316406 665.144531 L 77.015625 664.78125 L 76.734375 664.398438 L 76.476563 663.992188 L 76.242188 663.566406 L 76.027344 663.132813 L 75.820313 662.6875 L 75.433594 661.785156 L 74.886719 660.410156 L 74.542969 659.488281 L 74.222656 658.5625 L 74.082031 658.09375 L 73.957031 657.628906 L 73.855469 657.160156 L 73.820313 656.917969 L 73.785156 656.683594 L 73.753906 656.210938 L 73.753906 655.730469 L 73.777344 655.25 L 73.816406 654.765625 L 74.011719 652.828125 L 74.042969 652.347656 L 74.058594 651.867188 L 74.046875 651.394531 L 74 650.925781 L 73.90625 650.457031 L 73.777344 649.992188 L 73.617188 649.535156 L 73.4375 649.078125 L 73.246094 648.625 L 73.042969 648.171875 L 72.621094 647.273438 L 71.957031 645.929688 L 71.5 645.050781 L 71.257813 644.621094 L 71.007813 644.207031 L 70.742188 643.804688 L 70.453125 643.425781 L 70.136719 643.074219 L 69.789063 642.773438 L 69.414063 642.496094 L 69.019531 642.246094 L 68.609375 642.007813 L 67.761719 641.5625 L 65.632813 640.527344 L 65.144531 640.292969 L 64.277344 639.851563 L 63.839844 639.617188 L 62.980469 639.136719 L 61.703125 638.394531 L 59.578125 637.136719 L 58.3125 636.375 L 57.480469 635.859375 L 57.066406 635.589844 L 56.664063 635.316406 L 56.269531 635.035156 L 55.886719 634.738281 L 55.527344 634.417969 L 55.183594 634.074219 L 54.859375 633.710938 L 54.546875 633.332031 L 54.246094 632.941406 L 53.664063 632.144531 L 52.8125 630.921875 L 51.691406 629.28125 L 50.863281 628.039063 L 50.328125 627.203125 L 50.070313 626.777344 L 49.828125 626.359375 L 49.367188 625.511719 L 48.917969 624.65625 L 47.816406 622.503906 L 47.367188 621.648438 L 47.132813 621.226563 L 46.898438 620.8125 L 46.648438 620.402344 L 46.390625 620.003906 L 46.109375 619.617188 L 45.8125 619.246094 L 45.492188 618.890625 L 45.164063 618.542969 L 44.824219 618.203125 L 44.125 617.539063 L 41.632813 615.246094 L 40.933594 614.578125 L 40.253906 613.886719 L 38.921875 612.476563 L 37.28125 610.691406 L 36.316406 609.609375 L 35.695313 608.867188 L 35.398438 608.488281 L 35.113281 608.101563 L 34.980469 607.902344 L 34.847656 607.699219 L 34.589844 607.292969 L 34.347656 606.878906 L 33.875 606.035156 L 32.726563 603.898438 L 32.253906 603.050781 L 31.757813 602.214844 L 31.234375 601.398438 L 30.421875 600.1875 L 29.867188 599.398438 L 29.582031 599.011719 L 29.289063 598.636719 L 28.988281 598.269531 L 28.671875 597.925781 L 28.339844 597.601563 L 27.984375 597.3125 L 27.601563 597.066406 L 27.191406 596.851563 L 26.769531 596.664063 L 26.332031 596.492188 L 25.886719 596.332031 L 25.433594 596.179688 L 24.515625 595.894531 L 23.128906 595.492188 L 22.386719 595.292969 L 21.730469 595.117188 L 20.792969 594.894531 L 20.324219 594.796875 L 19.835938 594.714844 L 19.347656 594.640625 L 18.367188 594.515625 L 15.914063 594.246094 L 14.941406 594.117188 L 14.460938 594.035156 L 13.992188 593.933594 L 13.53125 593.808594 L 13.082031 593.652344 L 12.675781 593.464844 L 12.285156 593.246094 L 11.902344 593.003906 L 11.527344 592.742188 L 11.164063 592.46875 L 10.804688 592.179688 L 10.453125 591.878906 L 10.109375 591.570313 L 9.777344 591.246094 L 9.449219 590.902344 L 9.132813 590.546875 L 8.824219 590.179688 L 8.21875 589.4375 L 7.039063 587.921875 L 6.183594 586.769531 L 5.910156 586.382813 L 5.644531 585.988281 L 5.394531 585.589844 L 5.164063 585.183594 L 4.957031 584.765625 L 4.777344 584.316406 L 4.625 583.855469 L 4.492188 583.382813 L 4.375 582.910156 L 4.160156 581.945313 L 3.753906 580.003906 L 3.640625 579.523438 L 3.515625 579.042969 L 3.378906 578.570313 L 3.230469 578.121094 L 2.902344 577.230469 L 2.1875 575.46875 L 1.847656 574.582031 L 1.691406 574.132813 L 1.542969 573.671875 L 1.28125 572.738281 L 1.039063 571.796875 L 0.8125 570.847656 L 0.59375 569.902344 L 0.382813 568.953125 L 0.195313 568.007813 L 0.117188 567.535156 L 0.0546875 567.066406 L 0.0117188 566.597656 L 0 566.136719 L 0.0273438 565.675781 L 0.109375 565.210938 L 0.230469 564.753906 L 0.386719 564.300781 L 0.5625 563.847656 L 0.753906 563.394531 L 0.957031 562.945313 L 1.382813 562.050781 L 2.917969 558.917969 L 3.335938 558.019531 L 3.535156 557.566406 L 3.722656 557.109375 L 3.890625 556.648438 L 4.039063 556.179688 L 4.160156 555.714844 L 4.261719 555.242188 L 4.347656 554.765625 L 4.417969 554.285156 L 4.484375 553.800781 L 4.597656 552.835938 L 4.738281 551.375 L 4.804688 550.402344 L 4.828125 549.917969 L 4.839844 549.429688 L 4.839844 548.933594 L 4.824219 548.441406 L 4.734375 546.460938 L 4.695313 545.472656 L 4.691406 544.980469 L 4.699219 544.484375 L 4.722656 544.011719 L 4.761719 543.539063 L 4.863281 542.59375 L 5.0625 541.183594 L 5.21875 540.25 L 5.308594 539.789063 L 5.40625 539.328125 L 5.515625 538.878906 L 5.644531 538.433594 L 5.796875 538.003906 L 5.984375 537.589844 L 6.21875 537.183594 L 6.484375 536.796875 L 6.777344 536.417969 L 7.085938 536.050781 L 8.378906 534.601563 L 8.695313 534.234375 L 9 533.863281 L 9.28125 533.476563 L 9.535156 533.074219 L 9.753906 532.660156 L 9.941406 532.226563 L 10.113281 531.785156 L 10.269531 531.335938 L 10.414063 530.878906 L 10.679688 529.953125 L 10.929688 529.015625 L 11.171875 528.078125 L 11.507813 526.664063 L 11.707031 525.714844 L 11.878906 524.730469 L 12.3125 521.761719 L 12.476563 520.785156 L 12.570313 520.300781 L 12.683594 519.824219 L 12.820313 519.359375 L 12.984375 518.902344 L 13.1875 518.460938 L 13.417969 518.035156 L 13.671875 517.617188 L 13.941406 517.203125 L 14.222656 516.792969 L 15.648438 514.777344 L 16.1875 513.988281 L 17.507813 512.015625 L 18.046875 511.230469 L 18.601563 510.464844 L 18.890625 510.09375 L 19.191406 509.734375 L 19.527344 509.367188 L 19.875 509.011719 L 20.234375 508.667969 L 20.96875 507.992188 L 21.714844 507.332031 L 23.230469 506.019531 L 27.382813 502.46875 L 28.113281 501.824219 L 28.472656 501.5 L 28.824219 501.164063 L 29.160156 500.820313 L 29.480469 500.464844 L 29.78125 500.09375 L 30.058594 499.6875 L 30.3125 499.265625 L 30.550781 498.828125 L 30.777344 498.382813 L 30.996094 497.933594 L 31.414063 497.019531 L 31.824219 496.097656 L 33.023438 493.316406 L 33.40625 492.382813 L 33.589844 491.914063 L 33.765625 491.441406 L 33.917969 490.992188 L 34.203125 490.089844 L 34.597656 488.726563 L 34.957031 487.355469 L 35.167969 486.433594 L 35.261719 485.972656 L 35.339844 485.507813 L 35.398438 485.042969 L 35.449219 484.574219 L 35.484375 484.109375 L 35.539063 483.167969 L 35.660156 480.324219 L 35.738281 478.878906 L 35.835938 477.445313 L 35.882813 476.972656 L 35.9375 476.507813 L 36.003906 476.050781 L 36.089844 475.609375 L 36.207031 475.183594 L 36.355469 474.785156 L 36.558594 474.417969 L 36.835938 474.078125 L 37.167969 473.777344 L 37.535156 473.5 L 37.933594 473.242188 L 38.355469 473 L 39.226563 472.539063 L 41.484375 471.425781 L 42.382813 470.972656 L 43.265625 470.492188 L 43.699219 470.238281 L 44.105469 469.984375 L 44.898438 469.441406 L 45.675781 468.878906 L 46.496094 468.257813 L 46.824219 468.007813 L 47.574219 467.414063 L 47.941406 467.105469 L 48.300781 466.792969 L 48.652344 466.472656 L 48.988281 466.136719 L 49.308594 465.78125 L 49.617188 465.414063 L 49.910156 465.035156 L 50.191406 464.644531 L 50.464844 464.25 L 50.726563 463.847656 L 50.976563 463.441406 L 51.210938 463.023438 L 51.425781 462.59375 L 51.613281 462.160156 L 51.78125 461.71875 L 51.9375 461.265625 L 52.21875 460.351563 L 52.746094 458.507813 L 53.019531 457.585938 L 53.316406 456.675781 L 53.480469 456.226563 L 53.660156 455.773438 L 54.050781 454.882813 L 55.3125 452.234375 L 55.710938 451.339844 L 55.894531 450.902344 L 56.246094 450.019531 L 57.238281 447.34375 L 57.578125 446.457031 L 57.933594 445.582031 L 58.125 445.148438 L 58.332031 444.722656 L 58.558594 444.289063 L 58.800781 443.863281 L 59.3125 443.023438 L 60.113281 441.785156 L 62.027344 438.90625 L 62.558594 438.078125 L 62.816406 437.660156 L 63.0625 437.234375 L 63.292969 436.804688 L 63.507813 436.367188 L 63.695313 435.925781 L 63.863281 435.476563 L 64.019531 435.023438 L 64.160156 434.5625 L 64.292969 434.101563 L 64.414063 433.636719 L 64.523438 433.167969 L 64.621094 432.699219 L 64.703125 432.230469 L 64.761719 431.761719 L 64.792969 431.289063 L 64.789063 430.824219 L 64.757813 430.355469 L 64.707031 429.886719 L 64.640625 429.417969 L 64.476563 428.480469 L 64.015625 426.132813 L 63.839844 425.191406 L 63.691406 424.246094 L 63.628906 423.769531 L 63.585938 423.289063 L 63.554688 422.808594 L 63.53125 422.328125 L 63.511719 421.367188 L 63.519531 420.890625 L 63.53125 420.414063 L 63.558594 419.945313 L 63.605469 419.484375 L 63.675781 419.03125 L 63.78125 418.59375 L 63.929688 418.175781 L 64.132813 417.777344 L 64.378906 417.398438 L 64.660156 417.03125 L 64.960938 416.679688 L 65.28125 416.332031 L 65.617188 415.988281 L 66.300781 415.3125 L 67.691406 413.96875 L 68.375 413.28125 L 68.703125 412.929688 L 69.023438 412.570313 L 69.328125 412.203125 L 69.628906 411.804688 L 69.914063 411.398438 L 70.1875 410.980469 L 70.714844 410.132813 L 71.222656 409.273438 L 71.726563 408.40625 L 72.457031 407.097656 L 72.917969 406.21875 L 73.132813 405.769531 L 73.332031 405.316406 L 73.507813 404.859375 L 73.652344 404.398438 L 73.773438 403.933594 L 73.878906 403.460938 L 73.972656 402.984375 L 74.058594 402.503906 L 74.214844 401.539063 L 74.503906 399.605469 L 74.777344 397.664063 L 74.898438 396.695313 L 74.996094 395.726563 L 75.03125 395.238281 L 75.050781 394.753906 L 75.054688 394.269531 L 75.046875 393.292969 L 75.007813 391.832031 L 74.855469 387.929688 L 74.828125 386.957031 L 74.808594 385.980469 L 74.804688 385.492188 L 74.820313 384.503906 L 74.871094 383.023438 L 74.941406 381.542969 L 75 380.558594 L 75.078125 379.574219 L 75.128906 379.070313 L 75.316406 377.566406 L 75.53125 376.0625 L 75.769531 374.566406 L 75.957031 373.574219 L 76.0625 373.082031 L 76.179688 372.617188 L 76.433594 371.6875 L 76.710938 370.765625 L 77.71875 367.546875 L 77.992188 366.625 L 78.121094 366.160156 L 78.359375 365.203125 L 78.578125 364.214844 L 78.890625 362.734375 L 79.117188 361.753906 L 79.242188 361.265625 L 79.386719 360.789063 L 79.550781 360.320313 L 79.734375 359.878906 L 79.9375 359.445313 L 80.15625 359.015625 L 80.386719 358.59375 L 80.867188 357.753906 L 82.105469 355.667969 L 82.582031 354.828125 L 82.804688 354.402344 L 83.019531 353.976563 L 83.214844 353.539063 L 83.386719 353.097656 L 83.53125 352.625 L 83.652344 352.144531 L 83.757813 351.65625 L 83.851563 351.167969 L 84.179688 349.183594 L 84.269531 348.691406 L 84.371094 348.199219 L 84.476563 347.730469 L 84.722656 346.808594 L 84.992188 345.886719 L 86.277344 341.761719 L 86.546875 340.839844 L 86.675781 340.378906 L 86.792969 339.914063 L 86.90625 339.421875 L 87.011719 338.925781 L 87.195313 337.929688 L 87.34375 336.933594 L 87.402344 336.4375 L 87.445313 335.941406 L 87.46875 335.449219 L 87.464844 334.960938 L 87.417969 334.476563 L 87.328125 334.023438 L 87.203125 333.570313 L 87.054688 333.125 L 86.882813 332.683594 L 86.503906 331.800781 L 85.5 329.597656 L 85.308594 329.15625 L 85.132813 328.710938 L 84.96875 328.261719 L 84.824219 327.8125 L 84.710938 327.351563 L 84.636719 326.898438 L 84.589844 326.4375 L 84.566406 325.972656 L 84.558594 325.507813 L 84.5625 325.039063 L 84.601563 324.097656 L 84.636719 323.628906 L 84.683594 323.160156 L 84.746094 322.699219 L 84.824219 322.238281 L 84.925781 321.78125 L 85.058594 321.316406 L 85.21875 320.855469 L 85.394531 320.398438 L 85.582031 319.945313 L 85.980469 319.046875 L 87.234375 316.359375 L 87.636719 315.460938 L 88.007813 314.550781 L 88.175781 314.089844 L 88.328125 313.632813 L 88.597656 312.703125 L 88.839844 311.769531 L 89.066406 310.828125 L 89.722656 307.996094 L 90.0625 306.585938 L 90.300781 305.648438 L 90.480469 305 L 90.558594 304.714844 L 90.851563 303.796875 L 91.164063 302.886719 L 91.652344 301.523438 L 92.644531 298.800781 L 93.128906 297.433594 L 93.609375 296.007813 L 94.234375 294.097656 L 94.84375 292.1875 L 95.128906 291.230469 L 95.261719 290.75 L 95.378906 290.273438 L 95.480469 289.792969 L 95.558594 289.308594 L 95.597656 288.824219 L 95.601563 288.371094 L 95.574219 287.917969 L 95.527344 287.460938 L 95.464844 287.003906 L 95.164063 285.171875 L 95.101563 284.714844 L 95.054688 284.253906 L 95.023438 283.796875 L 95.023438 283.34375 L 95.0625 282.851563 L 95.132813 282.359375 L 95.226563 281.871094 L 95.332031 281.382813 L 95.6875 279.921875 L 95.796875 279.4375 L 95.890625 278.953125 L 95.960938 278.472656 L 96 277.996094 L 95.988281 277.519531 L 95.921875 277.058594 L 95.804688 276.601563 L 95.660156 276.144531 L 95.484375 275.691406 L 95.292969 275.238281 L 95.089844 274.789063 L 94.011719 272.535156 L 93.59375 271.625 L 93.398438 271.167969 L 93.222656 270.707031 L 93.066406 270.238281 L 92.941406 269.765625 L 92.859375 269.304688 L 92.804688 268.839844 L 92.773438 268.371094 L 92.761719 267.898438 L 92.765625 267.425781 L 92.78125 266.953125 L 92.808594 266.484375 L 92.855469 266.019531 L 92.917969 265.5625 L 93.011719 265.121094 L 93.136719 264.691406 L 93.304688 264.285156 L 93.539063 263.898438 L 93.816406 263.535156 L 94.128906 263.1875 L 94.46875 262.851563 L 94.824219 262.527344 L 95.191406 262.210938 L 95.570313 261.898438 L 96.34375 261.289063 L 97.136719 260.703125 L 97.539063 260.425781 L 97.953125 260.164063 L 98.375 259.925781 L 98.785156 259.722656 L 99.207031 259.539063 L 99.632813 259.371094 L 100.066406 259.214844 L 100.507813 259.074219 L 100.949219 258.945313 L 101.394531 258.832031 L 101.84375 258.734375 L 102.296875 258.65625 L 102.796875 258.597656 L 103.300781 258.5625 L 103.808594 258.542969 L 104.832031 258.53125 L 106.355469 258.539063 L 106.855469 258.535156 L 107.347656 258.519531 L 107.824219 258.488281 L 108.28125 258.433594 L 108.710938 258.34375 L 109.101563 258.203125 L 109.433594 258 L 109.699219 257.71875 L 109.90625 257.375 L 110.078125 256.984375 L 110.21875 256.558594 L 110.335938 256.109375 L 110.441406 255.644531 L 110.53125 255.167969 L 110.609375 254.6875 L 110.675781 254.199219 L 110.726563 253.710938 L 110.761719 253.222656 L 110.769531 252.734375 L 110.746094 252.25 L 110.683594 251.777344 L 110.589844 251.304688 L 110.472656 250.835938 L 110.335938 250.371094 L 110.039063 249.445313 L 109.078125 246.664063 L 108.785156 245.730469 L 108.652344 245.261719 L 108.527344 244.789063 L 108.300781 243.835938 L 108.101563 242.886719 L 108.011719 242.410156 L 107.933594 241.9375 L 107.867188 241.46875 L 107.824219 241.003906 L 107.808594 240.546875 L 107.832031 240.101563 L 107.910156 239.667969 L 108.058594 239.234375 L 108.261719 238.820313 L 108.503906 238.414063 L 108.777344 238.011719 L 109.070313 237.617188 L 109.375 237.226563 L 109.691406 236.835938 L 110.339844 236.0625 L 111.332031 234.917969 L 112.003906 234.1875 L 112.347656 233.84375 L 112.699219 233.523438 L 113.0625 233.238281 L 113.441406 232.996094 L 113.839844 232.816406 L 114.269531 232.714844 L 114.722656 232.675781 L 115.1875 232.679688 L 115.667969 232.71875 L 116.15625 232.78125 L 116.648438 232.855469 L 118.144531 233.105469 L 118.644531 233.179688 L 119.140625 233.238281 L 119.636719 233.269531 L 120.125 233.273438 L 120.601563 233.226563 L 121.035156 233.128906 L 121.460938 232.992188 L 121.875 232.824219 L 122.28125 232.628906 L 122.679688 232.417969 L 123.058594 232.183594 L 123.421875 231.9375 L 123.757813 231.671875 L 124.058594 231.390625 L 124.316406 231.082031 L 124.511719 230.746094 L 124.636719 230.359375 L 124.691406 229.945313 L 124.703125 229.507813 L 124.675781 229.050781 L 124.628906 228.585938 L 124.558594 228.113281 L 124.394531 227.15625 L 123.828125 224.253906 L 123.558594 222.800781 L 122.910156 219.03125 L 122.730469 218.101563 L 122.625 217.644531 L 122.507813 217.1875 L 122.367188 216.738281 L 122.203125 216.285156 L 122.023438 215.839844 L 121.824219 215.394531 L 121.398438 214.519531 L 120.726563 213.21875 L 120.269531 212.359375 L 119.796875 211.503906 L 119.304688 210.667969 L 119.046875 210.257813 L 118.773438 209.863281 L 118.484375 209.480469 L 118.179688 209.121094 L 117.855469 208.773438 L 117.519531 208.441406 L 117.175781 208.113281 L 116.46875 207.472656 L 113.199219 204.652344 L 111.371094 203.050781 L 108.820313 200.800781 L 108.097656 200.152344 L 107.386719 199.492188 L 106.695313 198.816406 L 106.363281 198.460938 L 106.039063 198.089844 L 105.722656 197.707031 L 105.109375 196.921875 L 104.34375 195.882813 L 104.222656 195.714844 L 103.65625 194.898438 L 103.378906 194.488281 L 103.117188 194.070313 L 102.867188 193.648438 L 102.636719 193.214844 L 102.433594 192.773438 L 102.265625 192.320313 L 102.125 191.859375 L 102.003906 191.386719 L 101.894531 190.910156 L 101.792969 190.429688 L 101.613281 189.460938 L 101.359375 188 L 101.117188 186.535156 L 100.972656 185.5625 L 100.910156 185.078125 L 100.859375 184.597656 L 100.824219 184.121094 L 100.816406 183.816406 L 101.328125 181.628906 L 101.429688 181.421875 L 101.667969 181 L 101.921875 180.582031 L 102.464844 179.753906 L 103.027344 178.929688 L 103.882813 177.695313 L 104.753906 176.472656 L 105.347656 175.671875 L 105.652344 175.28125 L 105.96875 174.90625 L 106.300781 174.542969 L 106.652344 174.199219 L 107.011719 173.890625 L 107.390625 173.605469 L 107.777344 173.332031 L 108.179688 173.066406 L 109.796875 172.050781 L 110.191406 171.792969 L 110.574219 171.527344 L 110.933594 171.25 L 111.265625 170.957031 L 111.5625 170.644531 L 111.804688 170.300781 L 111.988281 169.902344 L 112.117188 169.472656 L 112.203125 169.019531 L 112.261719 168.550781 L 112.300781 168.070313 L 112.328125 167.578125 L 112.351563 166.582031 L 112.363281 164.5625 L 112.359375 163.558594 L 112.328125 162.570313 L 112.296875 162.085938 L 112.242188 161.613281 L 112.160156 161.15625 L 112.039063 160.71875 L 111.863281 160.3125 L 111.628906 159.953125 L 111.339844 159.621094 L 111.011719 159.308594 L 110.65625 159.011719 L 110.28125 158.726563 L 109.492188 158.179688 L 107.042969 156.574219 L 106.246094 156.015625 L 105.863281 155.726563 L 105.496094 155.425781 L 105.148438 155.105469 L 104.824219 154.765625 L 104.53125 154.390625 L 104.265625 153.992188 L 104.019531 153.578125 L 103.789063 153.152344 L 103.570313 152.714844 L 103.355469 152.273438 L 102.941406 151.378906 L 102.335938 150.023438 L 101.761719 148.664063 L 101.582031 148.207031 L 101.414063 147.75 L 101.40625 147.726563 L 100.953125 144.714844 L 100.96875 144.054688 L 101.058594 142.179688 L 101.070313 141.710938 L 101.070313 141.242188 L 101.054688 140.765625 L 101.027344 140.285156 L 100.949219 139.328125 L 100.527344 135.507813 L 100.445313 134.550781 L 100.417969 134.074219 L 100.402344 133.59375 L 100.40625 133.105469 L 100.421875 132.617188 L 100.449219 132.128906 L 100.523438 131.148438 L 100.738281 128.710938 L 100.796875 127.742188 L 100.808594 127.265625 L 100.800781 126.796875 L 100.769531 126.335938 L 100.699219 125.890625 L 100.578125 125.460938 L 100.394531 125.042969 L 100.15625 124.644531 L 99.886719 124.261719 L 99.585938 123.886719 L 99.269531 123.515625 L 98.953125 123.167969 L 97.9375 122.054688 L 97.613281 121.6875 L 97.457031 121.496094 L 96.554688 115.496094 L 95.917969 114.582031 L 95.898438 113.691406 L 95.898438 113.1875 L 95.910156 112.683594 L 95.9375 112.183594 L 95.984375 111.6875 L 96.066406 111.199219 L 96.175781 110.742188 L 96.3125 110.289063 L 96.472656 109.839844 L 96.648438 109.394531 L 96.835938 108.953125 L 97.03125 108.511719 L 97.441406 107.640625 L 97.878906 106.792969 L 98.109375 106.382813 L 98.355469 105.984375 L 98.617188 105.605469 L 98.902344 105.25 L 99.21875 104.933594 L 99.582031 104.65625 L 99.976563 104.410156 L 100.394531 104.195313 L 100.832031 104 L 101.28125 103.8125 L 101.738281 103.640625 L 102.234375 103.457031 L 103.570313 102.964844 L 104.011719 102.785156 L 104.433594 102.597656 L 104.828125 102.394531 L 105.1875 102.167969 L 105.492188 101.914063 L 105.730469 101.613281 L 105.882813 101.261719 L 105.964844 100.867188 L 105.996094 100.441406 L 105.984375 99.992188 L 105.953125 99.53125 L 105.898438 99.054688 L 105.835938 98.570313 L 105.683594 97.59375 L 105.425781 96.117188 L 105.234375 95.144531 L 105.125 94.664063 L 105.003906 94.191406 L 104.863281 93.730469 L 104.695313 93.285156 L 104.492188 92.863281 L 104.242188 92.460938 L 103.996094 92.140625 L 103.953125 92.082031 L 103.636719 91.71875 L 103.304688 91.367188 L 102.957031 91.019531 L 102.234375 90.34375 L 101.496094 89.679688 L 100.378906 88.691406 L 99.25 87.710938 L 98.109375 86.753906 L 97.359375 86.15625 L 96.230469 85.273438 L 95.488281 84.675781 L 95.125 84.371094 L 94.773438 84.054688 L 94.433594 83.730469 L 94.113281 83.386719 L 93.804688 83.015625 L 93.511719 82.621094 L 93.234375 82.21875 L 92.96875 81.804688 L 92.453125 80.960938 L 91.199219 78.820313 L 90.691406 77.972656 L 90.425781 77.554688 L 90.152344 77.144531 L 89.871094 76.742188 L 89.570313 76.355469 L 89.246094 75.980469 L 88.902344 75.617188 L 88.550781 75.261719 L 88.1875 74.914063 L 87.449219 74.234375 L 85.566406 72.554688 L 84.839844 71.894531 L 83.792969 70.917969 L 83.105469 70.257813 L 82.429688 69.585938 L 82.101563 69.242188 L 81.78125 68.894531 L 81.46875 68.535156 L 81.164063 68.15625 L 80.867188 67.769531 L 80.582031 67.375 L 79.75 66.167969 L 77.039063 62.097656 L 74.597656 58.480469 L 74.082031 57.679688 L 73.839844 57.277344 L 73.617188 56.871094 L 73.417969 56.46875 L 73.253906 56.066406 L 73.136719 55.660156 L 73.085938 55.253906 L 73.117188 54.828125 L 73.21875 54.402344 L 73.371094 53.976563 L 73.558594 53.550781 L 73.773438 53.121094 L 74.003906 52.695313 L 74.5 51.835938 L 75.796875 49.691406 L 76.308594 48.828125 L 76.554688 48.394531 L 76.789063 47.957031 L 77.015625 47.519531 L 77.222656 47.074219 L 77.40625 46.621094 L 77.5625 46.164063 L 77.675781 45.695313 L 77.757813 45.21875 L 77.816406 44.734375 L 77.859375 44.242188 L 77.914063 43.253906 L 77.972656 41.265625 L 78.015625 40.28125 L 78.050781 39.800781 L 78.101563 39.332031 L 78.171875 38.878906 L 78.277344 38.449219 L 78.421875 38.050781 L 78.628906 37.695313 L 78.894531 37.402344 L 79.21875 37.152344 L 79.585938 36.933594 L 79.980469 36.734375 L 80.398438 36.554688 L 80.828125 36.386719 L 81.722656 36.070313 L 82.636719 35.777344 L 83.5625 35.507813 L 84.03125 35.382813 L 84.496094 35.269531 L 84.96875 35.167969 L 85.441406 35.078125 L 86.390625 34.914063 L 89.238281 34.476563 L 90.183594 34.316406 L 90.648438 34.226563 L 91.113281 34.125 L 91.574219 34.011719 L 92.027344 33.878906 L 92.480469 33.71875 L 92.925781 33.542969 L 93.367188 33.351563 L 94.238281 32.941406 L 95.105469 32.507813 L 96.398438 31.847656 L 98.121094 30.953125 L 98.976563 30.5 L 99.820313 30.027344 L 100.230469 29.78125 L 100.628906 29.519531 L 101.011719 29.242188 L 101.378906 28.945313 L 101.730469 28.601563 L 102.0625 28.238281 L 102.378906 27.855469 L 102.6875 27.457031 L 102.988281 27.050781 L 103.863281 25.804688 L 104.71875 24.542969 L 105.273438 23.703125 L 105.535156 23.285156 L 105.785156 22.871094 L 106.007813 22.457031 L 106.203125 22.050781 L 106.351563 21.648438 L 106.433594 21.257813 L 106.425781 20.878906 L 106.328125 20.542969 L 106.148438 20.214844 L 105.917969 19.894531 L 105.648438 19.582031 L 105.351563 19.269531 L 104.425781 18.328125 L 104.136719 18.003906 L 103.878906 17.671875 L 103.664063 17.324219 L 103.511719 16.960938 L 103.425781 16.539063 L 103.414063 16.09375 L 103.453125 15.636719 L 103.527344 15.167969 L 103.628906 14.691406 L 103.75 14.207031 L 103.886719 13.71875 L 104.027344 13.230469 L 104.335938 12.261719 L 104.5 11.785156 L 104.648438 11.382813 L 111.625 8.824219 L 111.78125 8.832031 L 112.265625 8.867188 L 112.746094 8.921875 L 113.21875 9 L 113.671875 9.109375 L 114.117188 9.242188 L 114.546875 9.398438 L 114.964844 9.574219 L 115.363281 9.769531 L 115.742188 9.984375 L 116.085938 10.222656 L 116.386719 10.492188 L 116.632813 10.800781 L 116.820313 11.179688 L 116.941406 11.601563 L 117.019531 12.050781 L 117.066406 12.523438 L 117.085938 13.011719 L 117.089844 13.511719 L 117.070313 14.523438 L 117.070313 14.59375 L 116.984375 17.082031 L 116.964844 18.105469 L 116.960938 18.613281 L 116.96875 19.125 L 116.984375 19.628906 L 117.042969 20.636719 L 117.160156 22.144531 L 117.257813 23.144531 L 117.378906 24.132813 L 117.457031 24.617188 L 117.550781 25.089844 L 117.671875 25.550781 L 117.824219 25.988281 L 118.027344 26.402344 L 118.28125 26.773438 L 118.585938 27.121094 L 118.921875 27.445313 L 119.28125 27.757813 L 119.660156 28.058594 L 120.050781 28.351563 L 120.449219 28.636719 L 121.265625 29.195313 L 122.097656 29.726563 L 122.519531 29.980469 L 122.949219 30.214844 L 123.386719 30.425781 L 123.835938 30.609375 L 124.304688 30.753906 L 124.78125 30.871094 L 125.269531 30.960938 L 125.761719 31.039063 L 126.261719 31.105469 L 127.257813 31.210938 L 128.257813 31.292969 L 128.75 31.324219 L 129.238281 31.339844 L 129.714844 31.339844 L 130.179688 31.316406 L 130.621094 31.257813 L 131.03125 31.152344 L 131.402344 30.980469 L 131.71875 30.738281 L 131.992188 30.429688 L 132.238281 30.082031 L 132.464844 29.699219 L 132.679688 29.289063 L 132.882813 28.867188 L 133.078125 28.433594 L 133.453125 27.542969 L 133.8125 26.640625 L 134.136719 25.742188 L 134.28125 25.292969 L 134.402344 24.84375 L 134.496094 24.402344 L 134.550781 23.960938 L 134.546875 23.527344 L 134.480469 23.101563 L 134.355469 22.679688 L 134.191406 22.261719 L 134 21.84375 L 133.789063 21.433594 L 133.324219 20.609375 L 132.339844 18.960938 L 131.859375 18.128906 L 131.675781 17.792969 L 131.628906 17.707031 L 131.40625 17.28125 L 131.199219 16.847656 L 130.816406 15.972656 L 130.636719 15.53125 L 130.289063 14.640625 L 129.960938 13.75 L 129.664063 12.859375 L 129.539063 12.414063 L 129.429688 11.972656 L 129.351563 11.53125 L 129.308594 11.09375 L 129.316406 10.664063 L 129.398438 10.210938 L 129.53125 9.765625 L 129.707031 9.324219 L 129.914063 8.886719 L 130.136719 8.449219 L 130.625 7.574219 L 131.140625 6.707031 L 131.667969 5.835938 L 132.199219 4.972656 L 132.75 4.125 L 133.039063 3.710938 L 133.335938 3.308594 L 133.652344 2.917969 L 133.960938 2.585938 L 134.28125 2.265625 L 134.617188 1.957031 L 134.960938 1.660156 L 135.316406 1.378906 L 135.675781 1.113281 L 136.042969 0.863281 L 136.421875 0.636719 L 136.8125 0.4375 L 137.214844 0.277344 L 137.664063 0.15625 L 138.132813 0.078125 L 138.613281 0.03125 L 139.097656 0.0078125 L 139.589844 0 L 140.582031 0.0117188 L 142.082031 0.0625 L 142.726563 0.09375 L 150.074219 5.1875 L 150.078125 5.199219 L 150.269531 5.613281 L 150.441406 6.039063 L 150.597656 6.46875 L 150.746094 6.90625 L 150.878906 7.347656 L 151.121094 8.234375 L 151.230469 8.679688 L 151.324219 9.128906 L 151.402344 9.578125 L 151.460938 10.03125 L 151.5 10.515625 L 151.515625 11.007813 L 151.515625 11.496094 L 151.503906 11.988281 L 151.460938 12.972656 L 151.246094 16.425781 L 151.195313 17.410156 L 151.15625 18.402344 L 151.109375 20.386719 L 151.085938 22.042969 L 151.074219 22.878906 L 151.074219 24.375 L 151.085938 24.871094 L 151.109375 25.367188 L 151.144531 25.863281 L 151.199219 26.351563 L 151.285156 26.839844 L 151.402344 27.3125 L 151.550781 27.785156 L 151.714844 28.25 L 151.898438 28.707031 L 152.089844 29.160156 L 152.292969 29.605469 L 152.503906 30.039063 L 152.722656 30.457031 L 152.949219 30.847656 L 153.1875 31.207031 L 153.441406 31.515625 L 153.71875 31.757813 L 154.019531 31.90625 L 154.355469 31.941406 L 154.71875 31.882813 L 155.105469 31.757813 L 155.503906 31.585938 L 155.914063 31.375 L 156.328125 31.144531 L 156.75 30.894531 L 158.027344 30.105469 L 159.296875 29.285156 L 160.121094 28.726563 L 160.515625 28.4375 L 160.894531 28.136719 L 161.246094 27.824219 L 161.566406 27.488281 L 161.835938 27.125 L 162.050781 26.730469 L 162.21875 26.3125 L 162.351563 25.871094 L 162.464844 25.414063 L 162.558594 24.949219 L 162.621094 24.566406 L 162.714844 23.996094 L 162.992188 22.066406 L 163.152344 21.105469 L 163.25 20.628906 L 163.359375 20.160156 L 163.488281 19.695313 L 163.644531 19.242188 L 163.820313 18.796875 L 164.011719 18.355469 L 164.214844 17.917969 L 164.425781 17.484375 L 164.863281 16.625 Z M 165.320313 15.769531 " transform="matrix(1,0,0,-1,0,1024)"/>
</g>
</svg>
