<?xml version="1.0" encoding="UTF-8"?>
<svg xmlns="http://www.w3.org/2000/svg" xmlns:xlink="http://www.w3.org/1999/xlink" width="1024pt" height="839pt" viewBox="0 0 1024 839" version="1.1">
<g id="surface1">
<path style="fill-rule:evenodd;fill:rgb(49.803162%,49.803162%,49.803162%);fill-opacity:0.5;stroke-width:1;stroke-linecap:butt;stroke-linejoin:miter;stroke:rgb(0%,0%,0%);stroke-opacity:1;stroke-miterlimit:10;" d="M 161.773438 178.15625 L 161.832031 178.132813 L 162.039063 178.191406 L 669.03125 0 L 1024 240.765625 L 929.789063 470.371094 L 1008.515625 839 L 458.777344 749.878906 L 57.46875 723.332031 L 57.449219 723.210938 L 57.402344 722.839844 L 57.386719 722.65625 L 57.375 722.46875 L 57.371094 722.09375 L 57.375 721.714844 L 57.390625 720.960938 L 57.394531 720.585938 L 57.386719 720.210938 L 57.371094 720.023438 L 57.335938 719.65625 L 57.289063 719.285156 L 57.214844 718.734375 L 56.945313 716.890625 L 56.871094 716.335938 L 56.832031 715.960938 L 56.796875 715.574219 L 56.75 715 L 56.691406 714.230469 L 56.652344 713.652344 L 56.632813 713.269531 L 56.628906 713.078125 L 56.632813 712.890625 L 56.640625 712.699219 L 56.660156 712.511719 L 56.691406 712.335938 L 56.730469 712.160156 L 56.777344 711.984375 L 56.828125 711.808594 L 56.941406 711.460938 L 57.304688 710.417969 L 57.421875 710.070313 L 57.53125 709.71875 L 57.578125 709.542969 L 57.621094 709.363281 L 57.660156 709.175781 L 57.691406 708.984375 L 57.71875 708.792969 L 57.765625 708.410156 L 57.847656 707.636719 L 57.890625 707.25 L 57.917969 707.058594 L 57.980469 706.683594 L 58.015625 706.5 L 58.089844 706.128906 L 58.175781 705.761719 L 58.226563 705.582031 L 58.28125 705.40625 L 58.339844 705.234375 L 58.410156 705.070313 L 58.496094 704.910156 L 58.597656 704.761719 L 58.710938 704.625 L 58.835938 704.488281 L 58.964844 704.359375 L 59.101563 704.234375 L 59.382813 703.988281 L 59.671875 703.746094 L 60.839844 702.78125 L 61.121094 702.539063 L 61.390625 702.300781 L 61.652344 702.054688 L 61.78125 701.925781 L 61.902344 701.796875 L 62.019531 701.664063 L 62.128906 701.523438 L 62.230469 701.371094 L 62.320313 701.214844 L 62.40625 701.050781 L 62.488281 700.886719 L 62.566406 700.71875 L 62.714844 700.378906 L 62.769531 700.242188 L 62.925781 699.867188 L 63.054688 699.519531 L 63.117188 699.347656 L 63.167969 699.175781 L 63.210938 699.003906 L 63.246094 698.828125 L 63.261719 698.65625 L 63.257813 698.472656 L 63.238281 698.292969 L 63.203125 698.109375 L 63.164063 697.929688 L 63.113281 697.746094 L 62.90625 697.011719 L 62.855469 696.828125 L 62.808594 696.644531 L 62.769531 696.457031 L 62.734375 696.273438 L 62.707031 696.085938 L 62.683594 695.902344 L 62.644531 695.527344 L 62.601563 694.964844 L 62.464844 693.085938 L 62.40625 692.335938 L 62.324219 691.398438 L 62.070313 688.589844 L 62.023438 688.027344 L 62 687.652344 L 61.980469 687.277344 L 61.972656 686.714844 L 61.972656 686.152344 L 61.980469 685.023438 L 61.976563 684.460938 L 61.972656 684.277344 L 61.960938 684.09375 L 61.941406 683.914063 L 61.914063 683.738281 L 61.875 683.566406 L 61.820313 683.402344 L 61.742188 683.25 L 61.648438 683.105469 L 61.546875 682.964844 L 61.3125 682.691406 L 61.1875 682.558594 L 60.675781 682.035156 L 60.546875 681.902344 L 60.425781 681.765625 L 60.308594 681.625 L 60.199219 681.484375 L 60.097656 681.335938 L 60.003906 681.171875 L 59.917969 681.003906 L 59.84375 680.828125 L 59.773438 680.652344 L 59.703125 680.472656 L 59.578125 680.109375 L 59.457031 679.742188 L 59.28125 679.191406 L 59.171875 678.820313 L 59.121094 678.636719 L 59.070313 678.449219 L 59.03125 678.261719 L 58.996094 678.074219 L 58.972656 677.890625 L 58.957031 677.703125 L 58.9375 677.328125 L 58.910156 676.574219 L 58.898438 676.386719 L 58.878906 676.203125 L 58.855469 676.015625 L 58.820313 675.839844 L 58.78125 675.664063 L 58.734375 675.492188 L 58.683594 675.320313 L 58.628906 675.144531 L 58.515625 674.804688 L 58.386719 674.464844 L 58.320313 674.296875 L 58.246094 674.132813 L 58.167969 673.96875 L 58.078125 673.800781 L 57.984375 673.636719 L 57.886719 673.476563 L 57.679688 673.160156 L 57.464844 672.84375 L 56.601563 671.582031 L 55.976563 670.660156 L 55.660156 670.207031 L 55.445313 669.910156 L 53.167969 663.222656 L 52.539063 657.382813 L 52.066406 652.460938 L 51.726563 648.210938 L 51.675781 648.039063 L 51.664063 648.007813 L 50.8125 642.082031 L 49.800781 636.316406 L 48.320313 629.632813 L 48.15625 624.171875 L 48.292969 622.644531 L 48.046875 619.769531 L 47.679688 615.484375 L 47.207031 610.179688 L 46.8125 604.566406 L 47.34375 599.109375 L 46.679688 594.332031 L 46.519531 593.792969 L 46.40625 593.441406 L 46.347656 593.265625 L 45.011719 589.578125 L 43.921875 584.964844 L 43.371094 580.816406 L 43.210938 576.277344 L 42.890625 570.359375 L 43.117188 562.097656 L 43.273438 561.566406 L 43.367188 561.214844 L 43.410156 561.035156 L 43.445313 560.859375 L 43.472656 560.683594 L 43.488281 560.503906 L 43.488281 560.324219 L 43.476563 560.144531 L 43.460938 559.960938 L 43.433594 559.78125 L 43.375 559.417969 L 43.226563 558.691406 L 43.144531 558.328125 L 43.054688 557.96875 L 43.007813 557.789063 L 42.898438 557.433594 L 42.550781 556.375 L 42.445313 556.023438 L 42.398438 555.847656 L 42.359375 555.667969 L 42.332031 555.492188 L 42.3125 555.3125 L 42.3125 555.128906 L 42.328125 554.945313 L 42.351563 554.757813 L 42.382813 554.570313 L 42.460938 554.199219 L 42.640625 553.449219 L 42.722656 553.082031 L 42.757813 552.898438 L 42.789063 552.71875 L 42.804688 552.542969 L 42.8125 552.371094 L 42.796875 552.207031 L 42.757813 552.054688 L 42.683594 551.914063 L 42.589844 551.785156 L 42.472656 551.664063 L 42.34375 551.546875 L 42.207031 551.433594 L 42.0625 551.324219 L 41.914063 551.214844 L 41.144531 550.675781 L 40.847656 550.449219 L 40.703125 550.328125 L 40.566406 550.203125 L 40.433594 550.066406 L 40.308594 549.921875 L 40.1875 549.777344 L 40.066406 549.625 L 39.835938 549.320313 L 39.613281 549.007813 L 39.394531 548.691406 L 39.289063 548.53125 L 39.1875 548.371094 L 39.089844 548.210938 L 39 548.046875 L 38.917969 547.878906 L 38.851563 547.707031 L 38.800781 547.535156 L 38.765625 547.355469 L 38.738281 547.175781 L 38.71875 546.992188 L 38.699219 546.804688 L 38.652344 546.058594 L 38.621094 545.6875 L 38.597656 545.5 L 38.570313 545.3125 L 38.539063 545.125 L 38.464844 544.75 L 38.339844 544.191406 L 38.207031 543.636719 L 38.070313 543.078125 L 37.972656 542.710938 L 37.863281 542.339844 L 37.6875 541.792969 L 37.5625 541.433594 L 37.492188 541.257813 L 35.800781 536.152344 L 35.015625 531.890625 L 34.929688 529.214844 L 34.882813 528.636719 L 34.84375 528.257813 L 34.816406 528.066406 L 34.78125 527.878906 L 34.742188 527.699219 L 34.695313 527.523438 L 34.644531 527.34375 L 34.535156 526.992188 L 34.421875 526.640625 L 34.238281 526.117188 L 34.117188 525.769531 L 33.988281 525.421875 L 33.847656 525.078125 L 33.695313 524.738281 L 33.527344 524.398438 L 33.273438 523.894531 L 33.011719 523.394531 L 31.675781 519.089844 L 31 515.34375 L 29.808594 511.710938 L 29.492188 508.175781 L 29.722656 503.734375 L 29.746094 503.558594 L 29.753906 503.375 L 29.753906 503.191406 L 29.75 503 L 29.726563 502.613281 L 29.664063 501.835938 L 29.609375 501.253906 L 29.585938 501.066406 L 29.558594 500.878906 L 29.523438 500.695313 L 29.480469 500.519531 L 29.417969 500.351563 L 29.339844 500.199219 L 29.242188 500.066406 L 29.125 499.941406 L 28.996094 499.828125 L 28.855469 499.722656 L 28.707031 499.621094 L 28.554688 499.519531 L 28.242188 499.324219 L 27.449219 498.84375 L 27.136719 498.640625 L 26.824219 498.425781 L 26.363281 498.09375 L 25.910156 497.753906 L 25.613281 497.523438 L 25.320313 497.289063 L 25.183594 497.171875 L 25.046875 497.050781 L 24.925781 496.925781 L 24.8125 496.796875 L 24.777344 496.75 L 24.714844 496.660156 L 24.644531 496.515625 L 24.597656 496.351563 L 24.574219 496.179688 L 24.566406 496.003906 L 24.574219 495.820313 L 24.632813 495.0625 L 24.636719 494.875 L 24.632813 494.6875 L 24.613281 494.503906 L 24.578125 494.332031 L 24.527344 494.160156 L 24.464844 493.992188 L 24.398438 493.828125 L 24.320313 493.660156 L 24.242188 493.496094 L 24.160156 493.332031 L 23.988281 493.003906 L 23.816406 492.679688 L 23.632813 492.359375 L 23.445313 492.046875 L 23.34375 491.894531 L 23.238281 491.75 L 23.125 491.609375 L 23.003906 491.480469 L 22.878906 491.359375 L 22.75 491.238281 L 22.617188 491.125 L 22.210938 490.78125 L 22.078125 490.664063 L 21.949219 490.546875 L 21.824219 490.425781 L 21.707031 490.296875 L 21.59375 490.15625 L 21.492188 490.011719 L 21.390625 489.859375 L 21.296875 489.707031 L 21.117188 489.390625 L 20.773438 488.75 L 20.265625 487.769531 L 19.21875 485.726563 L 18.964844 485.210938 L 18.800781 484.867188 L 18.652344 484.515625 L 18.585938 484.335938 L 18.464844 483.964844 L 18.300781 483.40625 L 17.988281 482.28125 L 17.886719 481.90625 L 17.792969 481.527344 L 17.707031 481.148438 L 17.671875 480.960938 L 17.644531 480.769531 L 17.625 480.582031 L 17.613281 480.394531 L 17.605469 480.207031 L 17.601563 479.828125 L 17.625 478.308594 L 17.621094 477.738281 L 17.609375 477.355469 L 17.589844 476.972656 L 17.476563 475.25 L 17.445313 474.675781 L 17.433594 474.292969 L 17.433594 474.101563 L 17.441406 473.914063 L 17.457031 473.722656 L 17.480469 473.539063 L 17.511719 473.355469 L 17.546875 473.167969 L 17.632813 472.800781 L 17.859375 471.890625 L 17.898438 471.707031 L 17.933594 471.527344 L 17.960938 471.347656 L 17.976563 471.171875 L 17.976563 471 L 17.957031 470.828125 L 17.914063 470.660156 L 17.84375 470.492188 L 17.761719 470.332031 L 17.667969 470.171875 L 17.566406 470.011719 L 17.457031 469.855469 L 17.230469 469.539063 L 16.53125 468.601563 L 16.304688 468.285156 L 16.082031 467.96875 L 15.980469 467.804688 L 15.882813 467.640625 L 15.792969 467.46875 L 15.714844 467.300781 L 15.648438 467.128906 L 15.582031 466.953125 L 15.523438 466.777344 L 15.414063 466.417969 L 15.316406 466.054688 L 15.269531 465.875 L 15.183594 465.507813 L 15.144531 465.328125 L 15.117188 465.144531 L 15.09375 464.960938 L 15.082031 464.777344 L 15.082031 464.40625 L 15.089844 464.222656 L 15.117188 463.851563 L 15.152344 463.480469 L 15.199219 463.109375 L 15.253906 462.730469 L 15.425781 461.773438 L 15.457031 461.585938 L 15.480469 461.398438 L 15.5 461.210938 L 15.503906 461.03125 L 15.492188 460.851563 L 15.460938 460.679688 L 15.402344 460.519531 L 15.324219 460.363281 L 15.226563 460.210938 L 15.121094 460.0625 L 15.007813 459.917969 L 14.765625 459.628906 L 14.128906 458.914063 L 13.753906 458.476563 L 13.386719 458.027344 L 12.3125 456.664063 L 12.066406 456.367188 L 11.941406 456.21875 L 11.683594 455.9375 L 11.414063 455.667969 L 11.003906 455.273438 L 10.585938 454.878906 L 10.308594 454.621094 L 10.023438 454.367188 L 9.734375 454.121094 L 9.585938 454.007813 L 9.433594 453.894531 L 9.273438 453.792969 L 7.589844 450.542969 L 4.953125 445.933594 L 3.09375 442.476563 L 2.46875 438.558594 L 2.460938 434.558594 L 2.0625 430.285156 L 2.066406 430.09375 L 2.0625 429.902344 L 2.046875 429.714844 L 2.023438 429.527344 L 1.996094 429.335938 L 1.925781 428.960938 L 1.84375 428.585938 L 1.464844 426.898438 L 1.375 426.523438 L 1.28125 426.152344 L 1.230469 425.96875 L 1.121094 425.597656 L 0.761719 424.503906 L 0.648438 424.136719 L 0.601563 423.949219 L 0.554688 423.765625 L 0.515625 423.582031 L 0.484375 423.394531 L 0.429688 423.019531 L 0.382813 422.640625 L 0.339844 422.265625 L 0.269531 421.507813 L 0.199219 420.613281 L 0.132813 419.542969 L 0.101563 418.800781 L 0.0117188 416.167969 L 0 415.601563 L 0 415.226563 L 0.00390625 415.042969 L 0.015625 414.855469 L 0.03125 414.667969 L 0.0585938 414.484375 L 0.09375 414.296875 L 0.132813 414.113281 L 0.222656 413.746094 L 0.320313 413.378906 L 0.832031 411.542969 L 1.03125 410.808594 L 1.125 410.441406 L 1.214844 410.074219 L 1.253906 409.886719 L 1.324219 409.507813 L 1.386719 409.128906 L 1.53125 408.179688 L 1.597656 407.800781 L 1.632813 407.613281 L 1.675781 407.425781 L 1.722656 407.242188 L 1.773438 407.070313 L 1.832031 406.902344 L 1.960938 406.570313 L 2.09375 406.238281 L 2.445313 405.414063 L 2.585938 405.074219 L 2.789063 404.546875 L 2.917969 404.191406 L 3.035156 403.835938 L 3.085938 403.660156 L 5.652344 397.109375 L 8.894531 390.644531 L 12.367188 385.027344 L 16.371094 380.292969 L 16.539063 380.246094 L 16.703125 380.179688 L 16.867188 380.097656 L 17.023438 380.007813 L 17.179688 379.90625 L 17.335938 379.800781 L 17.488281 379.691406 L 17.640625 379.578125 L 17.789063 379.457031 L 17.933594 379.335938 L 18.070313 379.210938 L 18.203125 379.074219 L 18.328125 378.933594 L 18.445313 378.785156 L 18.558594 378.632813 L 18.773438 378.316406 L 19.1875 377.675781 L 19.691406 376.863281 L 19.984375 376.371094 L 20.074219 376.203125 L 20.160156 376.035156 L 20.242188 375.863281 L 20.320313 375.683594 L 20.464844 375.328125 L 20.667969 374.785156 L 21.132813 373.507813 L 21.261719 373.144531 L 21.382813 372.777344 L 21.4375 372.59375 L 21.484375 372.410156 L 21.527344 372.222656 L 21.558594 372.035156 L 21.582031 371.847656 L 21.597656 371.65625 L 21.609375 371.46875 L 21.617188 371.277344 L 21.621094 371.085938 L 21.621094 370.894531 L 21.613281 370.707031 L 21.601563 370.515625 L 21.578125 370.328125 L 21.546875 370.140625 L 21.507813 369.957031 L 21.457031 369.773438 L 21.40625 369.585938 L 21.292969 369.21875 L 20.878906 367.9375 L 20.769531 367.570313 L 20.71875 367.386719 L 20.671875 367.199219 L 20.632813 367.015625 L 20.601563 366.828125 L 20.582031 366.652344 L 20.570313 366.472656 L 20.5625 366.292969 L 20.550781 365.578125 L 20.546875 365.398438 L 20.535156 365.222656 L 20.519531 365.046875 L 20.492188 364.875 L 20.453125 364.707031 L 20.394531 364.539063 L 20.320313 364.371094 L 20.238281 364.210938 L 20.050781 363.890625 L 19.949219 363.734375 L 19.84375 363.578125 L 19.628906 363.273438 L 19.519531 363.121094 L 19.402344 362.972656 L 19.328125 362.882813 L 19.285156 362.832031 L 19.164063 362.691406 L 19.03125 362.558594 L 18.898438 362.4375 L 18.753906 362.324219 L 18.609375 362.214844 L 18.304688 362.003906 L 17.84375 361.695313 L 17.539063 361.484375 L 17.390625 361.378906 L 17.097656 361.160156 L 16.664063 360.820313 L 14.914063 359.441406 L 14.472656 359.082031 L 14.328125 358.960938 L 14.1875 358.835938 L 14.054688 358.707031 L 13.929688 358.574219 L 13.820313 358.433594 L 13.726563 358.285156 L 13.652344 358.121094 L 13.597656 357.949219 L 13.554688 357.769531 L 13.519531 357.585938 L 13.492188 357.398438 L 13.46875 357.207031 L 13.429688 356.820313 L 13.3125 355.460938 L 13.238281 354.683594 L 13.167969 354.109375 L 13.007813 352.957031 L 12.960938 352.574219 L 12.941406 352.382813 L 12.925781 352.191406 L 12.917969 352 L 12.917969 351.8125 L 12.925781 351.625 L 12.945313 351.441406 L 12.96875 351.257813 L 12.996094 351.070313 L 13.03125 350.886719 L 13.097656 350.519531 L 13.175781 350.152344 L 13.261719 349.792969 L 13.3125 349.617188 L 13.367188 349.445313 L 13.429688 349.277344 L 13.503906 349.117188 L 13.59375 348.96875 L 13.699219 348.835938 L 13.824219 348.710938 L 13.960938 348.59375 L 14.105469 348.480469 L 14.253906 348.375 L 14.40625 348.269531 L 14.882813 347.96875 L 16.324219 347.074219 L 16.804688 346.78125 L 17.292969 346.5 L 17.949219 346.140625 L 19.273438 345.429688 L 19.597656 345.246094 L 19.757813 345.152344 L 19.910156 345.054688 L 20.058594 344.953125 L 20.199219 344.84375 L 20.332031 344.730469 L 20.445313 344.601563 L 20.542969 344.457031 L 20.625 344.296875 L 20.695313 344.132813 L 20.757813 343.960938 L 20.8125 343.78125 L 20.917969 343.417969 L 21.011719 343.050781 L 21.199219 342.308594 L 21.285156 341.9375 L 21.324219 341.753906 L 21.386719 341.386719 L 21.402344 341.207031 L 21.40625 341.027344 L 21.394531 340.851563 L 21.359375 340.675781 L 21.304688 340.503906 L 21.238281 340.332031 L 21.160156 340.164063 L 20.988281 339.828125 L 20.523438 338.988281 L 20.347656 338.648438 L 20.265625 338.480469 L 20.1875 338.3125 L 20.039063 337.96875 L 19.824219 337.453125 L 18.78125 334.863281 L 18.644531 334.519531 L 18.515625 334.171875 L 18.453125 334 L 18.398438 333.824219 L 18.347656 333.652344 L 18.308594 333.476563 L 18.277344 333.296875 L 18.265625 333.113281 L 18.261719 332.929688 L 18.269531 332.746094 L 18.285156 332.558594 L 18.324219 332.1875 L 18.371094 331.8125 L 18.480469 331.0625 L 18.566406 330.5 L 18.632813 330.128906 L 18.667969 329.945313 L 18.707031 329.757813 L 18.796875 329.394531 L 18.902344 329.03125 L 19.226563 327.945313 L 19.324219 327.582031 L 19.371094 327.398438 L 19.410156 327.214844 L 19.445313 327.023438 L 19.5 326.640625 L 19.632813 325.484375 L 19.65625 325.296875 L 19.683594 325.105469 L 19.71875 324.921875 L 19.765625 324.742188 L 19.820313 324.566406 L 19.890625 324.402344 L 19.980469 324.253906 L 20.082031 324.117188 L 20.195313 323.984375 L 20.316406 323.855469 L 20.445313 323.730469 L 20.578125 323.609375 L 20.714844 323.492188 L 20.996094 323.261719 L 21.136719 323.152344 L 21.285156 323.046875 L 21.4375 322.949219 L 21.589844 322.859375 L 21.757813 322.773438 L 21.933594 322.699219 L 22.109375 322.628906 L 22.289063 322.566406 L 22.652344 322.445313 L 23.933594 322.050781 L 24.292969 321.929688 L 24.46875 321.859375 L 24.640625 321.789063 L 24.808594 321.707031 L 24.972656 321.617188 L 25.125 321.511719 L 25.269531 321.394531 L 25.410156 321.269531 L 25.550781 321.136719 L 25.683594 321.003906 L 25.816406 320.867188 L 26.078125 320.585938 L 26.328125 320.296875 L 26.449219 320.152344 L 26.5625 320.007813 L 26.664063 319.859375 L 26.757813 319.710938 L 26.832031 319.554688 L 26.882813 319.394531 L 26.902344 319.234375 L 26.898438 319.066406 L 26.882813 318.894531 L 26.847656 318.722656 L 26.808594 318.546875 L 26.710938 318.191406 L 26.601563 317.835938 L 26.316406 316.945313 L 26.207031 316.585938 L 26.15625 316.410156 L 26.109375 316.230469 L 26.066406 316.050781 L 26.03125 315.871094 L 26.003906 315.691406 L 25.992188 315.511719 L 25.992188 315.335938 L 26.003906 315.160156 L 26.027344 314.984375 L 26.054688 314.804688 L 26.125 314.449219 L 26.367188 313.382813 L 26.4375 313.023438 L 26.46875 312.84375 L 26.496094 312.667969 L 26.515625 312.496094 L 26.535156 312.320313 L 26.5625 311.96875 L 26.570313 311.792969 L 26.574219 311.617188 L 26.574219 311.441406 L 26.566406 311.269531 L 26.554688 311.097656 L 26.523438 310.90625 L 26.484375 310.71875 L 26.441406 310.53125 L 26.390625 310.34375 L 26.277344 309.972656 L 26.15625 309.601563 L 26.023438 309.242188 L 25.949219 309.0625 L 25.871094 308.890625 L 25.78125 308.722656 L 25.683594 308.5625 L 25.582031 308.429688 L 25.464844 308.300781 L 25.347656 308.175781 L 25.21875 308.054688 L 24.957031 307.820313 L 24.277344 307.246094 L 23.855469 306.863281 L 23.582031 306.605469 L 23.308594 306.339844 L 23.042969 306.074219 L 22.914063 305.941406 L 22.792969 305.804688 L 22.675781 305.664063 L 22.570313 305.519531 L 22.480469 305.371094 L 22.40625 305.214844 L 22.359375 305.058594 L 22.328125 304.894531 L 22.3125 304.726563 L 22.300781 304.554688 L 22.300781 304.378906 L 22.304688 303.667969 L 22.300781 303.488281 L 22.289063 303.292969 L 22.257813 302.910156 L 22.148438 301.949219 L 22.128906 301.757813 L 22.113281 301.566406 L 22.105469 301.378906 L 22.109375 301.1875 L 22.121094 301 L 22.148438 300.820313 L 22.1875 300.640625 L 22.238281 300.460938 L 22.292969 300.285156 L 22.351563 300.105469 L 22.601563 299.398438 L 22.660156 299.21875 L 22.714844 299.042969 L 22.765625 298.867188 L 22.804688 298.6875 L 22.835938 298.511719 L 22.847656 298.332031 L 22.84375 298.160156 L 22.820313 297.988281 L 22.789063 297.816406 L 22.75 297.644531 L 22.707031 297.472656 L 22.503906 296.777344 L 22.457031 296.605469 L 22.414063 296.429688 L 22.378906 296.253906 L 22.347656 296.078125 L 22.332031 295.894531 L 22.324219 295.710938 L 22.320313 295.523438 L 22.324219 295.339844 L 22.332031 295.152344 L 22.355469 294.777344 L 22.386719 294.40625 L 22.40625 294.222656 L 22.460938 293.855469 L 22.492188 293.675781 L 22.535156 293.496094 L 22.589844 293.324219 L 22.65625 293.160156 L 22.734375 293 L 22.914063 292.6875 L 23.011719 292.53125 L 23.40625 291.917969 L 23.59375 291.605469 L 23.679688 291.441406 L 23.765625 291.269531 L 23.84375 291.097656 L 23.988281 290.738281 L 24.332031 289.835938 L 24.46875 289.476563 L 24.542969 289.300781 L 24.621094 289.128906 L 24.707031 288.957031 L 24.800781 288.792969 L 24.902344 288.632813 L 25.015625 288.480469 L 25.132813 288.332031 L 25.253906 288.1875 L 25.378906 288.042969 L 25.632813 287.757813 L 26.414063 286.910156 L 26.667969 286.625 L 26.785156 286.480469 L 26.902344 286.332031 L 27.007813 286.179688 L 27.101563 286.023438 L 27.179688 285.863281 L 27.242188 285.691406 L 27.285156 285.511719 L 27.320313 285.328125 L 27.34375 285.140625 L 27.363281 284.949219 L 27.390625 284.566406 L 27.453125 283.207031 L 27.472656 282.816406 L 27.5 282.429688 L 27.53125 282.0625 L 27.613281 281.332031 L 27.65625 280.964844 L 27.707031 280.601563 L 27.765625 280.246094 L 27.800781 280.070313 L 27.84375 279.894531 L 27.898438 279.726563 L 27.960938 279.5625 L 28.042969 279.398438 L 28.136719 279.242188 L 28.242188 279.089844 L 28.351563 278.941406 L 28.8125 278.347656 L 28.925781 278.199219 L 29.035156 278.042969 L 29.132813 277.886719 L 29.226563 277.722656 L 29.3125 277.550781 L 29.390625 277.378906 L 29.464844 277.199219 L 29.609375 276.84375 L 29.742188 276.484375 L 29.875 276.121094 L 29.996094 275.757813 L 30.050781 275.574219 L 30.101563 275.390625 L 30.144531 275.207031 L 30.175781 275.019531 L 30.199219 274.835938 L 30.207031 274.652344 L 30.210938 274.46875 L 30.203125 274.09375 L 30.1875 273.71875 L 30.164063 273.34375 L 30.113281 272.59375 L 30.066406 272.027344 L 30.03125 271.65625 L 30.007813 271.46875 L 29.976563 271.28125 L 29.945313 271.097656 L 29.863281 270.734375 L 29.589844 269.644531 L 29.546875 269.460938 L 29.511719 269.285156 L 29.484375 269.105469 L 29.46875 268.929688 L 29.464844 268.757813 L 29.484375 268.585938 L 29.527344 268.425781 L 29.585938 268.265625 L 29.664063 268.109375 L 29.75 267.957031 L 29.847656 267.804688 L 29.949219 267.65625 L 30.054688 267.507813 L 30.164063 267.359375 L 30.277344 267.21875 L 30.394531 267.078125 L 30.519531 266.945313 L 30.648438 266.820313 L 30.78125 266.703125 L 30.933594 266.59375 L 31.089844 266.496094 L 31.417969 266.316406 L 31.589844 266.234375 L 32.105469 265.996094 L 32.445313 265.828125 L 32.613281 265.742188 L 32.777344 265.648438 L 32.9375 265.550781 L 33.097656 265.441406 L 33.253906 265.332031 L 33.5625 265.105469 L 33.863281 264.867188 L 33.992188 264.761719 L 34.15625 264.625 L 34.296875 264.5 L 34.4375 264.367188 L 34.566406 264.234375 L 34.6875 264.089844 L 34.800781 263.9375 L 34.902344 263.78125 L 35 263.617188 L 35.09375 263.449219 L 35.179688 263.277344 L 35.355469 262.929688 L 35.773438 262.074219 L 36.191406 261.246094 L 36.785156 260.085938 L 36.960938 259.742188 L 37.84375 258.039063 L 38.007813 257.699219 L 38.082031 257.535156 L 38.152344 257.367188 L 38.207031 257.207031 L 38.246094 257.046875 L 38.261719 256.894531 L 38.25 256.746094 L 38.199219 256.613281 L 38.117188 256.484375 L 38.011719 256.363281 L 37.894531 256.246094 L 37.761719 256.128906 L 37.625 256.015625 L 37.332031 255.792969 L 37.027344 255.574219 L 36.722656 255.359375 L 36.414063 255.15625 L 36.257813 255.058594 L 36.097656 254.972656 L 35.9375 254.890625 L 35.777344 254.824219 L 35.609375 254.777344 L 35.441406 254.75 L 35.269531 254.742188 L 35.09375 254.742188 L 34.914063 254.753906 L 34.828125 254.761719 L 34.386719 254.792969 L 34.210938 254.800781 L 34.039063 254.796875 L 33.875 254.78125 L 33.71875 254.742188 L 33.558594 254.675781 L 33.410156 254.585938 L 33.265625 254.480469 L 33.125 254.363281 L 32.988281 254.238281 L 32.855469 254.105469 L 32.59375 253.828125 L 32.464844 253.683594 L 32.339844 253.539063 L 32.21875 253.390625 L 32.105469 253.238281 L 31.996094 253.082031 L 31.898438 252.921875 L 31.816406 252.75 L 31.742188 252.574219 L 31.679688 252.394531 L 31.617188 252.210938 L 31.5625 252.023438 L 31.457031 251.652344 L 31.160156 250.519531 L 31.019531 249.953125 L 30.941406 249.578125 L 30.914063 249.390625 L 30.890625 249.203125 L 30.882813 249.011719 L 30.886719 248.839844 L 30.898438 248.714844 L 30.90625 248.664063 L 30.929688 248.488281 L 30.960938 248.3125 L 30.996094 248.136719 L 31.1875 247.261719 L 31.253906 246.90625 L 31.28125 246.726563 L 31.304688 246.542969 L 31.339844 246.179688 L 31.425781 245.085938 L 31.460938 244.722656 L 31.484375 244.542969 L 31.507813 244.359375 L 31.539063 244.183594 L 31.578125 244 L 31.621094 243.820313 L 31.667969 243.640625 L 31.773438 243.285156 L 31.945313 242.753906 L 32.125 242.222656 L 32.25 241.871094 L 32.453125 241.351563 L 32.59375 241.011719 L 32.746094 240.675781 L 32.828125 240.511719 L 32.914063 240.347656 L 33.007813 240.191406 L 33.109375 240.046875 L 33.21875 239.902344 L 33.332031 239.761719 L 33.449219 239.625 L 33.691406 239.355469 L 34.1875 238.820313 L 34.425781 238.546875 L 34.539063 238.40625 L 34.648438 238.261719 L 34.757813 238.109375 L 34.828125 238.003906 L 34.863281 237.953125 L 35.058594 237.628906 L 35.722656 236.476563 L 35.816406 236.3125 L 36.011719 236 L 36.308594 235.53125 L 36.710938 234.917969 L 37.019531 234.457031 L 37.234375 234.160156 L 37.34375 234.011719 L 37.460938 233.863281 L 37.578125 233.71875 L 37.820313 233.433594 L 38.191406 233.011719 L 39.070313 232.03125 L 39.4375 231.605469 L 39.554688 231.464844 L 39.671875 231.320313 L 39.78125 231.171875 L 39.886719 231.019531 L 39.980469 230.863281 L 40.066406 230.695313 L 40.140625 230.523438 L 40.210938 230.347656 L 40.273438 230.171875 L 40.332031 229.992188 L 40.5 229.445313 L 40.824219 228.34375 L 40.972656 227.792969 L 41.0625 227.421875 L 41.101563 227.238281 L 41.132813 227.046875 L 41.160156 226.859375 L 41.203125 226.480469 L 41.253906 225.90625 L 41.300781 225.332031 L 41.339844 224.761719 L 41.355469 224.378906 L 41.355469 224.1875 L 41.351563 223.996094 L 41.34375 223.8125 L 41.328125 223.625 L 41.308594 223.4375 L 41.261719 223.066406 L 41.097656 221.953125 L 41.011719 221.394531 L 40.945313 221.023438 L 40.910156 220.839844 L 40.871094 220.660156 L 40.824219 220.480469 L 40.117188 217.292969 L 40.121094 217.191406 L 40.191406 214.757813 L 40.859375 212 L 41.09375 211.703125 L 41.335938 211.414063 L 41.457031 211.277344 L 41.707031 211.003906 L 42.472656 210.203125 L 42.851563 209.800781 L 43.09375 209.523438 L 43.207031 209.378906 L 43.65625 208.804688 L 43.882813 208.523438 L 44 208.390625 L 44.125 208.261719 L 44.222656 208.171875 L 44.253906 208.140625 L 44.398438 208.027344 L 44.550781 207.921875 L 44.710938 207.824219 L 44.871094 207.730469 L 45.203125 207.550781 L 45.539063 207.378906 L 45.878906 207.210938 L 46.734375 206.796875 L 49.15625 205.652344 L 49.675781 205.414063 L 50.699219 204.964844 L 51.035156 204.8125 L 51.371094 204.648438 L 51.703125 204.472656 L 52.359375 204.097656 L 53.496094 203.421875 L 53.976563 203.125 L 54.132813 203.023438 L 54.289063 202.917969 L 54.441406 202.808594 L 54.585938 202.691406 L 54.722656 202.574219 L 54.855469 202.449219 L 54.984375 202.316406 L 55.230469 202.050781 L 55.472656 201.777344 L 55.589844 201.636719 L 55.816406 201.355469 L 55.925781 201.210938 L 56.027344 201.066406 L 56.121094 200.917969 L 56.203125 200.765625 L 56.273438 200.609375 L 56.328125 200.433594 L 56.363281 200.25 L 56.390625 200.066406 L 56.40625 199.878906 L 56.417969 199.6875 L 56.429688 199.300781 L 56.433594 197.9375 L 56.4375 197.546875 L 56.445313 197.351563 L 56.449219 197.3125 L 56.457031 197.160156 L 56.472656 196.96875 L 56.496094 196.777344 L 56.53125 196.589844 L 56.578125 196.414063 L 56.632813 196.242188 L 56.695313 196.074219 L 56.765625 195.90625 L 56.839844 195.742188 L 56.917969 195.582031 L 57.003906 195.429688 L 57.015625 195.410156 L 57.09375 195.277344 L 57.195313 195.140625 L 57.304688 195.011719 L 57.425781 194.898438 L 57.453125 194.878906 L 57.566406 194.804688 L 57.71875 194.726563 L 57.878906 194.660156 L 58.050781 194.605469 L 58.226563 194.554688 L 58.402344 194.507813 L 58.765625 194.421875 L 59.128906 194.34375 L 59.496094 194.273438 L 59.863281 194.207031 L 60.050781 194.179688 L 60.234375 194.152344 L 60.421875 194.132813 L 60.609375 194.117188 L 60.984375 194.097656 L 62.113281 194.046875 L 62.480469 194.023438 L 62.835938 193.996094 L 63.191406 193.960938 L 63.726563 193.898438 L 64.078125 193.84375 L 64.253906 193.8125 L 64.429688 193.773438 L 64.613281 193.726563 L 64.796875 193.671875 L 64.976563 193.617188 L 65.515625 193.441406 L 65.691406 193.386719 L 65.867188 193.335938 L 66.042969 193.292969 L 66.214844 193.265625 L 66.269531 193.261719 L 66.386719 193.253906 L 66.550781 193.269531 L 66.707031 193.3125 L 66.863281 193.375 L 66.992188 193.449219 L 67.011719 193.460938 L 67.027344 193.46875 L 67.164063 193.554688 L 67.308594 193.660156 L 67.457031 193.769531 L 67.746094 194.003906 L 68.320313 194.492188 L 68.746094 194.863281 L 69.023438 195.121094 L 69.152344 195.25 L 69.40625 195.511719 L 69.898438 196.050781 L 70.140625 196.320313 L 70.378906 196.59375 L 70.613281 196.875 L 70.726563 197.015625 L 70.949219 197.3125 L 71.058594 197.464844 L 71.269531 197.769531 L 71.574219 198.234375 L 71.769531 198.550781 L 71.867188 198.722656 L 72.246094 199.402344 L 72.441406 199.734375 L 72.539063 199.894531 L 72.644531 200.046875 L 72.757813 200.183594 L 72.878906 200.308594 L 73.015625 200.410156 L 73.164063 200.480469 L 73.324219 200.53125 L 73.492188 200.566406 L 73.667969 200.589844 L 73.847656 200.605469 L 74.035156 200.617188 L 74.21875 200.625 L 74.597656 200.632813 L 75.359375 200.636719 L 75.738281 200.636719 L 76.113281 200.625 L 76.296875 200.613281 L 76.480469 200.59375 L 76.664063 200.566406 L 76.839844 200.523438 L 77.007813 200.46875 L 77.175781 200.402344 L 77.335938 200.324219 L 77.5 200.242188 L 77.660156 200.152344 L 78.292969 199.789063 L 78.457031 199.703125 L 78.617188 199.617188 L 78.78125 199.539063 L 78.949219 199.46875 L 79.125 199.40625 L 79.304688 199.347656 L 79.484375 199.300781 L 79.851563 199.214844 L 80.222656 199.136719 L 81.152344 198.957031 L 81.519531 198.878906 L 81.699219 198.832031 L 81.875 198.78125 L 82.046875 198.722656 L 82.214844 198.65625 L 82.371094 198.574219 L 82.519531 198.472656 L 82.660156 198.355469 L 82.792969 198.230469 L 82.921875 198.09375 L 83.046875 197.953125 L 83.167969 197.8125 L 83.410156 197.515625 L 84.125 196.621094 L 84.367188 196.328125 L 84.492188 196.1875 L 84.621094 196.046875 L 84.753906 195.910156 L 84.890625 195.78125 L 85.035156 195.65625 L 85.1875 195.535156 L 85.5 195.308594 L 85.660156 195.199219 L 85.988281 194.984375 L 87.136719 194.242188 L 87.457031 194.027344 L 87.609375 193.914063 L 87.757813 193.796875 L 87.898438 193.675781 L 91.082031 191.304688 L 95.875 189.453125 L 100.617188 187.988281 L 100.792969 187.945313 L 100.972656 187.902344 L 101.328125 187.800781 L 101.503906 187.746094 L 101.679688 187.6875 L 101.851563 187.625 L 102.019531 187.550781 L 102.183594 187.472656 L 102.339844 187.382813 L 102.488281 187.285156 L 102.636719 187.179688 L 102.925781 186.960938 L 103.207031 186.730469 L 103.484375 186.492188 L 105.242188 184.984375 L 105.6875 184.605469 L 105.988281 184.359375 L 106.289063 184.117188 L 106.445313 184 L 106.605469 183.890625 L 106.757813 183.789063 L 106.910156 183.695313 L 107.066406 183.601563 L 107.386719 183.421875 L 108.347656 182.898438 L 108.667969 182.71875 L 108.824219 182.625 L 109.136719 182.429688 L 109.441406 182.21875 L 109.902344 181.90625 L 110.210938 181.703125 L 110.367188 181.609375 L 110.527344 181.519531 L 110.691406 181.441406 L 110.863281 181.371094 L 111.042969 181.3125 L 111.222656 181.257813 L 111.589844 181.167969 L 112.515625 180.960938 L 112.699219 180.914063 L 112.878906 180.867188 L 113.054688 180.8125 L 113.226563 180.75 L 113.386719 180.671875 L 113.535156 180.582031 L 113.675781 180.46875 L 113.804688 180.339844 L 113.921875 180.199219 L 114.035156 180.050781 L 114.144531 179.894531 L 114.179688 179.84375 L 114.574219 179.253906 L 114.683594 179.09375 L 114.796875 178.9375 L 114.914063 178.785156 L 115.03125 178.648438 L 115.15625 178.511719 L 115.410156 178.246094 L 116.203125 177.480469 L 116.457031 177.222656 L 116.578125 177.089844 L 116.695313 176.953125 L 116.804688 176.8125 L 116.902344 176.664063 L 116.988281 176.503906 L 117.066406 176.339844 L 117.132813 176.167969 L 117.195313 175.996094 L 117.429688 175.289063 L 117.492188 175.113281 L 117.554688 174.941406 L 117.628906 174.773438 L 117.710938 174.609375 L 117.804688 174.453125 L 117.910156 174.300781 L 118.019531 174.152344 L 118.136719 174.007813 L 118.378906 173.722656 L 118.628906 173.441406 L 118.882813 173.164063 L 119.140625 172.894531 L 119.40625 172.628906 L 119.542969 172.503906 L 119.683594 172.382813 L 119.828125 172.269531 L 119.976563 172.167969 L 120.132813 172.074219 L 120.289063 171.988281 L 120.449219 171.90625 L 120.613281 171.828125 L 120.945313 171.679688 L 121.109375 171.609375 L 121.28125 171.542969 L 121.449219 171.480469 L 121.621094 171.429688 L 121.796875 171.382813 L 121.984375 171.34375 L 122.175781 171.316406 L 122.367188 171.296875 L 122.558594 171.28125 L 122.753906 171.269531 L 123.144531 171.25 L 123.921875 171.222656 L 124.3125 171.214844 L 124.507813 171.214844 L 124.699219 171.21875 L 124.890625 171.226563 L 125.082031 171.242188 L 125.273438 171.269531 L 125.449219 171.308594 L 125.625 171.355469 L 125.800781 171.410156 L 125.976563 171.46875 L 126.324219 171.597656 L 127.359375 172.007813 L 127.707031 172.140625 L 128.050781 172.265625 L 128.394531 172.382813 L 128.917969 172.550781 L 129.265625 172.652344 L 129.445313 172.699219 L 129.628906 172.742188 L 130 172.816406 L 131.117188 173.015625 L 131.300781 173.050781 L 131.660156 173.136719 L 131.835938 173.191406 L 132.003906 173.253906 L 132.136719 173.316406 L 132.164063 173.332031 L 132.316406 173.425781 L 132.460938 173.535156 L 132.597656 173.65625 L 132.730469 173.785156 L 132.863281 173.917969 L 132.992188 174.054688 L 133.246094 174.335938 L 133.875 175.050781 L 134.261719 175.484375 L 134.917969 176.203125 L 135.316406 176.632813 L 135.585938 176.910156 L 135.722656 177.046875 L 135.863281 177.175781 L 136.007813 177.296875 L 136.160156 177.410156 L 136.316406 177.507813 L 136.476563 177.585938 L 136.644531 177.652344 L 136.816406 177.707031 L 136.996094 177.757813 L 137.359375 177.839844 L 138.464844 178.0625 L 138.832031 178.144531 L 139.015625 178.1875 L 139.199219 178.238281 L 139.566406 178.355469 L 139.746094 178.421875 L 140.101563 178.5625 L 140.277344 178.636719 L 140.453125 178.714844 L 140.621094 178.796875 L 140.785156 178.886719 L 140.9375 178.980469 L 141.082031 179.085938 L 141.207031 179.207031 L 141.3125 179.339844 L 141.402344 179.484375 L 141.484375 179.640625 L 141.554688 179.800781 L 141.621094 179.96875 L 141.871094 180.660156 L 142.003906 181.003906 L 142.078125 181.171875 L 142.160156 181.335938 L 142.253906 181.5 L 142.355469 181.660156 L 142.464844 181.820313 L 142.691406 182.128906 L 142.8125 182.277344 L 143.054688 182.578125 L 143.304688 182.867188 L 143.433594 183.007813 L 143.566406 183.144531 L 143.703125 183.269531 L 143.851563 183.386719 L 144.003906 183.496094 L 144.167969 183.59375 L 144.335938 183.683594 L 144.511719 183.765625 L 144.863281 183.925781 L 145.398438 184.15625 L 145.9375 184.378906 L 146.296875 184.519531 L 146.476563 184.585938 L 146.65625 184.644531 L 146.839844 184.699219 L 147.023438 184.742188 L 147.207031 184.765625 L 147.386719 184.777344 L 147.566406 184.769531 L 147.746094 184.753906 L 147.929688 184.730469 L 148.292969 184.671875 L 148.660156 184.597656 L 149.949219 184.339844 L 150.902344 184.167969 L 151.28125 184.09375 L 151.46875 184.054688 L 151.652344 184.007813 L 151.832031 183.957031 L 152 183.894531 L 152.160156 183.820313 L 152.304688 183.726563 L 152.425781 183.613281 L 152.53125 183.480469 L 152.628906 183.335938 L 152.71875 183.183594 L 152.804688 183.023438 L 152.964844 182.6875 L 153.113281 182.34375 L 153.488281 181.476563 L 153.640625 181.136719 L 153.71875 180.96875 L 153.804688 180.804688 L 153.890625 180.644531 L 153.988281 180.492188 L 154.089844 180.351563 L 154.207031 180.222656 L 154.339844 180.105469 L 154.488281 180.003906 L 154.640625 179.914063 L 154.804688 179.828125 L 154.972656 179.746094 L 155.3125 179.59375 L 155.835938 179.378906 L 156.191406 179.242188 L 156.542969 179.105469 L 156.898438 178.976563 L 157.25 178.863281 L 157.597656 178.757813 L 157.953125 178.660156 L 158.304688 178.570313 L 158.664063 178.492188 L 158.84375 178.460938 L 159.027344 178.433594 L 159.210938 178.410156 L 159.585938 178.375 L 160.898438 178.292969 L 161.082031 178.277344 L 161.261719 178.257813 L 161.4375 178.234375 L 161.609375 178.199219 Z M 161.773438 178.15625 " transform="matrix(1,0,0,-1,0,839)"/>
</g>
</svg>
