<?xml version="1.0" encoding="UTF-8"?>
<svg xmlns="http://www.w3.org/2000/svg" xmlns:xlink="http://www.w3.org/1999/xlink" width="512pt" height="1024pt" viewBox="0 0 512 1024" version="1.1">
<g id="surface1">
<path style="fill-rule:evenodd;fill:rgb(49.803162%,49.803162%,49.803162%);fill-opacity:0.5;stroke-width:1;stroke-linecap:butt;stroke-linejoin:miter;stroke:rgb(0%,0%,0%);stroke-opacity:1;stroke-miterlimit:10;" d="M 47.253906 22.386719 L 44.394531 16.203125 L 111.792969 21.066406 L 175.105469 0 L 487.691406 587.9375 L 512 632.585938 L 64.765625 974.488281 L 64.96875 974.210938 L 65.792969 973.035156 L 71.054688 965.292969 L 73.441406 961.761719 L 75.019531 959.398438 L 76.175781 957.613281 L 76.910156 956.402344 L 77.277344 955.761719 L 77.976563 954.464844 L 78.984375 952.496094 L 81.308594 947.878906 L 81.988281 946.566406 L 82.691406 945.273438 L 83.054688 944.632813 L 83.4375 944.003906 L 83.832031 943.390625 L 84.664063 942.183594 L 86.351563 939.800781 L 86.753906 939.199219 L 87.140625 938.585938 L 87.503906 937.964844 L 87.828125 937.324219 L 88.101563 936.679688 L 88.34375 936.019531 L 88.558594 935.34375 L 88.753906 934.660156 L 89.109375 933.28125 L 89.582031 931.1875 L 89.867188 929.785156 L 90.117188 928.375 L 90.214844 927.667969 L 90.296875 926.960938 L 90.347656 926.230469 L 90.375 925.496094 L 90.382813 924.019531 L 90.355469 922.542969 L 90.3125 921.0625 L 90.085938 915.148438 L 89.832031 910.09375 L 89.75 907.953125 L 89.742188 907.246094 L 89.753906 906.539063 L 89.785156 905.839844 L 89.851563 905.144531 L 89.960938 904.460938 L 90.132813 903.753906 L 90.355469 903.058594 L 90.605469 902.371094 L 90.882813 901.6875 L 91.171875 901.007813 L 92.074219 898.96875 L 92.363281 898.289063 L 92.636719 897.605469 L 92.882813 896.917969 L 93.09375 896.222656 L 93.253906 895.519531 L 93.351563 894.816406 L 93.398438 894.105469 L 93.410156 893.386719 L 93.398438 892.664063 L 93.320313 891.210938 L 93.105469 888.285156 L 93.019531 886.820313 L 92.996094 886.089844 L 92.992188 885.359375 L 93.015625 884.617188 L 93.109375 883.136719 L 93.25 881.660156 L 93.5 879.441406 L 94.03125 875.007813 L 94.28125 872.789063 L 94.433594 871.308594 L 94.558594 869.851563 L 94.8125 866.199219 L 94.894531 864.738281 L 94.957031 863.28125 L 94.972656 862.558594 L 94.96875 861.835938 L 94.945313 861.117188 L 94.886719 860.40625 L 94.78125 859.703125 L 94.621094 859 L 94.410156 858.300781 L 94.167969 857.613281 L 93.902344 856.925781 L 93.324219 855.5625 L 92.714844 854.207031 L 91.152344 850.820313 L 90.550781 849.457031 L 90.285156 848.84375 L 90.257813 848.773438 L 89.980469 848.085938 L 89.714844 847.394531 L 89.476563 846.691406 L 89.277344 846.027344 L 89.097656 845.355469 L 88.785156 843.996094 L 88.640625 843.308594 L 88.382813 841.9375 L 88.148438 840.558594 L 88.046875 839.867188 L 87.957031 839.175781 L 87.882813 838.480469 L 87.824219 837.765625 L 87.78125 837.046875 L 87.730469 835.605469 L 87.707031 834.167969 L 87.679688 831.28125 L 87.652344 825.515625 L 87.667969 824.074219 L 87.703125 822.601563 L 87.808594 820.351563 L 87.980469 817.351563 L 88.300781 812.132813 L 88.945313 802.078125 L 89.070313 799.921875 L 89.140625 798.484375 L 89.1875 797.046875 L 89.210938 795.609375 L 89.230469 790.988281 L 89.242188 787.699219 L 89.257813 786.257813 L 89.289063 784.820313 L 89.3125 784.101563 L 89.390625 782.636719 L 89.457031 781.679688 L 89.8125 776.78125 L 89.941406 774.582031 L 90.011719 772.363281 L 90.113281 765.691406 L 90.160156 764.210938 L 90.195313 763.472656 L 90.242188 762.734375 L 90.304688 762 L 90.46875 760.621094 L 90.675781 759.246094 L 91.109375 756.503906 L 91.292969 755.132813 L 91.359375 754.449219 L 91.402344 753.765625 L 91.410156 753.082031 L 91.375 752.378906 L 91.308594 751.679688 L 91.21875 750.980469 L 90.984375 749.582031 L 90.445313 746.78125 L 90.199219 745.378906 L 90.089844 744.675781 L 90.003906 743.96875 L 89.9375 743.261719 L 89.855469 741.847656 L 89.816406 740.425781 L 89.800781 739 L 89.78125 734.015625 L 89.761719 732.59375 L 89.722656 731.167969 L 89.65625 729.691406 L 89.570313 728.214844 L 89.125 721.574219 L 89.050781 720.101563 L 89.027344 719.363281 L 89.015625 718.625 L 89.023438 717.894531 L 89.039063 717.167969 L 89.097656 715.714844 L 89.222656 713.53125 L 89.628906 706.980469 L 89.707031 705.523438 L 89.765625 704.074219 L 89.851563 701.183594 L 89.945313 696.84375 L 89.996094 693.953125 L 90.003906 692.507813 L 89.988281 691.0625 L 89.964844 690.339844 L 89.871094 688.839844 L 89.675781 686.589844 L 89.304688 682.84375 L 89.175781 681.34375 L 89.128906 680.597656 L 89.09375 679.847656 L 89.082031 679.101563 L 89.101563 678.359375 L 89.152344 677.625 L 89.234375 676.890625 L 89.335938 676.160156 L 89.585938 674.699219 L 90.007813 672.507813 L 91.035156 667.402344 L 91.304688 665.941406 L 91.421875 665.207031 L 91.53125 664.476563 L 91.617188 663.742188 L 91.675781 663.007813 L 91.699219 662.277344 L 91.699219 661.542969 L 91.679688 660.804688 L 91.597656 659.332031 L 91.492188 657.855469 L 90.265625 643.175781 L 90.199219 642.359375 L 90.070313 640.738281 L 89.019531 627.589844 L 88.820313 625.382813 L 88.238281 593.527344 L 90.898438 570.992188 L 91.015625 570.296875 L 91.199219 568.886719 L 91.402344 566.753906 L 91.511719 565.324219 L 91.605469 563.894531 L 91.664063 562.464844 L 91.675781 561.753906 L 91.675781 560.328125 L 91.652344 558.90625 L 91.519531 553.925781 L 91.433594 551.792969 L 91.355469 550.332031 L 91.195313 548.085938 L 90.597656 540.609375 L 90.460938 538.363281 L 90.417969 536.867188 L 90.433594 535.449219 L 90.496094 534.027344 L 90.835938 528.339844 L 90.9375 526.214844 L 91.023438 523.398438 L 91.085938 519.875 L 91.09375 517.761719 L 91.074219 516.347656 L 91.027344 514.925781 L 90.820313 509.957031 L 90.78125 508.539063 L 90.773438 507.089844 L 90.800781 505.617188 L 90.84375 504.140625 L 91.085938 497.507813 L 91.199219 493.769531 L 91.34375 487.765625 L 91.367188 486.265625 L 91.371094 485.816406 L 95.480469 455.929688 L 95.59375 455.351563 L 95.964844 453.273438 L 96.171875 451.882813 L 96.253906 451.1875 L 96.3125 450.488281 L 96.34375 449.761719 L 96.34375 449.636719 L 97.84375 438.738281 L 91.714844 411.5 L 91.074219 407.699219 L 90.488281 404.066406 L 89.371094 396.898438 L 89.054688 394.746094 L 88.859375 393.308594 L 88.691406 391.871094 L 88.574219 390.457031 L 88.480469 389.042969 L 88.242188 384.796875 L 88.136719 383.386719 L 88.066406 382.6875 L 87.984375 381.984375 L 87.878906 381.289063 L 87.742188 380.558594 L 87.582031 379.832031 L 87.21875 378.386719 L 86.429688 375.507813 L 86.046875 374.066406 L 85.875 373.34375 L 85.714844 372.617188 L 85.578125 371.886719 L 85.476563 371.191406 L 85.394531 370.488281 L 85.328125 369.785156 L 85.222656 368.371094 L 84.980469 364.121094 L 84.867188 362.707031 L 84.710938 361.230469 L 84.527344 359.761719 L 84.226563 357.558594 L 83.492188 352.421875 L 83.058594 349.492188 L 82.589844 346.578125 L 81.472656 340.066406 L 81.144531 337.890625 L 81.054688 337.164063 L 80.910156 335.675781 L 80.582031 331.203125 L 80.449219 329.71875 L 80.363281 328.980469 L 80.257813 328.242188 L 80.136719 327.5625 L 80 326.882813 L 79.691406 325.527344 L 78.871094 322.148438 L 78.578125 320.789063 L 78.320313 319.335938 L 78 317.140625 L 77.535156 313.46875 L 77.363281 311.996094 L 77.210938 310.527344 L 77.148438 309.789063 L 77.046875 308.339844 L 76.796875 303.269531 L 76.707031 301.820313 L 76.582031 300.378906 L 76.496094 299.632813 L 76.292969 298.144531 L 76.226563 297.734375 L 76.058594 296.660156 L 75.691406 294.433594 L 74.929688 289.984375 L 74.535156 287.761719 L 74.257813 286.28125 L 73.980469 284.921875 L 73.390625 282.210938 L 72.914063 280.183594 L 72.574219 278.835938 L 72.386719 278.152344 L 71.792969 276.109375 L 69.921875 269.992188 L 69.53125 268.628906 L 69.347656 267.941406 L 69.175781 267.253906 L 68.871094 265.867188 L 68.617188 264.472656 L 68.410156 263.070313 L 68.328125 262.371094 L 68.265625 261.667969 L 68.230469 260.964844 L 68.222656 260.21875 L 68.246094 259.46875 L 68.289063 258.722656 L 68.414063 257.222656 L 68.878906 252.726563 L 69.019531 251.226563 L 69.078125 250.476563 L 69.164063 249.03125 L 69.226563 247.582031 L 69.296875 245.410156 L 69.378906 241.785156 L 69.386719 240.339844 L 69.382813 239.613281 L 69.363281 238.890625 L 69.328125 238.171875 L 69.277344 237.460938 L 69.128906 236.042969 L 68.949219 234.628906 L 68.75 233.214844 L 67.25 222.976563 L 66.164063 215.964844 L 65.863281 213.863281 L 65.703125 212.433594 L 65.574219 210.980469 L 65.425781 208.800781 L 64.902344 200.570313 L 68.785156 198.878906 L 76.664063 197.820313 L 77.230469 197.410156 L 77.742188 196.945313 L 78.179688 196.425781 L 78.5625 195.855469 L 78.90625 195.246094 L 79.21875 194.609375 L 79.511719 193.953125 L 79.789063 193.28125 L 80.054688 192.605469 L 80.558594 191.226563 L 81.023438 189.835938 L 81.234375 189.132813 L 81.425781 188.425781 L 81.589844 187.714844 L 81.71875 186.996094 L 81.824219 186.269531 L 81.910156 185.539063 L 81.980469 184.804688 L 82.097656 183.335938 L 82.332031 179.648438 L 82.496094 176.703125 L 82.554688 175.230469 L 82.574219 173.761719 L 82.5625 173.027344 L 82.523438 172.296875 L 82.457031 171.570313 L 82.363281 170.847656 L 82.136719 169.40625 L 81.757813 167.253906 L 81.644531 166.539063 L 81.546875 165.828125 L 81.46875 165.121094 L 81.429688 164.417969 L 81.4375 163.726563 L 81.507813 163.042969 L 81.652344 162.398438 L 81.859375 161.765625 L 82.109375 161.140625 L 82.390625 160.519531 L 82.699219 159.902344 L 84.351563 156.824219 L 84.671875 156.203125 L 84.972656 155.578125 L 85.253906 154.941406 L 85.503906 154.296875 L 85.722656 153.609375 L 85.910156 152.914063 L 86.074219 152.207031 L 86.21875 151.496094 L 86.472656 150.058594 L 86.699219 148.617188 L 87.023438 146.445313 L 87.328125 144.269531 L 87.5 142.824219 L 87.566406 142.101563 L 87.617188 141.378906 L 87.636719 140.660156 L 87.625 139.941406 L 87.570313 139.242188 L 87.476563 138.542969 L 87.359375 137.84375 L 87.226563 137.148438 L 86.921875 135.753906 L 85.746094 130.882813 L 85.273438 128.785156 L 85.132813 128.085938 L 84.867188 126.613281 L 84.828125 126.386719 L 84.144531 122.183594 L 84.007813 121.457031 L 83.855469 120.734375 L 83.679688 120.019531 L 83.472656 119.320313 L 83.222656 118.636719 L 82.945313 118.035156 L 82.628906 117.449219 L 82.285156 116.875 L 81.917969 116.308594 L 81.53125 115.753906 L 81.136719 115.203125 L 80.3125 114.121094 L 79.449219 113.0625 L 78.980469 112.519531 L 78.019531 111.453125 L 76.066406 109.347656 L 75.097656 108.289063 L 74.164063 107.210938 L 73.714844 106.65625 L 73.289063 106.089844 L 72.878906 105.496094 L 72.488281 104.890625 L 71.753906 103.652344 L 70.695313 101.757813 L 68.636719 97.925781 L 67.621094 96.003906 L 66.976563 94.714844 L 66.671875 94.0625 L 66.382813 93.40625 L 66.125 92.746094 L 65.898438 92.070313 L 65.710938 91.355469 L 65.558594 90.628906 L 65.433594 89.898438 L 65.332031 89.15625 L 65.246094 88.414063 L 65.167969 87.667969 L 65.035156 86.167969 L 64.9375 84.664063 L 64.863281 83.171875 L 64.675781 77.203125 L 64.613281 75.714844 L 64.519531 74.230469 L 64.453125 73.492188 L 64.367188 72.757813 L 64.25 72.03125 L 64.101563 71.328125 L 63.925781 70.628906 L 63.730469 69.933594 L 63.296875 68.554688 L 62.835938 67.179688 L 60.679688 61 L 59.734375 58.25 L 59.277344 56.871094 L 59.019531 56.042969 L 58.828125 55.441406 L 57.308594 50.40625 L 56.046875 46.078125 L 55.460938 43.957031 L 54.34375 39.75 L 53.953125 38.355469 L 53.535156 36.96875 L 53.304688 36.285156 L 53.058594 35.609375 L 52.53125 34.277344 L 51.691406 32.300781 L 48.773438 25.738281 Z M 55.851563 980.679688 L 57.738281 979.859375 L 2.328125 1022.21875 L 2.644531 1021.738281 L 2.984375 1021.128906 L 3.300781 1020.484375 L 3.894531 1019.144531 L 5.605469 1014.988281 L 6.492188 1012.921875 L 7.710938 1010.191406 L 10.164063 1004.75 L 11.058594 1002.703125 L 11.621094 1001.320313 L 12.140625 999.921875 L 12.863281 997.800781 L 14.722656 992.105469 L 15.222656 990.710938 L 15.488281 990.03125 L 15.777344 989.367188 L 16.097656 988.734375 L 16.460938 988.136719 L 16.878906 987.585938 L 17.34375 987.125 L 17.859375 986.710938 L 18.414063 986.328125 L 19 985.96875 L 19.601563 985.625 L 20.21875 985.296875 L 23.371094 983.65625 L 26.636719 981.824219 L 27.28125 981.480469 L 27.925781 981.164063 L 28.5625 980.882813 L 29.203125 980.65625 L 29.835938 980.507813 L 30.464844 980.46875 L 31.09375 980.558594 L 31.714844 980.757813 L 32.335938 981.035156 L 32.957031 981.371094 L 33.574219 981.742188 L 34.191406 982.144531 L 36.65625 983.828125 L 37.277344 984.238281 L 37.902344 984.625 L 38.527344 984.980469 L 39.164063 985.289063 L 39.808594 985.535156 L 40.464844 985.691406 L 41.101563 985.742188 L 41.75 985.710938 L 42.40625 985.621094 L 43.070313 985.484375 L 43.738281 985.320313 L 44.410156 985.132813 L 45.757813 984.710938 L 47.777344 984.011719 L 49.117188 983.515625 L 50.472656 982.96875 L 51.820313 982.402344 Z M 0.257813 1023.769531 L 0.34375 1023.738281 L 0 1024 L 0.0117188 1023.835938 Z M 0.257813 1023.769531 " transform="matrix(1,0,0,-1,0,1024)"/>
</g>
</svg>
