<?xml version="1.0" encoding="UTF-8"?>
<svg xmlns="http://www.w3.org/2000/svg" xmlns:xlink="http://www.w3.org/1999/xlink" width="1024pt" height="937pt" viewBox="0 0 1024 937" version="1.1">
<g id="surface1">
<path style="fill-rule:evenodd;fill:rgb(49.803162%,49.803162%,49.803162%);fill-opacity:0.5;stroke-width:1;stroke-linecap:butt;stroke-linejoin:miter;stroke:rgb(0%,0%,0%);stroke-opacity:1;stroke-miterlimit:10;" d="M 1022.4375 372.519531 L 1024 373.519531 L 703.710938 937 L 0 756.972656 L 0.179688 756.488281 L 0.320313 756.070313 L 0.453125 755.652344 L 0.511719 755.441406 L 0.5625 755.230469 L 0.652344 754.796875 L 0.730469 754.363281 L 0.914063 753.277344 L 1 752.847656 L 1.050781 752.632813 L 1.105469 752.421875 L 1.171875 752.214844 L 1.253906 752.007813 L 1.34375 751.804688 L 1.441406 751.601563 L 1.546875 751.402344 L 1.652344 751.207031 L 1.875 750.8125 L 2.105469 750.425781 L 2.347656 750.042969 L 2.46875 749.855469 L 2.597656 749.667969 L 2.734375 749.488281 L 2.867188 749.324219 L 3.007813 749.160156 L 3.152344 749.003906 L 3.445313 748.691406 L 4.363281 747.761719 L 4.84375 747.269531 L 7.398438 744.621094 L 7.878906 744.132813 L 9.019531 742.996094 L 9.34375 742.671875 L 9.65625 742.335938 L 9.804688 742.164063 L 9.949219 741.988281 L 10.082031 741.808594 L 10.203125 741.621094 L 10.3125 741.429688 L 10.417969 741.234375 L 10.519531 741.035156 L 10.710938 740.628906 L 10.894531 740.21875 L 11.074219 739.804688 L 11.238281 739.394531 L 11.308594 739.1875 L 11.375 738.984375 L 11.421875 738.78125 L 11.453125 738.578125 L 11.457031 738.375 L 11.429688 738.171875 L 11.375 737.96875 L 11.300781 737.765625 L 11.214844 737.566406 L 11.121094 737.363281 L 10.816406 736.753906 L 10.71875 736.550781 L 10.625 736.34375 L 10.542969 736.132813 L 10.472656 735.925781 L 10.414063 735.71875 L 10.359375 735.511719 L 10.265625 735.085938 L 10.1875 734.660156 L 10.074219 734.015625 L 9.976563 733.371094 L 9.929688 732.941406 L 9.914063 732.726563 L 9.910156 732.511719 L 9.914063 732.289063 L 9.929688 732.066406 L 9.949219 731.847656 L 9.976563 731.625 L 10.039063 731.179688 L 10.105469 730.738281 L 10.246094 729.851563 L 10.320313 729.410156 L 10.40625 728.972656 L 10.453125 728.757813 L 10.507813 728.550781 L 10.574219 728.347656 L 10.652344 728.152344 L 10.75 727.96875 L 10.867188 727.800781 L 11.007813 727.644531 L 11.160156 727.5 L 11.320313 727.359375 L 11.492188 727.222656 L 11.664063 727.089844 L 12.203125 726.695313 L 14.382813 725.152344 L 14.929688 724.773438 L 15.296875 724.527344 L 15.488281 724.410156 L 15.875 724.1875 L 16.46875 723.875 L 17.269531 723.46875 L 19.277344 722.464844 L 19.675781 722.261719 L 20.070313 722.050781 L 20.261719 721.941406 L 20.453125 721.828125 L 20.636719 721.703125 L 20.8125 721.574219 L 20.976563 721.433594 L 21.132813 721.289063 L 21.285156 721.132813 L 21.574219 720.8125 L 21.859375 720.484375 L 22.28125 719.980469 L 22.835938 719.300781 L 23.109375 718.960938 L 23.242188 718.785156 L 23.371094 718.609375 L 23.496094 718.433594 L 23.621094 718.246094 L 23.859375 717.859375 L 24.085938 717.46875 L 24.308594 717.074219 L 25.953125 714.105469 L 26.9375 712.320313 L 27.269531 711.730469 L 27.5 711.34375 L 27.621094 711.15625 L 27.746094 710.972656 L 27.878906 710.796875 L 28.023438 710.632813 L 28.179688 710.484375 L 28.34375 710.34375 L 28.519531 710.210938 L 28.695313 710.082031 L 29.066406 709.839844 L 29.441406 709.601563 L 31.53125 708.324219 L 31.910156 708.085938 L 32.28125 707.847656 L 32.464844 707.726563 L 32.644531 707.597656 L 32.820313 707.464844 L 32.988281 707.328125 L 33.148438 707.179688 L 33.296875 707.019531 L 33.433594 706.851563 L 33.566406 706.675781 L 33.695313 706.496094 L 33.941406 706.125 L 34.296875 705.554688 L 35.476563 703.648438 L 36.664063 701.75 L 36.894531 701.367188 L 37.117188 700.984375 L 37.222656 700.785156 L 37.320313 700.589844 L 37.40625 700.386719 L 37.484375 700.175781 L 37.550781 699.964844 L 37.613281 699.746094 L 37.722656 699.308594 L 37.867188 698.644531 L 38.378906 696.199219 L 38.511719 695.53125 L 38.585938 695.085938 L 38.613281 694.863281 L 38.632813 694.636719 L 38.644531 694.410156 L 38.644531 694.183594 L 38.640625 693.957031 L 38.617188 693.503906 L 38.585938 693.046875 L 38.480469 691.679688 L 38.433594 690.996094 L 38.40625 690.539063 L 38.386719 690.082031 L 38.355469 689.171875 L 38.273438 686.207031 L 38.238281 685.070313 L 38.167969 683.492188 L 38.003906 680.109375 L 37.976563 679.433594 L 37.96875 678.984375 L 37.96875 678.761719 L 37.972656 678.535156 L 37.984375 678.3125 L 38 678.085938 L 38.066406 677.417969 L 38.171875 676.523438 L 38.3125 675.40625 L 38.410156 674.738281 L 38.484375 674.296875 L 38.605469 673.640625 L 39.121094 671.015625 L 39.246094 670.359375 L 39.324219 669.921875 L 39.394531 669.480469 L 39.421875 669.261719 L 39.445313 669.039063 L 39.460938 668.816406 L 39.488281 668.367188 L 39.515625 667.699219 L 39.578125 665.90625 L 39.601563 665.457031 L 39.636719 665.011719 L 39.683594 664.5625 L 39.738281 664.109375 L 40.058594 661.859375 L 40.125 661.410156 L 40.195313 660.964844 L 40.28125 660.519531 L 40.332031 660.304688 L 40.390625 660.089844 L 40.460938 659.878906 L 40.546875 659.679688 L 40.640625 659.488281 L 40.742188 659.296875 L 40.964844 658.921875 L 41.199219 658.550781 L 41.558594 658 L 42.410156 656.714844 L 42.902344 655.976563 L 44.417969 653.75 L 44.671875 653.382813 L 44.929688 653.027344 L 45.066406 652.855469 L 45.203125 652.691406 L 45.351563 652.542969 L 45.503906 652.40625 L 45.671875 652.296875 L 45.859375 652.210938 L 46.0625 652.148438 L 46.269531 652.101563 L 46.488281 652.070313 L 46.710938 652.046875 L 46.933594 652.027344 L 47.160156 652.015625 L 47.617188 652 L 48.074219 652 L 48.300781 652.007813 L 48.523438 652.023438 L 48.746094 652.050781 L 48.964844 652.09375 L 49.175781 652.15625 L 49.382813 652.234375 L 49.589844 652.324219 L 49.792969 652.417969 L 50.601563 652.824219 L 50.800781 652.917969 L 51.003906 653.003906 L 51.207031 653.074219 L 51.410156 653.128906 L 51.613281 653.160156 L 51.808594 653.160156 L 52.007813 653.136719 L 52.207031 653.09375 L 52.40625 653.039063 L 52.609375 652.976563 L 53.011719 652.832031 L 53.410156 652.675781 L 53.808594 652.507813 L 54.203125 652.328125 L 54.394531 652.230469 L 54.582031 652.128906 L 54.761719 652.015625 L 54.941406 651.886719 L 55.113281 651.75 L 55.28125 651.605469 L 55.609375 651.304688 L 55.933594 650.992188 L 57.042969 649.886719 L 57.367188 649.578125 L 57.699219 649.28125 L 57.867188 649.136719 L 58.042969 649 L 58.222656 648.867188 L 58.585938 648.609375 L 59.140625 648.238281 L 59.703125 647.875 L 60.082031 647.640625 L 60.46875 647.417969 L 60.667969 647.3125 L 60.875 647.207031 L 61.285156 647.011719 L 62.953125 646.25 L 63.367188 646.054688 L 63.777344 645.855469 L 63.980469 645.75 L 64.179688 645.640625 L 64.570313 645.417969 L 64.957031 645.183594 L 65.917969 644.59375 L 66.492188 644.238281 L 66.867188 643.996094 L 67.054688 643.871094 L 67.234375 643.742188 L 67.410156 643.609375 L 67.582031 643.46875 L 67.738281 643.316406 L 67.886719 643.152344 L 68.027344 642.976563 L 68.15625 642.796875 L 68.28125 642.609375 L 68.515625 642.226563 L 68.742188 641.832031 L 68.957031 641.433594 L 69.058594 641.230469 L 69.152344 641.023438 L 69.238281 640.824219 L 69.390625 640.414063 L 69.460938 640.207031 L 69.59375 639.789063 L 69.722656 639.371094 L 69.78125 639.164063 L 69.839844 638.953125 L 69.890625 638.746094 L 69.933594 638.535156 L 69.96875 638.328125 L 69.992188 638.121094 L 69.996094 637.910156 L 69.976563 637.695313 L 69.941406 637.484375 L 69.886719 637.269531 L 69.828125 637.054688 L 69.757813 636.84375 L 69.609375 636.417969 L 69.453125 635.992188 L 69.132813 635.144531 L 68.886719 634.507813 L 68.714844 634.085938 L 68.535156 633.671875 L 68.4375 633.46875 L 68.332031 633.269531 L 68.222656 633.074219 L 68.105469 632.878906 L 67.871094 632.496094 L 67.140625 631.351563 L 66.90625 630.964844 L 66.796875 630.769531 L 66.695313 630.574219 L 66.601563 630.371094 L 66.519531 630.167969 L 66.457031 629.960938 L 66.40625 629.75 L 66.367188 629.539063 L 66.332031 629.320313 L 66.300781 629.105469 L 66.25 628.664063 L 66.183594 628.003906 L 66.144531 627.566406 L 66.121094 627.132813 L 66.117188 626.917969 L 66.121094 626.707031 L 66.136719 626.5 L 66.171875 626.300781 L 66.226563 626.109375 L 66.316406 625.925781 L 66.425781 625.75 L 66.550781 625.582031 L 66.691406 625.421875 L 66.839844 625.261719 L 66.996094 625.101563 L 67.472656 624.632813 L 67.785156 624.316406 L 67.933594 624.152344 L 68.074219 623.984375 L 68.199219 623.808594 L 68.3125 623.628906 L 68.402344 623.4375 L 68.476563 623.238281 L 68.535156 623.035156 L 68.589844 622.824219 L 68.636719 622.613281 L 68.71875 622.183594 L 68.792969 621.75 L 68.855469 621.3125 L 68.882813 621.097656 L 68.902344 620.878906 L 68.917969 620.664063 L 68.925781 620.449219 L 68.917969 620.238281 L 68.890625 620.03125 L 68.84375 619.828125 L 68.777344 619.625 L 68.703125 619.425781 L 68.613281 619.230469 L 68.519531 619.03125 L 68.320313 618.640625 L 68.003906 618.058594 L 67.472656 617.082031 L 67.257813 616.695313 L 67.035156 616.316406 L 66.921875 616.132813 L 66.796875 615.953125 L 66.667969 615.78125 L 66.527344 615.621094 L 66.375 615.46875 L 66.207031 615.332031 L 66.035156 615.207031 L 65.855469 615.085938 L 65.667969 614.976563 L 65.480469 614.871094 L 65.285156 614.78125 L 65.085938 614.703125 L 64.882813 614.640625 L 64.675781 614.601563 L 64.464844 614.578125 L 64.253906 614.566406 L 64.035156 614.5625 L 63.816406 614.566406 L 63.378906 614.585938 L 62.941406 614.609375 L 62.28125 614.660156 L 61.84375 614.699219 L 61.625 614.722656 L 61.183594 614.773438 L 60.089844 614.921875 L 59.652344 614.972656 L 59.214844 615.003906 L 58.996094 615.007813 L 58.777344 615 L 58.554688 614.988281 L 58.332031 614.964844 L 58.113281 614.941406 L 57.671875 614.878906 L 57.230469 614.808594 L 57.011719 614.769531 L 56.796875 614.726563 L 56.582031 614.675781 L 56.375 614.621094 L 56.171875 614.554688 L 55.976563 614.476563 L 55.796875 614.378906 L 55.632813 614.261719 L 55.480469 614.125 L 55.339844 613.976563 L 55.203125 613.816406 L 55.074219 613.648438 L 54.949219 613.480469 L 54.832031 613.304688 L 54.71875 613.125 L 54.613281 612.945313 L 54.515625 612.761719 L 54.433594 612.578125 L 54.363281 612.386719 L 54.320313 612.195313 L 54.304688 611.992188 L 54.316406 611.789063 L 54.339844 611.578125 L 54.378906 611.371094 L 54.429688 611.15625 L 54.542969 610.730469 L 54.636719 610.414063 L 54.921875 609.453125 L 55.042969 609.023438 L 55.097656 608.808594 L 55.148438 608.597656 L 55.191406 608.382813 L 55.222656 608.167969 L 55.238281 607.953125 L 55.242188 607.734375 L 55.226563 607.519531 L 55.203125 607.300781 L 55.175781 607.082031 L 55.097656 606.644531 L 55.011719 606.203125 L 54.867188 605.546875 L 54.761719 605.113281 L 54.703125 604.894531 L 54.640625 604.679688 L 54.570313 604.460938 L 54.496094 604.246094 L 54.339844 603.8125 L 53.929688 602.742188 L 53.855469 602.53125 L 53.785156 602.320313 L 53.726563 602.117188 L 53.679688 601.917969 L 53.652344 601.722656 L 53.652344 601.542969 L 53.691406 601.375 L 53.777344 601.226563 L 53.898438 601.089844 L 54.046875 600.964844 L 54.210938 600.847656 L 54.394531 600.738281 L 54.585938 600.628906 L 54.78125 600.527344 L 55.1875 600.328125 L 55.394531 600.234375 L 55.601563 600.144531 L 55.8125 600.0625 L 56.023438 599.988281 L 56.234375 599.929688 L 56.449219 599.890625 L 56.664063 599.875 L 56.878906 599.875 L 57.09375 599.890625 L 57.3125 599.914063 L 57.527344 599.941406 L 57.964844 600.015625 L 59.0625 600.214844 L 59.726563 600.320313 L 60.390625 600.421875 L 61.28125 600.539063 L 61.722656 600.589844 L 61.945313 600.609375 L 62.167969 600.625 L 62.390625 600.632813 L 62.613281 600.636719 L 63.058594 600.636719 L 63.953125 600.628906 L 64.398438 600.625 L 64.84375 600.636719 L 65.0625 600.652344 L 65.503906 600.6875 L 66.160156 600.757813 L 67.257813 600.890625 L 67.914063 600.972656 L 68.347656 601.042969 L 68.5625 601.078125 L 68.777344 601.125 L 68.984375 601.175781 L 69.191406 601.242188 L 69.394531 601.320313 L 69.59375 601.40625 L 69.683594 601.449219 L 69.792969 601.503906 L 69.988281 601.609375 L 70.371094 601.824219 L 71.140625 602.265625 L 71.53125 602.480469 L 71.726563 602.578125 L 71.925781 602.671875 L 72.128906 602.757813 L 72.335938 602.835938 L 72.753906 602.984375 L 73.175781 603.117188 L 73.601563 603.246094 L 75.949219 603.945313 L 76.601563 604.132813 L 78.589844 604.691406 L 79.03125 604.808594 L 79.472656 604.917969 L 79.691406 604.964844 L 79.90625 605 L 80.125 605.027344 L 80.335938 605.035156 L 80.546875 605.019531 L 80.75 604.976563 L 80.945313 604.914063 L 81.140625 604.832031 L 81.335938 604.742188 L 81.527344 604.640625 L 81.71875 604.535156 L 82.480469 604.097656 L 82.671875 603.992188 L 82.863281 603.890625 L 83.058594 603.800781 L 83.253906 603.722656 L 83.449219 603.664063 L 83.648438 603.628906 L 83.847656 603.621094 L 84.050781 603.636719 L 84.257813 603.667969 L 84.464844 603.714844 L 84.671875 603.769531 L 84.882813 603.832031 L 85.511719 604.023438 L 85.933594 604.148438 L 86.144531 604.199219 L 86.359375 604.246094 L 86.574219 604.28125 L 86.792969 604.304688 L 87.011719 604.316406 L 87.234375 604.324219 L 88.125 604.320313 L 88.347656 604.328125 L 88.570313 604.339844 L 88.789063 604.367188 L 89 604.40625 L 89.210938 604.453125 L 89.417969 604.511719 L 90.453125 604.832031 L 90.65625 604.886719 L 90.859375 604.929688 L 91.058594 604.960938 L 91.253906 604.972656 L 91.441406 604.953125 L 91.625 604.898438 L 91.804688 604.816406 L 91.980469 604.710938 L 92.152344 604.59375 L 92.320313 604.460938 L 92.488281 604.320313 L 92.648438 604.175781 L 92.804688 604.023438 L 92.953125 603.867188 L 93.09375 603.707031 L 93.222656 603.542969 L 93.335938 603.367188 L 93.421875 603.1875 L 93.480469 602.992188 L 93.515625 602.792969 L 93.535156 602.585938 L 93.542969 602.371094 L 93.539063 602.15625 L 93.515625 601.71875 L 93.484375 601.277344 L 93.316406 599.289063 L 93.273438 598.625 L 93.25 598.179688 L 93.21875 597.285156 L 93.210938 596.835938 L 93.207031 596.394531 L 93.210938 596.171875 L 93.21875 595.957031 L 93.234375 595.746094 L 93.257813 595.539063 L 93.296875 595.339844 L 93.355469 595.152344 L 93.441406 594.980469 L 93.5625 594.824219 L 93.707031 594.683594 L 93.875 594.554688 L 94.054688 594.433594 L 94.242188 594.316406 L 94.625 594.089844 L 94.816406 593.972656 L 94.996094 593.851563 L 95.164063 593.722656 L 95.316406 593.582031 L 95.441406 593.425781 L 95.53125 593.253906 L 95.597656 593.066406 L 95.644531 592.867188 L 95.675781 592.660156 L 95.703125 592.445313 L 95.722656 592.230469 L 95.734375 592.007813 L 95.753906 591.5625 L 95.769531 591.117188 L 95.78125 590.667969 L 95.789063 590.222656 L 95.785156 590 L 95.777344 589.78125 L 95.761719 589.566406 L 95.738281 589.355469 L 95.695313 589.148438 L 95.632813 588.953125 L 95.550781 588.777344 L 95.449219 588.605469 L 95.335938 588.441406 L 95.210938 588.28125 L 95.078125 588.121094 L 94.515625 587.5 L 94.230469 587.171875 L 93.808594 586.65625 L 93.261719 585.960938 L 92.585938 585.082031 L 92.1875 584.550781 L 91.925781 584.191406 L 91.800781 584.011719 L 91.675781 583.828125 L 91.433594 583.453125 L 90.265625 581.550781 L 89.566406 580.4375 L 89.339844 580.070313 L 89.230469 579.882813 L 89.128906 579.695313 L 89.03125 579.507813 L 88.949219 579.320313 L 88.878906 579.125 L 88.828125 578.929688 L 88.800781 578.722656 L 88.796875 578.507813 L 88.808594 578.292969 L 88.828125 578.078125 L 88.859375 577.859375 L 88.933594 577.417969 L 89.0625 576.753906 L 89.203125 576.09375 L 89.300781 575.664063 L 89.457031 575.027344 L 89.617188 574.394531 L 89.730469 573.972656 L 89.789063 573.765625 L 89.855469 573.558594 L 89.925781 573.351563 L 90 573.152344 L 90.09375 572.941406 L 90.191406 572.738281 L 90.40625 572.335938 L 90.628906 571.9375 L 91.207031 570.949219 L 91.433594 570.550781 L 91.648438 570.148438 L 91.847656 569.753906 L 92.039063 569.355469 L 92.316406 568.753906 L 94.558594 563.824219 L 94.75 563.414063 L 94.949219 563.007813 L 95.050781 562.808594 L 95.164063 562.617188 L 95.28125 562.429688 L 95.410156 562.25 L 95.550781 562.078125 L 95.703125 561.917969 L 95.863281 561.761719 L 96.027344 561.609375 L 96.199219 561.460938 L 96.546875 561.171875 L 97.425781 560.453125 L 97.773438 560.160156 L 98.113281 559.863281 L 98.277344 559.707031 L 98.4375 559.546875 L 98.578125 559.394531 L 98.710938 559.234375 L 98.84375 559.070313 L 98.96875 558.902344 L 99.214844 558.5625 L 99.332031 558.390625 L 99.445313 558.214844 L 99.550781 558.035156 L 99.652344 557.855469 L 99.742188 557.667969 L 99.824219 557.472656 L 99.898438 557.269531 L 99.960938 557.066406 L 100.082031 556.648438 L 100.347656 555.597656 L 100.464844 555.179688 L 100.527344 554.976563 L 100.597656 554.773438 L 100.675781 554.578125 L 100.765625 554.386719 L 100.867188 554.199219 L 100.984375 554.019531 L 101.109375 553.84375 L 101.238281 553.671875 L 101.511719 553.332031 L 102.210938 552.492188 L 102.480469 552.148438 L 102.609375 551.972656 L 102.730469 551.792969 L 102.84375 551.613281 L 102.949219 551.425781 L 103.144531 551.046875 L 103.332031 550.660156 L 103.597656 550.070313 L 103.765625 549.675781 L 103.921875 549.273438 L 103.996094 549.066406 L 104.132813 548.652344 L 104.394531 547.816406 L 104.535156 547.40625 L 104.613281 547.207031 L 104.695313 547.011719 L 104.792969 546.824219 L 104.902344 546.648438 L 105.027344 546.484375 L 105.164063 546.332031 L 105.3125 546.1875 L 105.46875 546.046875 L 105.628906 545.910156 L 105.960938 545.640625 L 106.636719 545.109375 L 106.964844 544.832031 L 107.132813 544.6875 L 107.460938 544.382813 L 107.78125 544.074219 L 108.894531 542.980469 L 109.375 542.515625 L 109.535156 542.367188 L 109.871094 542.078125 L 110.046875 541.945313 L 110.234375 541.816406 L 110.425781 541.695313 L 110.625 541.578125 L 110.824219 541.46875 L 111.226563 541.25 L 112.25 540.722656 L 113.070313 540.308594 L 113.480469 540.105469 L 113.691406 540.011719 L 113.898438 539.917969 L 114.113281 539.835938 L 114.324219 539.757813 L 114.542969 539.691406 L 114.976563 539.566406 L 115.417969 539.457031 L 115.640625 539.40625 L 116.085938 539.320313 L 116.308594 539.289063 L 116.519531 539.261719 L 116.730469 539.246094 L 117.160156 539.21875 L 117.585938 539.203125 L 118.226563 539.191406 L 118.871094 539.1875 L 119.296875 539.195313 L 119.75 539.214844 L 120.203125 539.246094 L 120.882813 539.300781 L 122.242188 539.417969 L 122.695313 539.449219 L 123.144531 539.46875 L 123.367188 539.472656 L 123.585938 539.460938 L 123.804688 539.441406 L 124.015625 539.402344 L 124.222656 539.339844 L 124.421875 539.261719 L 124.617188 539.171875 L 124.8125 539.070313 L 125.007813 538.964844 L 125.390625 538.738281 L 125.957031 538.386719 L 126.328125 538.144531 L 126.503906 538.019531 L 126.671875 537.890625 L 126.828125 537.757813 L 126.96875 537.617188 L 127.089844 537.46875 L 127.179688 537.308594 L 127.230469 537.140625 L 127.253906 536.957031 L 127.261719 536.769531 L 127.25 536.574219 L 127.230469 536.375 L 127.152344 535.757813 L 127.128906 535.546875 L 127.113281 535.339844 L 127.105469 535.128906 L 127.113281 534.910156 L 127.128906 534.6875 L 127.15625 534.46875 L 127.222656 534.027344 L 127.308594 533.589844 L 127.441406 532.929688 L 127.539063 532.492188 L 127.644531 532.0625 L 127.703125 531.851563 L 127.769531 531.648438 L 127.847656 531.445313 L 127.933594 531.253906 L 128.042969 531.078125 L 128.167969 530.914063 L 128.3125 530.761719 L 128.46875 530.617188 L 128.632813 530.480469 L 128.980469 530.21875 L 129.511719 529.828125 L 129.6875 529.699219 L 129.859375 529.5625 L 130.023438 529.421875 L 130.179688 529.277344 L 130.324219 529.117188 L 130.457031 528.949219 L 130.578125 528.769531 L 130.691406 528.582031 L 130.796875 528.390625 L 130.992188 527.996094 L 131.183594 527.59375 L 131.925781 525.96875 L 132.117188 525.566406 L 132.316406 525.167969 L 132.417969 524.972656 L 132.636719 524.582031 L 133.417969 523.234375 L 133.632813 522.847656 L 133.738281 522.65625 L 133.835938 522.460938 L 133.921875 522.265625 L 134 522.070313 L 134.058594 521.871094 L 134.097656 521.671875 L 134.105469 521.464844 L 134.09375 521.253906 L 134.0625 521.039063 L 134.019531 520.828125 L 133.96875 520.613281 L 133.679688 519.53125 L 133.628906 519.3125 L 133.582031 519.09375 L 133.550781 518.875 L 133.53125 518.65625 L 133.527344 518.433594 L 133.542969 518.210938 L 133.566406 517.988281 L 133.597656 517.765625 L 133.671875 517.316406 L 133.808594 516.640625 L 133.996094 515.742188 L 134.148438 515.074219 L 134.261719 514.628906 L 134.324219 514.410156 L 134.398438 514.195313 L 134.476563 513.996094 L 134.558594 513.796875 L 134.742188 513.402344 L 134.933594 513.015625 L 135.628906 511.660156 L 135.820313 511.269531 L 135.910156 511.074219 L 135.996094 510.875 L 136.160156 510.464844 L 136.308594 510.054688 L 136.601563 509.222656 L 136.753906 508.8125 L 136.835938 508.609375 L 136.925781 508.410156 L 137.023438 508.214844 L 137.128906 508.023438 L 137.242188 507.835938 L 137.363281 507.652344 L 137.488281 507.46875 L 137.746094 507.109375 L 138.539063 506.035156 L 138.792969 505.675781 L 138.917969 505.492188 L 139.039063 505.304688 L 139.152344 505.117188 L 139.253906 504.929688 L 139.351563 504.742188 L 139.535156 504.355469 L 139.796875 503.773438 L 140.394531 502.398438 L 140.667969 501.785156 L 141.324219 500.355469 L 142.453125 497.910156 L 142.714844 497.335938 L 142.820313 497.09375 L 142.996094 496.679688 L 143.078125 496.472656 L 143.152344 496.261719 L 143.21875 496.054688 L 143.28125 495.847656 L 143.394531 495.425781 L 143.496094 495 L 143.839844 493.511719 L 143.992188 492.875 L 144.105469 492.453125 L 144.167969 492.246094 L 144.238281 492.039063 L 144.316406 491.828125 L 144.398438 491.617188 L 144.488281 491.40625 L 144.675781 490.992188 L 145.0625 490.164063 L 145.25 489.746094 L 145.429688 489.328125 L 145.511719 489.117188 L 145.660156 488.695313 L 145.789063 488.269531 L 146.160156 486.980469 L 146.285156 486.558594 L 146.355469 486.347656 L 146.429688 486.144531 L 146.507813 485.945313 L 146.597656 485.757813 L 146.699219 485.582031 L 146.824219 485.421875 L 146.960938 485.285156 L 147.117188 485.167969 L 147.285156 485.0625 L 147.464844 484.964844 L 147.648438 484.875 L 147.839844 484.789063 L 148.035156 484.707031 L 148.230469 484.632813 L 148.429688 484.5625 L 148.628906 484.496094 L 148.832031 484.4375 L 149.035156 484.386719 L 149.242188 484.351563 L 149.464844 484.328125 L 149.6875 484.316406 L 149.914063 484.316406 L 150.367188 484.332031 L 151.28125 484.390625 L 151.738281 484.414063 L 151.964844 484.421875 L 152.191406 484.421875 L 152.417969 484.417969 L 152.644531 484.402344 L 152.867188 484.378906 L 153.316406 484.316406 L 153.984375 484.203125 L 155.550781 483.921875 L 155.996094 483.851563 L 156.21875 483.820313 L 156.445313 483.796875 L 156.65625 483.78125 L 156.667969 483.78125 L 156.882813 483.773438 L 157.101563 483.773438 L 157.53125 483.789063 L 157.964844 483.820313 L 158.609375 483.878906 L 159.035156 483.933594 L 159.242188 483.96875 L 159.449219 484.011719 L 159.652344 484.066406 L 159.851563 484.132813 L 160.050781 484.21875 L 160.246094 484.320313 L 160.4375 484.429688 L 160.625 484.550781 L 161.367188 485.042969 L 161.554688 485.15625 L 161.742188 485.265625 L 161.9375 485.363281 L 162.136719 485.441406 L 162.34375 485.503906 L 162.550781 485.546875 L 162.765625 485.578125 L 162.980469 485.601563 L 163.199219 485.621094 L 163.640625 485.644531 L 164.75 485.691406 L 164.96875 485.703125 L 165.191406 485.722656 L 165.410156 485.75 L 165.625 485.78125 L 165.832031 485.824219 L 166.039063 485.878906 L 166.238281 485.9375 L 166.441406 486 L 166.640625 486.070313 L 166.839844 486.144531 L 167.035156 486.222656 L 167.226563 486.308594 L 167.414063 486.398438 L 167.597656 486.5 L 167.78125 486.617188 L 167.957031 486.738281 L 168.132813 486.871094 L 168.304688 487.007813 L 169.140625 487.714844 L 169.308594 487.851563 L 169.480469 487.984375 L 169.652344 488.113281 L 169.828125 488.234375 L 170.011719 488.339844 L 170.199219 488.429688 L 170.402344 488.503906 L 170.609375 488.5625 L 170.820313 488.605469 L 171.039063 488.640625 L 171.257813 488.671875 L 171.703125 488.71875 L 172.378906 488.777344 L 172.828125 488.8125 L 173.273438 488.835938 L 173.492188 488.84375 L 173.707031 488.84375 L 173.917969 488.832031 L 174.121094 488.804688 L 174.3125 488.761719 L 174.488281 488.6875 L 174.644531 488.582031 L 174.785156 488.445313 L 174.914063 488.289063 L 175.039063 488.121094 L 175.15625 487.941406 L 175.265625 487.753906 L 175.484375 487.363281 L 175.6875 486.964844 L 175.785156 486.761719 L 175.875 486.554688 L 175.960938 486.347656 L 176.035156 486.136719 L 176.09375 485.917969 L 176.148438 485.699219 L 176.1875 485.476563 L 176.222656 485.25 L 176.25 485.027344 L 176.273438 484.804688 L 176.285156 484.585938 L 176.289063 484.367188 L 176.277344 484.15625 L 176.246094 483.949219 L 176.1875 483.753906 L 176.101563 483.578125 L 175.992188 483.410156 L 175.863281 483.25 L 175.722656 483.09375 L 175.574219 482.941406 L 175.253906 482.644531 L 174.921875 482.355469 L 174.417969 481.921875 L 174.074219 481.640625 L 173.726563 481.371094 L 173.550781 481.238281 L 173.371094 481.113281 L 173.183594 480.996094 L 172.804688 480.777344 L 172.042969 480.351563 L 171.859375 480.238281 L 171.683594 480.125 L 171.515625 480 L 171.359375 479.867188 L 171.222656 479.722656 L 171.109375 479.558594 L 171.011719 479.378906 L 170.925781 479.191406 L 170.851563 478.996094 L 170.78125 478.796875 L 170.71875 478.589844 L 170.660156 478.382813 L 170.554688 477.964844 L 170.460938 477.539063 L 170.421875 477.324219 L 170.390625 477.113281 L 170.367188 476.898438 L 170.359375 476.6875 L 170.359375 476.472656 L 170.371094 476.261719 L 170.386719 476.046875 L 170.429688 475.621094 L 170.457031 475.410156 L 170.488281 475.199219 L 170.527344 474.992188 L 170.570313 474.785156 L 170.625 474.578125 L 170.691406 474.371094 L 170.765625 474.164063 L 170.847656 473.960938 L 170.933594 473.757813 L 171.210938 473.15625 L 171.878906 471.757813 L 172.070313 471.363281 L 172.273438 470.972656 L 172.378906 470.777344 L 172.488281 470.589844 L 172.605469 470.410156 L 172.730469 470.234375 L 172.875 470.0625 L 173.027344 469.898438 L 173.191406 469.738281 L 173.359375 469.585938 L 173.703125 469.285156 L 174.054688 468.992188 L 174.417969 468.707031 L 174.785156 468.433594 L 175.148438 468.1875 L 175.519531 467.949219 L 176.832031 467.144531 L 177.199219 466.910156 L 177.382813 466.789063 L 177.5625 466.667969 L 177.738281 466.539063 L 177.90625 466.40625 L 178.066406 466.269531 L 178.214844 466.117188 L 178.351563 465.953125 L 178.476563 465.777344 L 178.589844 465.59375 L 178.699219 465.402344 L 178.90625 465.011719 L 179.402344 464.011719 L 179.601563 463.613281 L 179.707031 463.417969 L 179.820313 463.226563 L 179.933594 463.039063 L 180.058594 462.859375 L 180.191406 462.6875 L 180.332031 462.523438 L 180.480469 462.367188 L 180.632813 462.210938 L 180.789063 462.058594 L 181.113281 461.761719 L 181.277344 461.617188 L 181.445313 461.480469 L 181.617188 461.34375 L 181.792969 461.21875 L 181.984375 461.09375 L 182.175781 460.976563 L 182.375 460.867188 L 182.578125 460.757813 L 182.984375 460.550781 L 183.394531 460.351563 L 183.808594 460.164063 L 184.019531 460.074219 L 184.230469 459.992188 L 184.441406 459.914063 L 184.65625 459.851563 L 184.871094 459.792969 L 185.304688 459.695313 L 185.964844 459.566406 L 187.511719 459.285156 L 187.949219 459.195313 L 188.386719 459.097656 L 188.601563 459.042969 L 189.011719 458.921875 L 189.421875 458.789063 L 190.4375 458.433594 L 190.84375 458.292969 L 191.253906 458.164063 L 191.460938 458.105469 L 191.667969 458.054688 L 191.878906 458.003906 L 192.09375 457.964844 L 192.945313 457.808594 L 193.15625 457.765625 L 193.363281 457.714844 L 193.566406 457.65625 L 193.765625 457.585938 L 193.960938 457.5 L 194.152344 457.398438 L 194.339844 457.289063 L 194.527344 457.171875 L 194.710938 457.050781 L 195.070313 456.796875 L 195.613281 456.410156 L 195.96875 456.144531 L 196.3125 455.875 L 196.480469 455.734375 L 196.640625 455.59375 L 196.792969 455.445313 L 196.929688 455.289063 L 197.050781 455.121094 L 197.152344 454.9375 L 197.230469 454.742188 L 197.300781 454.542969 L 197.355469 454.335938 L 197.40625 454.125 L 197.449219 453.910156 L 197.484375 453.691406 L 197.515625 453.476563 L 197.542969 453.257813 L 197.558594 453.035156 L 197.566406 452.816406 L 197.558594 452.597656 L 197.546875 452.378906 L 197.523438 452.160156 L 197.496094 451.941406 L 197.398438 451.285156 L 197.183594 449.972656 L 197.082031 449.316406 L 197.023438 448.878906 L 197 448.660156 L 196.980469 448.441406 L 196.96875 448.226563 L 196.957031 447.796875 L 196.953125 447.367188 L 196.957031 446.292969 L 196.953125 445.863281 L 196.949219 445.648438 L 196.941406 445.433594 L 196.925781 445.21875 L 196.90625 445.007813 L 196.851563 444.578125 L 196.78125 444.152344 L 196.703125 443.730469 L 196.660156 443.519531 L 196.5625 443.101563 L 196.503906 442.894531 L 196.441406 442.691406 L 196.371094 442.492188 L 196.285156 442.289063 L 196.1875 442.09375 L 196.085938 441.898438 L 195.976563 441.707031 L 195.542969 440.945313 L 195.441406 440.753906 L 195.351563 440.5625 L 195.269531 440.367188 L 195.207031 440.171875 L 195.167969 439.976563 L 195.160156 439.777344 L 195.171875 439.578125 L 195.203125 439.375 L 195.246094 439.171875 L 195.296875 438.964844 L 195.351563 438.757813 L 195.605469 437.929688 L 195.722656 437.511719 L 195.773438 437.304688 L 195.816406 437.09375 L 195.851563 436.882813 L 195.871094 436.664063 L 195.871094 436.65625 L 195.882813 436.429688 L 195.882813 436.203125 L 195.871094 435.75 L 195.828125 435.066406 L 195.710938 433.464844 L 195.6875 433.007813 L 195.671875 432.554688 L 195.675781 432.328125 L 195.6875 432.101563 L 195.707031 431.878906 L 195.738281 431.660156 L 195.8125 431.21875 L 195.898438 430.78125 L 196.039063 430.125 L 196.28125 429.03125 L 196.433594 428.375 L 196.75 427.074219 L 196.914063 426.421875 L 197.082031 425.773438 L 197.199219 425.34375 L 197.324219 424.921875 L 197.457031 424.511719 L 197.871094 423.28125 L 198.066406 422.660156 L 198.191406 422.234375 L 198.429688 421.355469 L 198.492188 421.140625 L 198.5625 420.929688 L 198.636719 420.730469 L 198.726563 420.542969 L 198.832031 420.371094 L 198.957031 420.222656 L 199.105469 420.109375 L 199.269531 420.015625 L 199.453125 419.9375 L 199.644531 419.871094 L 199.84375 419.8125 L 200.050781 419.761719 L 200.472656 419.671875 L 200.898438 419.597656 L 201.105469 419.570313 L 201.3125 419.546875 L 201.515625 419.539063 L 201.710938 419.546875 L 201.898438 419.574219 L 202.070313 419.628906 L 202.234375 419.726563 L 202.386719 419.855469 L 202.527344 420.007813 L 202.660156 420.179688 L 202.789063 420.359375 L 202.910156 420.546875 L 203.03125 420.738281 L 203.257813 421.136719 L 203.367188 421.339844 L 203.46875 421.542969 L 203.5625 421.75 L 203.644531 421.960938 L 203.710938 422.175781 L 203.757813 422.394531 L 203.792969 422.613281 L 203.8125 422.839844 L 203.828125 423.066406 L 203.835938 423.292969 L 203.847656 424.058594 L 203.855469 424.433594 L 203.863281 424.65625 L 203.878906 424.878906 L 203.90625 425.09375 L 203.945313 425.304688 L 204 425.503906 L 204.085938 425.6875 L 204.195313 425.847656 L 204.328125 425.996094 L 204.476563 426.136719 L 204.640625 426.265625 L 204.8125 426.390625 L 204.992188 426.507813 L 205.171875 426.621094 L 205.359375 426.726563 L 205.542969 426.824219 L 205.726563 426.914063 L 205.910156 426.988281 L 206.085938 427.042969 L 206.261719 427.066406 L 206.425781 427.058594 L 206.589844 427 L 206.742188 426.898438 L 206.890625 426.773438 L 207.03125 426.625 L 207.171875 426.464844 L 207.3125 426.292969 L 207.445313 426.113281 L 207.714844 425.746094 L 207.976563 425.367188 L 208.101563 425.175781 L 208.222656 424.984375 L 208.339844 424.789063 L 208.449219 424.589844 L 208.546875 424.386719 L 208.632813 424.179688 L 208.703125 423.96875 L 208.769531 423.757813 L 208.828125 423.539063 L 208.9375 423.105469 L 209.238281 421.785156 L 209.34375 421.351563 L 209.398438 421.132813 L 209.460938 420.921875 L 209.527344 420.707031 L 209.605469 420.5 L 209.691406 420.300781 L 209.789063 420.105469 L 209.902344 419.914063 L 210.019531 419.726563 L 210.273438 419.363281 L 210.792969 418.640625 L 211.035156 418.273438 L 211.140625 418.085938 L 211.238281 417.894531 L 211.316406 417.695313 L 211.371094 417.492188 L 211.410156 417.285156 L 211.4375 417.070313 L 211.453125 416.855469 L 211.46875 416.417969 L 211.476563 415.089844 L 211.492188 414.648438 L 211.507813 414.425781 L 211.535156 414.207031 L 211.570313 413.996094 L 211.617188 413.78125 L 211.667969 413.570313 L 211.726563 413.359375 L 211.789063 413.152344 L 211.855469 412.945313 L 211.929688 412.742188 L 212.011719 412.539063 L 212.097656 412.34375 L 212.199219 412.152344 L 212.316406 411.964844 L 212.441406 411.78125 L 212.578125 411.601563 L 212.71875 411.425781 L 213.300781 410.734375 L 213.441406 410.5625 L 213.578125 410.386719 L 213.710938 410.210938 L 213.832031 410.027344 L 213.9375 409.84375 L 214.023438 409.648438 L 214.082031 409.449219 L 214.125 409.242188 L 214.152344 409.03125 L 214.167969 408.816406 L 214.179688 408.597656 L 214.183594 408.375 L 214.1875 407.792969 L 214.1875 407.710938 L 214.195313 407.265625 L 214.207031 407.046875 L 214.226563 406.828125 L 214.253906 406.613281 L 214.296875 406.402344 L 214.359375 406.191406 L 214.433594 405.984375 L 214.523438 405.777344 L 214.621094 405.578125 L 214.722656 405.378906 L 214.828125 405.179688 L 214.941406 404.984375 L 215.054688 404.792969 L 215.175781 404.601563 L 215.300781 404.414063 L 215.433594 404.234375 L 215.578125 404.066406 L 215.722656 403.914063 L 215.875 403.765625 L 216.035156 403.628906 L 216.199219 403.492188 L 216.539063 403.230469 L 216.886719 402.976563 L 217.238281 402.734375 L 217.417969 402.617188 L 217.597656 402.507813 L 217.785156 402.40625 L 217.972656 402.3125 L 218.179688 402.222656 L 218.394531 402.148438 L 218.609375 402.078125 L 218.828125 402.015625 L 219.269531 401.898438 L 219.90625 401.746094 L 220.382813 401.628906 L 220.824219 401.511719 L 221.039063 401.449219 L 221.253906 401.378906 L 221.460938 401.300781 L 221.664063 401.210938 L 221.851563 401.105469 L 222.027344 400.984375 L 222.191406 400.847656 L 222.347656 400.703125 L 222.503906 400.550781 L 223.101563 399.910156 L 223.253906 399.753906 L 223.410156 399.605469 L 223.574219 399.464844 L 223.746094 399.335938 L 223.921875 399.226563 L 224.109375 399.128906 L 224.300781 399.039063 L 224.496094 398.957031 L 224.695313 398.882813 L 225.101563 398.742188 L 225.515625 398.609375 L 225.71875 398.546875 L 226.132813 398.433594 L 226.34375 398.386719 L 226.550781 398.34375 L 226.757813 398.316406 L 226.96875 398.300781 L 227.179688 398.300781 L 227.390625 398.316406 L 227.597656 398.339844 L 227.808594 398.371094 L 228.441406 398.476563 L 228.648438 398.503906 L 228.855469 398.527344 L 229.058594 398.535156 L 229.253906 398.53125 L 229.449219 398.5 L 229.648438 398.441406 L 229.839844 398.355469 L 230.027344 398.25 L 230.210938 398.132813 L 230.394531 398.007813 L 230.753906 397.734375 L 231.289063 397.308594 L 231.824219 396.871094 L 232.351563 396.429688 L 232.6875 396.136719 L 233.65625 395.265625 L 233.980469 394.992188 L 234.148438 394.859375 L 234.316406 394.738281 L 234.484375 394.625 L 234.664063 394.53125 L 234.847656 394.457031 L 235.050781 394.410156 L 235.257813 394.382813 L 235.476563 394.375 L 235.695313 394.378906 L 235.917969 394.390625 L 236.367188 394.433594 L 236.824219 394.484375 L 237.503906 394.570313 L 238.1875 394.660156 L 238.640625 394.726563 L 239.300781 394.832031 L 240.613281 395.058594 L 241.269531 395.160156 L 241.488281 395.1875 L 241.707031 395.210938 L 241.925781 395.230469 L 242.144531 395.238281 L 242.359375 395.234375 L 242.574219 395.21875 L 242.785156 395.1875 L 242.996094 395.148438 L 243.207031 395.105469 L 244.042969 394.910156 L 244.253906 394.867188 L 244.460938 394.828125 L 244.664063 394.796875 L 244.867188 394.777344 L 245.066406 394.773438 L 245.261719 394.796875 L 245.460938 394.847656 L 245.65625 394.925781 L 245.847656 395.019531 L 246.035156 395.125 L 246.222656 395.242188 L 246.40625 395.367188 L 246.773438 395.625 L 247.3125 396.035156 L 247.488281 396.175781 L 247.65625 396.324219 L 247.824219 396.476563 L 247.980469 396.632813 L 248.128906 396.800781 L 248.402344 397.160156 L 248.65625 397.535156 L 248.902344 397.917969 L 249.140625 398.304688 L 249.371094 398.699219 L 249.484375 398.898438 L 249.589844 399.097656 L 249.683594 399.300781 L 249.867188 399.707031 L 250.035156 400.121094 L 250.195313 400.539063 L 250.347656 400.957031 L 250.414063 401.164063 L 250.480469 401.375 L 250.535156 401.585938 L 250.578125 401.800781 L 250.605469 402.011719 L 250.617188 402.222656 L 250.613281 402.4375 L 250.597656 402.648438 L 250.507813 403.503906 L 250.492188 403.71875 L 250.484375 403.929688 L 250.488281 404.136719 L 250.511719 404.339844 L 250.5625 404.550781 L 250.628906 404.753906 L 250.710938 404.957031 L 250.804688 405.160156 L 250.90625 405.359375 L 251.011719 405.558594 L 251.234375 405.957031 L 251.460938 406.355469 L 251.6875 406.75 L 251.921875 407.140625 L 252.039063 407.328125 L 252.15625 407.511719 L 252.277344 407.683594 L 252.40625 407.84375 L 252.539063 407.980469 L 252.679688 408.089844 L 252.832031 408.160156 L 252.992188 408.183594 L 253.164063 408.171875 L 253.34375 408.136719 L 253.527344 408.078125 L 253.71875 408.011719 L 253.910156 407.933594 L 254.5 407.683594 L 254.699219 407.609375 L 254.894531 407.539063 L 255.09375 407.484375 L 255.289063 407.445313 L 255.320313 407.445313 L 255.484375 407.433594 L 255.6875 407.453125 L 255.886719 407.496094 L 256.085938 407.558594 L 256.285156 407.636719 L 256.484375 407.722656 L 256.683594 407.816406 L 257.28125 408.109375 L 257.683594 408.300781 L 257.882813 408.390625 L 258.089844 408.46875 L 258.292969 408.53125 L 258.503906 408.578125 L 258.710938 408.601563 L 258.921875 408.609375 L 259.136719 408.601563 L 259.355469 408.585938 L 259.570313 408.5625 L 259.789063 408.535156 L 260.445313 408.433594 L 260.882813 408.359375 L 261.097656 408.316406 L 261.308594 408.269531 L 261.515625 408.21875 L 261.714844 408.15625 L 261.90625 408.085938 L 262.085938 408 L 262.246094 407.890625 L 262.390625 407.753906 L 262.519531 407.589844 L 262.632813 407.414063 L 262.734375 407.226563 L 262.832031 407.027344 L 263.015625 406.621094 L 263.191406 406.203125 L 263.445313 405.566406 L 263.609375 405.144531 L 263.765625 404.71875 L 263.835938 404.507813 L 263.894531 404.292969 L 263.945313 404.078125 L 263.980469 403.863281 L 263.992188 403.644531 L 263.992188 403.425781 L 263.976563 403.203125 L 263.957031 402.980469 L 263.929688 402.757813 L 263.898438 402.535156 L 263.824219 402.089844 L 263.597656 400.746094 L 263.535156 400.300781 L 263.507813 400.082031 L 263.488281 399.859375 L 263.480469 399.640625 L 263.480469 399.421875 L 263.503906 399.207031 L 263.542969 398.996094 L 263.605469 398.785156 L 263.675781 398.578125 L 263.757813 398.371094 L 263.847656 398.167969 L 264.222656 397.347656 L 264.367188 397.015625 L 264.402344 396.933594 L 264.488281 396.726563 L 264.566406 396.515625 L 264.632813 396.300781 L 264.6875 396.085938 L 264.730469 395.871094 L 264.804688 395.429688 L 264.902344 394.769531 L 264.941406 394.550781 L 264.984375 394.332031 L 265.039063 394.121094 L 265.105469 393.914063 L 265.1875 393.722656 L 265.285156 393.535156 L 265.390625 393.347656 L 265.503906 393.167969 L 265.742188 392.808594 L 265.992188 392.457031 L 266.25 392.105469 L 266.511719 391.761719 L 266.785156 391.425781 L 266.925781 391.261719 L 267.070313 391.109375 L 267.226563 390.960938 L 267.394531 390.816406 L 267.570313 390.683594 L 267.753906 390.554688 L 267.941406 390.433594 L 268.324219 390.195313 L 269.875 389.277344 L 270.453125 388.925781 L 271.972656 387.972656 L 272.359375 387.746094 L 272.542969 387.648438 L 272.554688 387.640625 L 272.753906 387.539063 L 272.949219 387.449219 L 273.347656 387.285156 L 273.546875 387.210938 L 273.953125 387.066406 L 274.363281 386.925781 L 274.773438 386.792969 L 275.183594 386.675781 L 275.386719 386.621094 L 275.59375 386.578125 L 275.800781 386.542969 L 276.007813 386.519531 L 276.226563 386.515625 L 276.441406 386.527344 L 276.660156 386.546875 L 276.878906 386.578125 L 277.097656 386.613281 L 277.316406 386.652344 L 277.753906 386.734375 L 279.070313 387.003906 L 279.507813 387.078125 L 279.722656 387.113281 L 279.941406 387.136719 L 280.15625 387.152344 L 280.367188 387.152344 L 280.578125 387.132813 L 280.785156 387.09375 L 280.984375 387.035156 L 281.183594 386.960938 L 281.382813 386.878906 L 281.582031 386.789063 L 281.777344 386.695313 L 282.171875 386.5 L 282.5625 386.296875 L 283.34375 385.882813 L 283.722656 385.671875 L 283.90625 385.558594 L 284.085938 385.441406 L 284.257813 385.316406 L 284.414063 385.183594 L 284.558594 385.039063 L 284.683594 384.875 L 284.792969 384.699219 L 284.890625 384.515625 L 285.0625 384.125 L 285.21875 383.71875 L 285.449219 383.105469 L 285.613281 382.699219 L 285.703125 382.5 L 285.800781 382.296875 L 285.902344 382.097656 L 286.007813 381.902344 L 286.226563 381.507813 L 287.128906 379.957031 L 287.457031 379.371094 L 287.773438 378.789063 L 288.5 377.425781 L 288.910156 376.644531 L 289.101563 376.253906 L 289.1875 376.058594 L 289.261719 375.863281 L 289.324219 375.667969 L 289.367188 375.46875 L 289.386719 375.273438 L 289.371094 375.074219 L 289.332031 374.871094 L 289.269531 374.667969 L 289.195313 374.46875 L 289.109375 374.265625 L 288.925781 373.859375 L 288.726563 373.457031 L 288.417969 372.847656 L 288.109375 372.242188 L 287.898438 371.84375 L 287.84375 371.738281 L 287.679688 371.449219 L 287.566406 371.257813 L 287.441406 371.070313 L 287.320313 370.894531 L 287.597656 367.667969 L 288.628906 364.945313 L 292.09375 361.128906 L 296.53125 358.039063 L 297.789063 357.308594 L 299.875 356.101563 L 302.125 354.285156 L 304.496094 352.105469 L 310.023438 345.808594 L 315.613281 340.117188 L 321.570313 335.03125 L 325.996094 330.847656 L 328.171875 325.367188 L 328.28125 325.183594 L 328.386719 324.996094 L 328.480469 324.804688 L 328.5625 324.609375 L 328.632813 324.40625 L 328.691406 324.199219 L 328.738281 323.988281 L 328.777344 323.773438 L 328.816406 323.554688 L 328.878906 323.121094 L 329.023438 322.027344 L 329.09375 321.597656 L 329.132813 321.386719 L 329.183594 321.179688 L 329.242188 320.980469 L 329.320313 320.792969 L 329.414063 320.617188 L 329.53125 320.457031 L 329.671875 320.308594 L 329.824219 320.171875 L 329.988281 320.039063 L 330.15625 319.914063 L 330.332031 319.789063 L 330.867188 319.417969 L 331.042969 319.292969 L 331.214844 319.164063 L 331.382813 319.027344 L 331.542969 318.882813 L 331.695313 318.726563 L 331.84375 318.5625 L 331.980469 318.390625 L 332.246094 318.039063 L 332.632813 317.496094 L 333.257813 316.574219 L 333.773438 315.847656 L 333.90625 315.671875 L 334.046875 315.5 L 334.183594 315.332031 L 334.472656 315.011719 L 334.769531 314.695313 L 335.21875 314.230469 L 335.527344 313.925781 L 335.683594 313.777344 L 335.84375 313.632813 L 336.003906 313.496094 L 336.171875 313.359375 L 336.34375 313.234375 L 336.527344 313.117188 L 336.71875 313.007813 L 336.914063 312.90625 L 337.3125 312.714844 L 337.71875 312.53125 L 338.128906 312.355469 L 340.59375 311.304688 L 341 311.125 L 341.402344 310.933594 L 341.597656 310.832031 L 341.789063 310.722656 L 341.972656 310.605469 L 342.144531 310.480469 L 342.308594 310.34375 L 342.46875 310.203125 L 342.621094 310.058594 L 342.773438 309.90625 L 346.78125 306.335938 L 352.726563 303.0625 L 352.910156 302.953125 L 353.085938 302.832031 L 353.246094 302.695313 L 353.386719 302.550781 L 353.511719 302.390625 L 353.628906 302.222656 L 353.742188 302.046875 L 353.851563 301.871094 L 354.167969 301.324219 L 354.277344 301.144531 L 354.390625 300.96875 L 354.507813 300.800781 L 354.636719 300.640625 L 354.773438 300.492188 L 354.929688 300.351563 L 355.101563 300.226563 L 355.28125 300.109375 L 355.46875 300 L 355.65625 299.894531 L 356.046875 299.695313 L 357.042969 299.210938 L 357.441406 299.015625 L 357.832031 298.8125 L 358.027344 298.707031 L 358.214844 298.59375 L 358.398438 298.480469 L 358.578125 298.359375 L 358.933594 298.109375 L 359.636719 297.601563 L 359.996094 297.359375 L 360.175781 297.242188 L 360.363281 297.132813 L 360.554688 297.03125 L 360.75 296.9375 L 360.945313 296.847656 L 361.144531 296.757813 L 361.550781 296.59375 L 361.957031 296.4375 L 362.367188 296.285156 L 362.777344 296.144531 L 362.984375 296.082031 L 363.195313 296.027344 L 363.40625 295.980469 L 363.621094 295.945313 L 363.839844 295.917969 L 364.058594 295.902344 L 364.28125 295.886719 L 364.722656 295.871094 L 366.058594 295.84375 L 366.5 295.824219 L 366.714844 295.808594 L 366.929688 295.785156 L 367.140625 295.75 L 367.34375 295.703125 L 367.539063 295.632813 L 367.730469 295.539063 L 367.914063 295.425781 L 368.089844 295.296875 L 368.261719 295.15625 L 368.429688 295.007813 L 368.59375 294.855469 L 368.925781 294.539063 L 369.25 294.21875 L 370.476563 292.984375 L 370.773438 292.6875 L 371.078125 292.402344 L 371.238281 292.265625 L 371.398438 292.132813 L 371.570313 292.003906 L 371.742188 291.878906 L 371.921875 291.757813 L 372.285156 291.527344 L 372.835938 291.1875 L 374.128906 290.410156 L 375.054688 289.839844 L 376.164063 289.15625 L 376.894531 288.6875 L 377.265625 288.441406 L 377.816406 288.070313 L 379.648438 286.808594 L 380.375 286.300781 L 381.121094 285.769531 L 381.675781 285.363281 L 382.226563 284.957031 L 382.589844 284.679688 L 382.945313 284.390625 L 383.277344 284.097656 L 383.601563 283.796875 L 384.078125 283.335938 L 385.027344 282.402344 L 385.347656 282.097656 L 385.511719 281.949219 L 385.675781 281.804688 L 385.839844 281.664063 L 386.011719 281.535156 L 386.1875 281.417969 L 386.375 281.316406 L 386.570313 281.234375 L 386.777344 281.167969 L 386.988281 281.113281 L 387.203125 281.066406 L 387.640625 280.992188 L 388.757813 280.835938 L 389.203125 280.765625 L 389.421875 280.726563 L 389.640625 280.683594 L 389.859375 280.632813 L 390.070313 280.570313 L 390.277344 280.507813 L 390.691406 280.359375 L 391.101563 280.203125 L 391.917969 279.875 L 392.308594 279.710938 L 392.730469 279.539063 L 393.132813 279.363281 L 393.332031 279.273438 L 393.730469 279.078125 L 394.121094 278.875 L 394.507813 278.660156 L 395.855469 277.898438 L 396.234375 277.675781 L 396.613281 277.449219 L 396.800781 277.332031 L 396.980469 277.210938 L 397.15625 277.085938 L 397.328125 276.953125 L 397.488281 276.8125 L 397.636719 276.65625 L 397.777344 276.492188 L 397.914063 276.320313 L 398.042969 276.140625 L 398.167969 275.960938 L 398.65625 275.222656 L 398.90625 274.859375 L 399.035156 274.683594 L 399.171875 274.511719 L 399.3125 274.351563 L 399.464844 274.199219 L 399.632813 274.054688 L 399.808594 273.925781 L 399.988281 273.800781 L 400.738281 273.324219 L 400.917969 273.199219 L 401.089844 273.066406 L 401.253906 272.925781 L 401.398438 272.769531 L 401.535156 272.609375 L 401.660156 272.433594 L 401.707031 272.363281 L 401.78125 272.257813 L 402.007813 271.890625 L 402.113281 271.703125 L 402.214844 271.511719 L 402.3125 271.324219 L 402.402344 271.132813 L 402.480469 270.9375 L 402.546875 270.746094 L 402.589844 270.554688 L 402.609375 270.359375 L 402.597656 270.160156 L 402.558594 269.957031 L 402.5 269.757813 L 402.429688 269.554688 L 402.347656 269.351563 L 402.257813 269.148438 L 402.066406 268.742188 L 401.765625 268.136719 L 401.554688 267.742188 L 401.449219 267.550781 L 401.335938 267.367188 L 401.21875 267.191406 L 401.09375 267.03125 L 400.957031 266.890625 L 400.800781 266.777344 L 400.628906 266.691406 L 400.4375 266.636719 L 400.234375 266.601563 L 400.023438 266.578125 L 399.804688 266.566406 L 399.582031 266.5625 L 399.128906 266.566406 L 397.757813 266.601563 L 397.308594 266.601563 L 397.085938 266.59375 L 396.863281 266.578125 L 396.648438 266.550781 L 396.441406 266.507813 L 396.242188 266.445313 L 396.0625 266.355469 L 395.890625 266.25 L 395.722656 266.128906 L 395.5625 265.996094 L 395.402344 265.859375 L 395.246094 265.710938 L 395.09375 265.5625 L 394.789063 265.257813 L 394.496094 264.941406 L 394.355469 264.78125 L 394.222656 264.617188 L 394.097656 264.449219 L 393.980469 264.273438 L 393.882813 264.09375 L 393.800781 263.898438 L 393.734375 263.695313 L 393.679688 263.488281 L 393.636719 263.273438 L 393.597656 263.058594 L 393.5625 262.839844 L 393.5 262.402344 L 393.449219 261.964844 L 393.425781 261.742188 L 393.394531 261.304688 L 393.386719 261.085938 L 393.386719 260.867188 L 393.402344 260.652344 L 393.429688 260.4375 L 393.46875 260.226563 L 393.515625 260.015625 L 393.570313 259.804688 L 393.800781 258.964844 L 393.855469 258.753906 L 393.90625 258.542969 L 393.953125 258.332031 L 393.984375 258.117188 L 394.007813 257.90625 L 394.023438 257.691406 L 394.03125 257.476563 L 394.03125 257.042969 L 394.019531 256.390625 L 394.019531 255.957031 L 394.023438 255.738281 L 394.035156 255.523438 L 394.050781 255.300781 L 394.078125 255.082031 L 394.136719 254.648438 L 394.214844 254.214844 L 394.300781 253.789063 L 394.351563 253.585938 L 394.40625 253.382813 L 394.472656 253.195313 L 394.550781 253.019531 L 394.644531 252.859375 L 394.761719 252.726563 L 394.910156 252.621094 L 395.078125 252.542969 L 395.261719 252.480469 L 395.460938 252.433594 L 395.667969 252.394531 L 395.878906 252.363281 L 396.09375 252.335938 L 396.535156 252.289063 L 397.644531 252.183594 L 398.085938 252.128906 L 398.304688 252.101563 L 398.519531 252.066406 L 398.734375 252.023438 L 398.945313 251.972656 L 399.152344 251.90625 L 399.347656 251.832031 L 399.539063 251.746094 L 399.730469 251.652344 L 399.917969 251.550781 L 400.839844 251.023438 L 401.023438 250.925781 L 401.210938 250.835938 L 401.398438 250.757813 L 401.585938 250.695313 L 401.78125 250.652344 L 401.988281 250.636719 L 402.199219 250.640625 L 402.410156 250.664063 L 402.625 250.695313 L 402.839844 250.738281 L 403.058594 250.785156 L 403.496094 250.890625 L 404.148438 251.066406 L 404.574219 251.191406 L 404.78125 251.257813 L 404.976563 251.332031 L 405.167969 251.414063 L 405.339844 251.507813 L 405.492188 251.613281 L 405.621094 251.746094 L 405.710938 251.902344 L 405.777344 252.078125 L 405.820313 252.269531 L 405.851563 252.46875 L 405.875 252.679688 L 405.925781 253.324219 L 405.949219 253.539063 L 405.980469 253.742188 L 406.023438 253.941406 L 406.085938 254.125 L 406.175781 254.292969 L 406.296875 254.4375 L 406.4375 254.5625 L 406.601563 254.675781 L 406.777344 254.78125 L 406.964844 254.875 L 407.160156 254.96875 L 407.355469 255.054688 L 407.757813 255.214844 L 407.960938 255.289063 L 408.160156 255.355469 L 408.355469 255.414063 L 408.550781 255.457031 L 408.734375 255.480469 L 408.910156 255.476563 L 409.074219 255.441406 L 409.222656 255.363281 L 409.359375 255.246094 L 409.484375 255.101563 L 409.605469 254.941406 L 409.71875 254.765625 L 409.828125 254.582031 L 409.9375 254.390625 L 410.148438 254 L 410.976563 252.402344 L 411.183594 252.003906 L 411.398438 251.613281 L 411.617188 251.226563 L 411.734375 251.039063 L 411.855469 250.855469 L 411.984375 250.675781 L 412.125 250.496094 L 412.269531 250.324219 L 412.421875 250.15625 L 412.582031 249.988281 L 412.902344 249.664063 L 413.390625 249.183594 L 414.867188 247.742188 L 415.683594 246.941406 L 416.171875 246.457031 L 416.640625 245.964844 L 417.257813 245.304688 L 418.324219 244.144531 L 418.628906 243.808594 L 418.925781 243.472656 L 419.066406 243.300781 L 419.207031 243.125 L 419.339844 242.945313 L 419.464844 242.761719 L 419.578125 242.566406 L 419.683594 242.367188 L 419.785156 242.164063 L 419.878906 241.953125 L 420.058594 241.535156 L 420.316406 240.898438 L 421.511719 237.910156 L 421.773438 237.273438 L 422.042969 236.640625 L 422.230469 236.226563 L 422.53125 235.617188 L 424.117188 234.054688 L 427.128906 233.054688 L 429.59375 232.6875 L 435.34375 231.679688 L 439.90625 230.3125 L 445.378906 226.859375 L 449.84375 223.042969 L 452.671875 219.957031 L 455.765625 215.78125 L 461.144531 211.417969 L 466.617188 208.144531 L 471.363281 205.507813 L 475.648438 203.507813 L 479.296875 201.871094 L 482.214844 200.050781 L 485.863281 196.871094 L 488.414063 193.785156 L 489.871094 190.882813 L 491.140625 186.707031 L 493.144531 183.804688 L 495.695313 180.535156 L 497.425781 177.269531 L 498.699219 174.09375 L 499.425781 170.644531 L 499.324219 165.839844 L 498.589844 161.667969 L 498.519531 161.375 L 497.578125 157.5 L 497.210938 154.960938 L 497.390625 152.695313 L 498.664063 150.335938 L 500.578125 149.152344 L 502.953125 148.96875 L 505.601563 149.417969 L 508.523438 150.953125 L 510.167969 152.945313 L 510.492188 154.296875 L 510.996094 156.390625 L 511.914063 160.015625 L 514.203125 163.640625 L 516.851563 165.632813 L 520.777344 166.167969 L 524.613281 165.4375 L 531.632813 161.164063 L 539.015625 153.808594 L 544.304688 149.085938 L 547.992188 144.738281 L 551.59375 141.183594 L 555.972656 137.460938 L 560.53125 133.464844 L 568.007813 128.554688 L 574.753906 123.648438 L 579.132813 120.46875 L 583.691406 116.652344 L 588.613281 111.929688 L 596.816406 104.480469 L 603.839844 100.480469 L 610.773438 96.480469 L 616.0625 93.207031 L 621.167969 89.480469 L 637.308594 78.394531 L 644.238281 74.304688 L 644.996094 73.84375 L 651.445313 69.941406 L 658.835938 66.574219 L 672.511719 57.574219 L 680.082031 52.847656 L 686.738281 48.304688 L 692.484375 44.941406 L 699.234375 41.847656 L 703.890625 40.117188 L 707.632813 39.839844 L 711.007813 39.5625 L 715.207031 40.097656 L 718.039063 40.910156 L 721.417969 40.996094 L 726.253906 39.628906 L 732.640625 38.078125 L 741.492188 36.792969 L 745.738281 36.875 L 746.394531 36.886719 L 749.253906 36.78125 L 753.816406 36.140625 L 754.363281 35.964844 L 758.652344 34.59375 L 762.210938 32.683594 L 765.308594 30.136719 L 765.851563 27.507813 L 765.574219 24.335938 L 765.292969 20.527344 L 765.925781 14.722656 L 767.652344 9.730469 L 770.203125 5.554688 L 773.484375 2.648438 L 776.765625 1.101563 L 781.511719 0.28125 L 786.53125 0 L 792.101563 0.535156 L 800.503906 2.246094 L 805.253906 3.417969 L 810.640625 6.402344 L 815.484375 9.207031 L 820.417969 12.28125 L 824.167969 16.445313 L 827.917969 21.335938 L 833.867188 31.304688 L 838.53125 37.644531 L 844.019531 45.070313 L 847.40625 50.960938 L 853.90625 62.828125 L 856.65625 69.71875 L 859.464844 75.035156 L 859.769531 75.605469 L 862.242188 80.226563 L 864.53125 85.847656 L 870.117188 97.171875 L 870.167969 97.265625 L 873.503906 103.335938 L 876.980469 108.316406 L 880.363281 112.03125 L 884.019531 114.925781 L 887.859375 119.273438 L 889.96875 124.4375 L 889.425781 127.792969 L 888.703125 132.328125 L 888.621094 137.859375 L 889.542969 144.027344 L 892.5625 149.550781 L 898.875 159.15625 L 899.792969 160.445313 L 903.632813 165.859375 L 909.394531 172.558594 L 913.964844 176.722656 L 917.710938 179.984375 L 920.820313 183.0625 L 923.472656 186.503906 L 927.320313 193.933594 L 929.972656 198.644531 L 933.726563 204.714844 L 937.292969 210.421875 L 940.585938 214.953125 L 949.277344 226 L 953.667969 231.164063 L 956.042969 233.96875 L 959.882813 237.59375 L 963.085938 241.03125 L 966.5625 246.195313 L 968.851563 252.996094 L 970.867188 257.886719 L 973.707031 263.777344 L 975.722656 268.128906 L 980.207031 276.191406 L 983.867188 280.085938 L 986.976563 284.070313 L 991.183594 289.234375 L 994.109375 293.761719 L 996.214844 297.296875 L 998.597656 303.003906 L 1001.433594 307.988281 L 1002.71875 312.246094 L 1003.183594 316.328125 L 1003.46875 324.398438 L 1001.742188 329.75 L 1001.160156 331.523438 L 999.742188 335.828125 L 999.292969 340.183594 L 1000.394531 344.171875 L 1003.140625 349.15625 L 1005.796875 354.230469 L 1008.449219 358.757813 L 1011.285156 361.929688 L 1014.761719 366.003906 L 1017.960938 369.171875 Z M 1022.4375 372.519531 " transform="matrix(1,0,0,-1,0,937)"/>
</g>
</svg>
