<?xml version="1.0" encoding="UTF-8"?>
<svg xmlns="http://www.w3.org/2000/svg" xmlns:xlink="http://www.w3.org/1999/xlink" width="908pt" height="1024pt" viewBox="0 0 908 1024" version="1.1">
<g id="surface1">
<path style="fill-rule:evenodd;fill:rgb(49.803162%,49.803162%,49.803162%);fill-opacity:0.5;stroke-width:1;stroke-linecap:butt;stroke-linejoin:miter;stroke:rgb(0%,0%,0%);stroke-opacity:1;stroke-miterlimit:10;" d="M 775.648438 1023.933594 L 775.574219 1024 L 659.140625 974.902344 L 0 566.714844 L 232.089844 0 L 712.699219 423.089844 L 751.839844 410.851563 L 751.867188 410.984375 L 751.902344 411.128906 L 751.945313 411.273438 L 752.042969 411.5625 L 752.152344 411.847656 L 752.265625 412.132813 L 752.386719 412.414063 L 752.449219 412.554688 L 752.589844 412.835938 L 752.738281 413.117188 L 752.96875 413.535156 L 753.203125 413.945313 L 753.367188 414.210938 L 753.449219 414.339844 L 753.539063 414.460938 L 753.632813 414.570313 L 753.734375 414.671875 L 753.847656 414.757813 L 753.972656 414.824219 L 754.105469 414.875 L 754.246094 414.914063 L 754.394531 414.945313 L 754.542969 414.96875 L 754.695313 414.988281 L 754.851563 415.003906 L 755.007813 415.015625 L 755.320313 415.03125 L 755.472656 415.027344 L 755.625 415.019531 L 755.777344 415 L 755.921875 414.96875 L 756.066406 414.917969 L 756.207031 414.859375 L 756.34375 414.785156 L 756.480469 414.707031 L 756.613281 414.621094 L 756.875 414.445313 L 757.128906 414.257813 L 757.25 414.160156 L 757.367188 414.0625 L 757.476563 413.960938 L 757.574219 413.851563 L 757.660156 413.738281 L 757.722656 413.617188 L 757.765625 413.488281 L 757.785156 413.347656 L 757.792969 413.203125 L 757.789063 413.054688 L 757.777344 412.902344 L 757.761719 412.746094 L 757.742188 412.59375 L 757.671875 412.121094 L 757.542969 411.332031 L 757.457031 410.863281 L 757.425781 410.707031 L 757.386719 410.550781 L 757.347656 410.398438 L 757.300781 410.242188 L 757.25 410.089844 L 757.195313 409.9375 L 757.136719 409.785156 L 757.015625 409.484375 L 756.921875 409.261719 L 786.042969 400.15625 L 786.234375 400.332031 L 786.453125 400.550781 L 786.558594 400.667969 L 786.652344 400.785156 L 786.738281 400.90625 L 786.808594 401.035156 L 786.859375 401.171875 L 786.894531 401.3125 L 786.917969 401.460938 L 786.9375 401.609375 L 786.949219 401.765625 L 786.957031 401.917969 L 786.960938 402.234375 L 786.960938 402.546875 L 786.949219 402.863281 L 786.941406 403.019531 L 786.929688 403.179688 L 786.914063 403.332031 L 786.894531 403.484375 L 786.847656 403.785156 L 786.726563 404.542969 L 786.6875 404.847656 L 786.671875 405 L 786.660156 405.15625 L 786.65625 405.316406 L 786.652344 405.472656 L 786.648438 405.792969 L 786.65625 406.429688 L 786.671875 406.90625 L 786.6875 407.222656 L 786.699219 407.378906 L 786.714844 407.539063 L 786.734375 407.695313 L 786.757813 407.847656 L 786.789063 408 L 786.886719 408.453125 L 786.941406 408.757813 L 786.960938 408.910156 L 786.972656 409.0625 L 786.976563 409.21875 L 786.972656 409.371094 L 786.96875 409.527344 L 786.953125 409.835938 L 786.917969 410.300781 L 786.808594 411.515625 L 786.808594 411.550781 L 786.769531 412.027344 L 786.734375 412.503906 L 786.722656 412.816406 L 786.722656 412.972656 L 786.730469 413.121094 L 786.746094 413.269531 L 786.773438 413.414063 L 786.820313 413.546875 L 786.886719 413.667969 L 786.96875 413.785156 L 787.0625 413.894531 L 787.164063 414 L 787.273438 414.101563 L 787.390625 414.199219 L 787.507813 414.292969 L 787.628906 414.382813 L 787.753906 414.46875 L 787.878906 414.546875 L 788.007813 414.617188 L 788.140625 414.675781 L 788.277344 414.71875 L 788.425781 414.742188 L 788.453125 414.742188 L 788.578125 414.746094 L 788.734375 414.742188 L 788.890625 414.726563 L 789.050781 414.703125 L 789.859375 414.570313 L 790.019531 414.550781 L 790.183594 414.53125 L 790.34375 414.523438 L 790.496094 414.527344 L 790.648438 414.535156 L 790.800781 414.546875 L 791.257813 414.605469 L 791.5625 414.65625 L 792.171875 414.765625 L 792.484375 414.832031 L 792.800781 414.902344 L 793.113281 414.972656 L 793.425781 415.054688 L 793.574219 415.097656 L 793.722656 415.144531 L 793.867188 415.199219 L 794.003906 415.265625 L 794.136719 415.34375 L 794.257813 415.433594 L 794.367188 415.542969 L 794.476563 415.65625 L 794.578125 415.78125 L 794.675781 415.90625 L 794.867188 416.167969 L 795.613281 417.25 L 795.902344 417.648438 L 796.203125 418.042969 L 796.507813 418.433594 L 796.714844 418.6875 L 796.824219 418.8125 L 796.933594 418.933594 L 797.046875 419.050781 L 797.164063 419.160156 L 797.285156 419.261719 L 797.542969 419.449219 L 797.679688 419.535156 L 797.949219 419.707031 L 798.640625 420.121094 L 798.914063 420.289063 L 799.179688 420.46875 L 799.308594 420.5625 L 799.429688 420.660156 L 799.542969 420.765625 L 799.648438 420.882813 L 799.742188 421.003906 L 799.832031 421.132813 L 799.921875 421.265625 L 800.003906 421.398438 L 800.160156 421.675781 L 800.238281 421.816406 L 800.308594 421.957031 L 800.378906 422.101563 L 800.441406 422.246094 L 800.5 422.394531 L 800.546875 422.550781 L 800.589844 422.707031 L 800.628906 422.863281 L 800.722656 423.34375 L 800.773438 423.664063 L 800.796875 423.824219 L 800.816406 423.988281 L 800.835938 424.148438 L 800.847656 424.308594 L 800.851563 424.46875 L 800.84375 424.625 L 800.828125 424.785156 L 800.796875 424.945313 L 800.761719 425.101563 L 800.722656 425.261719 L 800.675781 425.417969 L 800.582031 425.734375 L 800.480469 426.046875 L 800.375 426.359375 L 800.265625 426.671875 L 800.148438 426.976563 L 800.085938 427.128906 L 800.015625 427.273438 L 799.941406 427.414063 L 799.863281 427.550781 L 799.695313 427.820313 L 799.347656 428.351563 L 799.265625 428.488281 L 799.109375 428.761719 L 799.042969 428.902344 L 798.980469 429.046875 L 798.925781 429.195313 L 798.878906 429.347656 L 798.789063 429.65625 L 798.710938 429.964844 L 798.515625 430.742188 L 798.433594 431.050781 L 798.386719 431.207031 L 798.339844 431.359375 L 798.289063 431.511719 L 798.234375 431.660156 L 798.109375 431.953125 L 797.90625 432.390625 L 797.691406 432.824219 L 797.46875 433.25 L 797.394531 433.390625 L 797.3125 433.53125 L 797.226563 433.671875 L 797.046875 433.945313 L 796.855469 434.21875 L 796.664063 434.484375 L 796.566406 434.617188 L 796.464844 434.746094 L 796.359375 434.871094 L 796.253906 434.992188 L 796.140625 435.109375 L 796.019531 435.214844 L 795.894531 435.3125 L 795.757813 435.398438 L 795.617188 435.480469 L 795.476563 435.558594 L 795.328125 435.632813 L 794.582031 435.984375 L 794.289063 436.132813 L 794.148438 436.207031 L 794.144531 436.210938 L 794.007813 436.292969 L 793.871094 436.382813 L 793.746094 436.484375 L 793.636719 436.589844 L 793.535156 436.703125 L 793.4375 436.824219 L 793.347656 436.949219 L 793.261719 437.078125 L 793.175781 437.210938 L 793.097656 437.34375 L 793.023438 437.476563 L 792.953125 437.613281 L 792.894531 437.746094 L 792.847656 437.878906 L 792.820313 438.015625 L 792.808594 438.148438 L 792.828125 438.277344 L 792.867188 438.40625 L 792.921875 438.535156 L 792.988281 438.664063 L 793.144531 438.921875 L 793.316406 439.179688 L 793.582031 439.566406 L 793.75 439.828125 L 793.832031 439.960938 L 793.90625 440.09375 L 793.976563 440.230469 L 794.039063 440.378906 L 794.09375 440.53125 L 794.144531 440.683594 L 794.191406 440.835938 L 794.234375 440.992188 L 794.273438 441.148438 L 794.351563 441.464844 L 794.414063 441.78125 L 794.441406 441.941406 L 794.460938 442.101563 L 794.476563 442.261719 L 794.488281 442.421875 L 794.5 442.742188 L 794.503906 443.066406 L 794.5 443.550781 L 794.496094 444.195313 L 794.484375 444.679688 L 794.464844 445.28125 L 794.433594 445.882813 L 794.390625 446.523438 L 794.308594 447.675781 L 794.285156 448.003906 L 794.273438 448.328125 L 794.269531 448.488281 L 794.277344 448.648438 L 794.289063 448.804688 L 794.316406 448.953125 L 794.359375 449.097656 L 794.371094 449.128906 L 794.417969 449.226563 L 794.492188 449.351563 L 794.582031 449.472656 L 794.675781 449.589844 L 794.777344 449.703125 L 794.882813 449.816406 L 794.992188 449.929688 L 795.214844 450.152344 L 795.554688 450.476563 L 795.785156 450.6875 L 795.902344 450.785156 L 796.023438 450.878906 L 796.144531 450.960938 L 796.273438 451.035156 L 796.402344 451.09375 L 796.542969 451.132813 L 796.6875 451.15625 L 796.835938 451.167969 L 796.988281 451.171875 L 797.140625 451.171875 L 797.921875 451.132813 L 798.238281 451.121094 L 798.394531 451.121094 L 798.550781 451.125 L 798.710938 451.140625 L 798.875 451.160156 L 799.035156 451.183594 L 799.195313 451.210938 L 799.515625 451.269531 L 799.992188 451.371094 L 800.308594 451.445313 L 800.460938 451.484375 L 800.613281 451.527344 L 800.757813 451.578125 L 800.894531 451.636719 L 801.019531 451.707031 L 801.132813 451.792969 L 801.230469 451.898438 L 801.308594 452.019531 L 801.378906 452.152344 L 801.441406 452.292969 L 801.5 452.4375 L 801.601563 452.742188 L 801.699219 453.050781 L 801.835938 453.523438 L 801.921875 453.839844 L 801.960938 453.996094 L 802.027344 454.316406 L 802.152344 454.957031 L 802.21875 455.277344 L 802.253906 455.433594 L 802.292969 455.59375 L 802.335938 455.75 L 802.382813 455.90625 L 802.4375 456.0625 L 802.550781 456.367188 L 802.730469 456.828125 L 802.785156 456.980469 L 802.835938 457.128906 L 802.882813 457.28125 L 802.917969 457.433594 L 802.9375 457.582031 L 802.945313 457.730469 L 802.925781 457.878906 L 802.890625 458.027344 L 802.839844 458.175781 L 802.78125 458.320313 L 802.714844 458.46875 L 802.570313 458.761719 L 802.183594 459.492188 L 802.039063 459.785156 L 801.96875 459.933594 L 801.90625 460.082031 L 801.851563 460.234375 L 801.804688 460.386719 L 801.769531 460.542969 L 801.742188 460.699219 L 801.726563 460.855469 L 801.710938 461.015625 L 801.703125 461.175781 L 801.691406 461.496094 L 801.683594 461.980469 L 801.691406 462.300781 L 801.699219 462.457031 L 801.710938 462.617188 L 801.734375 462.769531 L 801.765625 462.925781 L 801.808594 463.070313 L 801.863281 463.21875 L 801.925781 463.359375 L 801.992188 463.503906 L 802.136719 463.785156 L 802.515625 464.484375 L 802.660156 464.765625 L 802.730469 464.90625 L 802.855469 465.195313 L 802.90625 465.339844 L 802.949219 465.496094 L 802.984375 465.648438 L 803.011719 465.804688 L 803.039063 465.964844 L 803.0625 466.125 L 803.101563 466.445313 L 803.207031 467.410156 L 803.25 467.726563 L 803.277344 467.886719 L 803.304688 468.042969 L 803.34375 468.195313 L 803.390625 468.347656 L 803.441406 468.492188 L 803.503906 468.632813 L 803.574219 468.769531 L 803.722656 469.042969 L 803.878906 469.3125 L 804.207031 469.847656 L 804.367188 470.117188 L 804.519531 470.390625 L 804.59375 470.527344 L 804.660156 470.667969 L 804.726563 470.816406 L 804.84375 471.121094 L 804.894531 471.273438 L 804.996094 471.582031 L 805.039063 471.734375 L 805.082031 471.890625 L 805.117188 472.042969 L 805.144531 472.199219 L 805.160156 472.355469 L 805.164063 472.507813 L 805.152344 472.664063 L 805.121094 472.816406 L 805.082031 472.972656 L 805.039063 473.128906 L 804.929688 473.433594 L 804.875 473.589844 L 804.753906 473.894531 L 804.625 474.199219 L 804.558594 474.347656 L 804.488281 474.496094 L 804.410156 474.640625 L 804.328125 474.78125 L 804.242188 474.914063 L 804.144531 475.042969 L 804.046875 475.167969 L 803.835938 475.414063 L 803.621094 475.65625 L 803.292969 476.015625 L 803.070313 476.25 L 802.957031 476.363281 L 802.839844 476.476563 L 802.722656 476.585938 L 802.605469 476.691406 L 802.363281 476.886719 L 802.117188 477.078125 L 801.738281 477.359375 L 801.484375 477.542969 L 801.230469 477.71875 L 801.097656 477.804688 L 800.96875 477.890625 L 800.835938 477.96875 L 800.699219 478.042969 L 800.5625 478.113281 L 800.421875 478.175781 L 800.28125 478.234375 L 799.710938 478.457031 L 799.4375 478.574219 L 799.308594 478.640625 L 799.183594 478.710938 L 799.070313 478.792969 L 798.972656 478.882813 L 798.882813 478.996094 L 798.8125 479.117188 L 798.746094 479.25 L 798.691406 479.386719 L 798.640625 479.53125 L 798.59375 479.679688 L 798.550781 479.828125 L 798.464844 480.132813 L 798.386719 480.4375 L 798.3125 480.746094 L 798.25 481.050781 L 798.226563 481.207031 L 798.207031 481.359375 L 798.195313 481.515625 L 798.195313 481.671875 L 798.203125 481.828125 L 798.214844 481.988281 L 798.269531 482.464844 L 798.289063 482.621094 L 798.300781 482.78125 L 798.308594 482.941406 L 798.308594 483.101563 L 798.300781 483.261719 L 798.285156 483.421875 L 798.25 483.742188 L 798.207031 484.0625 L 798.148438 484.378906 L 798.117188 484.535156 L 798.078125 484.6875 L 798.03125 484.835938 L 797.976563 484.976563 L 797.90625 485.109375 L 797.820313 485.234375 L 797.71875 485.347656 L 797.609375 485.457031 L 797.492188 485.5625 L 797.367188 485.664063 L 797.113281 485.863281 L 796.328125 486.445313 L 796.070313 486.644531 L 795.945313 486.746094 L 795.824219 486.847656 L 795.707031 486.957031 L 795.597656 487.070313 L 795.496094 487.1875 L 795.410156 487.316406 L 795.332031 487.449219 L 795.257813 487.585938 L 795.1875 487.726563 L 794.984375 488.152344 L 794.914063 488.296875 L 794.839844 488.433594 L 794.757813 488.574219 L 794.667969 488.714844 L 794.578125 488.847656 L 794.101563 489.515625 L 794.007813 489.652344 L 793.917969 489.785156 L 793.835938 489.925781 L 793.761719 490.066406 L 793.695313 490.210938 L 793.644531 490.359375 L 793.601563 490.511719 L 793.570313 490.671875 L 793.542969 490.828125 L 793.519531 490.988281 L 793.476563 491.3125 L 793.425781 491.804688 L 793.382813 492.296875 L 793.359375 492.613281 L 793.292969 493.84375 L 793.273438 494.152344 L 793.25 494.460938 L 793.214844 494.769531 L 793.167969 495.089844 L 793.117188 495.40625 L 792.867188 496.828125 L 792.765625 497.460938 L 792.71875 497.777344 L 792.65625 498.257813 L 792.519531 499.371094 L 792.464844 499.851563 L 792.429688 500.171875 L 792.417969 500.328125 L 792.40625 500.488281 L 792.398438 500.648438 L 792.394531 500.808594 L 792.398438 500.972656 L 792.40625 501.132813 L 792.421875 501.296875 L 792.453125 501.621094 L 792.488281 501.949219 L 792.570313 502.601563 L 792.632813 503.085938 L 792.683594 503.40625 L 792.714844 503.5625 L 792.75 503.71875 L 792.796875 503.867188 L 792.851563 504.007813 L 792.917969 504.140625 L 793.007813 504.261719 L 793.109375 504.371094 L 793.222656 504.476563 L 793.34375 504.578125 L 793.847656 504.976563 L 793.96875 505.078125 L 794.082031 505.1875 L 794.1875 505.304688 L 794.28125 505.425781 L 794.367188 505.554688 L 794.445313 505.691406 L 794.585938 505.972656 L 794.71875 506.261719 L 794.84375 506.558594 L 795.09375 507.148438 L 795.277344 507.59375 L 795.398438 507.890625 L 795.511719 508.183594 L 795.949219 509.355469 L 796.050781 509.652344 L 796.097656 509.800781 L 796.140625 509.949219 L 796.179688 510.097656 L 796.214844 510.25 L 796.242188 510.410156 L 796.261719 510.570313 L 796.277344 510.734375 L 796.289063 510.898438 L 796.296875 511.0625 L 796.308594 511.390625 L 796.3125 511.714844 L 796.308594 511.878906 L 796.296875 512.042969 L 796.285156 512.203125 L 796.261719 512.363281 L 796.230469 512.515625 L 796.191406 512.667969 L 796.097656 512.964844 L 795.832031 513.707031 L 795.730469 514.007813 L 795.6875 514.15625 L 795.648438 514.308594 L 795.632813 514.375 L 795.617188 514.457031 L 795.589844 514.605469 L 795.550781 514.90625 L 795.503906 515.359375 L 795.464844 515.816406 L 795.4375 516.292969 L 795.410156 516.78125 L 795.394531 517.269531 L 795.394531 517.59375 L 795.398438 517.753906 L 795.410156 517.914063 L 795.425781 518.074219 L 795.453125 518.226563 L 795.488281 518.378906 L 795.574219 518.683594 L 795.671875 518.980469 L 795.984375 519.878906 L 796.082031 520.179688 L 796.175781 520.484375 L 796.21875 520.636719 L 796.253906 520.789063 L 796.285156 520.941406 L 796.3125 521.097656 L 796.335938 521.253906 L 796.4375 522.039063 L 796.480469 522.351563 L 796.507813 522.507813 L 796.542969 522.660156 L 796.582031 522.8125 L 796.632813 522.96875 L 796.691406 523.117188 L 796.753906 523.269531 L 796.894531 523.566406 L 797.039063 523.863281 L 797.417969 524.597656 L 797.558594 524.894531 L 797.628906 525.039063 L 797.6875 525.191406 L 797.742188 525.339844 L 797.789063 525.492188 L 797.820313 525.644531 L 797.832031 525.792969 L 797.832031 525.945313 L 797.820313 526.097656 L 797.804688 526.25 L 797.785156 526.40625 L 797.757813 526.5625 L 797.703125 526.871094 L 797.546875 527.648438 L 797.460938 528.117188 L 797.414063 528.429688 L 797.394531 528.585938 L 797.378906 528.746094 L 797.371094 528.898438 L 797.371094 529.054688 L 797.375 529.207031 L 797.386719 529.519531 L 797.414063 529.980469 L 797.445313 530.289063 L 797.464844 530.441406 L 797.484375 530.589844 L 797.511719 530.738281 L 797.546875 530.878906 L 797.59375 531.019531 L 797.652344 531.148438 L 797.726563 531.273438 L 797.816406 531.386719 L 797.910156 531.5 L 798.015625 531.609375 L 798.328125 531.925781 L 798.425781 532.035156 L 798.519531 532.148438 L 798.597656 532.261719 L 798.660156 532.386719 L 798.699219 532.519531 L 798.726563 532.660156 L 798.734375 532.808594 L 798.738281 532.957031 L 798.730469 533.109375 L 798.722656 533.265625 L 798.691406 533.578125 L 798.613281 534.210938 L 798.566406 534.527344 L 798.515625 534.84375 L 798.488281 535 L 798.453125 535.15625 L 798.414063 535.316406 L 798.320313 535.636719 L 798.128906 536.265625 L 798.085938 536.421875 L 798.046875 536.574219 L 798.015625 536.726563 L 797.992188 536.878906 L 797.988281 537.027344 L 798.003906 537.171875 L 798.042969 537.304688 L 798.101563 537.4375 L 798.175781 537.5625 L 798.261719 537.691406 L 798.351563 537.8125 L 798.550781 538.058594 L 798.960938 538.550781 L 799.0625 538.675781 L 799.160156 538.800781 L 799.25 538.929688 L 799.339844 539.0625 L 799.417969 539.199219 L 799.484375 539.335938 L 799.542969 539.480469 L 799.59375 539.625 L 799.644531 539.773438 L 799.6875 539.925781 L 799.773438 540.226563 L 800.007813 541.144531 L 800.089844 541.449219 L 800.175781 541.753906 L 800.226563 541.902344 L 800.277344 542.058594 L 800.390625 542.367188 L 800.574219 542.824219 L 800.703125 543.125 L 800.769531 543.273438 L 800.839844 543.421875 L 800.914063 543.566406 L 800.992188 543.710938 L 801.078125 543.847656 L 801.167969 543.984375 L 801.460938 544.382813 L 801.761719 544.769531 L 801.96875 545.023438 L 802.070313 545.148438 L 802.175781 545.265625 L 802.285156 545.378906 L 802.394531 545.484375 L 802.503906 545.574219 L 802.621094 545.648438 L 802.746094 545.699219 L 802.878906 545.71875 L 803.015625 545.714844 L 803.160156 545.691406 L 803.304688 545.65625 L 803.457031 545.617188 L 803.757813 545.515625 L 804.21875 545.351563 L 804.371094 545.300781 L 804.527344 545.253906 L 804.679688 545.214844 L 804.835938 545.179688 L 804.992188 545.15625 L 805.148438 545.144531 L 805.304688 545.144531 L 805.460938 545.148438 L 806.089844 545.195313 L 806.246094 545.199219 L 806.402344 545.195313 L 806.558594 545.183594 L 806.707031 545.15625 L 806.855469 545.121094 L 807.003906 545.078125 L 807.152344 545.03125 L 807.300781 544.976563 L 807.738281 544.816406 L 807.886719 544.765625 L 808.03125 544.71875 L 808.179688 544.679688 L 808.324219 544.652344 L 808.472656 544.636719 L 808.625 544.636719 L 808.777344 544.65625 L 808.929688 544.683594 L 809.082031 544.714844 L 809.234375 544.757813 L 809.539063 544.847656 L 809.847656 544.945313 L 810.152344 545.046875 L 810.457031 545.152344 L 810.605469 545.207031 L 810.757813 545.261719 L 810.902344 545.324219 L 811.046875 545.390625 L 811.183594 545.460938 L 811.316406 545.542969 L 811.441406 545.632813 L 811.558594 545.734375 L 811.667969 545.839844 L 811.777344 545.949219 L 811.886719 546.066406 L 812.410156 546.65625 L 812.621094 546.886719 L 812.730469 547 L 812.84375 547.105469 L 812.960938 547.207031 L 813.082031 547.300781 L 813.210938 547.390625 L 813.347656 547.46875 L 813.488281 547.539063 L 813.777344 547.675781 L 814.214844 547.871094 L 814.355469 547.9375 L 814.496094 548.007813 L 814.632813 548.078125 L 814.761719 548.160156 L 814.878906 548.246094 L 814.988281 548.347656 L 815.074219 548.460938 L 815.152344 548.582031 L 815.21875 548.714844 L 815.28125 548.855469 L 815.335938 549 L 815.488281 549.445313 L 815.8125 550.511719 L 815.910156 550.8125 L 816.011719 551.117188 L 816.0625 551.265625 L 816.179688 551.574219 L 816.304688 551.878906 L 816.492188 552.339844 L 816.683594 552.796875 L 816.8125 553.097656 L 816.949219 553.394531 L 817.019531 553.535156 L 817.097656 553.671875 L 817.179688 553.800781 L 817.273438 553.917969 L 817.378906 554.019531 L 817.496094 554.101563 L 817.628906 554.171875 L 817.769531 554.226563 L 817.914063 554.277344 L 818.066406 554.320313 L 818.222656 554.359375 L 818.535156 554.429688 L 819.171875 554.570313 L 819.488281 554.644531 L 819.644531 554.6875 L 819.800781 554.734375 L 819.953125 554.789063 L 820.097656 554.84375 L 820.238281 554.910156 L 820.523438 555.046875 L 821.214844 555.414063 L 821.496094 555.558594 L 821.792969 555.703125 L 822.535156 556.054688 L 822.683594 556.128906 L 822.828125 556.203125 L 822.96875 556.28125 L 823.105469 556.367188 L 823.238281 556.460938 L 823.351563 556.558594 L 823.464844 556.660156 L 823.570313 556.769531 L 823.675781 556.882813 L 823.878906 557.117188 L 824.28125 557.589844 L 824.484375 557.820313 L 824.589844 557.929688 L 824.699219 558.03125 L 824.8125 558.128906 L 824.933594 558.214844 L 825.066406 558.289063 L 825.203125 558.355469 L 825.347656 558.410156 L 825.492188 558.460938 L 825.792969 558.550781 L 826.554688 558.765625 L 826.855469 558.859375 L 827.003906 558.910156 L 827.300781 559.019531 L 827.59375 559.136719 L 828.617188 559.558594 L 829.054688 559.734375 L 829.351563 559.847656 L 829.648438 559.949219 L 829.804688 559.996094 L 829.960938 560.035156 L 830.277344 560.113281 L 831.074219 560.292969 L 831.386719 560.375 L 831.539063 560.417969 L 831.6875 560.46875 L 831.835938 560.53125 L 831.972656 560.601563 L 832.09375 560.675781 L 832.210938 560.761719 L 832.324219 560.855469 L 832.433594 560.953125 L 832.542969 561.054688 L 832.972656 561.464844 L 833.082031 561.566406 L 833.207031 561.671875 L 833.457031 561.878906 L 833.585938 561.976563 L 833.847656 562.171875 L 834.109375 562.363281 L 834.246094 562.457031 L 834.378906 562.546875 L 834.515625 562.632813 L 834.652344 562.714844 L 834.792969 562.789063 L 834.9375 562.855469 L 835.074219 562.910156 L 835.21875 562.953125 L 835.363281 562.992188 L 835.507813 563.023438 L 835.65625 563.054688 L 835.804688 563.082031 L 836.105469 563.128906 L 836.40625 563.164063 L 836.554688 563.175781 L 836.707031 563.1875 L 836.871094 563.191406 L 837.195313 563.1875 L 837.683594 563.175781 L 837.847656 563.171875 L 838.007813 563.175781 L 838.164063 563.183594 L 838.324219 563.199219 L 838.476563 563.226563 L 838.625 563.269531 L 838.769531 563.320313 L 838.910156 563.382813 L 839.050781 563.449219 L 839.332031 563.59375 L 839.605469 563.75 L 839.878906 563.914063 L 840.011719 563.996094 L 840.140625 564.082031 L 840.269531 564.175781 L 840.390625 564.269531 L 840.503906 564.371094 L 840.609375 564.480469 L 840.703125 564.605469 L 840.789063 564.734375 L 840.867188 564.875 L 841.160156 565.4375 L 841.234375 565.566406 L 841.320313 565.691406 L 841.410156 565.800781 L 841.515625 565.894531 L 841.636719 565.96875 L 841.773438 566.019531 L 841.914063 566.058594 L 842.066406 566.089844 L 842.222656 566.113281 L 842.382813 566.132813 L 842.542969 566.148438 L 843.199219 566.195313 L 843.527344 566.210938 L 843.691406 566.214844 L 843.851563 566.210938 L 844.007813 566.207031 L 844.160156 566.191406 L 844.308594 566.164063 L 844.453125 566.117188 L 844.582031 566.054688 L 844.703125 565.972656 L 844.820313 565.878906 L 844.9375 565.78125 L 845.050781 565.675781 L 845.496094 565.226563 L 845.609375 565.117188 L 845.726563 565.011719 L 845.847656 564.914063 L 845.976563 564.816406 L 846.113281 564.726563 L 846.25 564.640625 L 846.386719 564.558594 L 846.53125 564.480469 L 846.816406 564.332031 L 846.960938 564.257813 L 847.105469 564.191406 L 847.253906 564.128906 L 847.398438 564.070313 L 847.550781 564.023438 L 847.703125 563.988281 L 847.855469 563.964844 L 848.007813 563.957031 L 848.164063 563.953125 L 848.320313 563.957031 L 848.636719 563.976563 L 849.113281 564.019531 L 849.589844 564.070313 L 849.90625 564.113281 L 850.066406 564.136719 L 850.21875 564.167969 L 850.375 564.203125 L 850.523438 564.242188 L 850.671875 564.289063 L 850.960938 564.394531 L 851.25 564.507813 L 851.539063 564.628906 L 851.824219 564.753906 L 851.964844 564.820313 L 852.109375 564.890625 L 852.394531 565.035156 L 853.105469 565.402344 L 853.957031 565.851563 L 854.238281 566.003906 L 854.519531 566.160156 L 854.917969 566.398438 L 855.3125 566.644531 L 855.703125 566.894531 L 855.960938 567.070313 L 856.21875 567.257813 L 856.472656 567.457031 L 857.359375 568.183594 L 857.613281 568.378906 L 857.742188 568.472656 L 857.875 568.5625 L 858.007813 568.640625 L 858.144531 568.707031 L 858.285156 568.757813 L 858.429688 568.785156 L 858.578125 568.800781 L 858.726563 568.800781 L 858.882813 568.792969 L 859.035156 568.78125 L 859.191406 568.765625 L 859.824219 568.683594 L 860.144531 568.644531 L 860.300781 568.632813 L 860.460938 568.625 L 860.617188 568.621094 L 860.773438 568.621094 L 861.085938 568.636719 L 861.394531 568.664063 L 861.550781 568.683594 L 861.703125 568.707031 L 861.859375 568.730469 L 861.96875 568.753906 L 862.007813 568.761719 L 862.15625 568.800781 L 862.308594 568.851563 L 862.457031 568.910156 L 862.605469 568.976563 L 862.75 569.046875 L 863.039063 569.191406 L 863.472656 569.417969 L 863.757813 569.574219 L 864.042969 569.734375 L 864.179688 569.820313 L 864.3125 569.910156 L 864.441406 570.003906 L 864.566406 570.105469 L 864.679688 570.214844 L 864.78125 570.332031 L 864.882813 570.457031 L 864.976563 570.582031 L 865.0625 570.714844 L 865.140625 570.847656 L 865.210938 570.984375 L 865.273438 571.121094 L 865.316406 571.257813 L 865.34375 571.398438 L 865.34375 571.535156 L 865.324219 571.675781 L 865.292969 571.816406 L 865.25 571.960938 L 865.203125 572.101563 L 865.148438 572.246094 L 865.136719 572.277344 L 865.03125 572.535156 L 864.722656 573.253906 L 864.605469 573.542969 L 864.492188 573.832031 L 864.386719 574.121094 L 864.234375 574.558594 L 863.9375 575.433594 L 863.574219 576.484375 L 863.472656 576.785156 L 863.375 577.089844 L 863.289063 577.394531 L 863.253906 577.546875 L 863.226563 577.703125 L 863.199219 577.863281 L 863.164063 578.179688 L 863.148438 578.339844 L 863.148438 578.375 L 863.125 578.660156 L 863.113281 578.980469 L 863.113281 579.136719 L 863.117188 579.292969 L 863.128906 579.445313 L 863.152344 579.597656 L 863.1875 579.742188 L 863.246094 579.886719 L 863.320313 580.023438 L 863.40625 580.15625 L 863.5 580.289063 L 863.597656 580.414063 L 863.703125 580.535156 L 863.816406 580.65625 L 863.929688 580.765625 L 864.050781 580.871094 L 864.183594 580.964844 L 864.3125 581.039063 L 864.453125 581.109375 L 864.59375 581.167969 L 864.742188 581.222656 L 865.039063 581.320313 L 865.191406 581.367188 L 865.496094 581.453125 L 865.804688 581.535156 L 865.957031 581.570313 L 866.109375 581.601563 L 866.265625 581.628906 L 866.425781 581.652344 L 866.585938 581.667969 L 866.910156 581.691406 L 867.234375 581.710938 L 868.046875 581.746094 L 868.367188 581.765625 L 868.527344 581.78125 L 868.6875 581.804688 L 868.84375 581.832031 L 868.996094 581.871094 L 869.144531 581.917969 L 869.285156 581.972656 L 869.429688 582.039063 L 869.566406 582.109375 L 869.707031 582.179688 L 869.84375 582.257813 L 870.117188 582.417969 L 870.25 582.5 L 870.382813 582.585938 L 870.511719 582.679688 L 870.636719 582.773438 L 870.753906 582.871094 L 870.871094 582.972656 L 871.097656 583.183594 L 871.753906 583.847656 L 871.765625 583.855469 L 871.976563 584.0625 L 872.089844 584.167969 L 872.207031 584.273438 L 872.324219 584.371094 L 872.582031 584.566406 L 872.714844 584.65625 L 872.984375 584.835938 L 873.523438 585.1875 L 873.789063 585.371094 L 873.921875 585.464844 L 874.046875 585.566406 L 874.164063 585.671875 L 874.277344 585.777344 L 874.382813 585.882813 L 875.699219 588.011719 L 875.710938 588.085938 L 875.726563 588.242188 L 875.742188 588.550781 L 875.75 588.707031 L 875.75 588.863281 L 875.746094 589.019531 L 875.734375 589.179688 L 875.71875 589.339844 L 875.683594 589.597656 L 875.675781 589.660156 L 875.628906 589.980469 L 875.574219 590.300781 L 875.464844 590.933594 L 875.402344 591.25 L 875.367188 591.40625 L 875.324219 591.5625 L 875.28125 591.714844 L 875.230469 591.863281 L 875.175781 592.007813 L 875.054688 592.292969 L 874.929688 592.578125 L 874.597656 593.28125 L 874.472656 593.566406 L 874.414063 593.707031 L 874.355469 593.851563 L 874.304688 593.996094 L 874.261719 594.144531 L 874.226563 594.292969 L 874.195313 594.445313 L 874.171875 594.597656 L 874.152344 594.75 L 874.117188 595.058594 L 874.042969 595.835938 L 874.007813 596.144531 L 873.96875 596.453125 L 873.941406 596.605469 L 873.910156 596.757813 L 873.871094 596.917969 L 873.828125 597.078125 L 873.78125 597.238281 L 873.679688 597.550781 L 873.523438 598.019531 L 873.425781 598.328125 L 873.386719 598.480469 L 873.355469 598.632813 L 873.335938 598.777344 L 873.332031 598.921875 L 873.355469 599.054688 L 873.402344 599.179688 L 873.472656 599.296875 L 873.554688 599.410156 L 873.652344 599.519531 L 873.757813 599.625 L 873.867188 599.730469 L 873.984375 599.835938 L 874.21875 600.042969 L 875.65625 601.285156 L 876.019531 601.597656 L 876.398438 601.914063 L 876.78125 602.230469 L 877.039063 602.4375 L 877.300781 602.632813 L 877.433594 602.730469 L 877.570313 602.820313 L 877.710938 602.902344 L 877.851563 602.976563 L 877.996094 603.042969 L 878.144531 603.105469 L 878.296875 603.164063 L 879.207031 603.496094 L 879.359375 603.554688 L 879.507813 603.613281 L 879.601563 603.660156 L 879.652344 603.679688 L 879.789063 603.753906 L 879.925781 603.835938 L 880.050781 603.929688 L 880.171875 604.03125 L 880.289063 604.140625 L 880.402344 604.253906 L 880.625 604.492188 L 881.0625 604.976563 L 881.277344 605.210938 L 881.492188 605.4375 L 882.144531 606.105469 L 882.355469 606.332031 L 882.460938 606.449219 L 882.5625 606.566406 L 882.65625 606.683594 L 882.746094 606.808594 L 882.832031 606.941406 L 882.914063 607.074219 L 882.988281 607.214844 L 883.128906 607.496094 L 883.257813 607.785156 L 883.378906 608.074219 L 883.433594 608.222656 L 883.484375 608.367188 L 883.527344 608.515625 L 883.558594 608.664063 L 883.578125 608.8125 L 883.582031 608.957031 L 883.574219 609.105469 L 883.558594 609.253906 L 883.503906 609.550781 L 883.375 610.152344 L 883.34375 610.300781 L 883.320313 610.449219 L 883.296875 610.601563 L 883.285156 610.753906 L 883.28125 610.824219 L 883.28125 610.910156 L 883.285156 611.066406 L 883.296875 611.226563 L 883.3125 611.382813 L 883.328125 611.542969 L 883.371094 611.859375 L 883.441406 612.332031 L 883.496094 612.648438 L 883.527344 612.800781 L 883.5625 612.957031 L 883.601563 613.105469 L 883.644531 613.253906 L 883.699219 613.398438 L 883.765625 613.535156 L 883.84375 613.660156 L 883.933594 613.78125 L 884.136719 614.007813 L 884.578125 614.449219 L 884.683594 614.5625 L 884.78125 614.679688 L 884.871094 614.796875 L 884.953125 614.925781 L 885.015625 615.058594 L 885.070313 615.195313 L 885.117188 615.339844 L 885.15625 615.488281 L 885.1875 615.636719 L 885.246094 615.941406 L 885.300781 616.25 L 885.347656 616.558594 L 885.390625 616.871094 L 885.410156 617.023438 L 885.4375 617.335938 L 885.445313 617.492188 L 885.449219 617.644531 L 885.449219 617.796875 L 885.445313 618.253906 L 885.445313 618.402344 L 885.453125 618.554688 L 885.464844 618.703125 L 885.488281 618.851563 L 885.523438 619.007813 L 885.570313 619.160156 L 885.625 619.3125 L 885.6875 619.464844 L 885.753906 619.613281 L 885.890625 619.910156 L 886.042969 620.203125 L 886.121094 620.34375 L 886.203125 620.484375 L 886.292969 620.617188 L 886.386719 620.742188 L 886.492188 620.859375 L 886.605469 620.960938 L 886.730469 621.054688 L 886.863281 621.136719 L 887 621.21875 L 887.140625 621.292969 L 887.429688 621.441406 L 887.71875 621.582031 L 888.160156 621.792969 L 888.601563 622 L 888.894531 622.132813 L 889.042969 622.195313 L 889.195313 622.253906 L 889.339844 622.304688 L 889.34375 622.304688 L 889.496094 622.351563 L 889.648438 622.386719 L 889.804688 622.417969 L 889.960938 622.441406 L 890.117188 622.460938 L 890.433594 622.496094 L 891.382813 622.578125 L 891.695313 622.617188 L 891.847656 622.644531 L 891.996094 622.679688 L 892.144531 622.722656 L 892.28125 622.777344 L 892.417969 622.851563 L 892.542969 622.941406 L 892.667969 623.039063 L 892.789063 623.144531 L 892.90625 623.253906 L 893.019531 623.367188 L 893.132813 623.484375 L 893.242188 623.601563 L 893.347656 623.722656 L 893.449219 623.847656 L 893.542969 623.972656 L 893.628906 624.097656 L 893.699219 624.230469 L 893.753906 624.371094 L 893.785156 624.515625 L 893.796875 624.664063 L 893.796875 624.820313 L 893.789063 624.976563 L 893.773438 625.136719 L 893.753906 625.300781 L 893.707031 625.625 L 893.628906 626.113281 L 893.542969 626.601563 L 893.480469 626.921875 L 893.445313 627.082031 L 893.40625 627.238281 L 893.359375 627.390625 L 893.300781 627.542969 L 893.234375 627.6875 L 893.160156 627.824219 L 893.078125 627.964844 L 892.992188 628.097656 L 892.808594 628.367188 L 892.652344 628.582031 L 892.617188 628.628906 L 892.421875 628.890625 L 892.222656 629.144531 L 892.121094 629.269531 L 892.015625 629.394531 L 891.90625 629.511719 L 891.792969 629.625 L 891.558594 629.839844 L 891.085938 630.261719 L 890.96875 630.371094 L 890.859375 630.480469 L 890.753906 630.59375 L 890.65625 630.714844 L 890.5625 630.847656 L 890.476563 630.984375 L 890.398438 631.125 L 890.324219 631.273438 L 890.183594 631.570313 L 890.046875 631.871094 L 889.847656 632.324219 L 889.71875 632.628906 L 889.65625 632.78125 L 889.597656 632.933594 L 889.542969 633.085938 L 889.496094 633.242188 L 889.460938 633.394531 L 889.4375 633.550781 L 889.429688 633.699219 L 889.433594 633.851563 L 889.449219 634 L 889.46875 634.152344 L 889.492188 634.300781 L 889.519531 634.453125 L 889.585938 634.757813 L 889.65625 635.058594 L 889.691406 635.210938 L 889.773438 635.511719 L 889.820313 635.65625 L 889.871094 635.804688 L 889.929688 635.949219 L 889.996094 636.09375 L 890.132813 636.382813 L 890.355469 636.804688 L 891.191406 638.347656 L 891.953125 639.730469 L 892.175781 640.148438 L 892.316406 640.425781 L 892.382813 640.566406 L 892.441406 640.710938 L 892.496094 640.855469 L 892.539063 641 L 892.574219 641.152344 L 892.597656 641.304688 L 892.613281 641.460938 L 892.625 641.617188 L 892.65625 642.246094 L 892.667969 642.402344 L 892.683594 642.558594 L 892.703125 642.710938 L 892.734375 642.859375 L 892.777344 643.007813 L 892.832031 643.140625 L 892.898438 643.273438 L 892.972656 643.402344 L 893.054688 643.53125 L 893.140625 643.65625 L 893.230469 643.78125 L 893.417969 644.023438 L 893.613281 644.265625 L 893.8125 644.5 L 893.914063 644.617188 L 894.019531 644.726563 L 894.140625 644.84375 L 894.382813 645.0625 L 894.632813 645.277344 L 895.527344 646.011719 L 896.042969 646.425781 L 896.304688 646.628906 L 896.4375 646.726563 L 896.570313 646.820313 L 896.707031 646.90625 L 896.839844 646.984375 L 896.976563 647.058594 L 897.253906 647.199219 L 897.957031 647.53125 L 898.234375 647.667969 L 898.371094 647.738281 L 898.507813 647.8125 L 898.644531 647.890625 L 898.777344 647.972656 L 899.039063 648.140625 L 899.300781 648.316406 L 899.6875 648.582031 L 900.074219 648.851563 L 900.328125 649.03125 L 900.453125 649.125 L 900.695313 649.320313 L 900.808594 649.421875 L 900.917969 649.527344 L 901.027344 649.648438 L 901.125 649.769531 L 901.222656 649.898438 L 901.316406 650.03125 L 901.769531 650.699219 L 901.957031 650.960938 L 902.054688 651.089844 L 902.15625 651.210938 L 902.265625 651.328125 L 902.375 651.433594 L 902.492188 651.53125 L 902.613281 651.625 L 902.738281 651.71875 L 903.242188 652.078125 L 903.484375 652.265625 L 903.601563 652.367188 L 903.71875 652.480469 L 903.828125 652.59375 L 903.9375 652.714844 L 904.148438 652.960938 L 904.355469 653.210938 L 904.464844 653.347656 L 904.558594 653.46875 L 904.753906 653.722656 L 904.851563 653.855469 L 904.941406 653.984375 L 905.023438 654.117188 L 905.101563 654.25 L 905.164063 654.390625 L 905.214844 654.53125 L 905.242188 654.679688 L 905.257813 654.835938 L 905.257813 654.992188 L 905.25 655.152344 L 905.234375 655.316406 L 905.222656 655.433594 L 905.214844 655.476563 L 905.195313 655.640625 L 905.144531 655.96875 L 905.082031 656.292969 L 905.050781 656.453125 L 905.011719 656.613281 L 904.964844 656.773438 L 904.917969 656.921875 L 904.863281 657.066406 L 904.632813 657.648438 L 904.578125 657.796875 L 904.53125 657.941406 L 904.488281 658.089844 L 904.457031 658.238281 L 904.433594 658.394531 L 904.421875 658.550781 L 904.421875 658.871094 L 904.429688 659.03125 L 904.449219 659.355469 L 904.507813 660 L 904.554688 660.488281 L 904.597656 660.808594 L 904.621094 660.96875 L 904.675781 661.28125 L 904.761719 661.753906 L 905.230469 664.128906 L 905.289063 664.453125 L 905.316406 664.613281 L 905.339844 664.777344 L 905.359375 664.9375 L 905.375 665.09375 L 905.394531 665.40625 L 905.414063 665.871094 L 905.421875 666.339844 L 905.421875 666.652344 L 905.417969 666.964844 L 905.414063 667.121094 L 905.402344 667.273438 L 905.386719 667.429688 L 905.367188 667.578125 L 905.339844 667.730469 L 905.3125 667.878906 L 905.246094 668.175781 L 905.070313 668.917969 L 905.007813 669.21875 L 904.980469 669.367188 L 904.953125 669.527344 L 904.910156 669.851563 L 904.863281 670.339844 L 904.839844 670.664063 L 904.828125 670.828125 L 904.820313 671.152344 L 904.820313 671.3125 L 904.824219 671.472656 L 904.835938 671.789063 L 904.878906 672.582031 L 904.890625 672.898438 L 904.894531 673.058594 L 904.894531 673.214844 L 904.886719 673.371094 L 904.875 673.527344 L 904.851563 673.679688 L 904.820313 673.828125 L 904.777344 673.972656 L 904.675781 674.261719 L 904.617188 674.402344 L 904.375 674.976563 L 904.257813 675.261719 L 904.203125 675.40625 L 904.15625 675.554688 L 904.117188 675.703125 L 904.082031 675.855469 L 904.058594 676.007813 L 904.039063 676.164063 L 904.027344 676.320313 L 904.023438 676.472656 L 904.023438 676.625 L 904.03125 676.777344 L 904.050781 676.921875 L 904.082031 677.0625 L 904.132813 677.199219 L 904.199219 677.324219 L 904.289063 677.441406 L 904.386719 677.554688 L 904.496094 677.660156 L 904.609375 677.765625 L 904.726563 677.871094 L 905.214844 678.277344 L 905.449219 678.488281 L 905.558594 678.59375 L 905.664063 678.707031 L 905.753906 678.824219 L 905.835938 678.949219 L 905.898438 679.085938 L 905.945313 679.230469 L 905.984375 679.382813 L 906.015625 679.535156 L 906.042969 679.691406 L 906.0625 679.851563 L 906.121094 680.335938 L 906.128906 680.382813 L 906.164063 680.65625 L 906.191406 680.816406 L 906.222656 680.972656 L 906.257813 681.128906 L 906.300781 681.277344 L 906.351563 681.425781 L 906.40625 681.570313 L 906.523438 681.855469 L 906.839844 682.566406 L 906.960938 682.851563 L 907.078125 683.140625 L 907.191406 683.453125 L 907.292969 683.765625 L 907.441406 684.238281 L 907.679688 685.027344 L 907.820313 685.5 L 907.902344 685.816406 L 907.941406 685.976563 L 907.96875 686.132813 L 907.992188 686.292969 L 908 686.449219 L 907.996094 686.597656 L 907.980469 686.746094 L 907.925781 687.042969 L 907.855469 687.339844 L 907.773438 687.636719 L 907.640625 688.078125 L 907.488281 688.511719 L 907.425781 688.660156 L 907.363281 688.804688 L 907.164063 689.238281 L 906.816406 689.953125 L 906.539063 690.523438 L 906.394531 690.804688 L 906.242188 691.082031 L 906.160156 691.214844 L 906.074219 691.347656 L 905.984375 691.472656 L 905.882813 691.589844 L 905.777344 691.699219 L 905.664063 691.808594 L 905.550781 691.914063 L 905.3125 692.121094 L 905.070313 692.324219 L 904.703125 692.625 L 904.457031 692.820313 L 904.207031 693.007813 L 904.082031 693.097656 L 903.957031 693.179688 L 903.828125 693.253906 L 903.695313 693.316406 L 903.558594 693.363281 L 903.414063 693.390625 L 903.261719 693.402344 L 903.109375 693.402344 L 902.953125 693.390625 L 902.796875 693.375 L 902.640625 693.355469 L 902.324219 693.308594 L 901.84375 693.226563 L 901.527344 693.164063 L 901.214844 693.097656 L 900.292969 692.886719 L 899.984375 692.820313 L 899.832031 692.792969 L 899.675781 692.769531 L 899.523438 692.753906 L 899.359375 692.746094 L 899.199219 692.742188 L 899.035156 692.742188 L 898.871094 692.75 L 898.382813 692.777344 L 897.238281 692.859375 L 896.75 692.898438 L 896.425781 692.929688 L 895.132813 693.054688 L 894.648438 693.105469 L 894.335938 693.152344 L 894.179688 693.183594 L 894.03125 693.222656 L 893.886719 693.269531 L 893.746094 693.332031 L 893.621094 693.40625 L 893.503906 693.496094 L 893.390625 693.597656 L 893.28125 693.703125 L 893.175781 693.816406 L 893.070313 693.933594 L 892.867188 694.171875 L 892.566406 694.539063 L 892.371094 694.789063 L 892.277344 694.917969 L 892.1875 695.046875 L 892.101563 695.179688 L 892.023438 695.3125 L 891.875 695.582031 L 891.660156 695.996094 L 891.582031 696.132813 L 891.503906 696.265625 L 891.421875 696.394531 L 891.328125 696.519531 L 891.234375 696.640625 L 891.132813 696.757813 L 891.027344 696.875 L 890.8125 697.105469 L 890.484375 697.441406 L 890.261719 697.660156 L 890.035156 697.871094 L 889.917969 697.972656 L 889.800781 698.066406 L 889.679688 698.148438 L 889.554688 698.222656 L 889.425781 698.277344 L 889.285156 698.316406 L 889.140625 698.335938 L 888.992188 698.347656 L 888.839844 698.347656 L 888.6875 698.34375 L 888.53125 698.332031 L 888.058594 698.304688 L 887.898438 698.296875 L 887.742188 698.296875 L 887.582031 698.304688 L 887.429688 698.316406 L 887.125 698.363281 L 886.972656 698.394531 L 886.667969 698.464844 L 886.371094 698.546875 L 886.222656 698.59375 L 886.078125 698.640625 L 885.941406 698.695313 L 885.808594 698.757813 L 885.683594 698.828125 L 885.570313 698.914063 L 885.472656 699.011719 L 885.386719 699.125 L 885.308594 699.246094 L 885.238281 699.375 L 885.175781 699.507813 L 885.117188 699.644531 L 885.0625 699.785156 L 885.011719 699.925781 L 884.96875 700.070313 L 884.933594 700.210938 L 884.914063 700.355469 L 884.90625 700.5 L 884.914063 700.648438 L 884.9375 700.796875 L 884.976563 700.945313 L 885.019531 701.09375 L 885.070313 701.242188 L 885.179688 701.539063 L 885.355469 701.984375 L 885.539063 702.425781 L 885.667969 702.714844 L 885.734375 702.855469 L 885.804688 702.996094 L 885.882813 703.132813 L 885.964844 703.265625 L 886.054688 703.394531 L 886.152344 703.515625 L 886.253906 703.636719 L 886.472656 703.867188 L 886.695313 704.097656 L 887.492188 704.882813 L 887.828125 705.222656 L 888.046875 705.457031 L 888.152344 705.574219 L 888.253906 705.695313 L 888.355469 705.824219 L 888.453125 705.957031 L 888.542969 706.09375 L 888.726563 706.367188 L 888.902344 706.644531 L 889.070313 706.921875 L 889.152344 707.0625 L 889.15625 707.070313 L 889.230469 707.207031 L 889.300781 707.347656 L 889.363281 707.492188 L 889.417969 707.636719 L 889.453125 707.789063 L 889.472656 707.9375 L 889.476563 708.09375 L 889.46875 708.25 L 889.429688 708.5625 L 889.40625 708.722656 L 889.347656 709.042969 L 889.285156 709.363281 L 889.21875 709.679688 L 889.144531 709.996094 L 889.101563 710.148438 L 889.050781 710.300781 L 888.996094 710.449219 L 888.929688 710.589844 L 888.855469 710.722656 L 888.765625 710.847656 L 888.671875 710.972656 L 888.46875 711.207031 L 888.253906 711.441406 L 888.035156 711.671875 L 887.699219 712.011719 L 887.476563 712.234375 L 887.363281 712.34375 L 887.128906 712.546875 L 887.007813 712.636719 L 886.882813 712.71875 L 886.753906 712.785156 L 886.613281 712.835938 L 886.464844 712.875 L 886.3125 712.898438 L 886.15625 712.917969 L 886 712.933594 L 885.839844 712.941406 L 885.519531 712.953125 L 885.199219 712.960938 L 884.550781 712.96875 L 884.226563 712.96875 L 884.066406 712.964844 L 883.738281 712.949219 L 882.917969 712.898438 L 882.617188 712.886719 L 882.585938 712.886719 L 882.421875 712.882813 L 882.101563 712.890625 L 881.941406 712.902344 L 881.625 712.925781 L 881.308594 712.960938 L 881.15625 712.980469 L 881.003906 713.007813 L 880.859375 713.042969 L 880.71875 713.085938 L 880.589844 713.140625 L 880.472656 713.210938 L 880.367188 713.304688 L 880.28125 713.414063 L 880.199219 713.535156 L 880.125 713.667969 L 880.058594 713.804688 L 879.929688 714.09375 L 879.808594 714.386719 L 879.6875 714.6875 L 879.515625 715.136719 L 879.460938 715.285156 L 879.414063 715.433594 L 879.371094 715.585938 L 879.257813 715.875 L 878.695313 717.355469 L 877.257813 720.445313 L 876.601563 722.234375 L 876.542969 722.375 L 876.488281 722.519531 L 876.441406 722.667969 L 876.390625 722.816406 L 874.902344 725.496094 L 871.496094 728.679688 L 869.65625 729.90625 L 867.960938 731.035156 L 866.8125 732.21875 L 866.757813 732.363281 L 866.710938 732.511719 L 866.664063 732.664063 L 866.625 732.820313 L 866.46875 733.46875 L 866.398438 733.789063 L 866.367188 733.949219 L 866.339844 734.105469 L 866.316406 734.261719 L 866.300781 734.414063 L 866.300781 734.558594 L 866.316406 734.699219 L 866.351563 734.828125 L 866.417969 734.941406 L 866.5 735.046875 L 866.601563 735.144531 L 866.714844 735.234375 L 866.835938 735.324219 L 866.964844 735.410156 L 867.09375 735.492188 L 867.632813 735.824219 L 867.898438 735.996094 L 867.984375 736.050781 L 868.03125 736.082031 L 868.15625 736.171875 L 868.277344 736.269531 L 868.390625 736.367188 L 868.492188 736.476563 L 868.585938 736.597656 L 868.667969 736.726563 L 868.746094 736.859375 L 868.816406 736.996094 L 868.882813 737.136719 L 868.945313 737.28125 L 869.070313 737.574219 L 869.246094 738.015625 L 869.355469 738.3125 L 869.410156 738.464844 L 869.507813 738.769531 L 869.695313 739.382813 L 869.878906 740 L 869.964844 740.3125 L 870.003906 740.464844 L 870.042969 740.621094 L 870.074219 740.773438 L 870.101563 740.929688 L 870.121094 741.082031 L 870.128906 741.238281 L 870.125 741.390625 L 870.105469 741.542969 L 870.082031 741.695313 L 870.050781 741.847656 L 869.933594 742.304688 L 869.84375 742.605469 L 869.75 742.90625 L 869.640625 743.203125 L 869.582031 743.34375 L 869.511719 743.484375 L 869.433594 743.625 L 869.347656 743.761719 L 869.253906 743.894531 L 869.058594 744.15625 L 868.859375 744.410156 L 868.136719 745.304688 L 867.9375 745.5625 L 867.742188 745.820313 L 867.644531 745.953125 L 867.554688 746.089844 L 867.46875 746.226563 L 867.308594 746.507813 L 867.152344 746.792969 L 866.851563 747.367188 L 866.695313 747.652344 L 866.617188 747.789063 L 866.375 748.199219 L 866.128906 748.601563 L 865.878906 749.003906 L 865.707031 749.265625 L 865.527344 749.523438 L 865.433594 749.644531 L 865.332031 749.765625 L 865.226563 749.875 L 865.109375 749.980469 L 864.988281 750.078125 L 864.863281 750.171875 L 864.730469 750.261719 L 864.464844 750.433594 L 864.457031 750.4375 L 863.925781 750.769531 L 863.792969 750.855469 L 863.664063 750.945313 L 863.539063 751.039063 L 863.421875 751.136719 L 863.3125 751.238281 L 863.214844 751.351563 L 863.132813 751.476563 L 863.0625 751.613281 L 863 751.753906 L 862.945313 751.898438 L 862.894531 752.046875 L 862.75 752.503906 L 862.648438 752.808594 L 862.589844 752.957031 L 862.527344 753.101563 L 862.457031 753.242188 L 862.382813 753.382813 L 862.300781 753.519531 L 862.132813 753.785156 L 861.863281 754.183594 L 861.320313 754.96875 L 861.050781 755.367188 L 860.882813 755.636719 L 860.804688 755.773438 L 860.730469 755.914063 L 860.59375 756.199219 L 860.46875 756.488281 L 860.21875 757.070313 L 860.042969 757.511719 L 859.933594 757.804688 L 859.882813 757.953125 L 859.839844 758.101563 L 859.800781 758.25 L 859.773438 758.402344 L 859.753906 758.558594 L 859.75 758.714844 L 859.75 758.871094 L 859.753906 759.027344 L 859.761719 759.1875 L 859.816406 759.984375 L 859.820313 760.140625 L 859.824219 760.300781 L 859.824219 760.457031 L 859.8125 760.769531 L 859.769531 761.394531 L 859.746094 761.863281 L 859.746094 762.019531 L 859.75 762.175781 L 859.773438 762.488281 L 859.816406 762.800781 L 859.867188 763.117188 L 859.925781 763.425781 L 860.019531 763.894531 L 860.058594 764.046875 L 860.097656 764.203125 L 860.183594 764.503906 L 860.335938 764.953125 L 860.492188 765.402344 L 860.652344 765.847656 L 860.820313 766.289063 L 860.9375 766.582031 L 860.996094 766.726563 L 861.0625 766.867188 L 861.210938 767.140625 L 861.390625 767.398438 L 861.582031 767.644531 L 861.589844 767.65625 L 861.675781 767.769531 L 861.761719 767.894531 L 861.835938 768.027344 L 861.898438 768.160156 L 861.9375 768.296875 L 861.964844 768.441406 L 861.980469 768.585938 L 861.988281 768.738281 L 861.992188 768.890625 L 861.984375 769.195313 L 861.96875 769.664063 L 861.960938 769.972656 L 861.960938 770.125 L 861.964844 770.277344 L 861.976563 770.429688 L 862 770.574219 L 862.03125 770.71875 L 862.085938 770.863281 L 862.152344 771.003906 L 862.230469 771.140625 L 862.3125 771.277344 L 862.402344 771.410156 L 862.59375 771.671875 L 862.796875 771.925781 L 862.898438 772.050781 L 863.003906 772.175781 L 863.113281 772.292969 L 863.230469 772.40625 L 863.347656 772.515625 L 863.472656 772.617188 L 863.597656 772.714844 L 863.726563 772.808594 L 863.988281 772.996094 L 864.777344 773.542969 L 865.039063 773.730469 L 865.289063 773.925781 L 865.410156 774.03125 L 865.523438 774.140625 L 865.628906 774.253906 L 865.730469 774.371094 L 865.828125 774.492188 L 866.015625 774.746094 L 866.195313 775.003906 L 866.375 775.265625 L 866.90625 776.050781 L 867.078125 776.3125 L 867.160156 776.445313 L 867.238281 776.582031 L 867.308594 776.71875 L 867.375 776.855469 L 867.429688 777 L 867.472656 777.148438 L 867.503906 777.300781 L 867.53125 777.457031 L 867.550781 777.613281 L 867.578125 777.933594 L 867.640625 778.898438 L 867.664063 779.21875 L 867.703125 779.539063 L 867.75 779.859375 L 867.859375 780.496094 L 868.152344 782.089844 L 868.273438 782.730469 L 868.585938 784.335938 L 868.671875 784.820313 L 868.714844 785.128906 L 868.753906 785.433594 L 868.78125 785.734375 L 868.808594 786.039063 L 868.832031 786.339844 L 868.839844 786.492188 L 868.855469 786.808594 L 868.863281 787.125 L 868.878906 788.070313 L 868.890625 788.382813 L 868.898438 788.539063 L 868.910156 788.695313 L 868.925781 788.847656 L 868.949219 789 L 868.984375 789.152344 L 869.023438 789.296875 L 869.074219 789.441406 L 869.128906 789.585938 L 869.25 789.867188 L 869.507813 790.429688 L 869.566406 790.570313 L 869.621094 790.714844 L 869.667969 790.859375 L 869.707031 791.003906 L 869.734375 791.160156 L 869.75 791.316406 L 869.761719 791.472656 L 869.765625 791.632813 L 869.761719 791.949219 L 869.75 792.269531 L 869.742188 792.429688 L 869.730469 792.589844 L 869.71875 792.746094 L 869.699219 792.902344 L 869.671875 793.058594 L 869.636719 793.207031 L 869.589844 793.355469 L 869.527344 793.496094 L 869.449219 793.632813 L 869.363281 793.765625 L 869.273438 793.894531 L 869.175781 794.023438 L 869.074219 794.148438 L 868.964844 794.269531 L 868.855469 794.386719 L 868.742188 794.503906 L 868.507813 794.714844 L 868.386719 794.8125 L 868.015625 795.105469 L 866.886719 795.96875 L 866.390625 796.351563 L 866.019531 796.648438 L 865.035156 797.441406 L 864.664063 797.738281 L 864.414063 797.925781 L 864.285156 798.019531 L 864.027344 798.199219 L 863.246094 798.726563 L 862.992188 798.910156 L 862.859375 799.007813 L 862.472656 799.3125 L 861.457031 800.140625 L 861.199219 800.34375 L 861.066406 800.441406 L 860.9375 800.539063 L 860.800781 800.632813 L 860.667969 800.71875 L 860.398438 800.882813 L 859.710938 801.277344 L 859.578125 801.359375 L 859.445313 801.445313 L 859.316406 801.535156 L 859.191406 801.628906 L 859.074219 801.734375 L 858.960938 801.84375 L 858.851563 801.957031 L 858.746094 802.074219 L 858.539063 802.3125 L 858.234375 802.679688 L 857.929688 803.050781 L 857.734375 803.300781 L 857.539063 803.554688 L 857.445313 803.683594 L 857.355469 803.808594 L 857.269531 803.941406 L 857.101563 804.203125 L 856.773438 804.738281 L 856.453125 805.273438 L 856.300781 805.546875 L 856.230469 805.683594 L 856.164063 805.820313 L 856.105469 805.960938 L 856.050781 806.105469 L 856.011719 806.257813 L 855.976563 806.414063 L 855.949219 806.574219 L 855.929688 806.734375 L 855.894531 807.054688 L 855.816406 808.03125 L 855.773438 808.515625 L 855.734375 808.839844 L 855.6875 809.144531 L 855.628906 809.449219 L 855.570313 809.75 L 855.414063 810.507813 L 855.316406 810.941406 L 855.277344 811.125 L 854.921875 812.707031 L 854.789063 813.34375 L 854.628906 814.144531 L 854.355469 815.585938 L 854.207031 816.378906 L 854.03125 817.324219 L 853.921875 817.957031 L 853.875 818.273438 L 853.828125 818.59375 L 853.628906 820.195313 L 853.59375 820.515625 L 853.566406 820.832031 L 853.558594 820.992188 L 853.558594 821.148438 L 853.570313 821.300781 L 853.589844 821.453125 L 853.628906 821.597656 L 853.679688 821.742188 L 853.738281 821.882813 L 853.804688 822.023438 L 853.875 822.160156 L 853.949219 822.300781 L 854.183594 822.710938 L 854.425781 823.121094 L 854.597656 823.394531 L 854.777344 823.667969 L 855.414063 824.628906 L 855.589844 824.90625 L 855.675781 825.046875 L 855.757813 825.1875 L 855.90625 825.453125 L 856.046875 825.722656 L 856.464844 826.535156 L 856.53125 826.664063 L 856.6875 826.945313 L 856.933594 827.363281 L 857.183594 827.777344 L 857.6875 828.609375 L 857.945313 829.019531 L 858.121094 829.289063 L 858.210938 829.421875 L 858.304688 829.554688 L 858.496094 829.816406 L 858.792969 830.203125 L 859.492188 831.09375 L 859.691406 831.351563 L 859.886719 831.609375 L 860.066406 831.875 L 860.148438 832.011719 L 860.222656 832.152344 L 860.289063 832.292969 L 860.34375 832.4375 L 860.394531 832.582031 L 860.4375 832.730469 L 860.480469 832.882813 L 860.515625 833.035156 L 860.578125 833.339844 L 860.597656 833.492188 L 860.613281 833.648438 L 860.617188 833.804688 L 860.613281 833.960938 L 860.605469 834.117188 L 860.558594 834.585938 L 860.484375 835.210938 L 860.449219 835.527344 L 860.425781 835.839844 L 860.417969 835.996094 L 860.417969 836.316406 L 860.429688 836.636719 L 860.457031 837.117188 L 860.535156 838.238281 L 860.550781 838.558594 L 860.554688 838.71875 L 860.554688 838.878906 L 860.546875 839.035156 L 860.535156 839.195313 L 860.511719 839.351563 L 860.480469 839.507813 L 860.445313 839.664063 L 860.40625 839.816406 L 860.363281 839.972656 L 860.273438 840.28125 L 860.175781 840.585938 L 860.125 840.738281 L 860.015625 841.039063 L 859.957031 841.1875 L 859.890625 841.335938 L 859.816406 841.480469 L 859.738281 841.625 L 859.65625 841.765625 L 859.480469 842.042969 L 859.125 842.597656 L 858.945313 842.875 L 858.78125 843.152344 L 858.621094 843.429688 L 858.316406 843.984375 L 858.019531 844.539063 L 857.878906 844.820313 L 857.8125 844.960938 L 857.753906 845.105469 L 857.703125 845.246094 L 857.660156 845.390625 L 857.628906 845.539063 L 857.613281 845.691406 L 857.613281 845.847656 L 857.625 846.003906 L 857.640625 846.160156 L 857.660156 846.316406 L 857.726563 846.792969 L 857.746094 846.953125 L 857.757813 847.109375 L 857.757813 847.265625 L 857.746094 847.421875 L 857.71875 847.578125 L 857.679688 847.730469 L 857.628906 847.882813 L 857.570313 848.035156 L 857.507813 848.183594 L 857.441406 848.335938 L 857.296875 848.632813 L 857.222656 848.78125 L 857.144531 848.925781 L 857.0625 849.066406 L 856.976563 849.207031 L 856.882813 849.339844 L 856.78125 849.464844 L 856.671875 849.585938 L 856.5625 849.699219 L 856.445313 849.8125 L 856.328125 849.921875 L 856.207031 850.027344 L 856.082031 850.132813 L 855.957031 850.230469 L 855.828125 850.320313 L 855.695313 850.402344 L 855.554688 850.476563 L 855.40625 850.535156 L 855.253906 850.578125 L 855.101563 850.617188 L 854.941406 850.648438 L 854.617188 850.703125 L 854.128906 850.769531 L 853.800781 850.804688 L 853.636719 850.820313 L 853.476563 850.832031 L 853.3125 850.84375 L 853.148438 850.847656 L 852.984375 850.84375 L 852.820313 850.832031 L 852.65625 850.816406 L 852.328125 850.765625 L 851.839844 850.683594 L 851.566406 850.640625 L 851.515625 850.632813 L 851.359375 850.613281 L 851.203125 850.601563 L 851.050781 850.601563 L 850.902344 850.613281 L 850.761719 850.648438 L 850.636719 850.703125 L 850.515625 850.78125 L 850.402344 850.871094 L 850.289063 850.96875 L 850.179688 851.078125 L 850.074219 851.1875 L 849.863281 851.421875 L 849.652344 851.660156 L 849.238281 852.148438 L 848.929688 852.515625 L 848.730469 852.765625 L 848.433594 853.144531 L 848.144531 853.527344 L 847.957031 853.785156 L 847.867188 853.917969 L 847.78125 854.046875 L 847.613281 854.3125 L 847.132813 855.109375 L 847.046875 855.238281 L 846.960938 855.363281 L 846.871094 855.488281 L 846.777344 855.605469 L 846.671875 855.714844 L 846.558594 855.820313 L 846.433594 855.917969 L 846.300781 856.011719 L 846.167969 856.097656 L 845.890625 856.265625 L 845.1875 856.671875 L 844.910156 856.839844 L 844.636719 857.019531 L 844.503906 857.113281 L 844.246094 857.3125 L 843.992188 857.519531 L 843.617188 857.832031 L 843.246094 858.152344 L 843 858.367188 L 842.878906 858.476563 L 842.761719 858.589844 L 842.648438 858.703125 L 842.542969 858.824219 L 842.441406 858.945313 L 842.355469 859.074219 L 842.273438 859.203125 L 842.199219 859.335938 L 842.125 859.476563 L 841.988281 859.753906 L 841.855469 860.039063 L 841.664063 860.46875 L 841.40625 861.042969 L 841.28125 861.335938 L 841.089844 861.789063 L 840.902344 862.238281 L 840.785156 862.542969 L 840.675781 862.847656 L 840.628906 863 L 840.589844 863.152344 L 840.5625 863.308594 L 840.542969 863.453125 L 840.539063 863.601563 L 840.535156 863.746094 L 840.539063 863.894531 L 840.558594 864.195313 L 840.582031 864.492188 L 840.699219 865.777344 L 840.726563 866.101563 L 840.746094 866.425781 L 840.753906 866.585938 L 840.757813 866.746094 L 840.753906 866.90625 L 840.742188 867.0625 L 840.71875 867.21875 L 840.683594 867.371094 L 840.636719 867.523438 L 840.582031 867.675781 L 840.457031 867.972656 L 840.320313 868.265625 L 839.816406 869.296875 L 839.675781 869.59375 L 839.609375 869.742188 L 839.546875 869.890625 L 839.488281 870.039063 L 839.433594 870.191406 L 839.390625 870.34375 L 839.355469 870.503906 L 839.328125 870.664063 L 839.308594 870.824219 L 839.277344 871.152344 L 839.257813 871.480469 L 839.242188 871.8125 L 839.222656 872.308594 L 839.214844 872.640625 L 839.207031 873.125 L 839.207031 873.769531 L 839.210938 874.417969 L 838.585938 877.433594 L 836.929688 880.699219 L 835.230469 883.605469 L 834.464844 884.296875 L 834.394531 884.417969 L 834.335938 884.554688 L 834.292969 884.699219 L 834.265625 884.851563 L 834.242188 885.007813 L 834.230469 885.167969 L 834.21875 885.332031 L 834.183594 886.324219 L 834.164063 886.652344 L 834.152344 886.808594 L 834.121094 887.121094 L 833.996094 888.210938 L 833.964844 888.519531 L 833.953125 888.675781 L 833.949219 888.832031 L 833.945313 888.984375 L 833.949219 889.140625 L 833.964844 889.296875 L 833.984375 889.453125 L 834.011719 889.609375 L 834.042969 889.761719 L 834.074219 889.917969 L 834.148438 890.230469 L 834.378906 891.160156 L 834.492188 891.628906 L 834.585938 892.097656 L 834.605469 892.253906 L 834.625 892.414063 L 834.636719 892.578125 L 834.644531 892.738281 L 834.652344 893.0625 L 834.652344 893.386719 L 834.648438 893.550781 L 834.644531 893.710938 L 834.621094 894.03125 L 834.597656 894.1875 L 834.570313 894.34375 L 834.53125 894.496094 L 834.480469 894.640625 L 834.425781 894.789063 L 834.304688 895.078125 L 833.980469 895.796875 L 833.851563 896.085938 L 833.792969 896.230469 L 833.738281 896.378906 L 833.691406 896.527344 L 833.648438 896.671875 L 833.613281 896.820313 L 833.582031 896.972656 L 833.554688 897.121094 L 833.503906 897.425781 L 833.335938 898.492188 L 833.253906 898.957031 L 832.976563 900.5 L 832.925781 900.8125 L 832.878906 901.128906 L 832.792969 901.765625 L 832.742188 902.246094 L 832.71875 902.5625 L 832.710938 902.722656 L 832.710938 903.046875 L 832.726563 903.371094 L 832.75 903.691406 L 832.808594 904.503906 L 832.851563 904.984375 L 832.890625 905.300781 L 832.914063 905.457031 L 832.945313 905.605469 L 832.984375 905.75 L 833.035156 905.886719 L 833.101563 906.015625 L 833.191406 906.125 L 833.296875 906.230469 L 833.410156 906.324219 L 833.535156 906.414063 L 833.667969 906.496094 L 833.742188 906.542969 L 833.800781 906.582031 L 834.210938 906.828125 L 835.046875 907.074219 L 833.210938 912.886719 L 831.214844 919.222656 L 829.472656 918.769531 L 829.46875 918.925781 L 829.457031 919.085938 L 829.441406 919.242188 L 829.417969 919.402344 L 829.390625 919.566406 L 829.320313 919.882813 L 829.242188 920.203125 L 829.082031 920.839844 L 829.007813 921.15625 L 828.972656 921.316406 L 828.941406 921.476563 L 828.878906 921.800781 L 828.691406 922.929688 L 828.632813 923.253906 L 828.566406 923.574219 L 828.527344 923.730469 L 828.484375 923.886719 L 828.382813 924.175781 L 828.261719 924.460938 L 828.070313 924.882813 L 827.9375 925.164063 L 827.796875 925.441406 L 827.652344 925.714844 L 827.578125 925.847656 L 827.496094 925.980469 L 827.414063 926.109375 L 827.238281 926.355469 L 826.878906 926.84375 L 826.792969 926.964844 L 826.710938 927.089844 L 826.632813 927.214844 L 826.566406 927.34375 L 826.507813 927.480469 L 826.457031 927.628906 L 826.421875 927.78125 L 826.394531 927.9375 L 826.375 928.097656 L 826.34375 928.421875 L 825.507813 930.71875 L 822.800781 934.246094 L 820.882813 936.070313 L 820.730469 936.101563 L 820.585938 936.144531 L 820.449219 936.195313 L 820.324219 936.257813 L 820.21875 936.339844 L 820.136719 936.445313 L 820.074219 936.570313 L 820.023438 936.707031 L 819.984375 936.855469 L 819.949219 937.007813 L 819.917969 937.164063 L 819.867188 937.488281 L 819.78125 938.144531 L 819.75 938.472656 L 819.738281 938.636719 L 819.734375 938.796875 L 819.734375 938.957031 L 819.75 939.117188 L 819.773438 939.269531 L 819.808594 939.421875 L 819.851563 939.574219 L 819.898438 939.726563 L 819.953125 939.875 L 820.167969 940.472656 L 820.222656 940.621094 L 820.269531 940.773438 L 820.316406 940.921875 L 820.351563 941.074219 L 820.378906 941.226563 L 820.394531 941.378906 L 820.402344 941.535156 L 820.402344 941.691406 L 820.398438 941.847656 L 820.390625 942.003906 L 820.367188 942.316406 L 820.308594 942.945313 L 820.253906 943.417969 L 820.15625 944.179688 L 820.136719 944.351563 L 820.050781 944.96875 L 820.003906 945.277344 L 819.976563 945.433594 L 819.945313 945.585938 L 819.910156 945.734375 L 819.871094 945.882813 L 819.820313 946.035156 L 819.761719 946.183594 L 819.699219 946.332031 L 819.632813 946.476563 L 819.496094 946.769531 L 819.066406 947.636719 L 818.921875 947.925781 L 818.773438 948.210938 L 818.621094 948.492188 L 818.539063 948.628906 L 818.453125 948.761719 L 818.359375 948.890625 L 818.257813 949.015625 L 818.152344 949.132813 L 818.039063 949.25 L 817.925781 949.363281 L 817.460938 949.816406 L 817.347656 949.933594 L 817.269531 950.019531 L 817.140625 950.160156 L 816.9375 950.398438 L 816.738281 950.636719 L 816.347656 951.121094 L 816.160156 951.367188 L 816.066406 951.488281 L 815.894531 951.746094 L 815.8125 951.875 L 815.734375 952.011719 L 815.664063 952.152344 L 815.597656 952.296875 L 815.46875 952.585938 L 815.289063 953.027344 L 815.175781 953.320313 L 815.066406 953.617188 L 815.019531 953.765625 L 814.976563 953.914063 L 814.941406 954.0625 L 814.917969 954.207031 L 814.550781 956.003906 L 814.398438 956.757813 L 813.433594 960.671875 L 813.390625 960.820313 L 813.359375 960.972656 L 813.34375 961.121094 L 813.347656 961.265625 L 813.367188 961.410156 L 813.394531 961.554688 L 813.433594 961.699219 L 813.476563 961.84375 L 813.574219 962.132813 L 813.726563 962.570313 L 813.820313 962.863281 L 813.863281 963.011719 L 813.898438 963.160156 L 813.929688 963.316406 L 813.957031 963.472656 L 813.996094 963.785156 L 814.027344 964.101563 L 814.050781 964.417969 L 814.082031 964.890625 L 814.09375 965.210938 L 814.097656 965.371094 L 814.097656 965.535156 L 814.09375 965.859375 L 814.078125 966.183594 L 814.0625 966.34375 L 814.042969 966.5 L 814.015625 966.65625 L 813.980469 966.8125 L 813.933594 966.957031 L 813.875 967.097656 L 813.8125 967.238281 L 813.746094 967.375 L 813.597656 967.648438 L 813.441406 967.921875 L 813.285156 968.191406 L 813.039063 968.589844 L 812.953125 968.71875 L 812.863281 968.847656 L 812.769531 968.972656 L 812.671875 969.09375 L 812.574219 969.210938 L 812.363281 969.441406 L 812.148438 969.667969 L 811.605469 970.226563 L 811.390625 970.457031 L 811.289063 970.570313 L 811.1875 970.6875 L 811.09375 970.8125 L 811.003906 970.933594 L 810.917969 971.058594 L 810.835938 971.183594 L 810.679688 971.441406 L 810.527344 971.707031 L 810.304688 972.105469 L 810.085938 972.515625 L 809.511719 973.636719 L 809.292969 974.054688 L 809.144531 974.332031 L 808.988281 974.605469 L 808.816406 974.875 L 808.636719 975.140625 L 808.082031 975.933594 L 807.808594 976.332031 L 807.632813 976.601563 L 807.121094 977.414063 L 806.945313 977.683594 L 806.851563 977.8125 L 806.757813 977.9375 L 806.660156 978.058594 L 806.457031 978.285156 L 806.136719 978.617188 L 805.589844 979.160156 L 805.023438 979.707031 L 804.792969 979.925781 L 804.554688 980.140625 L 804.316406 980.347656 L 804.191406 980.445313 L 804.066406 980.539063 L 803.9375 980.628906 L 803.796875 980.707031 L 803.648438 980.78125 L 803.5 980.847656 L 803.351563 980.910156 L 803.195313 980.972656 L 802.890625 981.085938 L 802.578125 981.191406 L 802.425781 981.238281 L 802.269531 981.28125 L 802.117188 981.316406 L 801.96875 981.339844 L 801.820313 981.347656 L 801.675781 981.339844 L 801.535156 981.300781 L 801.398438 981.246094 L 801.265625 981.175781 L 801.132813 981.09375 L 801.003906 981.003906 L 800.875 980.910156 L 800.617188 980.710938 L 800.476563 980.601563 L 799.714844 979.996094 L 799.324219 979.695313 L 799.191406 979.601563 L 798.933594 979.421875 L 798.671875 979.25 L 798.410156 979.085938 L 798.144531 978.925781 L 798.011719 978.851563 L 797.878906 978.785156 L 797.746094 978.722656 L 797.613281 978.675781 L 797.480469 978.640625 L 797.34375 978.625 L 797.207031 978.632813 L 797.074219 978.664063 L 796.9375 978.707031 L 796.800781 978.765625 L 796.664063 978.828125 L 796.527344 978.894531 L 796.253906 979.042969 L 795.980469 979.199219 L 795.714844 979.363281 L 795.582031 979.449219 L 795.453125 979.535156 L 795.328125 979.628906 L 795.210938 979.726563 L 795.097656 979.832031 L 794.988281 979.941406 L 794.882813 980.058594 L 794.683594 980.296875 L 794.390625 980.667969 L 794.101563 981.042969 L 793.816406 981.421875 L 793.628906 981.679688 L 793.355469 982.070313 L 792.902344 982.730469 L 792.726563 982.996094 L 792.640625 983.128906 L 792.558594 983.261719 L 792.484375 983.394531 L 792.417969 983.527344 L 792.363281 983.660156 L 790.703125 986.34375 L 788.523438 990.351563 L 786.652344 995.488281 L 786.308594 998.839844 L 786.464844 1000.8125 L 786.484375 1001.101563 L 786.585938 1002.734375 L 786.578125 1002.886719 L 786.582031 1003.042969 L 786.597656 1003.199219 L 786.621094 1003.355469 L 786.652344 1003.511719 L 786.683594 1003.671875 L 786.902344 1004.628906 L 787.003906 1005.101563 L 787.089844 1005.574219 L 787.171875 1006.050781 L 787.242188 1006.519531 L 787.257813 1006.675781 L 787.269531 1006.832031 L 787.273438 1006.984375 L 787.265625 1007.132813 L 787.242188 1007.28125 L 787.199219 1007.429688 L 787.140625 1007.570313 L 787.074219 1007.710938 L 786.996094 1007.851563 L 786.914063 1007.988281 L 786.828125 1008.128906 L 786.648438 1008.398438 L 786.464844 1008.671875 L 786.09375 1009.214844 L 785.808594 1009.617188 L 785.617188 1009.882813 L 785.515625 1010.007813 L 785.410156 1010.132813 L 785.304688 1010.25 L 785.191406 1010.367188 L 784.960938 1010.585938 L 784.371094 1011.128906 L 784.136719 1011.34375 L 783.90625 1011.566406 L 783.796875 1011.683594 L 783.6875 1011.804688 L 783.480469 1012.050781 L 783.277344 1012.308594 L 782.589844 1013.210938 L 782.390625 1013.46875 L 782.183594 1013.71875 L 782.078125 1013.835938 L 781.96875 1013.953125 L 781.855469 1014.058594 L 781.734375 1014.160156 L 781.601563 1014.246094 L 781.464844 1014.324219 L 781.324219 1014.394531 L 781.175781 1014.460938 L 781.027344 1014.523438 L 780.546875 1014.714844 L 780.425781 1014.761719 L 780.277344 1014.824219 L 780.132813 1014.886719 L 779.988281 1014.957031 L 779.855469 1015.03125 L 779.730469 1015.117188 L 779.617188 1015.210938 L 779.519531 1015.324219 L 779.433594 1015.445313 L 779.359375 1015.578125 L 779.289063 1015.714844 L 779.222656 1015.855469 L 779.097656 1016.148438 L 778.867188 1016.75 L 778.640625 1017.355469 L 778.535156 1017.65625 L 778.488281 1017.808594 L 778.441406 1017.964844 L 778.402344 1018.117188 L 778.367188 1018.273438 L 778.34375 1018.429688 L 778.324219 1018.585938 L 778.3125 1018.742188 L 778.304688 1018.902344 L 778.28125 1019.695313 L 778.273438 1019.851563 L 778.257813 1020.007813 L 778.242188 1020.160156 L 778.214844 1020.304688 L 778.175781 1020.449219 L 778.121094 1020.582031 L 778.046875 1020.710938 L 777.957031 1020.832031 L 777.855469 1020.945313 L 777.746094 1021.054688 L 777.398438 1021.382813 L 777.28125 1021.496094 L 777.171875 1021.613281 L 777.066406 1021.734375 L 776.976563 1021.855469 L 776.890625 1021.984375 L 776.8125 1022.117188 L 776.734375 1022.253906 L 776.589844 1022.527344 L 776.375 1022.945313 L 776.226563 1023.21875 L 776.144531 1023.351563 L 776.0625 1023.480469 L 775.96875 1023.605469 L 775.871094 1023.71875 L 775.761719 1023.828125 Z M 775.648438 1023.933594 " transform="matrix(1,0,0,-1,0,1024)"/>
</g>
</svg>
