<?xml version="1.0" encoding="UTF-8"?>
<svg xmlns="http://www.w3.org/2000/svg" xmlns:xlink="http://www.w3.org/1999/xlink" width="1024pt" height="995pt" viewBox="0 0 1024 995" version="1.1">
<g id="surface1">
<path style="fill-rule:evenodd;fill:rgb(49.803162%,49.803162%,49.803162%);fill-opacity:0.5;stroke-width:1;stroke-linecap:butt;stroke-linejoin:miter;stroke:rgb(0%,0%,0%);stroke-opacity:1;stroke-miterlimit:10;" d="M 0 0 L 869.140625 537.371094 L 1023.207031 601.972656 L 1023.105469 602.058594 L 1022.949219 602.191406 L 1022.625 602.441406 L 1022.457031 602.5625 L 1022.289063 602.679688 L 1021.945313 602.898438 L 1021.765625 602.992188 L 1021.570313 603.085938 L 1021.371094 603.167969 L 1021.171875 603.242188 L 1020.761719 603.382813 L 1019.9375 603.648438 L 1019.734375 603.714844 L 1019.53125 603.785156 L 1019.335938 603.863281 L 1019.148438 603.945313 L 1018.96875 604.035156 L 1018.804688 604.144531 L 1018.660156 604.269531 L 1018.546875 604.410156 L 1018.445313 604.570313 L 1018.363281 604.742188 L 1018.289063 604.925781 L 1018.21875 605.113281 L 1018.15625 605.304688 L 1018.039063 605.703125 L 1017.933594 606.101563 L 1017.882813 606.304688 L 1017.792969 606.703125 L 1017.753906 606.902344 L 1017.730469 607.09375 L 1017.714844 607.289063 L 1017.71875 607.476563 L 1017.746094 607.65625 L 1017.808594 607.839844 L 1017.898438 608.015625 L 1018.007813 608.1875 L 1018.128906 608.355469 L 1018.261719 608.519531 L 1018.398438 608.683594 L 1018.6875 609.007813 L 1019.136719 609.488281 L 1019.445313 609.800781 L 1019.75 610.097656 L 1020.84375 611.109375 L 1021.285156 611.53125 L 1021.453125 611.699219 L 1021.597656 611.847656 L 1021.738281 612.003906 L 1021.875 612.167969 L 1021.996094 612.332031 L 1022.117188 612.5 L 1022.230469 612.671875 L 1022.449219 613.027344 L 1022.871094 613.746094 L 1023.285156 614.472656 L 1023.484375 614.835938 L 1023.675781 615.199219 L 1023.761719 615.386719 L 1023.839844 615.570313 L 1023.90625 615.761719 L 1023.953125 615.953125 L 1023.984375 616.148438 L 1024 616.347656 L 1024 616.550781 L 1023.992188 616.753906 L 1023.964844 617.164063 L 1023.921875 617.578125 L 1023.753906 619.027344 L 1023.699219 619.441406 L 1023.640625 619.851563 L 1023.601563 620.058594 L 1023.5625 620.257813 L 1023.511719 620.460938 L 1023.453125 620.65625 L 1023.386719 620.851563 L 1023.316406 621.046875 L 1023.242188 621.242188 L 1023.082031 621.625 L 1022.503906 622.96875 L 1022.347656 623.351563 L 1022.117188 623.925781 L 1021.738281 624.890625 L 1021.4375 625.660156 L 1021.222656 626.242188 L 1021.09375 626.636719 L 1020.980469 627.035156 L 1020.824219 627.640625 L 1020.632813 628.453125 L 1020.003906 631.164063 L 1019.800781 632 L 1019.683594 632.414063 L 1019.617188 632.617188 L 1019.546875 632.816406 L 1019.460938 633.011719 L 1019.367188 633.195313 L 1019.261719 633.375 L 1019.148438 633.554688 L 1018.90625 633.898438 L 1018.648438 634.234375 L 1018.386719 634.566406 L 1018.25 634.730469 L 1018.109375 634.890625 L 1017.964844 635.050781 L 1017.667969 635.363281 L 1017.367188 635.671875 L 1016.296875 636.738281 L 1015.992188 637.046875 L 1015.699219 637.359375 L 1015.5625 637.519531 L 1015.425781 637.683594 L 1015.304688 637.851563 L 1015.191406 638.027344 L 1015.101563 638.203125 L 1015.027344 638.382813 L 1014.957031 638.570313 L 1014.894531 638.761719 L 1014.835938 638.953125 L 1014.726563 639.34375 L 1014.628906 639.738281 L 1014.535156 640.132813 L 1014.449219 640.53125 L 1014.410156 640.730469 L 1014.375 640.929688 L 1014.339844 641.136719 L 1014.289063 641.550781 L 1014.246094 641.96875 L 1014.082031 643.84375 L 1014.023438 644.464844 L 1013.976563 644.878906 L 1013.914063 645.292969 L 1013.875 645.496094 L 1013.832031 645.699219 L 1013.777344 645.902344 L 1013.660156 646.304688 L 1013.472656 646.90625 L 1013.007813 648.304688 L 1012.820313 648.90625 L 1012.710938 649.3125 L 1012.664063 649.515625 L 1012.625 649.71875 L 1012.59375 649.929688 L 1012.574219 650.144531 L 1012.558594 650.355469 L 1012.546875 650.570313 L 1012.53125 651.214844 L 1012.519531 652.511719 L 1012.511719 652.945313 L 1012.496094 653.375 L 1012.484375 653.589844 L 1012.46875 653.804688 L 1012.441406 654.015625 L 1012.410156 654.21875 L 1012.367188 654.421875 L 1012.324219 654.621094 L 1012.21875 655.019531 L 1012.160156 655.214844 L 1012.097656 655.410156 L 1012.027344 655.601563 L 1011.953125 655.789063 L 1011.867188 655.972656 L 1011.769531 656.148438 L 1011.652344 656.320313 L 1011.523438 656.488281 L 1011.386719 656.648438 L 1011.089844 656.960938 L 1010.152344 657.863281 L 1009.84375 658.167969 L 1009.695313 658.324219 L 1009.550781 658.484375 L 1009.414063 658.648438 L 1009.289063 658.820313 L 1009.171875 658.996094 L 1009.070313 659.179688 L 1008.972656 659.367188 L 1008.789063 659.75 L 1008.535156 660.339844 L 1008.039063 661.523438 L 1007.785156 662.117188 L 1007.613281 662.507813 L 1007.429688 662.894531 L 1007.332031 663.085938 L 1007.132813 663.464844 L 1006.921875 663.84375 L 1006.289063 664.96875 L 1006.085938 665.34375 L 1005.898438 665.726563 L 1005.820313 665.917969 L 1003.949219 671.71875 L 1000.746094 681.847656 L 1000.503906 682.609375 L 999.621094 685.246094 L 999.539063 685.425781 L 999.464844 685.609375 L 999.390625 685.800781 L 999.324219 685.988281 L 999.261719 686.183594 L 999.203125 686.378906 L 999.152344 686.574219 L 999.109375 686.773438 L 999.074219 686.976563 L 999.046875 687.179688 L 999.027344 687.386719 L 998.996094 687.800781 L 998.945313 688.628906 L 998.917969 689.042969 L 998.875 689.453125 L 998.847656 689.652344 L 998.8125 689.855469 L 998.765625 690.054688 L 998.707031 690.257813 L 998.636719 690.460938 L 998.558594 690.660156 L 998.3125 691.253906 L 998.234375 691.453125 L 998.167969 691.652344 L 998.113281 691.851563 L 998.074219 692.054688 L 998.058594 692.246094 L 998.058594 692.441406 L 998.070313 692.640625 L 998.089844 692.835938 L 998.148438 693.234375 L 998.285156 694.035156 L 998.347656 694.4375 L 998.371094 694.640625 L 998.390625 694.84375 L 998.402344 695.058594 L 998.40625 695.273438 L 998.40625 695.492188 L 998.390625 695.925781 L 998.371094 696.359375 L 998.300781 697.664063 L 998.273438 698.316406 L 998.269531 698.535156 L 998.273438 698.75 L 998.28125 698.964844 L 998.296875 699.179688 L 998.351563 699.609375 L 998.382813 699.824219 L 998.453125 700.25 L 998.574219 700.890625 L 998.597656 700.984375 L 998.667969 701.3125 L 998.722656 701.523438 L 998.773438 701.71875 L 998.894531 702.113281 L 999.089844 702.699219 L 999.296875 703.277344 L 999.445313 703.652344 L 999.523438 703.835938 L 999.609375 704.011719 L 999.703125 704.183594 L 999.808594 704.339844 L 999.929688 704.484375 L 1000.074219 704.609375 L 1000.230469 704.722656 L 1000.402344 704.824219 L 1000.578125 704.914063 L 1000.761719 705.003906 L 1001.515625 705.339844 L 1001.703125 705.429688 L 1001.886719 705.523438 L 1002.0625 705.625 L 1002.230469 705.738281 L 1002.394531 705.867188 L 1002.546875 706.007813 L 1002.695313 706.15625 L 1002.839844 706.3125 L 1003.113281 706.636719 L 1003.378906 706.96875 L 1003.632813 707.304688 L 1003.75 707.476563 L 1003.859375 707.652344 L 1003.960938 707.828125 L 1004.042969 708.007813 L 1004.101563 708.195313 L 1004.136719 708.390625 L 1004.148438 708.589844 L 1004.144531 708.796875 L 1004.128906 709.003906 L 1004.105469 709.210938 L 1004.042969 709.632813 L 1003.890625 710.484375 L 1003.699219 711.546875 L 1003.578125 712.179688 L 1003.171875 714.253906 L 1003.089844 714.667969 L 1002.996094 715.078125 L 1002.945313 715.28125 L 1002.890625 715.480469 L 1002.828125 715.675781 L 1002.753906 715.867188 L 1002.664063 716.046875 L 1002.558594 716.222656 L 1002.433594 716.386719 L 1002.300781 716.550781 L 1002.160156 716.707031 L 1002.015625 716.859375 L 1001.710938 717.160156 L 1001.242188 717.601563 L 1000.925781 717.886719 L 1000.761719 718.027344 L 1000.597656 718.15625 L 1000.425781 718.28125 L 1000.25 718.398438 L 1000.0625 718.5 L 999.871094 718.59375 L 999.675781 718.675781 L 999.472656 718.757813 L 999.273438 718.832031 L 998.863281 718.976563 L 998.453125 719.109375 L 998.039063 719.238281 L 997.832031 719.296875 L 997.625 719.351563 L 997.417969 719.398438 L 997.207031 719.4375 L 996.996094 719.460938 L 996.796875 719.46875 L 996.59375 719.46875 L 996.386719 719.457031 L 995.777344 719.40625 L 995.570313 719.394531 L 995.371094 719.386719 L 995.167969 719.390625 L 995.007813 719.402344 L 994.96875 719.40625 L 994.765625 719.441406 L 994.5625 719.488281 L 994.363281 719.550781 L 994.164063 719.617188 L 993.769531 719.769531 L 993.371094 719.933594 L 992.976563 720.101563 L 992.582031 720.273438 L 992.199219 720.449219 L 992.015625 720.542969 L 991.835938 720.636719 L 991.671875 720.738281 L 991.523438 720.851563 L 991.394531 720.972656 L 991.296875 721.109375 L 991.238281 721.265625 L 991.207031 721.4375 L 991.199219 721.621094 L 991.210938 721.8125 L 991.230469 722.007813 L 991.257813 722.207031 L 991.289063 722.414063 L 991.367188 722.824219 L 991.457031 723.234375 L 991.507813 723.4375 L 991.5625 723.640625 L 991.621094 723.839844 L 991.691406 724.035156 L 991.773438 724.226563 L 991.867188 724.40625 L 991.972656 724.582031 L 992.085938 724.757813 L 992.207031 724.925781 L 992.457031 725.257813 L 992.84375 725.753906 L 993.097656 726.082031 L 993.21875 726.25 L 993.332031 726.414063 L 993.4375 726.582031 L 993.496094 726.691406 L 993.53125 726.753906 L 993.605469 726.929688 L 993.660156 727.109375 L 993.683594 727.289063 L 993.683594 727.476563 L 993.667969 727.667969 L 993.636719 727.859375 L 993.601563 728.054688 L 993.558594 728.25 L 993.460938 728.644531 L 993.304688 729.238281 L 993.207031 729.632813 L 993.164063 729.832031 L 993.125 730.035156 L 993.09375 730.234375 L 993.070313 730.449219 L 993.054688 730.664063 L 993.042969 730.878906 L 993.035156 731.308594 L 993.035156 731.957031 L 993.050781 733.253906 L 993.066406 733.902344 L 993.085938 734.332031 L 993.105469 734.546875 L 993.128906 734.757813 L 993.1875 735.179688 L 993.253906 735.601563 L 993.441406 736.65625 L 993.53125 737.117188 L 993.566406 737.28125 L 993.609375 737.492188 L 993.660156 737.695313 L 993.71875 737.902344 L 993.78125 738.101563 L 993.855469 738.292969 L 993.933594 738.480469 L 994.109375 738.855469 L 994.390625 739.40625 L 994.878906 740.316406 L 995.386719 741.238281 L 995.699219 741.789063 L 996.015625 742.34375 L 996.230469 742.707031 L 996.339844 742.886719 L 996.453125 743.066406 L 996.574219 743.238281 L 996.699219 743.417969 L 996.828125 743.589844 L 996.964844 743.757813 L 997.238281 744.097656 L 998.214844 745.261719 L 998.492188 745.597656 L 998.625 745.769531 L 998.753906 745.941406 L 998.878906 746.113281 L 998.996094 746.292969 L 999.101563 746.476563 L 999.1875 746.660156 L 999.265625 746.847656 L 999.335938 747.039063 L 999.398438 747.234375 L 999.515625 747.628906 L 999.675781 748.226563 L 999.773438 748.628906 L 999.859375 749.042969 L 999.96875 749.675781 L 1000.070313 750.3125 L 1000.164063 750.945313 L 1000.21875 751.371094 L 1000.238281 751.582031 L 1000.25 751.789063 L 1000.257813 752 L 1000.246094 752.210938 L 1000.226563 752.414063 L 1000.1875 752.621094 L 1000.144531 752.824219 L 1000.09375 753.027344 L 999.980469 753.433594 L 999.789063 754.039063 L 999.652344 754.441406 L 999.503906 754.835938 L 999.421875 755.03125 L 999.335938 755.222656 L 999.242188 755.398438 L 999.144531 755.574219 L 999.039063 755.746094 L 998.820313 756.082031 L 998.59375 756.414063 L 998.355469 756.738281 L 998.234375 756.898438 L 998.109375 757.054688 L 997.976563 757.207031 L 997.832031 757.359375 L 997.683594 757.511719 L 997.53125 757.65625 L 997.375 757.800781 L 997.054688 758.074219 L 996.890625 758.207031 L 996.726563 758.332031 L 996.554688 758.449219 L 996.378906 758.554688 L 996.195313 758.648438 L 996.007813 758.722656 L 995.8125 758.78125 L 995.613281 758.832031 L 995.410156 758.871094 L 995 758.941406 L 993.742188 759.109375 L 993.328125 759.175781 L 993.121094 759.214844 L 992.917969 759.257813 L 992.71875 759.308594 L 992.519531 759.375 L 992.324219 759.453125 L 992.136719 759.542969 L 991.949219 759.644531 L 991.765625 759.75 L 991.582031 759.863281 L 991.222656 760.09375 L 990.878906 760.335938 L 990.710938 760.464844 L 990.691406 760.480469 L 990.550781 760.597656 L 990.402344 760.734375 L 990.265625 760.882813 L 990.144531 761.039063 L 990.050781 761.210938 L 989.972656 761.398438 L 989.90625 761.589844 L 989.847656 761.789063 L 989.695313 762.394531 L 989.644531 762.597656 L 989.582031 762.796875 L 989.511719 762.992188 L 989.429688 763.179688 L 989.328125 763.355469 L 989.214844 763.523438 L 989.085938 763.6875 L 988.953125 763.847656 L 988.816406 764.007813 L 988.671875 764.160156 L 988.378906 764.460938 L 988.074219 764.753906 L 987.917969 764.890625 L 987.757813 765.023438 L 987.597656 765.144531 L 987.425781 765.25 L 987.25 765.339844 L 987.0625 765.40625 L 986.863281 765.453125 L 986.660156 765.488281 L 986.453125 765.511719 L 986.246094 765.527344 L 986.03125 765.539063 L 985.605469 765.554688 L 984.3125 765.582031 L 983.882813 765.597656 L 983.457031 765.617188 L 983.027344 765.648438 L 982.617188 765.695313 L 982.003906 765.789063 L 981.394531 765.894531 L 980.785156 766.007813 L 980.382813 766.09375 L 980.179688 766.140625 L 979.984375 766.195313 L 979.785156 766.257813 L 979.585938 766.324219 L 979.386719 766.394531 L 978.996094 766.546875 L 978.023438 766.9375 L 977.632813 767.089844 L 977.238281 767.234375 L 977.039063 767.300781 L 976.839844 767.363281 L 976.640625 767.417969 L 976.230469 767.511719 L 975.203125 767.714844 L 974.789063 767.800781 L 974.578125 767.851563 L 973.949219 768.015625 L 972.695313 768.367188 L 972.277344 768.476563 L 972.070313 768.527344 L 971.863281 768.570313 L 971.65625 768.601563 L 971.449219 768.621094 L 971.242188 768.625 L 971.035156 768.605469 L 970.832031 768.566406 L 970.628906 768.519531 L 970.429688 768.457031 L 970.023438 768.324219 L 969.621094 768.175781 L 969.015625 767.945313 L 968.609375 767.789063 L 968.210938 767.628906 L 967.816406 767.460938 L 967.621094 767.367188 L 967.429688 767.269531 L 967.246094 767.160156 L 967.066406 767.046875 L 966.890625 766.925781 L 966.714844 766.800781 L 966.371094 766.546875 L 966.203125 766.414063 L 966.039063 766.277344 L 965.882813 766.136719 L 965.726563 765.992188 L 965.585938 765.839844 L 965.453125 765.679688 L 965.335938 765.511719 L 965.230469 765.332031 L 965.132813 765.148438 L 965.042969 764.957031 L 964.875 764.570313 L 964.632813 763.976563 L 964.402344 763.382813 L 964.257813 762.984375 L 964.191406 762.785156 L 964.132813 762.585938 L 964.085938 762.386719 L 964.050781 762.1875 L 964.035156 761.988281 L 964.046875 761.789063 L 964.074219 761.589844 L 964.113281 761.386719 L 964.167969 761.1875 L 964.226563 760.988281 L 964.292969 760.785156 L 964.429688 760.386719 L 964.574219 759.984375 L 964.730469 759.589844 L 964.8125 759.398438 L 964.898438 759.207031 L 964.992188 759.019531 L 965.09375 758.84375 L 965.210938 758.671875 L 965.339844 758.515625 L 965.480469 758.367188 L 965.632813 758.226563 L 965.792969 758.089844 L 965.957031 757.957031 L 966.292969 757.699219 L 966.980469 757.191406 L 967.320313 756.9375 L 967.480469 756.808594 L 967.640625 756.675781 L 967.789063 756.546875 L 967.921875 756.410156 L 968.039063 756.269531 L 968.128906 756.125 L 968.183594 755.972656 L 968.195313 755.808594 L 968.171875 755.640625 L 968.121094 755.460938 L 968.054688 755.28125 L 967.972656 755.097656 L 967.878906 754.910156 L 967.78125 754.722656 L 967.679688 754.535156 L 967.46875 754.164063 L 967.355469 753.980469 L 967.242188 753.800781 L 967.128906 753.625 L 967.003906 753.460938 L 966.875 753.308594 L 966.738281 753.171875 L 966.585938 753.0625 L 966.421875 752.980469 L 966.246094 752.925781 L 966.058594 752.882813 L 965.867188 752.855469 L 965.667969 752.835938 L 965.46875 752.820313 L 965.265625 752.8125 L 964.859375 752.808594 L 964.65625 752.8125 L 964.453125 752.820313 L 964.253906 752.835938 L 964.054688 752.863281 L 963.863281 752.902344 L 963.675781 752.957031 L 963.496094 753.035156 L 963.316406 753.128906 L 963.148438 753.238281 L 962.980469 753.351563 L 962.8125 753.476563 L 962.484375 753.734375 L 962.160156 754 L 961.515625 754.539063 L 961.195313 754.8125 L 960.886719 755.085938 L 960.738281 755.226563 L 960.59375 755.371094 L 960.460938 755.519531 L 960.339844 755.675781 L 960.234375 755.839844 L 960.152344 756.019531 L 960.085938 756.203125 L 960.035156 756.398438 L 959.988281 756.59375 L 959.917969 757 L 959.859375 757.414063 L 959.726563 758.460938 L 959.609375 759.3125 L 959.453125 760.375 L 959.207031 762.054688 L 959.109375 762.683594 L 959.042969 763.101563 L 958.964844 763.515625 L 958.917969 763.71875 L 958.867188 763.921875 L 958.804688 764.121094 L 958.730469 764.3125 L 958.652344 764.5 L 958.5625 764.683594 L 958.46875 764.867188 L 958.371094 765.050781 L 958.167969 765.40625 L 958.058594 765.582031 L 957.949219 765.753906 L 957.832031 765.921875 L 957.707031 766.085938 L 957.578125 766.242188 L 957.429688 766.390625 L 957.273438 766.535156 L 957.113281 766.671875 L 956.945313 766.804688 L 956.605469 767.0625 L 955.910156 767.570313 L 955.566406 767.828125 L 955.230469 768.09375 L 955.0625 768.230469 L 954.902344 768.371094 L 954.753906 768.507813 L 954.179688 769.070313 L 954.039063 769.207031 L 953.890625 769.339844 L 953.738281 769.464844 L 953.578125 769.582031 L 953.40625 769.6875 L 953.222656 769.78125 L 953.039063 769.863281 L 952.847656 769.945313 L 952.457031 770.089844 L 952.066406 770.230469 L 951.269531 770.488281 L 950.867188 770.605469 L 950.667969 770.65625 L 950.464844 770.699219 L 950.261719 770.738281 L 950.050781 770.761719 L 949.84375 770.777344 L 949.632813 770.789063 L 949.421875 770.792969 L 949.207031 770.796875 L 948.78125 770.792969 L 947.714844 770.769531 L 947.292969 770.769531 L 947.085938 770.773438 L 946.882813 770.785156 L 946.683594 770.808594 L 946.492188 770.84375 L 946.308594 770.894531 L 946.144531 770.96875 L 945.996094 771.074219 L 945.859375 771.203125 L 945.734375 771.347656 L 945.621094 771.507813 L 945.507813 771.675781 L 945.402344 771.847656 L 945.296875 772.027344 L 945.097656 772.394531 L 944.910156 772.765625 L 944.824219 772.953125 L 944.746094 773.144531 L 944.679688 773.335938 L 944.625 773.535156 L 944.589844 773.726563 L 944.566406 773.921875 L 944.554688 774.121094 L 944.550781 774.320313 L 944.554688 774.519531 L 944.566406 774.921875 L 944.589844 775.328125 L 944.621094 775.730469 L 944.640625 775.933594 L 944.695313 776.34375 L 944.753906 776.753906 L 944.820313 777.160156 L 944.894531 777.5625 L 944.976563 777.960938 L 945.023438 778.152344 L 945.082031 778.339844 L 945.148438 778.519531 L 945.226563 778.6875 L 945.328125 778.84375 L 945.457031 778.988281 L 945.609375 779.117188 L 945.777344 779.234375 L 945.953125 779.34375 L 946.328125 779.546875 L 946.90625 779.84375 L 947.097656 779.945313 L 947.28125 780.050781 L 947.460938 780.164063 L 947.632813 780.289063 L 947.789063 780.425781 L 947.925781 780.570313 L 948.046875 780.730469 L 948.164063 780.898438 L 948.269531 781.074219 L 948.375 781.257813 L 948.574219 781.625 L 948.953125 782.378906 L 949.320313 783.140625 L 949.496094 783.523438 L 949.65625 783.898438 L 949.800781 784.261719 L 950.148438 785.183594 L 950.300781 785.5625 L 950.550781 786.152344 L 950.894531 786.933594 L 951.160156 787.511719 L 951.25 787.703125 L 951.347656 787.890625 L 951.449219 788.070313 L 951.558594 788.25 L 951.679688 788.421875 L 951.804688 788.578125 L 951.941406 788.726563 L 952.085938 788.871094 L 952.234375 789.011719 L 952.386719 789.148438 L 952.695313 789.417969 L 953.171875 789.8125 L 953.496094 790.066406 L 953.660156 790.191406 L 953.824219 790.308594 L 953.996094 790.417969 L 954.167969 790.523438 L 954.347656 790.613281 L 954.539063 790.691406 L 954.738281 790.753906 L 954.941406 790.8125 L 955.144531 790.859375 L 955.566406 790.945313 L 956.40625 791.097656 L 956.820313 791.175781 L 957.023438 791.222656 L 957.21875 791.273438 L 957.402344 791.332031 L 957.574219 791.40625 L 957.722656 791.492188 L 957.847656 791.605469 L 957.945313 791.742188 L 958.011719 791.90625 L 958.058594 792.085938 L 958.09375 792.277344 L 958.121094 792.476563 L 958.136719 792.683594 L 958.152344 792.894531 L 958.210938 794.183594 L 958.226563 794.398438 L 958.261719 794.816406 L 958.332031 795.441406 L 958.386719 795.855469 L 958.453125 796.265625 L 958.492188 796.46875 L 958.539063 796.667969 L 958.59375 796.867188 L 958.664063 797.066406 L 958.742188 797.269531 L 958.828125 797.464844 L 958.917969 797.660156 L 959.109375 798.050781 L 959.507813 798.824219 L 959.816406 799.398438 L 959.921875 799.585938 L 960.03125 799.769531 L 960.144531 799.949219 L 960.265625 800.125 L 960.398438 800.292969 L 960.539063 800.445313 L 960.691406 800.59375 L 960.847656 800.734375 L 961.011719 800.871094 L 961.347656 801.136719 L 961.691406 801.390625 L 962.042969 801.636719 L 962.21875 801.757813 L 962.398438 801.871094 L 962.582031 801.976563 L 962.769531 802.074219 L 962.957031 802.15625 L 963.148438 802.230469 L 963.339844 802.300781 L 963.535156 802.363281 L 963.933594 802.480469 L 965.128906 802.8125 L 965.527344 802.925781 L 965.726563 802.988281 L 965.921875 803.050781 L 966.117188 803.121094 L 966.304688 803.199219 L 966.5 803.285156 L 966.6875 803.378906 L 966.875 803.476563 L 967.058594 803.578125 L 967.425781 803.792969 L 967.789063 804.011719 L 967.964844 804.125 L 968.140625 804.242188 L 968.308594 804.359375 L 968.472656 804.484375 L 968.625 804.613281 L 968.769531 804.753906 L 968.890625 804.902344 L 968.992188 805.066406 L 969.074219 805.242188 L 969.144531 805.425781 L 969.207031 805.617188 L 969.261719 805.808594 L 969.3125 806.007813 L 969.40625 806.410156 L 969.578125 807.222656 L 969.742188 808.035156 L 969.855469 808.644531 L 970.066406 809.859375 L 970.171875 810.464844 L 970.253906 810.863281 L 970.34375 811.261719 L 970.457031 811.664063 L 970.644531 812.257813 L 971.117188 813.636719 L 971.253906 814.03125 L 971.394531 814.417969 L 971.546875 814.804688 L 971.632813 814.992188 L 971.722656 815.175781 L 971.820313 815.351563 L 971.9375 815.53125 L 972.0625 815.703125 L 972.335938 816.039063 L 972.625 816.363281 L 973.355469 817.164063 L 973.496094 817.324219 L 973.628906 817.488281 L 973.757813 817.65625 L 973.875 817.824219 L 973.976563 818 L 974.054688 818.183594 L 974.109375 818.371094 L 974.140625 818.5625 L 974.160156 818.761719 L 974.167969 818.960938 L 974.167969 819.164063 L 974.152344 819.578125 L 974.074219 820.828125 L 974.054688 821.246094 L 974.046875 821.453125 L 974.046875 821.660156 L 974.054688 821.867188 L 974.066406 822.070313 L 974.09375 822.273438 L 974.132813 822.472656 L 974.183594 822.667969 L 974.246094 822.867188 L 974.3125 823.0625 L 974.457031 823.449219 L 974.914063 824.609375 L 975.058594 825 L 975.125 825.199219 L 975.1875 825.394531 L 975.242188 825.59375 L 975.289063 825.796875 L 975.46875 826.605469 L 975.5625 827.003906 L 975.617188 827.199219 L 975.679688 827.394531 L 975.753906 827.582031 L 975.839844 827.769531 L 975.941406 827.957031 L 976.050781 828.136719 L 976.164063 828.316406 L 976.285156 828.492188 L 976.53125 828.839844 L 977.417969 830.054688 L 977.671875 830.402344 L 977.917969 830.757813 L 978.144531 831.109375 L 978.253906 831.285156 L 978.457031 831.636719 L 978.648438 831.996094 L 978.738281 832.175781 L 978.816406 832.355469 L 978.886719 832.53125 L 978.945313 832.710938 L 978.984375 832.890625 L 978.996094 833.070313 L 978.980469 833.25 L 978.9375 833.429688 L 978.878906 833.609375 L 978.804688 833.789063 L 978.71875 833.96875 L 978.53125 834.328125 L 978.140625 835.050781 L 978.046875 835.234375 L 977.957031 835.417969 L 977.875 835.601563 L 977.804688 835.789063 L 977.742188 835.980469 L 977.699219 836.183594 L 977.664063 836.390625 L 977.644531 836.601563 L 977.628906 836.8125 L 977.617188 837.027344 L 977.605469 837.457031 L 977.605469 838.535156 L 977.609375 839.179688 L 977.625 839.609375 L 977.636719 839.824219 L 977.652344 840.039063 L 977.671875 840.253906 L 977.699219 840.46875 L 977.761719 840.898438 L 977.898438 841.757813 L 977.953125 842.183594 L 977.976563 842.398438 L 977.992188 842.613281 L 977.996094 842.828125 L 977.988281 843.035156 L 977.972656 843.242188 L 977.949219 843.453125 L 977.921875 843.660156 L 977.855469 844.074219 L 977.636719 845.324219 L 977.574219 845.742188 L 977.546875 845.953125 L 977.527344 846.164063 L 977.515625 846.371094 L 977.503906 846.582031 L 977.488281 847.628906 L 977.480469 847.835938 L 977.46875 848.042969 L 977.453125 848.246094 L 977.425781 848.453125 L 977.390625 848.652344 L 977.335938 848.847656 L 977.269531 849.039063 L 977.199219 849.230469 L 977.117188 849.421875 L 976.945313 849.796875 L 976.761719 850.167969 L 976.203125 851.289063 L 975.933594 851.851563 L 975.773438 852.230469 L 975.625 852.609375 L 975.484375 852.996094 L 975.4375 853.128906 L 975.28125 853.570313 L 975.085938 854.152344 L 974.964844 854.542969 L 974.90625 854.738281 L 974.800781 855.15625 L 974.65625 855.785156 L 974.523438 856.417969 L 974.445313 856.839844 L 974.414063 857.050781 L 974.386719 857.261719 L 974.363281 857.472656 L 974.355469 857.683594 L 974.359375 857.898438 L 974.371094 858.113281 L 974.394531 858.324219 L 974.421875 858.539063 L 974.488281 858.96875 L 974.558594 859.394531 L 974.75 860.46875 L 974.855469 861.109375 L 974.914063 861.535156 L 974.933594 861.75 L 974.945313 861.964844 L 974.945313 862.175781 L 974.933594 862.378906 L 974.910156 862.585938 L 974.839844 862.992188 L 974.753906 863.398438 L 974.472656 864.617188 L 974.386719 865.027344 L 974.347656 865.230469 L 974.3125 865.433594 L 974.257813 865.863281 L 974.21875 866.289063 L 974.183594 866.71875 L 974.050781 868.65625 L 973.984375 869.515625 L 973.921875 870.136719 L 973.71875 872.003906 L 973.664063 872.625 L 973.636719 873.054688 L 973.609375 873.703125 L 973.601563 874.132813 L 973.601563 874.566406 L 973.609375 874.78125 L 973.625 874.992188 L 973.652344 875.203125 L 973.683594 875.414063 L 973.757813 875.828125 L 974.019531 877.078125 L 974.101563 877.496094 L 974.136719 877.703125 L 974.167969 877.914063 L 974.191406 878.125 L 974.207031 878.324219 L 974.214844 878.527344 L 974.21875 878.726563 L 974.21875 879.132813 L 974.214844 879.941406 L 974.21875 880.34375 L 974.230469 880.542969 L 974.25 880.742188 L 974.277344 880.9375 L 974.320313 881.136719 L 974.371094 881.332031 L 974.429688 881.527344 L 974.558594 881.917969 L 974.835938 882.691406 L 974.960938 883.082031 L 975.019531 883.28125 L 975.121094 883.679688 L 975.210938 884.082031 L 975.597656 885.894531 L 975.6875 886.296875 L 975.785156 886.695313 L 975.890625 887.089844 L 976.066406 887.679688 L 976.253906 888.261719 L 976.445313 888.84375 L 976.582031 889.230469 L 976.65625 889.417969 L 976.753906 889.652344 L 976.820313 889.789063 L 976.914063 889.972656 L 977.019531 890.152344 L 977.128906 890.332031 L 977.359375 890.683594 L 977.59375 891.027344 L 977.957031 891.546875 L 978.5625 892.40625 L 978.929688 892.921875 L 979.179688 893.261719 L 979.4375 893.597656 L 980.355469 894.769531 L 980.613281 895.105469 L 980.738281 895.277344 L 980.859375 895.449219 L 980.976563 895.621094 L 981.082031 895.800781 L 981.179688 895.984375 L 981.257813 896.175781 L 981.328125 896.367188 L 981.390625 896.5625 L 981.445313 896.765625 L 981.496094 896.964844 L 981.582031 897.371094 L 981.617188 897.574219 L 981.648438 897.777344 L 981.671875 897.980469 L 981.6875 898.183594 L 981.691406 898.382813 L 981.675781 898.582031 L 981.636719 898.785156 L 981.578125 898.984375 L 981.507813 899.183594 L 981.429688 899.378906 L 981.25 899.769531 L 981.0625 900.160156 L 980.867188 900.550781 L 980.671875 900.9375 L 980.46875 901.324219 L 980.261719 901.699219 L 980.148438 901.886719 L 980.035156 902.066406 L 979.910156 902.238281 L 979.773438 902.402344 L 979.628906 902.558594 L 979.480469 902.714844 L 979.171875 903.011719 L 978.851563 903.300781 L 978.207031 903.875 L 977.882813 904.167969 L 977.414063 904.613281 L 977.121094 904.925781 L 976.835938 905.242188 L 976.558594 905.566406 L 976.285156 905.894531 L 976.15625 906.058594 L 976.027344 906.226563 L 975.910156 906.398438 L 975.796875 906.570313 L 975.699219 906.75 L 975.621094 906.933594 L 975.5625 907.128906 L 975.523438 907.332031 L 975.5 907.539063 L 975.484375 907.75 L 975.476563 907.964844 L 975.472656 908.179688 L 975.484375 908.613281 L 975.496094 908.828125 L 975.511719 909.042969 L 975.535156 909.257813 L 975.570313 909.46875 L 975.613281 909.671875 L 975.664063 909.871094 L 975.722656 910.070313 L 975.847656 910.464844 L 976.183594 911.449219 L 976.304688 911.84375 L 976.359375 912.039063 L 976.40625 912.242188 L 976.445313 912.441406 L 976.472656 912.652344 L 976.488281 912.863281 L 976.496094 913.078125 L 976.5 913.503906 L 976.484375 914.578125 L 976.488281 914.789063 L 976.496094 915.003906 L 976.511719 915.210938 L 976.539063 915.417969 L 976.582031 915.621094 L 976.636719 915.808594 L 976.710938 915.996094 L 976.792969 916.175781 L 976.882813 916.355469 L 976.980469 916.53125 L 977.082031 916.707031 L 977.1875 916.878906 L 977.300781 917.046875 L 977.414063 917.210938 L 977.539063 917.371094 L 977.667969 917.527344 L 977.804688 917.667969 L 977.960938 917.808594 L 978.128906 917.9375 L 978.300781 918.0625 L 978.480469 918.179688 L 979.019531 918.527344 L 979.191406 918.644531 L 979.359375 918.769531 L 979.519531 918.898438 L 979.664063 919.035156 L 979.792969 919.1875 L 979.894531 919.351563 L 979.980469 919.53125 L 980.050781 919.71875 L 980.113281 919.914063 L 980.167969 920.113281 L 980.21875 920.316406 L 980.265625 920.523438 L 980.355469 920.9375 L 980.476563 921.566406 L 980.542969 921.984375 L 980.570313 922.191406 L 980.585938 922.402344 L 980.597656 922.609375 L 980.589844 922.8125 L 980.5625 923.019531 L 980.523438 923.226563 L 980.472656 923.429688 L 980.414063 923.632813 L 980.347656 923.839844 L 980.136719 924.449219 L 979.84375 925.265625 L 979.691406 925.667969 L 979.53125 926.058594 L 979.445313 926.246094 L 979.355469 926.421875 L 979.253906 926.589844 L 979.136719 926.734375 L 979.003906 926.859375 L 978.847656 926.949219 L 978.667969 927.019531 L 978.480469 927.066406 L 978.28125 927.105469 L 978.074219 927.128906 L 977.859375 927.152344 L 977.648438 927.167969 L 977.210938 927.191406 L 976.554688 927.222656 L 976.121094 927.234375 L 975.683594 927.234375 L 975.464844 927.226563 L 975.253906 927.214844 L 975.042969 927.195313 L 974.835938 927.171875 L 974.414063 927.117188 L 973.785156 927.027344 L 973.160156 926.921875 L 972.820313 926.859375 L 972.746094 926.84375 L 972.539063 926.796875 L 972.335938 926.746094 L 972.128906 926.6875 L 971.925781 926.621094 L 971.113281 926.351563 L 970.914063 926.289063 L 970.714844 926.238281 L 970.515625 926.195313 L 970.316406 926.171875 L 970.117188 926.167969 L 969.921875 926.195313 L 969.726563 926.242188 L 969.535156 926.308594 L 969.339844 926.386719 L 969.148438 926.476563 L 968.765625 926.664063 L 968.382813 926.867188 L 968.007813 927.078125 L 967.9375 927.117188 L 967.824219 927.1875 L 967.648438 927.296875 L 967.480469 927.417969 L 967.324219 927.542969 L 967.183594 927.675781 L 967.0625 927.828125 L 966.976563 927.988281 L 966.910156 928.160156 L 966.859375 928.34375 L 966.816406 928.535156 L 966.785156 928.730469 L 966.734375 929.128906 L 966.667969 929.742188 L 966.625 930.09375 L 966.621094 930.148438 L 966.558594 930.554688 L 966.519531 930.757813 L 966.476563 930.949219 L 966.429688 931.144531 L 966.277344 931.71875 L 966.234375 931.90625 L 966.195313 932.09375 L 966.171875 932.277344 L 966.160156 932.464844 L 966.167969 932.644531 L 966.207031 932.832031 L 966.265625 933.015625 L 966.34375 933.199219 L 966.429688 933.378906 L 966.527344 933.558594 L 966.632813 933.738281 L 967.070313 934.457031 L 967.28125 934.816406 L 967.378906 934.996094 L 967.464844 935.175781 L 967.539063 935.359375 L 967.597656 935.539063 L 967.628906 935.726563 L 967.632813 935.90625 L 967.613281 936.089844 L 967.574219 936.273438 L 967.527344 936.457031 L 967.464844 936.640625 L 967.398438 936.828125 L 967.328125 937.011719 L 967.25 937.195313 L 967.085938 937.5625 L 966.996094 937.742188 L 966.902344 937.917969 L 966.792969 938.101563 L 966.683594 938.28125 L 966.445313 938.636719 L 966.203125 938.984375 L 965.460938 940.023438 L 965.214844 940.371094 L 964.976563 940.722656 L 964.863281 940.898438 L 964.75 941.078125 L 964.644531 941.261719 L 964.445313 941.632813 L 964.25 942.011719 L 963.882813 942.769531 L 963.796875 942.960938 L 963.714844 943.152344 L 963.636719 943.34375 L 963.566406 943.535156 L 963.503906 943.730469 L 963.460938 943.925781 L 963.433594 944.121094 L 963.433594 944.308594 L 963.449219 944.496094 L 963.480469 944.6875 L 963.519531 944.878906 L 963.566406 945.070313 L 963.769531 945.839844 L 963.816406 946.03125 L 963.855469 946.226563 L 963.882813 946.417969 L 963.894531 946.613281 L 963.894531 946.824219 L 963.875 947.03125 L 963.84375 947.242188 L 963.804688 947.453125 L 963.710938 947.875 L 963.550781 948.507813 L 963.328125 949.351563 L 963.214844 949.769531 L 963.089844 950.183594 L 963.019531 950.386719 L 962.945313 950.585938 L 962.859375 950.78125 L 962.761719 950.964844 L 962.652344 951.132813 L 962.53125 951.292969 L 962.398438 951.449219 L 962.261719 951.601563 L 961.976563 951.898438 L 961.679688 952.1875 L 960.777344 953.050781 L 960.480469 953.34375 L 960.335938 953.492188 L 960.195313 953.644531 L 960.058594 953.796875 L 959.925781 953.957031 L 959.792969 954.125 L 959.667969 954.296875 L 959.433594 954.65625 L 959.203125 955.019531 L 958.644531 955.9375 L 958.320313 956.496094 L 958.109375 956.871094 L 958.011719 957.058594 L 957.824219 957.433594 L 957.640625 957.8125 L 956.921875 959.335938 L 956.746094 959.714844 L 956.664063 959.90625 L 956.582031 960.101563 L 956.507813 960.292969 L 956.441406 960.488281 L 956.386719 960.683594 L 956.34375 960.882813 L 956.320313 961.078125 L 956.308594 961.277344 L 956.3125 961.480469 L 956.316406 961.679688 L 956.332031 961.882813 L 956.4375 963.113281 L 956.453125 963.316406 L 956.460938 963.523438 L 956.460938 963.726563 L 956.457031 963.933594 L 956.445313 964.144531 L 956.410156 964.558594 L 956.339844 965.179688 L 956.257813 965.804688 L 956.199219 966.21875 L 956.125 966.628906 L 956.082031 966.828125 L 956.035156 967.03125 L 955.976563 967.226563 L 955.902344 967.429688 L 955.816406 967.625 L 955.726563 967.820313 L 955.53125 968.203125 L 955.320313 968.582031 L 955.105469 968.953125 L 954.992188 969.136719 L 954.878906 969.316406 L 954.757813 969.492188 L 954.632813 969.660156 L 954.496094 969.820313 L 954.351563 969.96875 L 954.199219 970.09375 L 954.035156 970.207031 L 953.867188 970.3125 L 953.691406 970.414063 L 953.511719 970.507813 L 952.785156 970.878906 L 952.613281 970.976563 L 952.445313 971.082031 L 952.285156 971.191406 L 952.136719 971.3125 L 952.007813 971.445313 L 951.898438 971.601563 L 951.804688 971.773438 L 951.722656 971.953125 L 951.652344 972.144531 L 951.589844 972.339844 L 951.53125 972.539063 L 951.476563 972.742188 L 951.375 973.152344 L 951.28125 973.566406 L 951.238281 973.769531 L 951.199219 973.976563 L 951.167969 974.183594 L 951.144531 974.394531 L 951.132813 974.601563 L 951.132813 974.804688 L 951.148438 975.011719 L 951.167969 975.21875 L 951.199219 975.425781 L 951.265625 975.839844 L 951.351563 976.25 L 951.445313 976.660156 L 951.5 976.863281 L 951.5625 977.0625 L 951.582031 977.121094 L 951.632813 977.265625 L 951.707031 977.464844 L 951.789063 977.664063 L 951.957031 978.058594 L 952.488281 979.238281 L 952.652344 979.628906 L 952.726563 979.824219 L 952.789063 980.019531 L 952.835938 980.210938 L 952.867188 980.40625 L 952.875 980.597656 L 952.847656 980.785156 L 952.792969 980.976563 L 952.722656 981.164063 L 952.636719 981.351563 L 952.542969 981.539063 L 952.441406 981.726563 L 952.226563 982.097656 L 951.558594 983.214844 L 951.234375 983.777344 L 950.917969 984.332031 L 950.398438 985.265625 L 950.09375 985.828125 L 949.898438 986.203125 L 949.804688 986.390625 L 949.71875 986.582031 L 949.640625 986.773438 L 949.578125 986.96875 L 949.527344 987.167969 L 949.496094 987.371094 L 949.480469 987.582031 L 949.480469 987.792969 L 949.484375 988.007813 L 949.496094 988.21875 L 949.554688 989.082031 L 949.566406 989.296875 L 949.570313 989.507813 L 949.5625 989.71875 L 949.542969 989.925781 L 949.507813 990.125 L 949.445313 990.316406 L 949.367188 990.5 L 949.277344 990.683594 L 949.171875 990.859375 L 949.0625 991.035156 L 948.945313 991.207031 L 948.820313 991.375 L 948.6875 991.535156 L 948.546875 991.691406 L 948.402344 991.835938 L 948.25 991.976563 L 948.089844 992.113281 L 947.929688 992.242188 L 947.765625 992.375 L 947.433594 992.625 L 947.09375 992.867188 L 946.921875 992.980469 L 946.75 993.089844 L 946.574219 993.191406 L 946.394531 993.28125 L 946.210938 993.355469 L 946.019531 993.410156 L 945.824219 993.449219 L 945.628906 993.476563 L 945.425781 993.5 L 945.019531 993.523438 L 944.605469 993.535156 L 944.195313 993.535156 L 943.988281 993.527344 L 943.558594 993.511719 L 942.914063 993.46875 L 941.625 993.375 L 941.199219 993.347656 L 940.984375 993.339844 L 940.773438 993.335938 L 940.5625 993.335938 L 940.355469 993.347656 L 940.148438 993.367188 L 939.945313 993.40625 L 939.753906 993.457031 L 939.570313 993.527344 L 939.382813 993.609375 L 939.199219 993.695313 L 939.019531 993.789063 L 938.296875 994.183594 L 937.929688 994.371094 L 937.746094 994.460938 L 937.558594 994.542969 L 937.371094 994.613281 L 937.167969 994.675781 L 936.960938 994.726563 L 936.75 994.769531 L 936.328125 994.839844 L 935.902344 994.902344 L 935.113281 995 L 667.023438 867.363281 L 313.746094 609.84375 L 86.34375 409.109375 Z M 0 0 " transform="matrix(1,0,0,-1,0,995)"/>
</g>
</svg>
